<?xml version="1.0" standalone="no"?>
<!DOCTYPE svg PUBLIC "-//W3C//DTD SVG 1.1//EN" "http://www.w3.org/Graphics/SVG/1.1/DTD/svg11.dtd" >
<svg xmlns="http://www.w3.org/2000/svg">
<metadata></metadata>
<defs>
<font id="industryblack" horiz-adv-x="1124" >
<font-face units-per-em="2048" ascent="1638" descent="-410" />
<missing-glyph horiz-adv-x="540" />
<glyph unicode="&#xfb01;" horiz-adv-x="1392" d="M51 834v272h172v162q0 120 83.5 203t203.5 83h278v-282h-202q-12 0 -21.5 -7.5t-9.5 -19.5v-139h233v-272h-233v-834h-332v834h-172zM934 1260v294h346v-294h-346zM942 0v1106h330v-1106h-330z" />
<glyph unicode="&#xfb02;" horiz-adv-x="1382" d="M51 834v272h172v162q0 120 83.5 203t203.5 83h278v-282h-202q-12 0 -21.5 -7.5t-9.5 -19.5v-139h233v-272h-233v-834h-332v834h-172zM936 0v1554h332v-1554h-332z" />
<glyph horiz-adv-x="0" />
<glyph horiz-adv-x="682" />
<glyph unicode=" "  horiz-adv-x="540" />
<glyph unicode="&#x09;" horiz-adv-x="540" />
<glyph unicode="&#xa0;" horiz-adv-x="540" />
<glyph unicode="!" horiz-adv-x="550" d="M92 1475h367l-64 -947h-239zM113 0v334h325v-334h-325z" />
<glyph unicode="&#x22;" horiz-adv-x="987" d="M104 1475h330l-80 -543h-170zM553 1475h330l-80 -543h-170z" />
<glyph unicode="#" horiz-adv-x="1644" d="M59 328v313h263l73 217h-194v313h301l102 304h322l-103 -304h285l102 304h322l-102 -304h157v-313h-264l-74 -217h197v-313h-303l-111 -328h-323l110 328h-282l-111 -328h-324l111 328h-154zM643 641h285l73 217h-284z" />
<glyph unicode="$" horiz-adv-x="1277" d="M109 915v279q0 126 81 207.5t207 81.5h99v207h270v-207h90q126 0 208.5 -81.5t82.5 -207.5v-188h-334v110q0 21 -10 29t-33 8h-29v-258l136 -29q123 -26 208.5 -105.5t85.5 -189.5v-290q0 -126 -81 -207.5t-207 -81.5h-117v-207h-270v207h-97q-126 0 -207 81.5t-81 207.5 v202h331v-125q0 -21 10.5 -28.5t34.5 -7.5h35v274l-119 25q-123 26 -208.5 105t-85.5 189zM453 983q0 -15 9 -24t34 -15l26 -2v211h-26q-23 0 -33 -8t-10 -29v-133zM739 322h43q24 0 34.5 7.5t10.5 28.5v146q0 30 -45 39l-43 8v-229z" />
<glyph unicode="%" horiz-adv-x="1267" d="M76 1040v312q0 58 36 94.5t95 36.5h205q58 0 94.5 -36.5t36.5 -94.5v-312q0 -58 -36.5 -94.5t-94.5 -36.5h-205q-59 0 -95 36.5t-36 94.5zM180 0l627 1475h274l-624 -1475h-277zM238 1096q0 -14 8 -24.5t22 -10.5h86q13 0 20 10.5t7 24.5v200q0 14 -7 24.5t-20 10.5h-86 q-14 0 -22 -10.5t-8 -24.5v-200zM727 123v311q0 58 36.5 94.5t94.5 36.5h205q59 0 95 -36.5t36 -94.5v-311q0 -59 -36 -95t-95 -36h-205q-58 0 -94.5 36t-36.5 95zM889 178q0 -14 8.5 -24.5t22.5 -10.5h86q26 0 26 35v201q0 35 -26 35h-86q-14 0 -22.5 -10.5t-8.5 -24.5 v-201z" />
<glyph unicode="&#x26;" horiz-adv-x="1347" d="M115 281v249q0 149 143 222q-127 76 -127 221v221q0 126 81.5 207.5t207.5 81.5h383q126 0 207.5 -81.5t81.5 -207.5v-150h-344v76q0 23 -10.5 32t-32.5 9h-187q-22 0 -32.5 -9t-10.5 -32v-174q0 -41 39 -41h803v-305h-141v-319q0 -126 -82.5 -207.5t-208.5 -81.5h-482 q-126 0 -207 81.5t-81 207.5zM459 354q0 -23 10.5 -32t32.5 -9h284q24 0 34.5 9t10.5 32v246h-317q-55 0 -55 -43v-203z" />
<glyph unicode="'" horiz-adv-x="536" d="M104 1475h330l-80 -543h-170z" />
<glyph unicode="(" horiz-adv-x="831" d="M162 72v1245q0 126 81.5 207.5t207.5 81.5h282v-326h-184q-43 0 -43 -41v-1089q0 -41 43 -41h184v-326h-282q-126 0 -207.5 81.5t-81.5 207.5z" />
<glyph unicode=")" horiz-adv-x="831" d="M100 109v-326h283q126 0 207.5 81.5t81.5 207.5v1245q0 126 -81.5 207.5t-207.5 81.5h-283v-326h185q43 0 43 -41v-1089q0 -41 -43 -41h-185z" />
<glyph unicode="*" horiz-adv-x="872" d="M27 1079l79 258l269 -163l-72 301h268l-71 -301l262 161l86 -254l-311 -24l233 -201l-217 -158l-119 287l-115 -285l-221 156l234 203z" />
<glyph unicode="+" horiz-adv-x="1040" d="M109 612v291h266v240h293v-240h266v-291h-266v-239h-293v239h-266z" />
<glyph unicode="," horiz-adv-x="530" d="M55 -283l170 283h-121v332h322v-240q0 -43 -27.5 -90t-79.5 -111l-141 -174h-123z" />
<glyph unicode="-" horiz-adv-x="972" d="M96 518v309h781v-309h-781z" />
<glyph unicode="." horiz-adv-x="530" d="M104 0v332h322v-332h-322z" />
<glyph unicode="/" horiz-adv-x="1107" d="M23 -143l725 1761h337l-725 -1761h-337z" />
<glyph unicode="0" horiz-adv-x="1292" d="M115 281v913q0 126 81 207.5t207 81.5h484q126 0 207.5 -81.5t81.5 -207.5v-913q0 -126 -81.5 -207.5t-207.5 -81.5h-484q-126 0 -207 81.5t-81 207.5zM459 358q0 -41 43 -41h286q43 0 43 41v758q0 41 -43 41h-286q-43 0 -43 -41v-758z" />
<glyph unicode="1" horiz-adv-x="882" d="M78 1024v283l350 168h268v-1475h-344v1116z" />
<glyph unicode="2" horiz-adv-x="1243" d="M109 0h1052v326h-708v125q0 32 12.5 43.5t46.5 19.5l350 107q124 35 209.5 110t85.5 184v273q0 118 -88.5 206.5t-206.5 88.5h-444q-117 0 -206 -88.5t-89 -206.5v-168h334v80q0 57 59 57h238q30 0 44.5 -12.5t14.5 -42.5v-98q0 -33 -12.5 -44.5t-46.5 -19.5l-351 -106 q-78 -22 -141.5 -59t-108 -99t-44.5 -137v-539z" />
<glyph unicode="3" horiz-adv-x="1245" d="M96 287v170h344v-86q0 -58 60 -58h237q62 0 62 58v170q0 59 -74 59h-256v305h256q29 0 43 12t14 46v141q0 57 -61 57h-205q-59 0 -59 -57v-86h-344v170q0 118 88.5 206.5t206.5 88.5h423q117 0 206 -88.5t89 -206.5v-215q0 -145 -127 -221q144 -74 144 -222v-243 q0 -118 -89 -206.5t-206 -88.5h-457q-119 0 -207 88t-88 207z" />
<glyph unicode="4" horiz-adv-x="1343" d="M47 530l688 945h367v-900h205v-305h-205v-270h-332v270h-649zM430 575h340v476z" />
<glyph unicode="5" horiz-adv-x="1316" d="M121 287v170h344v-82q0 -58 59 -58h262q60 0 60 58v231q0 58 -58 58h-83q-110 0 -199 -54l-19 -10l-344 98v777h1000v-326h-656v-330l19 25q111 123 237 123h150q120 0 208.5 -88.5t88.5 -208.5v-383q0 -119 -88 -207t-207 -88h-479q-118 0 -206.5 88t-88.5 207z" />
<glyph unicode="6" horiz-adv-x="1296" d="M115 287v901q0 118 88.5 206.5t206.5 88.5h464q118 0 206.5 -88.5t88.5 -206.5v-141h-344v53q0 57 -59 57h-248q-59 0 -59 -57v-320l18 25q113 125 238 125h174q118 0 206.5 -89t88.5 -206v-348q0 -119 -88 -207t-207 -88h-479q-118 0 -206.5 88t-88.5 207zM459 375 q0 -58 59 -58h262q60 0 60 58v192q0 58 -60 58h-104q-113 0 -199 -54l-18 -10v-186z" />
<glyph unicode="7" horiz-adv-x="1206" d="M82 0l670 1149h-668v326h1079v-269l-700 -1206h-381z" />
<glyph unicode="8" horiz-adv-x="1263" d="M102 287v245q0 148 144 222q-127 76 -127 221v213q0 118 88.5 206.5t206.5 88.5h434q118 0 206.5 -88.5t88.5 -206.5v-213q0 -145 -127 -221q143 -73 143 -222v-245q0 -119 -88.5 -207t-206.5 -88h-467q-119 0 -207 88t-88 207zM446 371q0 -58 60 -58h250q59 0 59 58v172 q0 57 -72 57h-225q-72 0 -72 -57v-172zM463 965q0 -36 13.5 -48t41.5 -12h225q28 0 42 12.5t14 47.5v139q0 57 -60 57h-217q-59 0 -59 -57v-139z" />
<glyph unicode="9" horiz-adv-x="1296" d="M113 846v342q0 118 88.5 206.5t206.5 88.5h479q119 0 207 -88.5t88 -206.5v-901q0 -119 -88 -207t-207 -88h-465q-117 0 -206 88.5t-89 206.5v141h344v-53q0 -58 61 -58h246q60 0 60 58v321l-17 -24q-22 -23 -38.5 -38t-48.5 -38t-70 -35t-80 -12h-174 q-120 0 -208.5 88.5t-88.5 208.5zM457 909q0 -57 59 -57h105q113 0 200 53l17 10v185q0 57 -60 57h-262q-59 0 -59 -57v-191z" />
<glyph unicode=":" horiz-adv-x="530" d="M104 0v332h322v-332h-322zM104 774v332h322v-332h-322z" />
<glyph unicode=";" horiz-adv-x="530" d="M55 -283l170 283h-121v332h322v-240q0 -43 -27.5 -90t-79.5 -111l-141 -174h-123zM104 774v332h322v-332h-322z" />
<glyph unicode="&#x3c;" horiz-adv-x="1040" d="M100 616l818 -358v295l-488 190l488 193v295l-818 -361v-254z" />
<glyph unicode="=" horiz-adv-x="1040" d="M109 387v305h825v-305h-825zM109 840v305h825v-305h-825z" />
<glyph unicode="&#x3e;" horiz-adv-x="1040" d="M125 258l817 358v254l-817 361v-295l487 -193l-487 -190v-295z" />
<glyph unicode="?" horiz-adv-x="1159" d="M27 1016v178q0 126 81 207.5t207 81.5h494q126 0 207.5 -81.5t81.5 -207.5v-289q0 -22 -7 -43t-17.5 -38.5t-30 -37t-36 -33.5t-45 -33.5t-47.5 -31.5t-53 -33.5t-53 -33.5l-92 -58q-43 -25 -43 -47v-59h-344v143q0 23 8.5 45.5t28.5 46t38 42t51.5 43.5t53 39t60 41.5 t55.5 37.5l86 55q43 34 43 41v125q0 41 -43 41h-297q-43 0 -43 -41v-100h-344zM328 0v319h344v-319h-344z" />
<glyph unicode="@" horiz-adv-x="2039" d="M158 -47v1241q0 126 81 207.5t207 81.5h1149q126 0 207.5 -81.5t81.5 -207.5v-791q0 -126 -81.5 -207t-207.5 -81h-430l-41 147l-34 -45q-37 -47 -95 -79t-108 -32h-56q-126 0 -207 81.5t-81 207.5v353q0 126 81 207t207 81h56q50 0 108 -31.5t95 -78.5l34 -45l41 147 h299v-737h131q45 0 45 112v824q0 10 -8.5 17t-19.5 7h-1182q-11 0 -20 -7t-9 -17v-1307q0 -10 9 -17t20 -7h1061v-232h-1045q-126 0 -207 81.5t-81 207.5zM883 416q0 -35 39 -35h2q67 0 159 43l39 18v258l-39 19q-92 43 -159 43h-2q-39 0 -39 -35v-311z" />
<glyph unicode="A" horiz-adv-x="1366" d="M23 0l458 1475h402l458 -1475h-370l-80 299h-430l-82 -299h-356zM551 625h254l-125 471z" />
<glyph unicode="B" horiz-adv-x="1325" d="M150 0v1475h765q126 0 207.5 -81.5t81.5 -207.5v-211q0 -145 -127 -221q144 -74 144 -222v-243q0 -126 -81.5 -207.5t-207.5 -81.5h-782zM494 322h340q23 0 33 9t10 31v201q0 15 -3.5 23.5t-11.5 11.5t-14 3.5t-19 -0.5t-18 -1h-317v-278zM494 905h327q23 0 31 7.5 t8 35.5v164q0 23 -10.5 32t-32.5 9h-323v-248z" />
<glyph unicode="C" horiz-adv-x="1269" d="M115 281v913q0 126 81 207.5t207 81.5h488q126 0 207.5 -81.5t81.5 -207.5v-266h-344v188q0 41 -43 41h-291q-43 0 -43 -41v-758q0 -41 43 -41h291q43 0 43 41v189h344v-266q0 -126 -81.5 -207.5t-207.5 -81.5h-488q-126 0 -207 81.5t-81 207.5z" />
<glyph unicode="D" horiz-adv-x="1343" d="M150 0v1475h788q126 0 207.5 -81.5t81.5 -207.5v-897q0 -126 -81.5 -207.5t-207.5 -81.5h-788zM494 326h346q43 0 43 41v741q0 41 -43 41h-346v-823z" />
<glyph unicode="E" horiz-adv-x="1226" d="M150 0v1475h983v-326h-639v-231h510v-328h-510v-264h639v-326h-983z" />
<glyph unicode="F" horiz-adv-x="1189" d="M150 0v1475h983v-326h-639v-244h510v-325h-510v-580h-344z" />
<glyph unicode="G" horiz-adv-x="1308" d="M115 281v913q0 126 81 207.5t207 81.5h506q126 0 208.5 -81.5t82.5 -207.5v-213h-344v135q0 41 -45 41h-309q-43 0 -43 -41v-756q0 -43 43 -43h309q45 0 45 41v177h-235v309h579v-563q0 -126 -82.5 -207.5t-208.5 -81.5h-506q-126 0 -207 81.5t-81 207.5z" />
<glyph unicode="H" horiz-adv-x="1421" d="M150 0v1475h344v-557h432v557h344v-1475h-344v590h-432v-590h-344z" />
<glyph unicode="I" horiz-adv-x="645" d="M150 0v1475h344v-1475h-344z" />
<glyph unicode="J" horiz-adv-x="1202" d="M43 281v356h344v-279q0 -41 43 -41h256q43 0 43 41v1117h344v-1194q0 -126 -81.5 -207.5t-207.5 -81.5h-452q-126 0 -207.5 81.5t-81.5 207.5z" />
<glyph unicode="K" horiz-adv-x="1359" d="M150 0v1475h337v-629l437 629h399l-432 -574l448 -901h-385l-295 598l-172 -229v-369h-337z" />
<glyph unicode="L" horiz-adv-x="1130" d="M150 0v1475h344v-1149h587v-326h-931z" />
<glyph unicode="M" horiz-adv-x="1740" d="M150 0v1475h370l350 -797l349 797h370v-1475h-325v889l-275 -653h-239l-275 653v-889h-325z" />
<glyph unicode="N" horiz-adv-x="1464" d="M150 0v1475h364l475 -914v914h324v-1475h-365l-475 911v-911h-323z" />
<glyph unicode="O" horiz-adv-x="1323" d="M115 281v913q0 126 81 207.5t207 81.5h515q126 0 207 -81.5t81 -207.5v-913q0 -126 -81 -207.5t-207 -81.5h-515q-126 0 -207 81.5t-81 207.5zM459 358q0 -41 43 -41h317q43 0 43 41v758q0 41 -43 41h-317q-43 0 -43 -41v-758z" />
<glyph unicode="P" horiz-adv-x="1277" d="M150 0v1475h774q126 0 207 -81.5t81 -207.5v-395q0 -126 -81 -207.5t-207 -81.5h-430v-502h-344zM494 827h331q43 0 43 41v240q0 41 -43 41h-331v-322z" />
<glyph unicode="Q" horiz-adv-x="1333" d="M115 281v913q0 126 81 207.5t207 81.5h525q126 0 207.5 -81.5t81.5 -207.5v-913q0 -118 -71.5 -197t-184.5 -90l110 -268h-309l-111 266h-248q-126 0 -207 81.5t-81 207.5zM459 358q0 -41 43 -41h327q43 0 43 41v758q0 41 -43 41h-327q-43 0 -43 -41v-758z" />
<glyph unicode="R" horiz-adv-x="1327" d="M150 0v1475h772q126 0 207 -81.5t81 -207.5v-371q0 -95 -48 -167t-130 -103l223 -545h-368l-211 524h-182v-524h-344zM494 846h329q43 0 43 41v221q0 41 -43 41h-329v-303z" />
<glyph unicode="S" horiz-adv-x="1277" d="M109 920v274q0 126 81 207.5t207 81.5h459q126 0 208.5 -81.5t82.5 -207.5v-188h-334v114q0 21 -10 29t-33 8h-274q-23 0 -33 -8t-10 -29v-139q0 -15 9 -24t34 -15l381 -78q294 -59 294 -295v-288q0 -126 -81 -207.5t-207 -81.5h-484q-126 0 -207 81.5t-81 207.5v202h331 v-129q0 -21 10.5 -29t34.5 -8h297q23 0 33 8t10 29v154q0 28 -43 37l-381 80q-294 63 -294 295z" />
<glyph unicode="T" horiz-adv-x="1169" d="M47 1153v322h1077v-322h-366v-1153h-344v1153h-367z" />
<glyph unicode="U" horiz-adv-x="1325" d="M127 281v1194h344v-1117q0 -41 43 -41h295q43 0 43 41v1117h344v-1194q0 -126 -81.5 -207.5t-207.5 -81.5h-491q-126 0 -207.5 81.5t-81.5 207.5z" />
<glyph unicode="V" horiz-adv-x="1327" d="M29 1475h395l240 -1057l247 1057h387l-436 -1475h-397z" />
<glyph unicode="W" horiz-adv-x="1861" d="M29 1475h368l160 -1012l248 1012h266l250 -1012l160 1012h352l-354 -1475h-320l-221 885l-219 -885h-336z" />
<glyph unicode="X" horiz-adv-x="1306" d="M18 0l431 762l-418 713h393l246 -420l231 420h377l-418 -744l428 -731h-393l-258 442l-242 -442h-377z" />
<glyph unicode="Y" horiz-adv-x="1226" d="M6 1475h375l233 -592l234 592h375l-437 -977v-498h-344v498z" />
<glyph unicode="Z" horiz-adv-x="1226" d="M86 0v264l619 889h-582v322h1018v-265l-617 -888h613v-322h-1051z" />
<glyph unicode="[" horiz-adv-x="798" d="M162 -217v1823h538v-326h-194v-1171h194v-326h-538z" />
<glyph unicode="\" horiz-adv-x="1107" d="M23 1618h337l725 -1761h-337z" />
<glyph unicode="]" horiz-adv-x="798" d="M100 109h195v1171h-195v326h539v-1823h-539v326z" />
<glyph unicode="^" horiz-adv-x="1597" d="M121 463l504 1012h348l506 -1012h-357l-323 649l-324 -649h-354z" />
<glyph unicode="_" horiz-adv-x="1193" d="M12 -90h1170v-305h-1170v305z" />
<glyph unicode="`" horiz-adv-x="720" d="M76 1905l338 -295h233l-184 295h-387z" />
<glyph unicode="a" d="M76 279v124q0 132 77 209.5t209 77.5h48q145 0 272 -37v160q0 12 -9.5 19.5t-21.5 7.5h-176q-14 0 -23.5 -7.5t-9.5 -19.5v-63h-329v67q0 120 88.5 208.5t208.5 88.5h305q120 0 208.5 -88.5t88.5 -208.5v-817h-330v141l-18 -24q-1 -1 -13 -14.5t-16.5 -18t-17.5 -18 t-21.5 -19t-23 -16.5t-27.5 -16t-30 -11.5t-35 -9t-38 -2.5h-80q-120 0 -203 83.5t-83 203.5zM406 322q0 -33 36 -33h39q96 0 183 53l18 10v113h-246q-30 0 -30 -27v-116z" />
<glyph unicode="b" horiz-adv-x="1161" d="M125 0v1554h330v-589l18 24q113 125 238 125h77q120 0 203.5 -83.5t83.5 -203.5v-548q0 -120 -83.5 -203.5t-203.5 -83.5h-77q-125 0 -238 125l-18 24v-141h-330zM457 352l16 -10q87 -53 201 -53h35q36 0 36 33v462q0 33 -36 33h-35q-114 0 -201 -53l-16 -10v-402z" />
<glyph unicode="c" horiz-adv-x="1093" d="M88 279v548q0 120 83.5 203.5t203.5 83.5h348q120 0 203.5 -83.5t83.5 -203.5v-147h-330v131q0 13 -9.5 21t-23.5 8h-196q-14 0 -23.5 -8t-9.5 -21v-516q0 -13 9.5 -21t23.5 -8h196q14 0 23.5 8t9.5 21v131h330v-147q0 -120 -83.5 -203.5t-203.5 -83.5h-348 q-120 0 -203.5 83.5t-83.5 203.5z" />
<glyph unicode="d" horiz-adv-x="1161" d="M88 279v548q0 120 83.5 203.5t203.5 83.5h78q124 0 237 -125l19 -24v589h329v-1554h-329v141l-19 -24q-113 -125 -237 -125h-78q-120 0 -203.5 83.5t-83.5 203.5zM418 322q0 -33 37 -33h34q114 0 201 53l17 10v402l-17 10q-87 53 -201 53h-34q-37 0 -37 -33v-462z" />
<glyph unicode="e" horiz-adv-x="1103" d="M88 279v548q0 120 83.5 203.5t203.5 83.5h358q120 0 203.5 -83.5t83.5 -203.5v-374h-602v-156q0 -13 9.5 -21t23.5 -8h206q14 0 22.5 8t8.5 21v65h332v-83q0 -120 -83.5 -203.5t-203.5 -83.5h-358q-120 0 -203.5 83.5t-83.5 203.5zM418 672h270v137q0 13 -8.5 21t-22.5 8 h-206q-14 0 -23.5 -8t-9.5 -21v-137z" />
<glyph unicode="f" horiz-adv-x="821" d="M51 834v272h172v162q0 120 83.5 203t203.5 83h278v-282h-202q-12 0 -21.5 -7.5t-9.5 -19.5v-139h233v-272h-233v-834h-332v834h-172z" />
<glyph unicode="g" horiz-adv-x="1161" d="M88 354v473q0 120 83.5 203.5t203.5 83.5h78q124 0 237 -125l19 -24v141h329v-1225q0 -120 -83 -203.5t-203 -83.5h-338q-120 0 -203.5 83.5t-83.5 203.5v84h315v-59q0 -27 12.5 -38t41.5 -11h159q29 0 41.5 11t12.5 38v311l-19 -24q-113 -125 -237 -125h-78 q-120 0 -203.5 83t-83.5 203zM418 399q0 -32 37 -32h34q113 0 201 51l17 12v324l-17 10q-87 53 -201 53h-34q-37 0 -37 -33v-385z" />
<glyph unicode="h" horiz-adv-x="1173" d="M125 0v1554h330v-589l18 24q113 125 238 125h63q120 0 203.5 -83.5t83.5 -203.5v-827h-330v784q0 33 -37 33h-22q-112 0 -199 -53l-18 -10v-754h-330z" />
<glyph unicode="i" horiz-adv-x="571" d="M113 1260v294h346v-294h-346zM121 0v1106h330v-1106h-330z" />
<glyph unicode="j" horiz-adv-x="587" d="M-76 -129h180q14 0 22.5 8t8.5 21v1206h332v-1235q0 -120 -83.5 -203.5t-203.5 -83.5h-256v287zM123 1260v294h350v-294h-350z" />
<glyph unicode="k" horiz-adv-x="1210" d="M125 0v1475h326v-836l329 467h402l-379 -447l395 -659l-352 -2l-254 414l-141 -168v-244h-326z" />
<glyph unicode="l" horiz-adv-x="561" d="M115 0v1554h331v-1554h-331z" />
<glyph unicode="m" horiz-adv-x="1732" d="M125 0v1106h330v-141l18 24q113 125 238 125h37q86 0 157 -47t105 -123l43 45q22 24 39 40t48 38.5t69 34.5t81 12h37q120 0 203.5 -83.5t83.5 -203.5v-827h-332v784q0 33 -37 33h-14q-96 0 -178 -53l-19 -10v-754h-329v784q0 33 -37 33h-17q-80 0 -178 -53l-18 -10v-754 h-330z" />
<glyph unicode="n" horiz-adv-x="1173" d="M125 0v1106h330v-141l18 24q113 125 238 125h63q120 0 203.5 -83.5t83.5 -203.5v-827h-330v784q0 33 -37 33h-22q-112 0 -199 -53l-18 -10v-754h-330z" />
<glyph unicode="o" d="M88 279v548q0 120 83.5 203.5t203.5 83.5h377q120 0 203 -83.5t83 -203.5v-548q0 -120 -83 -203.5t-203 -83.5h-377q-120 0 -203.5 83.5t-83.5 203.5zM418 293q0 -12 9.5 -19.5t21.5 -7.5h227q12 0 21.5 7.5t9.5 19.5v520q0 12 -9.5 19.5t-21.5 7.5h-227 q-12 0 -21.5 -7.5t-9.5 -19.5v-520z" />
<glyph unicode="p" horiz-adv-x="1161" d="M125 -397v1503h330v-141l18 24q113 125 238 125h77q120 0 203.5 -83.5t83.5 -203.5v-548q0 -120 -83.5 -203.5t-203.5 -83.5h-77q-125 0 -238 125l-18 24v-538h-330zM455 352l18 -10q85 -53 199 -53h35q36 0 36 33v462q0 33 -36 33h-35q-114 0 -199 -53l-18 -10v-402z " />
<glyph unicode="q" horiz-adv-x="1161" d="M88 279v548q0 120 83.5 203.5t203.5 83.5h78q124 0 237 -125l19 -24v141h329v-1503h-329v538l-19 -24q-113 -125 -237 -125h-78q-120 0 -203.5 83.5t-83.5 203.5zM418 322q0 -33 37 -33h34q114 0 201 53l17 10v402l-17 10q-87 53 -201 53h-34q-37 0 -37 -33v-462z" />
<glyph unicode="r" horiz-adv-x="901" d="M125 0v1106h330v-141l18 24q113 125 238 125h145v-305h-184q-111 0 -199 -51l-18 -13v-745h-330z" />
<glyph unicode="s" horiz-adv-x="1087" d="M78 285v80h332v-60q0 -15 10 -23t26 -8h195q16 0 26.5 8.5t10.5 22.5v53q0 16 -11.5 28t-27.5 15l-303 48q-124 19 -184 82t-60 155v135q0 121 86 207t207 86h303q123 0 209 -85.5t86 -207.5v-61h-332v57q0 14 -12 22.5t-25 8.5h-153q-39 0 -39 -31v-59q0 -16 12.5 -29 t28.5 -16l303 -47q123 -20 183.5 -82.5t60.5 -155.5v-143q0 -122 -86 -207.5t-209 -85.5h-344q-121 0 -207 86t-86 207z" />
<glyph unicode="t" horiz-adv-x="880" d="M41 834v272h172v369h322v-369h286v-272h-282v-519q0 -26 30 -26h252v-289h-325q-120 0 -203.5 83.5t-83.5 203.5v547h-168z" />
<glyph unicode="u" horiz-adv-x="1173" d="M113 279v827h329v-784q0 -33 37 -33h23q113 0 198 53l19 10v754h330v-1106h-330v141l-19 -24q-113 -125 -237 -125h-64q-120 0 -203 83.5t-83 203.5z" />
<glyph unicode="v" horiz-adv-x="1110" d="M27 1106h354l182 -807l185 807h333l-348 -1106h-356z" />
<glyph unicode="w" horiz-adv-x="1640" d="M27 1106h346l157 -774l158 774h289l158 -774l155 774h322l-312 -1106h-331l-138 637l-137 -637h-329z" />
<glyph unicode="x" horiz-adv-x="1093" d="M25 0l331 571l-327 535h358l172 -281l158 281h338l-326 -557l336 -549h-358l-181 295l-164 -295h-337z" />
<glyph unicode="y" horiz-adv-x="1136" d="M27 1106h321l215 -698l236 698h311l-524 -1503h-295l135 397z" />
<glyph unicode="z" horiz-adv-x="1001" d="M59 0v240l455 577h-442v289h850v-234l-455 -583h475v-289h-883z" />
<glyph unicode="{" horiz-adv-x="964" d="M80 549v297h172q19 0 31 10.5t12 30.5v430q0 126 81.5 207.5t207.5 81.5h282v-326h-184q-43 0 -43 -41v-362q0 -44 -17 -81t-35 -56t-46 -42q98 -75 98 -178v-370q0 -41 43 -41h184v-326h-282q-126 0 -207.5 81.5t-81.5 207.5v436q0 20 -12 30.5t-31 10.5h-172z" />
<glyph unicode="|" horiz-adv-x="755" d="M217 -442v2054h322v-2054h-322z" />
<glyph unicode="}" horiz-adv-x="964" d="M100 109h185q43 0 43 41v370q0 103 98 178q-28 23 -46 42t-35 56t-17 81v362q0 41 -43 41h-185v326h283q126 0 207.5 -81.5t81.5 -207.5v-430q0 -20 12 -30.5t31 -10.5h172v-297h-172q-19 0 -31 -10.5t-12 -30.5v-436q0 -126 -81.5 -207.5t-207.5 -81.5h-283v326z" />
<glyph unicode="~" horiz-adv-x="1040" d="M135 524h166l45 88l348 -73q93 -22 123 61l90 229h-170l-47 -84l-346 70q-95 22 -125 -63z" />
<glyph unicode="&#xa1;" horiz-adv-x="550" d="M92 -369l64 947h239l64 -947h-367zM113 772v334h325v-334h-325z" />
<glyph unicode="&#xa2;" horiz-adv-x="1218" d="M109 483v521q0 126 81 207t207 81h82v183h283v-183h63q126 0 207.5 -81t81.5 -207v-162h-307v119q0 21 -9 28.5t-32 7.5h-31v-508h31q22 0 31.5 8t9.5 29v119h307v-162q0 -126 -81.5 -207t-207.5 -81h-63v-195h-283v195h-82q-126 0 -207 81t-81 207zM416 526 q0 -21 10 -29t33 -8h45v508h-45q-23 0 -33 -7.5t-10 -28.5v-435z" />
<glyph unicode="&#xa3;" horiz-adv-x="1286" d="M43 0v326h107q61 0 61 61v164h-168v323h168v314q0 138 78.5 216.5t216.5 78.5h383q138 0 216.5 -78.5t78.5 -216.5v-199h-344v127q0 41 -43 41h-199q-43 0 -43 -41v-242h246v-323h-246v-225h637v-326h-1149z" />
<glyph unicode="&#xa4;" horiz-adv-x="1226" d="M12 332l181 180q-9 35 -9 76v332q0 37 6 71l-178 178l201 205l178 -178q33 8 78 8h291q45 0 76 -8l178 178l200 -205l-176 -176q6 -37 6 -73v-332q0 -45 -8 -78l178 -178l-200 -205l-183 182q-35 -6 -71 -6h-291q-37 0 -74 6l-182 -182zM469 608q0 -21 10 -29t33 -8h203 q23 0 33 8t10 29v291q0 21 -10 29t-33 8h-203q-23 0 -33 -8t-10 -29v-291z" />
<glyph unicode="&#xa5;" horiz-adv-x="1226" d="M6 1475h375l233 -590l234 590h375l-349 -783h213v-149h-278l-23 -51v-27h301v-150h-301v-315h-344v315h-303v150h303v27l-22 51h-281v149h215z" />
<glyph unicode="&#xa6;" horiz-adv-x="755" d="M217 369h322v-811h-322v811zM217 801v811h322v-811h-322z" />
<glyph unicode="&#xa7;" horiz-adv-x="1101" d="M88 100v88h328v-51q0 -37 43 -37h172q43 0 43 37v62q0 25 -11 35.5t-34 13.5l-289 49q-103 18 -170.5 82t-67.5 156v192q0 39 17 77t31.5 56t44.5 51q-3 3 -12.5 12t-14 13.5t-12.5 14t-12.5 16t-10.5 17t-9 20t-5 22t-2 25.5v139q0 122 85.5 207.5t207.5 85.5h284 q122 0 207.5 -85.5t85.5 -207.5v-74h-328v53q0 37 -41 37h-131q-45 0 -45 -37v-57q0 -22 11 -32t34 -13l287 -49q103 -18 171.5 -82t68.5 -156v-215q0 -28 -10 -56.5t-17 -41.5t-29 -43.5t-24 -32.5q5 -6 20 -23.5t22.5 -28.5t15 -31.5t7.5 -43.5v-164q0 -122 -85.5 -207.5 t-206.5 -85.5h-326q-121 0 -207 85.5t-86 207.5zM428 596q0 -22 11 -32t34 -13l174 -29q19 -2 30 8t11 29v156q0 25 -11.5 35.5t-33.5 13.5l-176 31q-21 3 -30 -8t-9 -31v-160z" />
<glyph unicode="&#xa8;" horiz-adv-x="1310" d="M297 1618v270h281v-270h-281zM733 1618v270h281v-270h-281z" />
<glyph unicode="&#xa9;" horiz-adv-x="1734" d="M158 281v913q0 126 81 207.5t207 81.5h842q126 0 208.5 -81.5t82.5 -207.5v-913q0 -126 -82.5 -207.5t-208.5 -81.5h-842q-126 0 -207 81.5t-81 207.5zM373 281q0 -35 20 -60.5t53 -25.5h842q33 0 53.5 25.5t20.5 60.5v913q0 35 -20.5 60.5t-53.5 25.5h-842 q-33 0 -53 -25.5t-20 -60.5v-913zM516 477v520q0 92 55.5 147.5t147.5 55.5h299q94 0 149.5 -55.5t55.5 -147.5v-155h-242v100q0 31 -35 31h-153q-37 0 -37 -31v-410q0 -30 37 -30h153q35 0 35 30v101h242v-156q0 -92 -55.5 -147.5t-149.5 -55.5h-299q-92 0 -147.5 55.5 t-55.5 147.5z" />
<glyph unicode="&#xaa;" horiz-adv-x="802" d="M94 936v74q0 86 50 135t137 49h26q105 0 195 -25v88q0 35 -35 35h-109q-36 0 -36 -35v-16h-205v43q0 79 57.5 137t134.5 58h205q81 0 138 -57.5t57 -137.5v-528h-207v102l-33 -43q-60 -65 -121 -65h-67q-78 0 -132.5 54.5t-54.5 131.5zM111 477v176h598v-176h-598z M301 963q0 -23 27 -23h47q33 0 100 23l29 10v84h-178q-14 0 -19.5 -5.5t-5.5 -17.5v-71z" />
<glyph unicode="&#xab;" horiz-adv-x="1175" d="M23 662v114l262 369h344l-305 -426l305 -424h-344zM530 662v114l263 369h344l-306 -426l306 -424h-344z" />
<glyph unicode="&#xad;" horiz-adv-x="972" d="M96 518v309h781v-309h-781z" />
<glyph unicode="&#xae;" horiz-adv-x="831" d="M96 842v510q0 54 38.5 92.5t92.5 38.5h348q72 0 115 -37.5t43 -93.5v-510q0 -54 -38.5 -92.5t-92.5 -38.5h-375q-54 0 -92.5 38.5t-38.5 92.5zM180 842q0 -21 12.5 -36t36.5 -15h375q24 0 36.5 15t12.5 36v510q0 51 -75 51h-349q-24 0 -36.5 -15t-12.5 -36v-510zM262 872 v447h225q41 0 64.5 -23.5t23.5 -64.5v-96q0 -35 -16.5 -57.5t-44.5 -30.5l68 -175h-93l-65 175h-76v-175h-86zM350 1128h125q17 0 17 17v76q0 18 -17 18h-125v-111z" />
<glyph unicode="&#xaf;" horiz-adv-x="1263" d="M322 1630v256h579v-256h-579z" />
<glyph unicode="&#xb0;" horiz-adv-x="653" d="M109 1157v205q0 51 32.5 84t83.5 33h203q51 0 84 -33t33 -84v-205q0 -51 -33 -84t-84 -33h-203q-51 0 -83.5 33t-32.5 84zM242 1178q0 -11 7 -18t17 -7h121q11 0 18 7.5t7 17.5v163q0 11 -7 18t-18 7h-121q-10 0 -17 -7t-7 -18v-163z" />
<glyph unicode="&#xb1;" horiz-adv-x="1040" d="M109 135v287h825v-287h-825zM109 776v293h266v240h293v-240h266v-293h-266v-237h-293v237h-266z" />
<glyph unicode="&#xb2;" horiz-adv-x="759" d="M57 864h652v209h-433v53q0 19 6.5 24t28.5 7l215 51q72 15 126.5 61t54.5 107v162q0 65 -54.5 115.5t-126.5 50.5h-278q-72 0 -126 -50.5t-54 -115.5v-98h208v33q0 13 8.5 17.5t28.5 4.5h142q21 0 26.5 -2.5t5.5 -15.5v-39q0 -19 -6 -24t-26 -7l-217 -51 q-72 -15 -126.5 -61t-54.5 -107v-324z" />
<glyph unicode="&#xb3;" horiz-adv-x="757" d="M47 1026v102h219v-45q0 -22 35 -22h139q37 0 37 22v86q0 6 -1 10t-4.5 6.5t-5.5 4t-7.5 2t-8 0.5h-8.5h-8h-153v192h153q12 0 17.5 1t10.5 6.5t5 17.5v72q0 22 -37 22h-119q-37 0 -37 -22v-45h-217v102q0 65 54.5 115.5t126.5 50.5h264q72 0 127 -50.5t55 -115.5v-123 q0 -79 -78 -125q88 -47 88 -125v-139q0 -65 -54 -115.5t-126 -50.5h-287q-69 0 -124.5 51t-55.5 115z" />
<glyph unicode="&#xb4;" horiz-adv-x="724" d="M76 1610l184 295h391l-340 -295h-235z" />
<glyph unicode="&#xb6;" horiz-adv-x="1792" d="M94 791v395q0 126 81.5 207.5t207.5 81.5h1259v-1475h-344v1149h-190v-1149h-344v502h-381q-126 0 -207.5 81.5t-81.5 207.5z" />
<glyph unicode="&#xb7;" horiz-adv-x="524" d="M100 518v332h322v-332h-322z" />
<glyph unicode="&#xb8;" horiz-adv-x="1157" d="M346 -301h254q18 0 18 27v20q0 27 -18 27h-223l102 227h164l-51 -102h47q79 0 125.5 -39t46.5 -113v-20q0 -74 -46.5 -113t-125.5 -39h-190z" />
<glyph unicode="&#xb9;" horiz-adv-x="530" d="M41 1423v176l219 101h170v-836h-217v609z" />
<glyph unicode="&#xba;" horiz-adv-x="800" d="M94 936v356q0 77 55.5 132t133.5 55h235q78 0 133.5 -55t55.5 -132v-356q0 -78 -55.5 -132t-133.5 -54h-235q-78 0 -133.5 54t-55.5 132zM111 477v176h579v-176h-579zM301 961q0 -23 23 -23h151q25 0 25 23v303q0 26 -25 26h-151q-23 0 -23 -26v-303z" />
<glyph unicode="&#xbb;" horiz-adv-x="1175" d="M16 295l306 424l-306 426h344l263 -369v-114l-263 -367h-344zM526 295l305 424l-305 426h344l263 -369v-114l-263 -367h-344z" />
<glyph unicode="&#xbc;" horiz-adv-x="1755" d="M41 1198v176l219 101h170v-836h-217v608zM223 0l864 1475h234l-864 -1475h-234zM926 303l487 533h174v-502h125v-191h-125v-143h-211v143h-399zM1196 334h180v174z" />
<glyph unicode="&#xbd;" horiz-adv-x="1773" d="M41 1198v176l219 101h170v-836h-217v608zM223 0l864 1475h234l-864 -1475h-234zM1071 0h651v209h-432v53q0 19 6.5 24t28.5 7l215 51q72 15 126 61t54 107v162q0 65 -54 115.5t-126 50.5h-278q-72 0 -126.5 -50.5t-54.5 -115.5v-99h209v33q0 23 37 23h141q20 0 26.5 -3 t6.5 -16v-39q0 -19 -6 -23.5t-27 -6.5l-217 -51q-72 -15 -126 -61t-54 -107v-324z" />
<glyph unicode="&#xbe;" horiz-adv-x="1982" d="M47 801v102h219v-45q0 -22 35 -22h139q37 0 37 22v86q0 6 -1 10t-4.5 6.5t-5.5 4t-7.5 2t-8 0.5h-8.5h-8h-153v192h153q12 0 17.5 1t10.5 6.5t5 17.5v71q0 10 -11 16.5t-26 6.5h-119q-15 0 -26 -6.5t-11 -16.5v-45h-217v103q0 65 54.5 115.5t126.5 50.5h264 q72 0 127 -50.5t55 -115.5v-123q0 -79 -78 -125q88 -47 88 -125v-139q0 -65 -54 -115.5t-126 -50.5h-287q-69 0 -124.5 51t-55.5 115zM451 0l864 1475h233l-864 -1475h-233zM1153 303l487 533h175v-502h124v-191h-124v-143h-211v143h-400zM1423 334h181v174z" />
<glyph unicode="&#xbf;" horiz-adv-x="1159" d="M63 -88v289q0 22 7 43t17.5 38.5t30 37t36 33.5t45 33.5t47.5 31.5t53 33.5t53 33.5l92 58q43 25 43 47v59h344v-143q0 -23 -8.5 -45.5t-28.5 -46t-37.5 -41.5t-51.5 -44t-53 -39.5t-60 -41t-55 -37.5l-86 -55q-43 -34 -43 -41v-125q0 -41 43 -41h297q43 0 43 41v100h344 v-178q0 -126 -81.5 -207.5t-207.5 -81.5h-494q-126 0 -207.5 81.5t-81.5 207.5zM487 786v320h344v-320h-344z" />
<glyph unicode="&#xc0;" horiz-adv-x="1366" d="M23 0l458 1475h402l458 -1475h-370l-80 299h-430l-82 -299h-356zM289 1905h387l184 -295h-233zM551 625h254l-125 471z" />
<glyph unicode="&#xc1;" horiz-adv-x="1366" d="M23 0l458 1475h402l458 -1475h-370l-80 299h-430l-82 -299h-356zM512 1610l184 295h391l-339 -295h-236zM551 625h254l-125 471z" />
<glyph unicode="&#xc2;" horiz-adv-x="1366" d="M23 0l458 1475h402l458 -1475h-370l-80 299h-430l-82 -299h-356zM240 1610l305 272h278l303 -272h-280l-162 137l-164 -137h-280zM551 625h254l-125 471z" />
<glyph unicode="&#xc3;" horiz-adv-x="1366" d="M23 0l458 1475h402l458 -1475h-370l-80 299h-430l-82 -299h-356zM360 1610l41 194q9 41 38 53t83 3l305 -64l39 66h144l-45 -197q-17 -76 -119 -53l-311 67l-37 -69h-138zM551 625h254l-125 471z" />
<glyph unicode="&#xc4;" horiz-adv-x="1366" d="M23 0l458 1475h402l458 -1475h-370l-80 299h-430l-82 -299h-356zM326 1618v270h280v-270h-280zM551 625h254l-125 471zM762 1618v270h280v-270h-280z" />
<glyph unicode="&#xc5;" horiz-adv-x="1366" d="M23 0l458 1475h402l458 -1475h-370l-80 299h-430l-82 -299h-356zM477 1679v232q0 26 22 47.5t48 21.5h272q26 0 48 -21.5t22 -47.5v-232q0 -26 -22 -47.5t-48 -21.5h-272q-26 0 -48 21.5t-22 47.5zM551 625h254l-125 471zM608 1751q0 -11 7 -18t18 -7h100q11 0 18 7t7 18 v88q0 11 -7 18t-18 7h-100q-11 0 -18 -7t-7 -18v-88z" />
<glyph unicode="&#xc6;" horiz-adv-x="2105" d="M0 0l741 1475h1270v-326h-633v-223h498v-326h-498v-274h633v-326h-977v299h-512l-143 -299h-379zM680 625h354v518h-104z" />
<glyph unicode="&#xc7;" horiz-adv-x="1269" d="M115 281v913q0 126 81 207.5t207 81.5h488q126 0 207.5 -81.5t81.5 -207.5v-266h-344v188q0 41 -43 41h-291q-43 0 -43 -41v-758q0 -41 43 -41h291q43 0 43 41v189h344v-266q0 -126 -81.5 -207.5t-207.5 -81.5h-166l-47 -94h47q79 0 125.5 -39t46.5 -113v-20 q0 -74 -46.5 -113t-125.5 -39h-190l-103 125h254q19 0 19 27v20q0 27 -19 27h-223l98 219h-158q-126 0 -207 81.5t-81 207.5z" />
<glyph unicode="&#xc8;" horiz-adv-x="1226" d="M150 0v1475h983v-326h-639v-231h510v-328h-510v-264h639v-326h-983zM252 1905l338 -295h233l-184 295h-387z" />
<glyph unicode="&#xc9;" horiz-adv-x="1226" d="M150 0v1475h983v-326h-639v-231h510v-328h-510v-264h639v-326h-983zM475 1610l184 295h392l-340 -295h-236z" />
<glyph unicode="&#xca;" horiz-adv-x="1226" d="M150 0v1475h983v-326h-639v-231h510v-328h-510v-264h639v-326h-983zM203 1610h280l164 137l162 -137h281l-304 272h-278z" />
<glyph unicode="&#xcb;" horiz-adv-x="1226" d="M150 0v1475h983v-326h-639v-231h510v-328h-510v-264h639v-326h-983zM289 1618v270h280v-270h-280zM725 1618v270h281v-270h-281z" />
<glyph unicode="&#xcc;" horiz-adv-x="645" d="M-72 1905l338 -295h234l-185 295h-387zM150 0v1475h344v-1475h-344z" />
<glyph unicode="&#xcd;" horiz-adv-x="645" d="M150 0v1475h344v-1475h-344zM152 1610l184 295h391l-340 -295h-235z" />
<glyph unicode="&#xce;" horiz-adv-x="645" d="M-121 1610h281l164 137l161 -137h281l-303 272h-279zM150 0v1475h344v-1475h-344z" />
<glyph unicode="&#xcf;" horiz-adv-x="645" d="M-35 1618v270h281v-270h-281zM150 0v1475h344v-1475h-344zM401 1618v270h281v-270h-281z" />
<glyph unicode="&#xd0;" horiz-adv-x="1310" d="M-27 569v340h156v566h774q126 0 208.5 -81.5t82.5 -207.5v-897q0 -126 -82.5 -207.5t-208.5 -81.5h-774v569h-156zM473 332h332q45 0 45 41v729q0 41 -45 41h-332v-234h158v-340h-158v-237z" />
<glyph unicode="&#xd1;" horiz-adv-x="1464" d="M150 0v1475h364l475 -914v914h324v-1475h-365l-475 911v-911h-323zM408 1610h137l37 69l311 -67q102 -23 119 53l45 197h-144l-39 -66l-305 64q-53 9 -82 -3t-38 -53z" />
<glyph unicode="&#xd2;" horiz-adv-x="1323" d="M115 281v913q0 126 81 207.5t207 81.5h515q126 0 207 -81.5t81 -207.5v-913q0 -126 -81 -207.5t-207 -81.5h-515q-126 0 -207 81.5t-81 207.5zM268 1905l338 -295h234l-185 295h-387zM459 358q0 -41 43 -41h317q43 0 43 41v758q0 41 -43 41h-317q-43 0 -43 -41v-758z" />
<glyph unicode="&#xd3;" horiz-adv-x="1323" d="M115 281v913q0 126 81 207.5t207 81.5h515q126 0 207 -81.5t81 -207.5v-913q0 -126 -81 -207.5t-207 -81.5h-515q-126 0 -207 81.5t-81 207.5zM459 358q0 -41 43 -41h317q43 0 43 41v758q0 41 -43 41h-317q-43 0 -43 -41v-758zM492 1610l184 295h391l-340 -295h-235z" />
<glyph unicode="&#xd4;" horiz-adv-x="1323" d="M115 281v913q0 126 81 207.5t207 81.5h515q126 0 207 -81.5t81 -207.5v-913q0 -126 -81 -207.5t-207 -81.5h-515q-126 0 -207 81.5t-81 207.5zM219 1610h281l164 137l161 -137h281l-303 272h-279zM459 358q0 -41 43 -41h317q43 0 43 41v758q0 41 -43 41h-317 q-43 0 -43 -41v-758z" />
<glyph unicode="&#xd5;" horiz-adv-x="1323" d="M115 281v913q0 126 81 207.5t207 81.5h515q126 0 207 -81.5t81 -207.5v-913q0 -126 -81 -207.5t-207 -81.5h-515q-126 0 -207 81.5t-81 207.5zM340 1610h137l37 69l311 -67q102 -23 119 53l45 197h-143l-39 -66l-305 64q-54 9 -83 -3t-38 -53zM459 358q0 -41 43 -41h317 q43 0 43 41v758q0 41 -43 41h-317q-43 0 -43 -41v-758z" />
<glyph unicode="&#xd6;" horiz-adv-x="1323" d="M115 281v913q0 126 81 207.5t207 81.5h515q126 0 207 -81.5t81 -207.5v-913q0 -126 -81 -207.5t-207 -81.5h-515q-126 0 -207 81.5t-81 207.5zM305 1618v270h281v-270h-281zM459 358q0 -41 43 -41h317q43 0 43 41v758q0 41 -43 41h-317q-43 0 -43 -41v-758zM741 1618v270 h281v-270h-281z" />
<glyph unicode="&#xd7;" horiz-adv-x="1040" d="M113 471l213 211l-213 213l194 197l213 -213l213 211l195 -195l-213 -211l213 -213l-195 -197l-213 213l-213 -211z" />
<glyph unicode="&#xd8;" horiz-adv-x="1323" d="M115 281v913q0 126 81 207.5t207 81.5h515q126 0 207 -81.5t81 -207.5v-913q0 -126 -81 -207.5t-207 -81.5h-515q-126 0 -207 81.5t-81 207.5zM459 625l235 532h-192q-43 0 -43 -41v-491zM629 317h190q43 0 43 41v488z" />
<glyph unicode="&#xd9;" horiz-adv-x="1325" d="M127 281v1194h344v-1117q0 -41 43 -41h295q43 0 43 41v1117h344v-1194q0 -126 -81.5 -207.5t-207.5 -81.5h-491q-126 0 -207.5 81.5t-81.5 207.5zM268 1905l338 -295h234l-185 295h-387z" />
<glyph unicode="&#xda;" horiz-adv-x="1325" d="M127 281v1194h344v-1117q0 -41 43 -41h295q43 0 43 41v1117h344v-1194q0 -126 -81.5 -207.5t-207.5 -81.5h-491q-126 0 -207.5 81.5t-81.5 207.5zM492 1610l184 295h391l-340 -295h-235z" />
<glyph unicode="&#xdb;" horiz-adv-x="1325" d="M127 281v1194h344v-1117q0 -41 43 -41h295q43 0 43 41v1117h344v-1194q0 -126 -81.5 -207.5t-207.5 -81.5h-491q-126 0 -207.5 81.5t-81.5 207.5zM219 1610h281l164 137l161 -137h281l-303 272h-279z" />
<glyph unicode="&#xdc;" horiz-adv-x="1325" d="M127 281v1194h344v-1117q0 -41 43 -41h295q43 0 43 41v1117h344v-1194q0 -126 -81.5 -207.5t-207.5 -81.5h-491q-126 0 -207.5 81.5t-81.5 207.5zM305 1618v270h281v-270h-281zM741 1618v270h281v-270h-281z" />
<glyph unicode="&#xdd;" horiz-adv-x="1226" d="M6 1475h375l233 -592l234 592h375l-437 -977v-498h-344v498zM444 1610l185 295h391l-340 -295h-236z" />
<glyph unicode="&#xde;" horiz-adv-x="1277" d="M150 0v1475h344v-244h430q126 0 207 -81.5t81 -207.5v-395q0 -126 -81 -207.5t-207 -81.5h-430v-258h-344zM494 584h331q43 0 43 41v239q0 41 -43 41h-331v-321z" />
<glyph unicode="&#xdf;" horiz-adv-x="1163" d="M117 0v1196q0 120 83 203.5t203 83.5h375q120 0 203.5 -83.5t83.5 -203.5v-233q0 -67 -27.5 -117.5t-99.5 -93.5q143 -73 143 -209v-256q0 -120 -83 -203.5t-203 -83.5h-244v287h162q32 0 32 28v267q0 32 -34 32h-174v277h163q29 0 29 31v245q0 13 -9.5 21t-23.5 8h-217 q-14 0 -23.5 -8t-9.5 -21v-1167h-329z" />
<glyph unicode="&#xe0;" d="M76 279v124q0 132 77 209.5t209 77.5h48q145 0 272 -37v160q0 12 -9.5 19.5t-21.5 7.5h-176q-14 0 -23.5 -7.5t-9.5 -19.5v-63h-329v67q0 120 88.5 208.5t208.5 88.5h305q120 0 208.5 -88.5t88.5 -208.5v-817h-330v141l-18 -24q-1 -1 -13 -14.5t-16.5 -18t-17.5 -18 t-21.5 -19t-23 -16.5t-27.5 -16t-30 -11.5t-35 -9t-38 -2.5h-80q-120 0 -203 83.5t-83 203.5zM164 1548l338 -295h233l-184 295h-387zM406 322q0 -33 36 -33h39q96 0 183 53l18 10v113h-246q-30 0 -30 -27v-116z" />
<glyph unicode="&#xe1;" d="M76 279v124q0 132 77 209.5t209 77.5h48q145 0 272 -37v160q0 12 -9.5 19.5t-21.5 7.5h-176q-14 0 -23.5 -7.5t-9.5 -19.5v-63h-329v67q0 120 88.5 208.5t208.5 88.5h305q120 0 208.5 -88.5t88.5 -208.5v-817h-330v141l-18 -24q-1 -1 -13 -14.5t-16.5 -18t-17.5 -18 t-21.5 -19t-23 -16.5t-27.5 -16t-30 -11.5t-35 -9t-38 -2.5h-80q-120 0 -203 83.5t-83 203.5zM387 1253l184 295h392l-340 -295h-236zM406 322q0 -33 36 -33h39q96 0 183 53l18 10v113h-246q-30 0 -30 -27v-116z" />
<glyph unicode="&#xe2;" d="M76 279v124q0 132 77 209.5t209 77.5h48q145 0 272 -37v160q0 12 -9.5 19.5t-21.5 7.5h-176q-14 0 -23.5 -7.5t-9.5 -19.5v-63h-329v67q0 120 88.5 208.5t208.5 88.5h305q120 0 208.5 -88.5t88.5 -208.5v-817h-330v141l-18 -24q-1 -1 -13 -14.5t-16.5 -18t-17.5 -18 t-21.5 -19t-23 -16.5t-27.5 -16t-30 -11.5t-35 -9t-38 -2.5h-80q-120 0 -203 83.5t-83 203.5zM115 1253h280l164 138l162 -138h280l-303 273h-278zM406 322q0 -33 36 -33h39q96 0 183 53l18 10v113h-246q-30 0 -30 -27v-116z" />
<glyph unicode="&#xe3;" d="M76 279v124q0 132 77 209.5t209 77.5h48q145 0 272 -37v160q0 12 -9.5 19.5t-21.5 7.5h-176q-14 0 -23.5 -7.5t-9.5 -19.5v-63h-329v67q0 120 88.5 208.5t208.5 88.5h305q120 0 208.5 -88.5t88.5 -208.5v-817h-330v141l-18 -24q-1 -1 -13 -14.5t-16.5 -18t-17.5 -18 t-21.5 -19t-23 -16.5t-27.5 -16t-30 -11.5t-35 -9t-38 -2.5h-80q-120 0 -203 83.5t-83 203.5zM236 1253h137l37 70l311 -68q102 -23 119 54l45 196h-144l-39 -65l-305 63q-54 9 -83 -2.5t-38 -52.5zM406 322q0 -33 36 -33h39q96 0 183 53l18 10v113h-246q-30 0 -30 -27v-116 z" />
<glyph unicode="&#xe4;" d="M76 279v124q0 132 77 209.5t209 77.5h48q145 0 272 -37v160q0 12 -9.5 19.5t-21.5 7.5h-176q-14 0 -23.5 -7.5t-9.5 -19.5v-63h-329v67q0 120 88.5 208.5t208.5 88.5h305q120 0 208.5 -88.5t88.5 -208.5v-817h-330v141l-18 -24q-1 -1 -13 -14.5t-16.5 -18t-17.5 -18 t-21.5 -19t-23 -16.5t-27.5 -16t-30 -11.5t-35 -9t-38 -2.5h-80q-120 0 -203 83.5t-83 203.5zM201 1262v270h280v-270h-280zM406 322q0 -33 36 -33h39q96 0 183 53l18 10v113h-246q-30 0 -30 -27v-116zM637 1262v270h281v-270h-281z" />
<glyph unicode="&#xe5;" d="M76 279v124q0 132 77 209.5t209 77.5h48q145 0 272 -37v160q0 12 -9.5 19.5t-21.5 7.5h-176q-14 0 -23.5 -7.5t-9.5 -19.5v-63h-329v67q0 120 88.5 208.5t208.5 88.5h305q120 0 208.5 -88.5t88.5 -208.5v-817h-330v141l-18 -24q-1 -1 -13 -14.5t-16.5 -18t-17.5 -18 t-21.5 -19t-23 -16.5t-27.5 -16t-30 -11.5t-35 -9t-38 -2.5h-80q-120 0 -203 83.5t-83 203.5zM352 1323v231q0 26 22 48t48 22h272q26 0 48 -22t22 -48v-231q0 -26 -22 -48t-48 -22h-272q-26 0 -48 22t-22 48zM406 322q0 -33 36 -33h39q96 0 183 53l18 10v113h-246 q-30 0 -30 -27v-116zM483 1395q0 -11 7.5 -18t17.5 -7h100q10 0 17.5 7t7.5 18v88q0 10 -7 17t-18 7h-100q-11 0 -18 -7t-7 -17v-88z" />
<glyph unicode="&#xe6;" horiz-adv-x="1697" d="M76 279v108q0 132 77 209.5t209 77.5h41q145 4 289 -35v129q0 27 -12.5 38t-40.5 11h-150q-28 0 -40.5 -11t-12.5 -38v-27h-325v76q0 120 89.5 208.5t209.5 88.5h311q61 0 127 -37q69 37 131 37h352q120 0 203.5 -83.5t83.5 -203.5v-393h-600v-117q0 -18 8.5 -25t28.5 -7 h200q20 0 28.5 7t8.5 25v48h326v-86q0 -120 -83.5 -203.5t-203.5 -83.5h-352q-91 0 -164 50.5t-104 133.5l-66 -84q-91 -100 -180 -100h-103q-120 0 -203 83.5t-83 203.5zM399 322q0 -33 37 -33h66q65 0 147 37l43 14v111h-262q-18 0 -24.5 -5t-6.5 -22v-102zM1018 664h274 v124q0 33 -37 33h-200q-37 0 -37 -33v-124z" />
<glyph unicode="&#xe7;" horiz-adv-x="1093" d="M88 279v548q0 120 83.5 203.5t203.5 83.5h348q120 0 203.5 -83.5t83.5 -203.5v-147h-330v131q0 13 -9.5 21t-23.5 8h-196q-14 0 -23.5 -8t-9.5 -21v-516q0 -13 9.5 -21t23.5 -8h196q14 0 23.5 8t9.5 21v131h330v-147q0 -120 -83.5 -203.5t-203.5 -83.5h-92l-47 -94h47 q79 0 125.5 -39t46.5 -113v-20q0 -74 -46.5 -113t-125.5 -39h-191l-102 125h254q18 0 18 27v20q0 27 -18 27h-223l98 219h-92q-120 0 -203.5 83.5t-83.5 203.5z" />
<glyph unicode="&#xe8;" horiz-adv-x="1103" d="M88 279v548q0 120 83.5 203.5t203.5 83.5h358q120 0 203.5 -83.5t83.5 -203.5v-374h-602v-156q0 -13 9.5 -21t23.5 -8h206q14 0 22.5 8t8.5 21v65h332v-83q0 -120 -83.5 -203.5t-203.5 -83.5h-358q-120 0 -203.5 83.5t-83.5 203.5zM162 1548h387l184 -295h-233zM418 672 h270v137q0 13 -8.5 21t-22.5 8h-206q-14 0 -23.5 -8t-9.5 -21v-137z" />
<glyph unicode="&#xe9;" horiz-adv-x="1103" d="M88 279v548q0 120 83.5 203.5t203.5 83.5h358q120 0 203.5 -83.5t83.5 -203.5v-374h-602v-156q0 -13 9.5 -21t23.5 -8h206q14 0 22.5 8t8.5 21v65h332v-83q0 -120 -83.5 -203.5t-203.5 -83.5h-358q-120 0 -203.5 83.5t-83.5 203.5zM385 1253l184 295h392l-340 -295h-236z M418 672h270v137q0 13 -8.5 21t-22.5 8h-206q-14 0 -23.5 -8t-9.5 -21v-137z" />
<glyph unicode="&#xea;" horiz-adv-x="1103" d="M88 279v548q0 120 83.5 203.5t203.5 83.5h358q120 0 203.5 -83.5t83.5 -203.5v-374h-602v-156q0 -13 9.5 -21t23.5 -8h206q14 0 22.5 8t8.5 21v65h332v-83q0 -120 -83.5 -203.5t-203.5 -83.5h-358q-120 0 -203.5 83.5t-83.5 203.5zM113 1253l305 273h278l303 -273h-280 l-162 138l-164 -138h-280zM418 672h270v137q0 13 -8.5 21t-22.5 8h-206q-14 0 -23.5 -8t-9.5 -21v-137z" />
<glyph unicode="&#xeb;" horiz-adv-x="1103" d="M88 279v548q0 120 83.5 203.5t203.5 83.5h358q120 0 203.5 -83.5t83.5 -203.5v-374h-602v-156q0 -13 9.5 -21t23.5 -8h206q14 0 22.5 8t8.5 21v65h332v-83q0 -120 -83.5 -203.5t-203.5 -83.5h-358q-120 0 -203.5 83.5t-83.5 203.5zM199 1262v270h280v-270h-280zM418 672 h270v137q0 13 -8.5 21t-22.5 8h-206q-14 0 -23.5 -8t-9.5 -21v-137zM635 1262v270h280v-270h-280z" />
<glyph unicode="&#xec;" horiz-adv-x="593" d="M-92 1548l338 -295h233l-184 295h-387zM131 0v1106h332v-1106h-332z" />
<glyph unicode="&#xed;" horiz-adv-x="600" d="M102 1253l185 295h391l-340 -295h-236zM133 0v1106h330v-1106h-330z" />
<glyph unicode="&#xee;" horiz-adv-x="600" d="M-147 1253h280l164 138l162 -138h280l-303 273h-278zM133 0v1106h332v-1106h-332z" />
<glyph unicode="&#xef;" horiz-adv-x="602" d="M-57 1251v271h280v-271h-280zM133 0v1106h332v-1106h-332zM379 1251v271h280v-271h-280z" />
<glyph unicode="&#xf0;" horiz-adv-x="1126" d="M88 279v501q0 120 83.5 203.5t203.5 83.5h78q124 0 237 -125l19 -24v120q0 69 -6 89.5t-37 33.5l-58 23l-59 -64h-273l134 140l-160 61v195l332 -78l73 78h273l-129 -136q138 -52 188.5 -130t50.5 -212v-759q0 -120 -83 -203.5t-203 -83.5h-377q-120 0 -203.5 83.5 t-83.5 203.5zM418 317q0 -12 9 -19t22 -7h227q14 0 23.5 7t9.5 19v388l-19 12q-88 51 -198 51h-37q-37 0 -37 -33v-418z" />
<glyph unicode="&#xf1;" horiz-adv-x="1173" d="M125 0v1106h330v-141l18 24q113 125 238 125h63q120 0 203.5 -83.5t83.5 -203.5v-827h-330v784q0 33 -37 33h-22q-112 0 -199 -53l-18 -10v-754h-330zM285 1253h137l37 70l311 -68q102 -23 119 54l45 196h-143l-39 -65l-306 63q-54 9 -82.5 -2.5t-37.5 -52.5z" />
<glyph unicode="&#xf2;" d="M88 279v548q0 120 83.5 203.5t203.5 83.5h377q120 0 203 -83.5t83 -203.5v-548q0 -120 -83 -203.5t-203 -83.5h-377q-120 0 -203.5 83.5t-83.5 203.5zM170 1548l338 -295h233l-184 295h-387zM418 293q0 -12 9.5 -19.5t21.5 -7.5h227q12 0 21.5 7.5t9.5 19.5v520 q0 12 -9.5 19.5t-21.5 7.5h-227q-12 0 -21.5 -7.5t-9.5 -19.5v-520z" />
<glyph unicode="&#xf3;" d="M88 279v548q0 120 83.5 203.5t203.5 83.5h377q120 0 203 -83.5t83 -203.5v-548q0 -120 -83 -203.5t-203 -83.5h-377q-120 0 -203.5 83.5t-83.5 203.5zM393 1253l185 295h391l-340 -295h-236zM418 293q0 -12 9.5 -19.5t21.5 -7.5h227q12 0 21.5 7.5t9.5 19.5v520 q0 12 -9.5 19.5t-21.5 7.5h-227q-12 0 -21.5 -7.5t-9.5 -19.5v-520z" />
<glyph unicode="&#xf4;" d="M88 279v548q0 120 83.5 203.5t203.5 83.5h377q120 0 203 -83.5t83 -203.5v-548q0 -120 -83 -203.5t-203 -83.5h-377q-120 0 -203.5 83.5t-83.5 203.5zM121 1253h280l164 138l162 -138h281l-303 273h-279zM418 293q0 -12 9.5 -19.5t21.5 -7.5h227q12 0 21.5 7.5t9.5 19.5 v520q0 12 -9.5 19.5t-21.5 7.5h-227q-12 0 -21.5 -7.5t-9.5 -19.5v-520z" />
<glyph unicode="&#xf5;" d="M88 279v548q0 120 83.5 203.5t203.5 83.5h377q120 0 203 -83.5t83 -203.5v-548q0 -120 -83 -203.5t-203 -83.5h-377q-120 0 -203.5 83.5t-83.5 203.5zM242 1253h137l37 70l311 -68q102 -23 119 54l45 196h-143l-39 -65l-306 63q-54 9 -82.5 -2.5t-37.5 -52.5zM418 293 q0 -12 9.5 -19.5t21.5 -7.5h227q12 0 21.5 7.5t9.5 19.5v520q0 12 -9.5 19.5t-21.5 7.5h-227q-12 0 -21.5 -7.5t-9.5 -19.5v-520z" />
<glyph unicode="&#xf6;" d="M88 279v548q0 120 83.5 203.5t203.5 83.5h377q120 0 203 -83.5t83 -203.5v-548q0 -120 -83 -203.5t-203 -83.5h-377q-120 0 -203.5 83.5t-83.5 203.5zM207 1262v270h280v-270h-280zM418 293q0 -12 9.5 -19.5t21.5 -7.5h227q12 0 21.5 7.5t9.5 19.5v520q0 12 -9.5 19.5 t-21.5 7.5h-227q-12 0 -21.5 -7.5t-9.5 -19.5v-520zM643 1262v270h281v-270h-281z" />
<glyph unicode="&#xf7;" horiz-adv-x="1040" d="M53 596v324h934v-324h-934zM371 166v293h301v-293h-301zM371 1057v293h301v-293h-301z" />
<glyph unicode="&#xf8;" d="M88 279v548q0 120 83.5 203.5t203.5 83.5h377q120 0 203 -83.5t83 -203.5v-548q0 -120 -83 -203.5t-203 -83.5h-377q-120 0 -203.5 83.5t-83.5 203.5zM418 475l157 365h-126q-12 0 -21.5 -7.5t-9.5 -19.5v-338zM549 266h127q12 0 21.5 7.5t9.5 19.5v340z" />
<glyph unicode="&#xf9;" horiz-adv-x="1173" d="M113 279v827h329v-784q0 -33 37 -33h23q113 0 198 53l19 10v754h330v-1106h-330v141l-19 -24q-113 -125 -237 -125h-64q-120 0 -203 83.5t-83 203.5zM186 1548l338 -295h234l-185 295h-387z" />
<glyph unicode="&#xfa;" horiz-adv-x="1173" d="M113 279v827h329v-784q0 -33 37 -33h23q113 0 198 53l19 10v754h330v-1106h-330v141l-19 -24q-113 -125 -237 -125h-64q-120 0 -203 83.5t-83 203.5zM410 1253l184 295h391l-340 -295h-235z" />
<glyph unicode="&#xfb;" horiz-adv-x="1173" d="M113 279v827h329v-784q0 -33 37 -33h23q113 0 198 53l19 10v754h330v-1106h-330v141l-19 -24q-113 -125 -237 -125h-64q-120 0 -203 83.5t-83 203.5zM137 1253h281l164 138l161 -138h281l-303 273h-279z" />
<glyph unicode="&#xfc;" horiz-adv-x="1173" d="M113 279v827h329v-784q0 -33 37 -33h23q113 0 198 53l19 10v754h330v-1106h-330v141l-19 -24q-113 -125 -237 -125h-64q-120 0 -203 83.5t-83 203.5zM223 1262v270h281v-270h-281zM659 1262v270h281v-270h-281z" />
<glyph unicode="&#xfd;" horiz-adv-x="1136" d="M27 1106h321l215 -698l236 698h311l-524 -1503h-295l135 397zM403 1253l185 295h391l-340 -295h-236z" />
<glyph unicode="&#xfe;" horiz-adv-x="1161" d="M125 -397v1951h330v-589l18 24q113 125 238 125h77q120 0 203.5 -83.5t83.5 -203.5v-548q0 -120 -83.5 -203.5t-203.5 -83.5h-77q-125 0 -238 125l-18 24v-538h-330zM455 352l18 -10q85 -53 199 -53h35q36 0 36 33v462q0 33 -36 33h-35q-114 0 -199 -53l-18 -10v-402z " />
<glyph unicode="&#xff;" horiz-adv-x="1136" d="M27 1106h321l215 -698l236 698h311l-524 -1503h-295l135 397zM217 1262v270h281v-270h-281zM653 1262v270h281v-270h-281z" />
<glyph unicode="&#x152;" horiz-adv-x="1986" d="M115 289v897q0 126 81 207.5t207 81.5h1491v-326h-655v-240h498v-325h-498v-258h655v-326h-1491q-126 0 -207 81.5t-81 207.5zM459 367q0 -41 43 -41h313q78 0 78 80v663q0 80 -78 80h-313q-43 0 -43 -41v-741z" />
<glyph unicode="&#x153;" horiz-adv-x="1716" d="M88 279v548q0 120 83.5 203.5t203.5 83.5h377q59 0 125 -27q62 27 122 27h353q120 0 203 -83.5t83 -203.5v-393h-600v-117q0 -18 8.5 -25t28.5 -7h201q20 0 28.5 7t8.5 25v48h325v-86q0 -120 -83 -203.5t-203 -83.5h-353q-62 0 -122 26q-63 -26 -125 -26h-377 q-120 0 -203.5 83.5t-83.5 203.5zM412 322q0 -33 37 -33h225q37 0 37 33v462q0 33 -37 33h-225q-37 0 -37 -33v-462zM1038 664h275v124q0 33 -37 33h-201q-37 0 -37 -33v-124z" />
<glyph unicode="&#x178;" horiz-adv-x="1226" d="M6 1475h375l233 -592l234 592h375l-437 -977v-498h-344v498zM258 1618v270h281v-270h-281zM694 1618v270h281v-270h-281z" />
<glyph unicode="&#x2c6;" horiz-adv-x="1351" d="M231 1610h281l164 137l162 -137h280l-303 272h-278z" />
<glyph unicode="&#x2dc;" horiz-adv-x="1249" d="M301 1610h137l37 69l311 -67q102 -23 119 53l45 197h-143l-39 -66l-305 64q-54 9 -83 -3t-38 -53z" />
<glyph unicode="&#x2000;" horiz-adv-x="990" />
<glyph unicode="&#x2001;" horiz-adv-x="1980" />
<glyph unicode="&#x2002;" horiz-adv-x="990" />
<glyph unicode="&#x2003;" horiz-adv-x="1980" />
<glyph unicode="&#x2004;" horiz-adv-x="660" />
<glyph unicode="&#x2005;" horiz-adv-x="495" />
<glyph unicode="&#x2006;" horiz-adv-x="330" />
<glyph unicode="&#x2007;" horiz-adv-x="330" />
<glyph unicode="&#x2008;" horiz-adv-x="247" />
<glyph unicode="&#x2009;" horiz-adv-x="396" />
<glyph unicode="&#x200a;" horiz-adv-x="110" />
<glyph unicode="&#x2010;" horiz-adv-x="972" d="M96 518v309h781v-309h-781z" />
<glyph unicode="&#x2011;" horiz-adv-x="972" d="M96 518v309h781v-309h-781z" />
<glyph unicode="&#x2012;" horiz-adv-x="972" d="M96 518v309h781v-309h-781z" />
<glyph unicode="&#x2013;" horiz-adv-x="1153" d="M96 518v309h963v-309h-963z" />
<glyph unicode="&#x2014;" horiz-adv-x="1636" d="M96 518v311h1444v-311h-1444z" />
<glyph unicode="&#x2018;" horiz-adv-x="530" d="M104 860v242q0 70 107 198l141 175h123l-170 -283h121v-332h-322z" />
<glyph unicode="&#x2019;" horiz-adv-x="530" d="M55 860l170 283h-121v332h322v-240q0 -43 -27.5 -90t-79.5 -111l-141 -174h-123z" />
<glyph unicode="&#x201a;" horiz-adv-x="530" d="M55 -283l170 283h-121v332h322v-240q0 -43 -27.5 -90t-79.5 -111l-141 -174h-123z" />
<glyph unicode="&#x201c;" horiz-adv-x="989" d="M104 860v242q0 70 107 198l141 175h123l-170 -283h121v-332h-322zM563 860v242q0 70 107 198l141 175h123l-170 -283h121v-332h-322z" />
<glyph unicode="&#x201d;" horiz-adv-x="989" d="M55 860l170 283h-121v332h322v-240q0 -43 -27.5 -90t-79.5 -111l-141 -174h-123zM516 860l170 283h-121v332h322v-240q0 -43 -27.5 -90t-79.5 -111l-141 -174h-123z" />
<glyph unicode="&#x201e;" horiz-adv-x="530" d="M55 -283l170 283h-121v332h322v-240q0 -43 -27.5 -90t-79.5 -111l-141 -174h-123z" />
<glyph unicode="&#x2022;" horiz-adv-x="876" d="M195 596v332q0 32 22.5 55t54.5 23h330q32 0 55 -23t23 -55v-332q0 -32 -23 -55t-55 -23h-330q-32 0 -54.5 23t-22.5 55z" />
<glyph unicode="&#x2026;" horiz-adv-x="1443" d="M104 0v332h322v-332h-322zM561 0v332h322v-332h-322zM1018 0v332h321v-332h-321z" />
<glyph unicode="&#x202f;" horiz-adv-x="396" />
<glyph unicode="&#x2039;" horiz-adv-x="665" d="M23 662v114l262 369h344l-305 -426l305 -424h-344z" />
<glyph unicode="&#x203a;" horiz-adv-x="665" d="M39 295l305 424l-305 426h344l262 -369v-114l-262 -367h-344z" />
<glyph unicode="&#x205f;" horiz-adv-x="495" />
<glyph unicode="&#x20ac;" horiz-adv-x="1392" d="M43 532v150h156v104h-156v152h156v256q0 126 81 207.5t207 81.5h506q126 0 208.5 -81.5t82.5 -207.5v-211h-344v133q0 41 -45 41h-309q-43 0 -43 -41v-178h313v-152h-313v-104h313v-150h-313v-174q0 -41 43 -41h309q45 0 45 41v134h344v-211q0 -126 -82.5 -207.5 t-208.5 -81.5h-506q-126 0 -207 81.5t-81 207.5v251h-156z" />
<glyph unicode="&#x2122;" horiz-adv-x="1552" d="M98 1311v164h539v-164h-184v-574h-174v574h-181zM745 737v738h191l162 -385l170 385h186v-738h-160v439l-139 -324h-111l-139 324v-439h-160z" />
<glyph unicode="&#x25fc;" horiz-adv-x="1105" d="M0 0v1106h1106v-1106h-1106z" />
</font>
</defs>
</svg>
