<?xml version="1.0" standalone="no"?>
<!DOCTYPE svg PUBLIC "-//W3C//DTD SVG 1.1//EN" "http://www.w3.org/Graphics/SVG/1.1/DTD/svg11.dtd" >
<svg xmlns="http://www.w3.org/2000/svg">
<metadata></metadata>
<defs>
<font id="industryblack_italic" horiz-adv-x="1138" >
<font-face units-per-em="2048" ascent="1638" descent="-410" />
<missing-glyph horiz-adv-x="530" />
<glyph unicode="&#xfb01;" horiz-adv-x="1368" d="M98 834l49 272h168l29 162q20 120 116.5 203t213.5 83h276l-49 -282h-199q-11 0 -20 -7.5t-10 -19.5l-25 -139h225l-49 -272h-225l-145 -834h-332l145 834h-168zM825 0l195 1106h330l-195 -1106h-330zM1038 1260l52 294h346l-52 -294h-346z" />
<glyph unicode="&#xfb02;" horiz-adv-x="1357" d="M98 834l49 272h168l29 162q20 120 116.5 203t213.5 83h276l-49 -282h-199q-11 0 -20 -7.5t-10 -19.5l-25 -139h225l-49 -272h-225l-145 -834h-332l145 834h-168zM819 0l273 1554h331l-272 -1554h-332z" />
<glyph horiz-adv-x="0" />
<glyph horiz-adv-x="682" />
<glyph unicode=" "  horiz-adv-x="530" />
<glyph unicode="&#x09;" horiz-adv-x="530" />
<glyph unicode="&#xa0;" horiz-adv-x="530" />
<glyph unicode="!" horiz-adv-x="538" d="M10 0l58 334h325l-57 -334h-326zM145 528l103 947h366l-229 -947h-240z" />
<glyph unicode="&#x22;" horiz-adv-x="970" d="M248 932l14 543h328l-172 -543h-170zM692 932l15 543h327l-172 -543h-170z" />
<glyph unicode="#" horiz-adv-x="1615" d="M8 0l168 328h-158l56 313h262l110 217h-196l55 313h301l156 304h330l-154 -304h240l155 304h330l-154 -304h160l-55 -313h-264l-111 -217h199l-56 -313h-303l-168 -328h-331l168 328h-240l-168 -328h-332zM668 641h239l111 217h-240z" />
<glyph unicode="$" horiz-adv-x="1249" d="M59 281l35 202h332l-23 -129q-3 -21 5 -29t30 -8h31l49 283l-112 25q-121 26 -190 104.5t-48 190.5l49 274q23 126 117 207.5t217 81.5h96l37 207h268l-37 -207h89q123 0 189.5 -81.5t43.5 -207.5l-33 -188h-334l21 114q4 21 -3.5 29t-27.5 8h-26l-46 -266l127 -29 q122 -28 190.5 -105t47.5 -190l-51 -286q-23 -126 -117 -207.5t-217 -81.5h-115l-37 -207h-268l37 207h-94q-123 0 -189 81.5t-43 207.5zM524 979q-7 -31 33 -39l23 -4l36 221h-22q-21 0 -31.5 -8t-13.5 -29zM684 317h39q23 0 33.5 8t13.5 29l27 154q7 30 -35 39l-37 8z" />
<glyph unicode="%" horiz-adv-x="1241" d="M80 0l866 1475h275l-865 -1475h-276zM160 1040l55 312q11 59 52.5 95t99.5 36h200q57 0 87 -36.5t20 -94.5l-56 -312q-11 -59 -52.5 -95t-98.5 -36h-201q-58 0 -87.5 36t-18.5 95zM330 1096q-3 -14 3.5 -24.5t20.5 -10.5h82q23 0 31 35l35 200q3 15 -1.5 25t-17.5 10h-82 q-28 0 -36 -35zM637 123l55 311q11 59 52 95t98 36h202q57 0 86 -36.5t19 -94.5l-55 -311q-11 -59 -52 -95t-98 -36h-203q-57 0 -86 36t-18 95zM807 178q-3 -14 3 -24.5t19 -10.5h84q23 0 31 35l35 201q3 14 -1.5 24.5t-16.5 10.5h-84q-13 0 -22.5 -10.5t-12.5 -24.5z" />
<glyph unicode="&#x26;" horiz-adv-x="1320" d="M63 281l43 249q26 149 179 222q-109 76 -84 221l39 221q23 126 116.5 207.5t216.5 81.5h377q123 0 189 -81.5t43 -207.5l-27 -150h-344l14 76q4 23 -3.5 32t-28.5 9h-177q-20 0 -30.5 -9t-14.5 -32l-30 -174q-6 -41 24 -41h789l-54 -305h-139l-55 -319 q-23 -126 -118 -207.5t-218 -81.5h-475q-123 0 -189 81.5t-43 207.5zM420 354q-4 -23 4 -32t29 -9h274q22 0 32.5 9t14.5 32l43 246h-305q-48 0 -57 -43z" />
<glyph unicode="'" horiz-adv-x="526" d="M248 932l14 543h328l-172 -543h-170z" />
<glyph unicode="(" horiz-adv-x="819" d="M74 72l219 1245q22 126 116.5 207.5t217.5 81.5h284l-57 -326h-184q-39 0 -47 -41l-193 -1089q-6 -41 33 -41h184l-57 -326h-285q-123 0 -188.5 81.5t-42.5 207.5z" />
<glyph unicode=")" horiz-adv-x="819" d="M-43 -217h285q123 0 216.5 81.5t116.5 207.5l220 1245q22 126 -43.5 207.5t-188.5 81.5h-284l-58 -326h185q20 0 27 -9.5t3 -31.5l-192 -1089q-6 -41 -45 -41h-185z" />
<glyph unicode="*" horiz-adv-x="856" d="M117 1079l127 258l233 -163l-20 301h268l-123 -301l283 161l43 -254l-310 -24l193 -201l-244 -158l-65 287l-160 -285l-195 156l267 203z" />
<glyph unicode="+" horiz-adv-x="1019" d="M117 612l51 291h258l43 240h295l-43 -240h258l-51 -291h-258l-41 -239h-295l41 239h-258z" />
<glyph unicode="," horiz-adv-x="522" d="M-94 -283l219 283h-119l57 332h320l-43 -240q-7 -43 -43 -91t-98 -110l-172 -174h-121z" />
<glyph unicode="-" horiz-adv-x="958" d="M88 518l55 309h770l-55 -309h-770z" />
<glyph unicode="." horiz-adv-x="520" d="M4 0l57 332h320l-57 -332h-320z" />
<glyph unicode="/" horiz-adv-x="1089" d="M-102 -143l1013 1761h346l-1013 -1761h-346z" />
<glyph unicode="0" horiz-adv-x="1265" d="M63 281l160 913q23 126 117 207.5t217 81.5h477q123 0 189 -81.5t43 -207.5l-160 -913q-23 -126 -117 -207.5t-217 -81.5h-477q-123 0 -189 81.5t-43 207.5zM420 358q-6 -41 33 -41h276q39 0 45 41l135 758q6 41 -32 41h-277q-39 0 -45 -41z" />
<glyph unicode="1" horiz-adv-x="872" d="M160 1024l49 283l375 168h268l-258 -1475h-344l196 1116z" />
<glyph unicode="2" horiz-adv-x="1216" d="M8 0h1034l58 326h-690l20 125q5 31 19 41.5t49 21.5l360 107q305 90 340 294l49 273q20 119 -51 207t-186 88h-439q-115 0 -217.5 -88.5t-122.5 -206.5l-30 -168h334l14 80q12 57 65 57h230q27 0 38 -12.5t5 -42.5l-17 -98q-4 -23 -13 -35.5t-18.5 -17t-33.5 -11.5 l-363 -106q-305 -90 -340 -295z" />
<glyph unicode="3" horiz-adv-x="1222" d="M47 287l31 170h344l-16 -86q-8 -58 47 -58h227q57 0 65 58l31 170q9 59 -59 59h-246l53 305h246q28 0 43 12t21 46l26 141q4 30 -7.5 43.5t-41.5 13.5h-195q-55 0 -63 -57l-16 -86h-344l30 170q20 118 122 206.5t218 88.5h418q114 0 186 -88.5t52 -206.5l-39 -215 q-12 -69 -48 -124t-114 -97q126 -73 100 -222l-43 -243q-20 -118 -122.5 -206.5t-217.5 -88.5h-450q-116 0 -187 88.5t-51 206.5z" />
<glyph unicode="4" horiz-adv-x="1320" d="M43 530l827 945h377l-157 -900h200l-53 -305h-201l-47 -270h-332l48 270h-633zM438 575h320l82 465z" />
<glyph unicode="5" horiz-adv-x="1294" d="M70 287l30 170h344l-14 -82q-12 -58 45 -58h254q54 0 66 58l41 231q9 58 -43 58h-80q-119 0 -205 -54l-16 -10l-326 98l135 777h983l-57 -326h-639l-58 -330l19 21q41 46 110 86.5t146 40.5h145q119 0 190.5 -88.5t49.5 -208.5l-68 -383q-20 -118 -122 -206.5t-218 -88.5 h-475q-115 0 -186 88t-51 207z" />
<glyph unicode="6" horiz-adv-x="1269" d="M63 287l160 901q20 118 122 206.5t218 88.5h461q116 0 187 -88.5t51 -206.5l-25 -141h-344l8 53q12 57 -45 57h-240q-53 0 -65 -57l-55 -320l18 21q43 47 110.5 88t145.5 41h172q115 0 186.5 -89t49.5 -206l-62 -348q-20 -118 -122 -206.5t-218 -88.5h-475 q-116 0 -187 88.5t-51 206.5zM424 375q-12 -58 45 -58h254q53 0 65 58l33 192q6 31 -5 44.5t-40 13.5h-100q-91 0 -203 -56l-16 -8z" />
<glyph unicode="7" horiz-adv-x="1185" d="M-33 0l858 1149h-637l58 326h1061l-47 -269l-900 -1206h-393z" />
<glyph unicode="8" horiz-adv-x="1241" d="M55 287l43 245q26 149 178 222q-61 42 -77 97t-6 124l38 213q20 118 122 206.5t218 88.5h428q116 0 187 -88.5t51 -206.5l-39 -213q-22 -146 -164 -221q129 -74 103 -222l-43 -245q-20 -118 -122 -206.5t-218 -88.5h-461q-116 0 -187 88.5t-51 206.5zM414 371 q-8 -58 47 -58h239q56 0 64 58l31 172q5 33 -13 45t-45 12h-217q-67 0 -76 -57zM537 965q-7 -36 2.5 -48t33.5 -12h218q25 0 40.5 12.5t22.5 47.5l25 139q8 57 -48 57h-206q-56 0 -64 -57z" />
<glyph unicode="9" horiz-adv-x="1271" d="M74 287l24 141h344l-8 -53q-12 -58 47 -58h238q53 0 65 58l56 321l-17 -20q-36 -45 -105.5 -86t-148.5 -41h-172q-117 0 -188 88.5t-51 208.5l61 342q20 118 122 206.5t218 88.5h475q116 0 187 -88.5t51 -206.5l-160 -901q-20 -118 -122 -206.5t-218 -88.5h-461 q-114 0 -185.5 88.5t-51.5 206.5zM514 909q-12 -57 45 -57h100q107 0 205 55l15 8l32 185q12 57 -45 57h-254q-53 0 -65 -57z" />
<glyph unicode=":" horiz-adv-x="520" d="M4 0l57 332h320l-57 -332h-320zM139 774l60 332h319l-59 -332h-320z" />
<glyph unicode=";" horiz-adv-x="522" d="M-94 -283l219 283h-119l57 332h320l-43 -240q-7 -43 -43 -91t-98 -110l-172 -174h-121zM141 774l60 332h319l-59 -332h-320z" />
<glyph unicode="&#x3c;" horiz-adv-x="1017" d="M106 616l740 -358l51 295l-436 190l504 193l51 295l-866 -361z" />
<glyph unicode="=" horiz-adv-x="1017" d="M76 387l53 305h811l-53 -305h-811zM156 840l53 305h811l-53 -305h-811z" />
<glyph unicode="&#x3e;" horiz-adv-x="1017" d="M70 258l866 358l43 254l-739 361l-52 -295l439 -193l-506 -190z" />
<glyph unicode="?" horiz-adv-x="1136" d="M106 1016l31 178q23 126 117 207.5t217 81.5h487q123 0 189 -81.5t43 -207.5l-51 -289q-4 -25 -15.5 -48t-33 -45t-40.5 -39t-54.5 -40t-57 -36t-66.5 -38.5t-65 -37.5l-102 -58q-45 -23 -48 -47l-10 -59h-344l25 143q5 26 24.5 54.5t41 50t63.5 52t66.5 46t77.5 48.5 t71 44l92 55q44 25 47 41l23 125q6 41 -33 41h-287q-39 0 -45 -41l-18 -100h-345zM221 0l55 319h345l-56 -319h-344z" />
<glyph unicode="@" horiz-adv-x="2004" d="M47 -47l219 1241q23 126 117 207.5t217 81.5h1135q123 0 188.5 -81.5t42.5 -207.5l-139 -791q-22 -126 -116.5 -207t-217.5 -81h-432l-12 147l-39 -45q-42 -47 -105.5 -79t-111.5 -32h-56q-123 0 -188.5 81.5t-42.5 207.5l61 353q22 126 116.5 207t217.5 81h55 q48 0 100.5 -31.5t78.5 -78.5l22 -45l66 147h301l-129 -737h131q41 0 57 112l146 824q1 10 -5 17t-14 7h-1167q-8 0 -17 -7t-10 -17l-229 -1307q-3 -10 3.5 -17t14.5 -7h1041l-41 -232h-1024q-123 0 -189.5 81.5t-44.5 207.5zM848 416q-6 -35 29 -35q66 0 163 43l39 18 l45 258l-32 19q-80 43 -148 43q-35 0 -41 -35z" />
<glyph unicode="A" horiz-adv-x="1339" d="M-76 0l705 1475h401l191 -1475h-359l-26 299h-416l-129 -299h-367zM561 625h246l-43 471z" />
<glyph unicode="B" horiz-adv-x="1298" d="M49 0l258 1475h754q123 1 189 -81q50 -61 49 -148q0 -29 -5 -60l-39 -211q-22 -146 -163 -221q106 -61 106 -174q0 -23 -4 -48l-43 -243q-22 -126 -115.5 -207.5t-216.5 -81.5h-770zM449 322h325q21 0 32 8.5t15 31.5l35 201q3 18 -2 26t-12.5 9.5t-24.5 1.5h-319z M551 905h313q21 0 30 8t13 35l29 164q1 8 1 15q0 11 -4 17q-7 9 -28 9h-309z" />
<glyph unicode="C" horiz-adv-x="1243" d="M63 281l160 913q23 126 117 207.5t217 81.5h481q123 1 189 -81q49 -60 49 -146q0 -30 -6 -62l-47 -266h-344l34 188q6 41 -32 41h-281q-39 0 -45 -41l-135 -758q-6 -41 33 -41h280q39 0 45 41l35 189h344l-47 -266q-23 -126 -117 -207.5t-217 -81.5h-481q-123 0 -189 82 q-49 60 -49 145q0 29 6 62z" />
<glyph unicode="D" horiz-adv-x="1316" d="M49 0l258 1475h776q123 1 189 -81q50 -61 51 -148q0 -29 -6 -60l-160 -897q-22 -126 -115.5 -207.5t-216.5 -81.5h-776zM451 326h331q39 0 45 41l131 741q1 6 1 10q0 31 -33 31h-332z" />
<glyph unicode="E" horiz-adv-x="1204" d="M49 0l258 1475h967l-57 -326h-623l-39 -231h496l-60 -328h-495l-45 -264h622l-57 -326h-967z" />
<glyph unicode="F" horiz-adv-x="1167" d="M49 0l258 1475h967l-57 -326h-623l-43 -244h496l-58 -325h-495l-101 -580h-344z" />
<glyph unicode="G" horiz-adv-x="1282" d="M63 281l160 913q23 126 117 207.5t217 81.5h500q123 0 189 -81q50 -61 50 -146q0 -30 -6 -62l-37 -213h-344l25 135q1 5 1 10q0 31 -36 31h-299q-39 0 -45 -41l-133 -756q-8 -43 31 -43h299q41 0 47 41l32 177h-227l53 309h572l-99 -563q-23 -126 -117.5 -207.5 t-217.5 -81.5h-500q-123 0 -189 82q-49 60 -49 145q0 29 6 62z" />
<glyph unicode="H" horiz-adv-x="1394" d="M49 0l258 1475h344l-96 -557h414l96 557h344l-258 -1475h-344l102 590h-413l-103 -590h-344z" />
<glyph unicode="I" horiz-adv-x="636" d="M49 0l258 1475h344l-258 -1475h-344z" />
<glyph unicode="J" horiz-adv-x="1177" d="M-6 281l61 356h344l-49 -279q-6 -41 33 -41h248q37 0 43 41l196 1117h344l-208 -1194q-23 -126 -117 -207.5t-217 -81.5h-447q-123 0 -189 82q-48 60 -48 145q0 29 6 62z" />
<glyph unicode="K" horiz-adv-x="1333" d="M49 0l258 1475h338l-110 -629l512 629h413l-522 -572l281 -903h-355l-186 616l-227 -247l-64 -369h-338z" />
<glyph unicode="L" horiz-adv-x="1107" d="M49 0l258 1475h344l-200 -1149h571l-57 -326h-916z" />
<glyph unicode="M" horiz-adv-x="1708" d="M49 0l258 1475h363l198 -797l461 797h393l-258 -1475h-325l155 889l-368 -653h-232l-164 653l-155 -889h-326z" />
<glyph unicode="N" horiz-adv-x="1435" d="M49 0l258 1475h357l303 -914l159 914h324l-258 -1475h-354l-306 911l-159 -911h-324z" />
<glyph unicode="O" horiz-adv-x="1294" d="M63 281l160 913q23 126 117 207.5t217 81.5h506q124 1 189 -81q48 -60 48 -145q0 -30 -6 -63l-159 -913q-23 -127 -116.5 -208t-217.5 -81h-506q-123 0 -189 82q-49 60 -49 145q0 29 6 62zM420 358q-1 -5 -1 -10q0 -31 34 -31h307q37 0 43 41l135 758q1 6 1 11 q0 30 -32 30h-307q-39 0 -45 -41z" />
<glyph unicode="P" horiz-adv-x="1253" d="M49 0l258 1475h762q123 1 189 -81q50 -61 51 -148q0 -29 -6 -60l-70 -395q-23 -126 -117 -207.5t-217 -81.5h-418l-88 -502h-344zM539 827h317q39 0 45 41l43 240q1 5 1 10q0 31 -34 31h-317z" />
<glyph unicode="Q" horiz-adv-x="1306" d="M63 281l160 913q23 126 117 207.5t217 81.5h516q125 0 191 -81q49 -61 49 -146q0 -29 -6 -62l-160 -913q-22 -116 -103.5 -195t-193.5 -92l59 -268h-315l-57 266h-242q-123 0 -189 82q-49 60 -49 145q0 29 6 62zM420 358q-1 -5 -1 -10q0 -31 34 -31h317q39 0 45 41 l135 758q1 6 1 10q0 31 -33 31h-318q-39 0 -45 -41z" />
<glyph unicode="R" horiz-adv-x="1300" d="M49 0l258 1475h760q123 1 189 -81q50 -61 50 -148q0 -29 -6 -60l-65 -371q-17 -95 -76.5 -167t-144.5 -103l121 -545h-347l-114 524h-189l-92 -524h-344zM541 846h315q39 0 47 41l39 221q1 5 1 10q0 31 -34 31h-315z" />
<glyph unicode="S" horiz-adv-x="1251" d="M59 281l35 202h332l-23 -129q-3 -21 5 -29t30 -8h287q21 0 31.5 8t13.5 29l27 160q6 28 -33 37l-358 80q-241 55 -241 238q0 27 5 57l47 268q22 126 116.5 207.5t217.5 81.5h453q124 1 190 -81q49 -61 49 -146q0 -29 -6 -62l-33 -188h-334l21 114q4 21 -3.5 29t-27.5 8 h-266q-21 0 -31.5 -8t-13.5 -29l-25 -147q-3 -16 4 -24.5t29 -14.5l358 -78q243 -52 243 -237q0 -28 -5 -58l-51 -280q-23 -126 -117 -207.5t-217 -81.5h-477q-123 0 -189 82q-49 60 -49 145q0 29 6 62z" />
<glyph unicode="T" horiz-adv-x="1144" d="M152 1153l55 322h1057l-56 -322h-356l-203 -1153h-344l203 1153h-356z" />
<glyph unicode="U" horiz-adv-x="1298" d="M76 281l209 1194h344l-197 -1117q-6 -41 33 -41h285q39 0 45 41l196 1117h344l-209 -1194q-23 -126 -116.5 -207.5t-216.5 -81.5h-486q-123 0 -189 82q-48 60 -48 145q0 29 6 62z" />
<glyph unicode="V" horiz-adv-x="1302" d="M188 1475h385l50 -1057l411 1057h404l-684 -1475h-398z" />
<glyph unicode="W" horiz-adv-x="1824" d="M188 1475h351l-17 -1012l416 1012h266l66 -1012l327 1012h363l-604 -1475h-320l-61 885l-363 -885h-336z" />
<glyph unicode="X" horiz-adv-x="1282" d="M-80 0l561 774l-291 701h367l176 -422l299 422h385l-547 -754l299 -721h-368l-185 446l-311 -446h-385z" />
<glyph unicode="Y" horiz-adv-x="1202" d="M168 1475h362l127 -592l318 592h387l-598 -977l-86 -498h-344l86 498z" />
<glyph unicode="Z" horiz-adv-x="1204" d="M-12 0l45 264l758 889h-564l56 322h999l-45 -265l-756 -888h594l-55 -322h-1032z" />
<glyph unicode="[" horiz-adv-x="784" d="M23 -217l321 1823h533l-58 -326h-188l-207 -1171h188l-57 -326h-532z" />
<glyph unicode="\" horiz-adv-x="1089" d="M209 1618h321l416 -1761h-321z" />
<glyph unicode="]" horiz-adv-x="784" d="M-43 -217l57 326h189l207 1171h-189l58 326h532l-322 -1823h-532z" />
<glyph unicode="^" horiz-adv-x="1585" d="M100 463l680 1012h348l326 -1012h-336l-211 661l-432 -661h-375z" />
<glyph unicode="_" horiz-adv-x="1173" d="M-156 -395l56 305h1149l-56 -305h-1149z" />
<glyph unicode="`" horiz-adv-x="688" d="M301 1905l291 -295h223l-139 295h-375z" />
<glyph unicode="a" d="M37 279l96 548q22 120 117.5 203.5t212.5 83.5h76q78 0 134 -41.5t79 -87.5l10 -20l24 141h330l-196 -1106h-330l26 141l-18 -20q-42 -46 -110.5 -87.5t-145.5 -41.5h-76q-117 0 -184 84q-50 63 -50 146q0 27 5 57zM373 322q-1 -5 -1 -10q0 -23 27 -23h31q75 0 207 57 l14 6l70 402l-10 6q-95 57 -187 57h-30q-33 0 -39 -33z" />
<glyph unicode="b" horiz-adv-x="1136" d="M25 0l272 1554h330l-103 -589l19 20q43 47 110 88t144 41h75q118 0 186 -84q52 -63 51 -147q0 -27 -5 -56l-96 -548q-22 -120 -118.5 -203.5t-213.5 -83.5h-76q-78 0 -132.5 41.5t-78.5 87.5l-10 20l-25 -141h-329zM418 352l10 -6q95 -57 186 -57h31q33 0 39 33l82 462 q1 5 1 9q0 24 -28 24h-30q-111 0 -207 -55l-15 -8z" />
<glyph unicode="c" horiz-adv-x="1071" d="M37 279l96 548q22 120 117.5 203.5t212.5 83.5h344q117 0 185 -84q51 -63 51 -147q0 -27 -5 -56l-26 -147h-330l23 131q3 13 -3.5 21t-17.5 8h-190q-12 0 -22 -8t-13 -21l-90 -516q-3 -13 3.5 -21t18.5 -8h191q11 0 20 8t12 21l23 131h330l-25 -147 q-22 -120 -118.5 -203.5t-213.5 -83.5h-344q-117 0 -184 84q-50 63 -50 146q0 27 5 57z" />
<glyph unicode="d" d="M37 279l96 548q22 120 117.5 203.5t212.5 83.5h76q77 0 132 -41.5t81 -89.5l10 -18l102 589h330l-272 -1554h-330l24 141l-18 -20q-42 -46 -110.5 -87.5t-145.5 -41.5h-76q-117 0 -184 84q-50 63 -50 146q0 27 5 57zM373 322q-1 -5 -1 -10q0 -23 27 -23h31q111 0 207 55 l14 8l70 402l-10 6q-95 57 -187 57h-30q-33 0 -39 -33z" />
<glyph unicode="e" horiz-adv-x="1079" d="M37 279l96 548q22 120 117.5 203.5t212.5 83.5h354q117 0 185 -84q52 -63 52 -147q0 -27 -5 -56l-68 -374h-586l-26 -156q-3 -29 24 -29h201q11 0 19.5 8t9.5 21l12 65h332l-15 -83q-22 -120 -118 -203.5t-213 -83.5h-355q-117 0 -184 84q-50 63 -50 146q0 27 5 57z M434 672h254l25 137q1 5 1 9q0 7 -4 12q-6 8 -16 8h-200q-12 0 -22 -8t-13 -21z" />
<glyph unicode="f" horiz-adv-x="804" d="M98 834l49 272h168l29 162q20 120 116.5 203t213.5 83h276l-49 -282h-199q-11 0 -20 -7.5t-10 -19.5l-25 -139h225l-49 -272h-225l-145 -834h-332l145 834h-168z" />
<glyph unicode="g" d="M4 -119l16 84h316l-12 -59q-4 -27 5 -38t36 -11h151q27 0 40 11t17 38l56 311l-19 -20q-42 -46 -110.5 -87.5t-145.5 -41.5h-75q-117 0 -185 83q-50 63 -50 146q0 28 5 57l84 473q22 120 117.5 203.5t212.5 83.5h76q77 0 132 -41.5t81 -89.5l10 -18l24 141h330 l-217 -1225q-20 -120 -116.5 -203.5t-213.5 -83.5h-333q-117 0 -184 84q-53 64 -53 150q0 26 5 53zM387 399q-1 -4 -1 -8q0 -24 28 -24h30q95 0 205 55l17 8l55 324l-10 6q-95 57 -187 57h-30q-33 0 -39 -33z" />
<glyph unicode="h" horiz-adv-x="1148" d="M25 0l272 1554h330l-103 -589l19 20q43 47 110 88t144 41h61q118 0 186 -84q52 -63 51 -147q0 -27 -5 -56l-146 -827h-330l138 784q6 33 -25 33h-20q-92 0 -205 -55l-17 -8l-131 -754h-329z" />
<glyph unicode="i" horiz-adv-x="563" d="M20 0l195 1106h330l-195 -1106h-330zM233 1260l52 294h346l-51 -294h-347z" />
<glyph unicode="j" horiz-adv-x="577" d="M-244 -416l49 287h181q24 0 30 29l213 1206h334l-219 -1235q-20 -120 -117.5 -203.5t-214.5 -83.5h-256zM244 1260l51 294h350l-51 -294h-350z" />
<glyph unicode="k" horiz-adv-x="1191" d="M25 0l258 1475h325l-145 -836l391 467h410l-453 -449l272 -657l-338 -2l-176 420l-176 -174l-43 -244h-325z" />
<glyph unicode="l" horiz-adv-x="552" d="M14 0l273 1554h331l-272 -1554h-332z" />
<glyph unicode="m" horiz-adv-x="1687" d="M23 0l194 1106h330l-25 -141l19 20q43 47 110 88t144 41h36q85 0 146 -46.5t82 -121.5l47 43q131 125 254 125h37q117 0 185 -84q51 -63 51 -147q0 -27 -5 -56l-145 -827h-332l137 784q6 33 -26 33h-15q-84 0 -182 -55l-14 -8l-133 -754h-330l137 784q6 33 -27 33h-16 q-69 0 -182 -55l-17 -8l-131 -754h-329z" />
<glyph unicode="n" horiz-adv-x="1148" d="M25 0l194 1106h330l-25 -141l19 20q43 47 110 88t144 41h61q118 0 186 -84q52 -63 51 -147q0 -27 -5 -56l-146 -827h-330l138 784q6 33 -25 33h-20q-92 0 -205 -55l-17 -8l-131 -754h-329z" />
<glyph unicode="o" horiz-adv-x="1099" d="M37 279l96 548q22 120 117.5 203.5t212.5 83.5h373q117 0 185 -84q51 -63 51 -147q0 -27 -5 -56l-96 -548q-22 -120 -118.5 -203.5t-213.5 -83.5h-373q-117 0 -184 84q-50 63 -50 146q0 27 5 57zM369 293q-1 -3 -1 -7q0 -6 4 -12q6 -8 17 -8h221q9 0 18.5 7.5t12.5 19.5 l92 520q1 12 -5 19.5t-15 7.5h-221q-11 0 -20.5 -7.5t-10.5 -19.5z" />
<glyph unicode="p" horiz-adv-x="1136" d="M-47 -397l266 1503h330l-25 -141l19 20q43 47 110 88t144 41h75q117 0 186 -84q51 -63 51 -147q0 -27 -5 -56l-96 -548q-22 -120 -118.5 -203.5t-213.5 -83.5h-76q-78 0 -132.5 41.5t-78.5 87.5l-10 20l-96 -538h-330zM416 352l12 -8q84 -55 184 -55h31q33 0 39 33 l82 462q1 5 1 9q0 24 -28 24h-30q-95 0 -205 -55l-17 -8z" />
<glyph unicode="q" d="M37 279l96 548q22 120 117.5 203.5t212.5 83.5h76q77 0 132 -41.5t81 -89.5l10 -18l24 141h330l-266 -1503h-330l96 538l-18 -18q-131 -131 -256 -131h-76q-117 0 -184 84q-50 62 -50 146q0 27 5 57zM373 322q-1 -5 -1 -10q0 -23 27 -23h31q111 0 207 55l14 8l70 402 l-10 6q-95 57 -187 57h-30q-33 0 -39 -33z" />
<glyph unicode="r" horiz-adv-x="886" d="M25 0l194 1106h330l-25 -141l19 20q43 47 110 88t144 41h145l-53 -305h-184q-93 0 -203 -55l-17 -9l-131 -745h-329z" />
<glyph unicode="s" horiz-adv-x="1069" d="M29 285l14 80h332l-10 -60q-3 -15 4.5 -23t21.5 -8h189q13 0 24 8.5t14 22.5l11 64q7 38 -27 43l-291 43q-109 17 -161 80q-39 47 -39 113q0 21 4 44l22 129q22 122 121 207.5t217 85.5h299q122 0 192 -86q54 -65 53 -151q0 -27 -5 -56l-10 -61h-332l10 57 q3 14 -6.5 22.5t-20.5 8.5h-147q-36 0 -41 -31l-12 -69q-7 -41 28 -46l291 -43q106 -15 160 -79q41 -48 41 -114q0 -21 -4 -44l-25 -137q-22 -121 -122 -207t-220 -86h-338q-120 0 -190 86q-53 65 -52 151q0 27 5 56z" />
<glyph unicode="t" horiz-adv-x="864" d="M88 834l49 272h168l64 369h321l-63 -369h278l-49 -272h-274l-90 -519q-6 -26 20 -26h248l-49 -289h-324q-117 0 -185 84q-51 63 -51 147q0 27 5 56l96 547h-164z" />
<glyph unicode="u" horiz-adv-x="1146" d="M59 279l146 827h330l-140 -784q-6 -33 27 -33h18q98 0 205 55l17 8l133 754h329l-194 -1106h-330l25 141l-19 -18q-131 -131 -256 -131h-61q-117 0 -185 84q-51 63 -50 146q0 28 5 57z" />
<glyph unicode="v" horiz-adv-x="1091" d="M123 1106h334l47 -807l313 807h344l-534 -1106h-357z" />
<glyph unicode="w" horiz-adv-x="1611" d="M123 1106h334l20 -774l283 774h289l20 -774l279 774h333l-499 -1106h-330l-14 637l-250 -637h-328z" />
<glyph unicode="x" horiz-adv-x="1075" d="M-74 0l430 578l-231 528h342l121 -277l200 277h347l-422 -563l237 -543h-342l-129 295l-207 -295h-346z" />
<glyph unicode="y" horiz-adv-x="1120" d="M104 -397l203 397l-184 1106h307l86 -692l352 692h322l-780 -1503h-306z" />
<glyph unicode="z" horiz-adv-x="983" d="M-39 0l41 240l543 577h-428l51 289h836l-41 -234l-545 -583h461l-50 -289h-868z" />
<glyph unicode="{" horiz-adv-x="950" d="M78 549l51 297h174q16 0 29 11t16 30l76 430q22 126 116.5 207.5t219.5 81.5h282l-57 -326h-184q-39 0 -47 -41l-64 -362q-7 -44 -30.5 -81.5t-43.5 -56t-51 -41.5q80 -75 62 -178l-66 -370q-6 -41 33 -41h184l-57 -326h-283q-125 0 -190.5 81.5t-42.5 207.5l76 436 q4 19 -4.5 30t-24.5 11h-174z" />
<glyph unicode="|" horiz-adv-x="743" d="M35 -442l362 2054h322l-363 -2054h-321z" />
<glyph unicode="}" horiz-adv-x="948" d="M-43 -217l57 326h185q39 0 45 41l65 370q17 101 127 178q-17 17 -27 29.5t-23.5 37.5t-14.5 49t2 63l63 362q4 22 -3 31.5t-27 9.5h-185l58 326h284q123 0 188.5 -81.5t43.5 -207.5l-76 -430q-6 -41 31 -41h172l-52 -297h-172q-38 0 -47 -41l-76 -436 q-23 -126 -116.5 -207.5t-216.5 -81.5h-285z" />
<glyph unicode="~" horiz-adv-x="1017" d="M127 524h164l59 88l328 -73q84 -22 131 61l129 229h-168l-61 -84l-326 70q-90 22 -133 -63z" />
<glyph unicode="&#xa1;" horiz-adv-x="538" d="M-78 -369l230 947h239l-102 -947h-367zM143 772l60 334h325l-59 -334h-326z" />
<glyph unicode="&#xa2;" horiz-adv-x="1196" d="M92 483l92 521q22 126 116.5 207t217.5 81h82l31 183h282l-30 -183h61q123 0 188.5 -81t43.5 -207l-29 -162h-307l20 119q4 21 -3 28.5t-28 7.5h-28l-88 -508h28q20 0 29.5 7.5t13.5 29.5l21 119h307l-29 -162q-22 -126 -116 -207t-217 -81h-62l-33 -195h-282l33 195h-82 q-123 0 -188.5 81t-43.5 207zM408 526q-4 -21 3.5 -29t28.5 -8h43l88 508h-43q-21 0 -31 -7.5t-14 -28.5z" />
<glyph unicode="&#xa3;" horiz-adv-x="1259" d="M-55 0l57 326h104q57 0 70 61l29 164h-164l57 323h164l55 314q25 138 115 216.5t225 78.5h379q135 0 199 -78.5t39 -216.5l-35 -199h-344l23 127q6 41 -31 41h-193q-39 0 -45 -41l-43 -242h236l-58 -323h-235l-39 -225h620l-57 -326h-1128z" />
<glyph unicode="&#xa4;" horiz-adv-x="1200" d="M-31 332l209 180q0 36 6 76l60 332q5 32 18 69l-145 180l231 199l139 -174q45 10 84 10h289q34 0 64 -6l209 180l167 -209l-204 -178q0 -33 -6 -71l-60 -332q-4 -25 -20 -76l143 -180l-231 -199l-142 178q-33 -8 -78 -8h-288q-35 0 -62 6l-215 -186zM473 608 q-4 -21 4 -29t29 -8h196q21 0 31.5 8t14.5 29l51 291q3 21 -4.5 29t-28.5 8h-197q-21 0 -31.5 -8t-13.5 -29z" />
<glyph unicode="&#xa5;" horiz-adv-x="1202" d="M94 315l27 150h295l4 27l-12 51h-275l27 149h209l-201 783h375l119 -590l325 590h375l-475 -783h207l-27 -149h-272l-31 -51l-4 -27h295l-27 -150h-295l-55 -315h-344l55 315h-295z" />
<glyph unicode="&#xa6;" horiz-adv-x="743" d="M35 -442l143 811h322l-144 -811h-321zM254 801l143 811h322l-144 -811h-321z" />
<glyph unicode="&#xa7;" horiz-adv-x="1081" d="M6 100l17 88h327l-10 -51q-6 -37 33 -37h164q39 0 45 37l14 70q4 25 -4 35.5t-29 13.5l-272 49q-97 18 -151.5 82t-39.5 156l31 184q15 90 123 184q-19 19 -30.5 34.5t-19 43.5t-1.5 62l24 139q22 122 121 207.5t217 85.5h281q119 0 188 -86t47 -207l-12 -74h-328l9 53 q6 37 -31 37h-123q-41 0 -47 -37l-12 -65q-4 -22 4 -32t28 -13l271 -49q98 -18 154.5 -82t39.5 -156l-37 -207q-16 -94 -108 -174q55 -51 41 -127l-29 -164q-22 -122 -121 -207.5t-217 -85.5h-319q-120 0 -190 86t-48 207zM434 596q-4 -22 4 -32t29 -13l160 -29 q17 -2 29.5 8t15.5 29l26 160q4 25 -4 35.5t-28 13.5l-160 31q-36 5 -43 -39z" />
<glyph unicode="&#xa8;" horiz-adv-x="1284" d="M475 1618l47 270h279l-47 -270h-279zM905 1618l47 270h281l-47 -270h-281z" />
<glyph unicode="&#xa9;" horiz-adv-x="1699" d="M106 281l160 913q23 126 117 207.5t217 81.5h827q124 0 190.5 -82t43.5 -207l-160 -913q-23 -126 -118 -207.5t-218 -81.5h-827q-123 0 -189 81.5t-43 207.5zM322 281q-6 -35 7.5 -60.5t43.5 -25.5h827q30 0 55 25.5t31 60.5l160 913q6 35 -8.5 60.5t-44.5 25.5h-828 q-30 0 -54 -25.5t-30 -60.5zM494 477l90 520q17 92 80.5 147.5t152.5 55.5h297q91 0 136 -55.5t28 -147.5l-27 -155h-241l18 100q5 31 -29 31h-147q-34 0 -39 -31l-74 -410q-3 -16 5.5 -23t25.5 -7h148q31 0 36 30l19 101h241l-26 -156q-17 -92 -82 -147.5t-156 -55.5h-297 q-89 0 -132.5 55.5t-26.5 147.5z" />
<glyph unicode="&#xaa;" horiz-adv-x="788" d="M96 477l31 176h588l-31 -176h-588zM160 936l12 74q15 86 72.5 135t142.5 49h27q102 0 184 -25l16 88q6 35 -24 35h-107q-35 0 -41 -35l-4 -16h-202l8 43q13 79 80 137t143 58h203q79 0 124 -57.5t31 -137.5l-92 -528h-207l17 102l-37 -39q-64 -69 -129 -69h-68 q-76 0 -119.5 54.5t-29.5 131.5zM371 963q-3 -23 18 -23h47q48 0 101 21l28 12l17 84h-172q-13 0 -18 -5t-7 -18z" />
<glyph unicode="&#xab;" horiz-adv-x="1163" d="M39 662l20 114l342 369h340l-407 -426l217 -424h-320zM543 662l20 114l344 369h340l-407 -426l217 -424h-320z" />
<glyph unicode="&#xad;" horiz-adv-x="958" d="M88 518l55 309h770l-55 -309h-770z" />
<glyph unicode="&#xae;" horiz-adv-x="815" d="M145 842l91 510q9 54 53 92.5t98 38.5h340q71 0 106.5 -37.5t26.5 -93.5l-90 -510q-9 -54 -53.5 -92.5t-98.5 -38.5h-366q-54 0 -85 38.5t-22 92.5zM229 842q-7 -51 39 -51h369q21 0 36.5 17.5t20.5 45.5l88 498q3 24 -12 37.5t-55 13.5h-340q-47 0 -58 -62zM315 872 l78 447h221q40 0 58.5 -23.5t11.5 -64.5l-16 -96q-6 -34 -26 -57t-48 -29l35 -177h-88l-33 175h-78l-31 -175h-84zM446 1128h123q14 0 17 17l14 76q0 18 -12 18h-123z" />
<glyph unicode="&#xaf;" horiz-adv-x="1239" d="M504 1630l45 256h569l-45 -256h-569z" />
<glyph unicode="&#xb0;" horiz-adv-x="636" d="M211 1157l37 205q9 51 47 84t88 33h199q51 0 77 -33t17 -84l-37 -205q-9 -51 -46.5 -84t-88.5 -33h-199q-50 0 -76.5 33t-17.5 84zM346 1178q-2 -11 4.5 -18t16.5 -7h116q11 0 19.5 7.5t9.5 17.5l29 163q2 11 -4.5 18t-16.5 7h-117q-10 0 -18 -7t-10 -18z" />
<glyph unicode="&#xb1;" horiz-adv-x="1021" d="M33 135l51 287h811l-51 -287h-811zM145 776l54 293h258l41 240h295l-41 -240h258l-54 -293h-258l-41 -237h-295l41 237h-258z" />
<glyph unicode="&#xb2;" horiz-adv-x="745" d="M113 868h641l37 209h-422l8 53q3 19 10 24t29 7l219 51q73 15 134.5 61t72.5 107l28 162q11 65 -33 115.5t-114 50.5h-277q-70 0 -131.5 -50.5t-72.5 -115.5l-19 -98h207l6 33q2 22 41 22h137q19 0 24.5 -2.5t2.5 -15.5l-6 -39q-3 -19 -10.5 -24t-26.5 -7l-221 -51 q-73 -15 -135.5 -61t-73.5 -107z" />
<glyph unicode="&#xb3;" horiz-adv-x="743" d="M129 1030l18 103h220l-9 -46q-2 -11 5 -16.5t24 -5.5h135q36 0 39 22l17 87q1 6 -0.5 10.5t-3.5 7t-7 3.5t-8 1h-9.5h-8.5h-150l33 193h149q11 0 16 0.5t11 6t8 17.5l15 72q1 10 -8 16t-23 6h-115q-38 0 -41 -22l-8 -45h-215l18 102q11 65 73 115.5t132 50.5h262 q70 0 115.5 -50.5t34.5 -115.5l-23 -123q-7 -39 -27.5 -68.5t-70.5 -56.5q79 -47 64 -125l-25 -139q-11 -65 -73 -115.5t-132 -50.5h-282q-68 0 -114 51t-36 115z" />
<glyph unicode="&#xb4;" horiz-adv-x="692" d="M248 1610l233 295h391l-383 -295h-241z" />
<glyph unicode="&#xb6;" horiz-adv-x="1771" d="M135 791l70 395q22 126 115.5 207.5t216.5 81.5h1249l-258 -1475h-344l200 1149h-188l-201 -1149h-344l88 502h-372q-123 0 -189 81.5t-43 207.5z" />
<glyph unicode="&#xb7;" horiz-adv-x="514" d="M90 518l60 332h319l-59 -332h-320z" />
<glyph unicode="&#xb8;" horiz-adv-x="1134" d="M190 -301h248q17 0 21 27l4 20q4 27 -12 27h-220l142 227h164l-70 -102h45q77 0 115 -38.5t26 -113.5l-4 -20q-13 -75 -65 -113.5t-129 -38.5h-187z" />
<glyph unicode="&#xb9;" horiz-adv-x="522" d="M195 1427l30 177l234 100h168l-146 -836h-215l107 609z" />
<glyph unicode="&#xba;" horiz-adv-x="786" d="M96 477l31 176h569l-30 -176h-570zM160 936l63 356q14 77 77.5 132t139.5 55h234q75 0 119.5 -55.5t31.5 -131.5l-63 -356q-13 -77 -77 -131.5t-140 -54.5h-234q-77 0 -120.5 54t-30.5 132zM371 961q-3 -23 14 -23h147q24 0 27 23l53 303q3 15 -0.5 20.5t-15.5 5.5h-147 q-20 0 -25 -26z" />
<glyph unicode="&#xbb;" horiz-adv-x="1163" d="M-25 295l406 424l-215 426h319l191 -369l-21 -114l-340 -367h-340zM483 295l406 424l-215 426h319l191 -369l-21 -114l-340 -367h-340z" />
<glyph unicode="&#xbc;" horiz-adv-x="1730" d="M121 0l1108 1475h241l-1108 -1475h-241zM154 1198l30 176l234 101h168l-146 -836h-215l107 608zM870 303l572 533h174l-88 -502h123l-33 -191h-123l-25 -143h-210l24 143h-391zM1145 334h172l31 174z" />
<glyph unicode="&#xbd;" horiz-adv-x="1748" d="M121 0l1108 1475h241l-1108 -1475h-241zM154 1198l30 176l234 101h168l-146 -836h-215l107 608zM963 0h641l36 209h-421l8 53q3 19 10 24t29 7l219 51q73 15 134.5 61t72.5 107l28 162q11 65 -33 115.5t-114 50.5h-277q-70 0 -131.5 -50.5t-72.5 -115.5l-19 -99h207l6 33 q3 23 41 23h137q19 0 24.5 -3t2.5 -16l-6 -39q-3 -19 -10 -23.5t-27 -6.5l-221 -51q-73 -15 -135.5 -61t-73.5 -107z" />
<glyph unicode="&#xbe;" horiz-adv-x="1951" d="M88 801l18 102h220l-9 -45q-2 -11 5 -16.5t24 -5.5h135q36 0 39 22l17 86q-1 6 0 10t-3 6.5t-5 4t-6.5 2t-7.5 0.5h-8h-7h-150l33 192h149q11 0 16 1t11 6.5t8 17.5l15 71q1 10 -8 16.5t-23 6.5h-115q-16 0 -28 -6.5t-13 -16.5l-8 -45h-215l18 103q11 65 73 115.5 t132 50.5h262q70 0 115.5 -50.5t34.5 -115.5l-23 -123q-7 -39 -27.5 -68.5t-70.5 -56.5q79 -47 64 -125l-25 -139q-11 -65 -73 -115.5t-132 -50.5h-282q-68 0 -114 51t-36 115zM342 0l1108 1475h242l-1108 -1475h-242zM1092 303l571 533h174l-88 -502h123l-33 -191h-123 l-24 -143h-211l24 143h-391zM1366 334h172l31 174z" />
<glyph unicode="&#xbf;" horiz-adv-x="1136" d="M-51 -88l51 289q4 25 15.5 48t33 45t40.5 39t54.5 40t57 36t66.5 38.5t65 37.5l102 58q42 23 47 47l11 59h344l-25 -143q-4 -26 -23 -54.5t-41.5 -50.5t-63 -51.5t-67.5 -46.5t-76.5 -48t-70.5 -44l-94 -55q-44 -24 -47 -41l-21 -125q-8 -41 31 -41h287q39 0 47 41 l16 100h344l-31 -178q-23 -126 -116.5 -207.5t-216.5 -81.5h-488q-123 0 -188.5 81.5t-42.5 207.5zM516 786l57 320h345l-58 -320h-344z" />
<glyph unicode="&#xc0;" horiz-adv-x="1339" d="M-76 0l705 1475h401l191 -1475h-359l-26 299h-416l-129 -299h-367zM518 1905h375l139 -295h-223zM561 625h246l-43 471z" />
<glyph unicode="&#xc1;" horiz-adv-x="1339" d="M-76 0l705 1475h401l191 -1475h-359l-26 299h-416l-129 -299h-367zM561 625h246l-43 471zM686 1610l234 295h391l-383 -295h-242z" />
<glyph unicode="&#xc2;" horiz-adv-x="1339" d="M-76 0l705 1475h401l191 -1475h-359l-26 299h-416l-129 -299h-367zM416 1610l350 272h278l250 -272h-268l-141 137l-176 -137h-293zM561 625h246l-43 471z" />
<glyph unicode="&#xc3;" horiz-adv-x="1339" d="M-76 0l705 1475h401l191 -1475h-359l-26 299h-416l-129 -299h-367zM539 1610l75 194q26 75 127 56l289 -64l49 66h144l-80 -197q-32 -76 -127 -53l-293 67l-49 -69h-135zM561 625h246l-43 471z" />
<glyph unicode="&#xc4;" horiz-adv-x="1339" d="M-76 0l705 1475h401l191 -1475h-359l-26 299h-416l-129 -299h-367zM504 1618l47 270h278l-47 -270h-278zM561 625h246l-43 471zM934 1618l47 270h281l-48 -270h-280z" />
<glyph unicode="&#xc5;" horiz-adv-x="1339" d="M-76 0l705 1475h401l191 -1475h-359l-26 299h-416l-129 -299h-367zM561 625h246l-43 471zM664 1679l41 232q4 26 29 47.5t50 21.5h271q26 0 43 -21.5t12 -47.5l-41 -232q-5 -26 -29.5 -47.5t-50.5 -21.5h-270q-25 0 -42 21.5t-13 47.5zM807 1751q-2 -11 4 -18t16 -7h97 q22 0 26 25l17 88q2 11 -3.5 18t-15.5 7h-96q-11 0 -19.5 -7.5t-9.5 -17.5z" />
<glyph unicode="&#xc6;" horiz-adv-x="2068" d="M-96 0l985 1475h1249l-57 -326h-615l-39 -223h482l-58 -326h-481l-47 -274h614l-57 -326h-958l53 299h-490l-192 -299h-389zM696 625h334l92 518h-90z" />
<glyph unicode="&#xc7;" horiz-adv-x="1243" d="M63 281l160 913q23 126 117 207.5t217 81.5h481q123 0 189 -81.5t43 -207.5l-47 -266h-344l34 188q6 41 -32 41h-281q-39 0 -45 -41l-135 -758q-6 -41 33 -41h280q39 0 45 41l35 189h344l-47 -266q-23 -126 -117 -207.5t-217 -81.5h-164l-63 -94h45q77 0 115 -38.5 t26 -113.5l-4 -20q-13 -75 -65 -113.5t-129 -38.5h-187l-78 125h248q17 0 21 27l4 20q4 27 -13 27h-219l138 219h-156q-123 0 -189 81.5t-43 207.5z" />
<glyph unicode="&#xc8;" horiz-adv-x="1204" d="M49 0l258 1475h967l-57 -326h-623l-39 -231h496l-60 -328h-495l-45 -264h622l-57 -326h-967zM483 1905l291 -295h223l-139 295h-375z" />
<glyph unicode="&#xc9;" horiz-adv-x="1204" d="M49 0l258 1475h967l-57 -326h-623l-39 -231h496l-60 -328h-495l-45 -264h622l-57 -326h-967zM651 1610l234 295h391l-383 -295h-242z" />
<glyph unicode="&#xca;" horiz-adv-x="1204" d="M49 0l258 1475h967l-57 -326h-623l-39 -231h496l-60 -328h-495l-45 -264h622l-57 -326h-967zM381 1610h293l176 137l141 -137h269l-250 272h-279z" />
<glyph unicode="&#xcb;" horiz-adv-x="1204" d="M49 0l258 1475h967l-57 -326h-623l-39 -231h496l-60 -328h-495l-45 -264h622l-57 -326h-967zM469 1618l47 270h279l-47 -270h-279zM899 1618l47 270h281l-47 -270h-281z" />
<glyph unicode="&#xcc;" horiz-adv-x="636" d="M49 0l258 1475h344l-258 -1475h-344zM168 1905l291 -295h223l-139 295h-375z" />
<glyph unicode="&#xcd;" horiz-adv-x="636" d="M49 0l258 1475h344l-258 -1475h-344zM336 1610l233 295h392l-383 -295h-242z" />
<glyph unicode="&#xce;" horiz-adv-x="636" d="M49 0l258 1475h344l-258 -1475h-344zM66 1610h292l177 137l141 -137h268l-250 272h-278z" />
<glyph unicode="&#xcf;" horiz-adv-x="636" d="M49 0l258 1475h344l-258 -1475h-344zM154 1618l47 270h278l-47 -270h-278zM584 1618l47 270h280l-47 -270h-280z" />
<glyph unicode="&#xd0;" horiz-adv-x="1282" d="M-25 569l60 340h153l99 566h760q123 0 190 -81.5t45 -207.5l-160 -897q-22 -126 -116.5 -207.5t-217.5 -81.5h-759l100 569h-154zM430 332h315q42 0 50 41l127 729q4 22 -3.5 31.5t-29.5 9.5h-316l-41 -234h156l-59 -340h-156z" />
<glyph unicode="&#xd1;" horiz-adv-x="1435" d="M49 0l258 1475h357l303 -914l159 914h324l-258 -1475h-354l-306 911l-159 -911h-324zM586 1610h135l49 69l293 -67q95 -23 127 53l80 197h-144l-49 -66l-289 64q-100 19 -126 -56z" />
<glyph unicode="&#xd2;" horiz-adv-x="1294" d="M63 281l160 913q23 126 117 207.5t217 81.5h506q124 0 189 -81.5t42 -207.5l-159 -913q-23 -127 -116.5 -208t-217.5 -81h-506q-123 0 -189 81.5t-43 207.5zM420 358q-6 -41 33 -41h307q37 0 43 41l135 758q6 41 -31 41h-307q-39 0 -45 -41zM498 1905l290 -295h224 l-140 295h-374z" />
<glyph unicode="&#xd3;" horiz-adv-x="1294" d="M63 281l160 913q23 126 117 207.5t217 81.5h506q124 0 189 -81.5t42 -207.5l-159 -913q-23 -127 -116.5 -208t-217.5 -81h-506q-123 0 -189 81.5t-43 207.5zM420 358q-6 -41 33 -41h307q37 0 43 41l135 758q6 41 -31 41h-307q-39 0 -45 -41zM666 1610l233 295h391 l-383 -295h-241z" />
<glyph unicode="&#xd4;" horiz-adv-x="1294" d="M63 281l160 913q23 126 117 207.5t217 81.5h506q124 0 189 -81.5t42 -207.5l-159 -913q-23 -127 -116.5 -208t-217.5 -81h-506q-123 0 -189 81.5t-43 207.5zM395 1610h293l176 137l142 -137h268l-250 272h-279zM420 358q-6 -41 33 -41h307q37 0 43 41l135 758 q6 41 -31 41h-307q-39 0 -45 -41z" />
<glyph unicode="&#xd5;" horiz-adv-x="1294" d="M63 281l160 913q23 126 117 207.5t217 81.5h506q124 0 189 -81.5t42 -207.5l-159 -913q-23 -127 -116.5 -208t-217.5 -81h-506q-123 0 -189 81.5t-43 207.5zM420 358q-6 -41 33 -41h307q37 0 43 41l135 758q6 41 -31 41h-307q-39 0 -45 -41zM518 1610h135l49 69l293 -67 q95 -23 127 53l80 197h-143l-49 -66l-289 64q-101 19 -127 -56z" />
<glyph unicode="&#xd6;" horiz-adv-x="1294" d="M63 281l160 913q23 126 117 207.5t217 81.5h506q124 0 189 -81.5t42 -207.5l-159 -913q-23 -127 -116.5 -208t-217.5 -81h-506q-123 0 -189 81.5t-43 207.5zM420 358q-6 -41 33 -41h307q37 0 43 41l135 758q6 41 -31 41h-307q-39 0 -45 -41zM483 1618l47 270h279 l-47 -270h-279zM913 1618l48 270h280l-47 -270h-281z" />
<glyph unicode="&#xd7;" horiz-adv-x="1019" d="M94 471l248 219l-172 205l217 184l168 -200l248 219l170 -203l-248 -219l172 -205l-217 -184l-168 200l-250 -219z" />
<glyph unicode="&#xd8;" horiz-adv-x="1294" d="M63 281l160 913q23 126 117 207.5t217 81.5h506q124 0 189 -81.5t42 -207.5l-159 -913q-23 -127 -116.5 -208t-217.5 -81h-506q-123 0 -189 81.5t-43 207.5zM473 653l301 504h-174q-39 0 -45 -41zM575 317h185q37 0 43 41l86 484z" />
<glyph unicode="&#xd9;" horiz-adv-x="1298" d="M76 281l209 1194h344l-197 -1117q-6 -41 33 -41h285q39 0 45 41l196 1117h344l-209 -1194q-23 -126 -116.5 -207.5t-216.5 -81.5h-486q-123 0 -188.5 81.5t-42.5 207.5zM498 1905l290 -295h224l-140 295h-374z" />
<glyph unicode="&#xda;" horiz-adv-x="1298" d="M76 281l209 1194h344l-197 -1117q-6 -41 33 -41h285q39 0 45 41l196 1117h344l-209 -1194q-23 -126 -116.5 -207.5t-216.5 -81.5h-486q-123 0 -188.5 81.5t-42.5 207.5zM666 1610l233 295h391l-383 -295h-241z" />
<glyph unicode="&#xdb;" horiz-adv-x="1298" d="M76 281l209 1194h344l-197 -1117q-6 -41 33 -41h285q39 0 45 41l196 1117h344l-209 -1194q-23 -126 -116.5 -207.5t-216.5 -81.5h-486q-123 0 -188.5 81.5t-42.5 207.5zM395 1610h293l176 137l142 -137h268l-250 272h-279z" />
<glyph unicode="&#xdc;" horiz-adv-x="1298" d="M76 281l209 1194h344l-197 -1117q-6 -41 33 -41h285q39 0 45 41l196 1117h344l-209 -1194q-23 -126 -116.5 -207.5t-216.5 -81.5h-486q-123 0 -188.5 81.5t-42.5 207.5zM483 1618l47 270h279l-47 -270h-279zM913 1618l48 270h280l-47 -270h-281z" />
<glyph unicode="&#xdd;" horiz-adv-x="1202" d="M168 1475h362l127 -592l318 592h387l-598 -977l-86 -498h-344l86 498zM621 1610l233 295h391l-383 -295h-241z" />
<glyph unicode="&#xde;" horiz-adv-x="1253" d="M49 0l258 1475h344l-43 -244h418q123 0 189.5 -81.5t44.5 -207.5l-70 -395q-23 -126 -117 -207.5t-217 -81.5h-418l-45 -258h-344zM496 584h317q39 0 45 41l43 239q6 41 -33 41h-317z" />
<glyph unicode="&#xdf;" horiz-adv-x="1140" d="M16 0l209 1196q22 120 118.5 203.5t213.5 83.5h371q117 0 184 -83.5t45 -203.5l-41 -233q-12 -68 -46.5 -118t-113.5 -93q127 -74 103 -209l-45 -256q-22 -120 -117.5 -203.5t-212.5 -83.5h-238l50 287h153q29 0 35 28l47 267q3 20 -4 26t-20 6h-170l49 277h159 q23 0 29 31l43 245q3 13 -4 21t-20 8h-209q-27 0 -33 -29l-205 -1167h-330z" />
<glyph unicode="&#xe0;" d="M37 279l96 548q22 120 117.5 203.5t212.5 83.5h76q78 0 134 -41.5t79 -87.5l10 -20l24 141h330l-196 -1106h-330l26 141l-18 -20q-42 -46 -110.5 -87.5t-145.5 -41.5h-76q-117 0 -184 83.5t-45 203.5zM336 1548l291 -295h223l-139 295h-375zM373 322q-6 -33 26 -33h31 q75 0 207 57l14 6l70 402l-10 6q-95 57 -187 57h-30q-33 0 -39 -33z" />
<glyph unicode="&#xe1;" d="M37 279l96 548q22 120 117.5 203.5t212.5 83.5h76q78 0 134 -41.5t79 -87.5l10 -20l24 141h330l-196 -1106h-330l26 141l-18 -20q-42 -46 -110.5 -87.5t-145.5 -41.5h-76q-117 0 -184 83.5t-45 203.5zM373 322q-6 -33 26 -33h31q75 0 207 57l14 6l70 402l-10 6 q-95 57 -187 57h-30q-33 0 -39 -33zM504 1253l233 295h391l-383 -295h-241z" />
<glyph unicode="&#xe2;" d="M37 279l96 548q22 120 117.5 203.5t212.5 83.5h76q78 0 134 -41.5t79 -87.5l10 -20l24 141h330l-196 -1106h-330l26 141l-18 -20q-42 -46 -110.5 -87.5t-145.5 -41.5h-76q-117 0 -184 83.5t-45 203.5zM233 1253h293l176 138l142 -138h268l-250 273h-278zM373 322 q-6 -33 26 -33h31q75 0 207 57l14 6l70 402l-10 6q-95 57 -187 57h-30q-33 0 -39 -33z" />
<glyph unicode="&#xe3;" d="M37 279l96 548q22 120 117.5 203.5t212.5 83.5h76q78 0 134 -41.5t79 -87.5l10 -20l24 141h330l-196 -1106h-330l26 141l-18 -20q-42 -46 -110.5 -87.5t-145.5 -41.5h-76q-117 0 -184 83.5t-45 203.5zM356 1253h136l49 70l293 -68q95 -23 127 54l79 196h-143l-49 -65 l-289 63q-50 10 -81.5 -2t-45.5 -53zM373 322q-6 -33 26 -33h31q75 0 207 57l14 6l70 402l-10 6q-95 57 -187 57h-30q-33 0 -39 -33z" />
<glyph unicode="&#xe4;" d="M37 279l96 548q22 120 117.5 203.5t212.5 83.5h76q78 0 134 -41.5t79 -87.5l10 -20l24 141h330l-196 -1106h-330l26 141l-18 -20q-42 -46 -110.5 -87.5t-145.5 -41.5h-76q-117 0 -184 83.5t-45 203.5zM322 1262l47 270h278l-47 -270h-278zM373 322q-6 -33 26 -33h31 q75 0 207 57l14 6l70 402l-10 6q-95 57 -187 57h-30q-33 0 -39 -33zM752 1262l47 270h280l-47 -270h-280z" />
<glyph unicode="&#xe5;" d="M37 279l96 548q22 120 117.5 203.5t212.5 83.5h76q78 0 134 -41.5t79 -87.5l10 -20l24 141h330l-196 -1106h-330l26 141l-18 -20q-42 -46 -110.5 -87.5t-145.5 -41.5h-76q-117 0 -184 83.5t-45 203.5zM373 322q-6 -33 26 -33h31q75 0 207 57l14 6l70 402l-10 6 q-95 57 -187 57h-30q-33 0 -39 -33zM481 1323l41 231q4 26 29.5 48t50.5 22h270q26 0 43.5 -22t12.5 -48l-41 -231q-5 -26 -29.5 -48t-50.5 -22h-270q-25 0 -42.5 22t-13.5 48zM625 1395q-2 -11 4 -18t16 -7h96q23 0 27 25l16 88q3 24 -18 24h-96q-11 0 -19.5 -7t-9.5 -17z " />
<glyph unicode="&#xe6;" horiz-adv-x="1673" d="M37 279l18 108q23 132 113 209.5t219 77.5h41q138 5 272 -35l23 135q3 24 -6.5 33.5t-34.5 9.5h-141q-27 0 -40.5 -11t-17.5 -38l-6 -27h-325l14 76q22 120 124.5 208.5t219.5 88.5h307q62 0 115 -35q68 35 131 35h348q117 0 185 -83.5t46 -203.5l-69 -393h-584l-20 -123 q-1 -15 5 -20.5t21 -5.5h195q32 0 37 32l8 48h326l-15 -86q-22 -120 -118.5 -203.5t-213.5 -83.5h-348q-90 0 -152 50.5t-77 133.5l-78 -84q-104 -100 -192 -100h-101q-117 0 -184 83.5t-45 203.5zM367 322q-6 -33 26 -33h62q46 0 151 37l41 14l19 111h-250q-16 0 -22 -5 t-9 -22zM1030 664h258l21 124q8 33 -25 33h-194q-29 0 -37 -24z" />
<glyph unicode="&#xe7;" horiz-adv-x="1071" d="M37 279l96 548q22 120 117.5 203.5t212.5 83.5h344q117 0 185 -83.5t46 -203.5l-26 -147h-330l23 131q3 13 -3.5 21t-17.5 8h-190q-12 0 -22 -8t-13 -21l-90 -516q-3 -13 3.5 -21t18.5 -8h191q11 0 20 8t12 21l23 131h330l-25 -147q-22 -120 -118.5 -203.5t-213.5 -83.5 h-90l-63 -94h45q77 0 115 -38.5t26 -113.5l-4 -20q-13 -74 -65.5 -113t-129.5 -39h-186l-78 125h248q17 0 21 27l4 20q4 27 -13 27h-219l137 219h-92q-117 0 -184 83.5t-45 203.5z" />
<glyph unicode="&#xe8;" horiz-adv-x="1079" d="M37 279l96 548q22 120 117.5 203.5t212.5 83.5h354q117 0 185.5 -83.5t46.5 -203.5l-68 -374h-586l-26 -156q-3 -29 24 -29h201q11 0 19.5 8t9.5 21l12 65h332l-15 -83q-22 -120 -118 -203.5t-213 -83.5h-355q-117 0 -184 83.5t-45 203.5zM332 1548h375l139 -295h-223z M434 672h254l25 137q3 13 -2.5 21t-16.5 8h-200q-12 0 -22 -8t-13 -21z" />
<glyph unicode="&#xe9;" horiz-adv-x="1079" d="M37 279l96 548q22 120 117.5 203.5t212.5 83.5h354q117 0 185.5 -83.5t46.5 -203.5l-68 -374h-586l-26 -156q-3 -29 24 -29h201q11 0 19.5 8t9.5 21l12 65h332l-15 -83q-22 -120 -118 -203.5t-213 -83.5h-355q-117 0 -184 83.5t-45 203.5zM434 672h254l25 137 q3 13 -2.5 21t-16.5 8h-200q-12 0 -22 -8t-13 -21zM500 1253l233 295h391l-383 -295h-241z" />
<glyph unicode="&#xea;" horiz-adv-x="1079" d="M37 279l96 548q22 120 117.5 203.5t212.5 83.5h354q117 0 185.5 -83.5t46.5 -203.5l-68 -374h-586l-26 -156q-3 -29 24 -29h201q11 0 19.5 8t9.5 21l12 65h332l-15 -83q-22 -120 -118 -203.5t-213 -83.5h-355q-117 0 -184 83.5t-45 203.5zM229 1253l351 273h278l250 -273 h-268l-142 138l-176 -138h-293zM434 672h254l25 137q3 13 -2.5 21t-16.5 8h-200q-12 0 -22 -8t-13 -21z" />
<glyph unicode="&#xeb;" horiz-adv-x="1079" d="M37 279l96 548q22 120 117.5 203.5t212.5 83.5h354q117 0 185.5 -83.5t46.5 -203.5l-68 -374h-586l-26 -156q-3 -29 24 -29h201q11 0 19.5 8t9.5 21l12 65h332l-15 -83q-22 -120 -118 -203.5t-213 -83.5h-355q-117 0 -184 83.5t-45 203.5zM317 1262l48 270h278l-47 -270 h-279zM434 672h254l25 137q3 13 -2.5 21t-16.5 8h-200q-12 0 -22 -8t-13 -21zM748 1262l47 270h280l-47 -270h-280z" />
<glyph unicode="&#xec;" horiz-adv-x="585" d="M31 0l194 1106h332l-195 -1106h-331zM109 1548l290 -295h224l-140 295h-374z" />
<glyph unicode="&#xed;" horiz-adv-x="591" d="M33 0l194 1106h330l-195 -1106h-329zM193 1253l233 295h391l-383 -295h-241z" />
<glyph unicode="&#xee;" horiz-adv-x="593" d="M-18 1253h292l177 138l141 -138h268l-250 273h-278zM33 0l194 1106h334l-194 -1106h-334z" />
<glyph unicode="&#xef;" horiz-adv-x="595" d="M33 0l194 1106h334l-194 -1106h-334zM68 1253l47 271h278l-47 -271h-278zM498 1253l47 271h280l-47 -271h-280z" />
<glyph unicode="&#xf0;" horiz-adv-x="1099" d="M37 279l88 501q20 120 116.5 203.5t213.5 83.5h75q79 0 132.5 -41.5t80.5 -89.5l11 -18l20 120q12 64 9.5 96t-27.5 42l-35 14l-78 -70h-272l166 150l-158 67l35 179l311 -78l86 78h272l-151 -138q126 -50 160.5 -128.5t11.5 -211.5l-133 -759q-22 -120 -118.5 -203.5 t-213.5 -83.5h-373q-117 0 -184 83.5t-45 203.5zM373 317q-3 -11 4 -18.5t18 -7.5h219q26 0 33 26l68 388l-13 8q-84 55 -184 55h-33q-34 0 -39 -33z" />
<glyph unicode="&#xf1;" horiz-adv-x="1148" d="M25 0l194 1106h330l-25 -141l19 20q43 47 110 88t144 41h61q117 0 185.5 -83.5t46.5 -203.5l-146 -827h-330l138 784q6 33 -25 33h-20q-92 0 -205 -55l-17 -8l-131 -754h-329zM403 1253h136l49 70l293 -68q95 -23 127 54l79 196h-143l-49 -65l-289 63q-50 10 -81.5 -2 t-45.5 -53z" />
<glyph unicode="&#xf2;" horiz-adv-x="1099" d="M37 279l96 548q22 120 117.5 203.5t212.5 83.5h373q117 0 185 -83.5t46 -203.5l-96 -548q-22 -120 -118.5 -203.5t-213.5 -83.5h-373q-117 0 -184 83.5t-45 203.5zM340 1548l291 -295h223l-139 295h-375zM369 293q-3 -12 3 -19.5t17 -7.5h221q9 0 18.5 7.5t12.5 19.5 l92 520q1 12 -5 19.5t-15 7.5h-221q-11 0 -20.5 -7.5t-10.5 -19.5z" />
<glyph unicode="&#xf3;" horiz-adv-x="1099" d="M37 279l96 548q22 120 117.5 203.5t212.5 83.5h373q117 0 185 -83.5t46 -203.5l-96 -548q-22 -120 -118.5 -203.5t-213.5 -83.5h-373q-117 0 -184 83.5t-45 203.5zM369 293q-3 -12 3 -19.5t17 -7.5h221q9 0 18.5 7.5t12.5 19.5l92 520q1 12 -5 19.5t-15 7.5h-221 q-11 0 -20.5 -7.5t-10.5 -19.5zM508 1253l233 295h392l-383 -295h-242z" />
<glyph unicode="&#xf4;" horiz-adv-x="1099" d="M37 279l96 548q22 120 117.5 203.5t212.5 83.5h373q117 0 185 -83.5t46 -203.5l-96 -548q-22 -120 -118.5 -203.5t-213.5 -83.5h-373q-117 0 -184 83.5t-45 203.5zM238 1253h292l177 138l141 -138h268l-250 273h-278zM369 293q-3 -12 3 -19.5t17 -7.5h221q9 0 18.5 7.5 t12.5 19.5l92 520q1 12 -5 19.5t-15 7.5h-221q-11 0 -20.5 -7.5t-10.5 -19.5z" />
<glyph unicode="&#xf5;" horiz-adv-x="1099" d="M37 279l96 548q22 120 117.5 203.5t212.5 83.5h373q117 0 185 -83.5t46 -203.5l-96 -548q-22 -120 -118.5 -203.5t-213.5 -83.5h-373q-117 0 -184 83.5t-45 203.5zM360 1253h136l49 70l293 -68q95 -23 127 54l79 196h-143l-49 -65l-289 63q-50 10 -81.5 -2t-45.5 -53z M369 293q-3 -12 3 -19.5t17 -7.5h221q9 0 18.5 7.5t12.5 19.5l92 520q1 12 -5 19.5t-15 7.5h-221q-11 0 -20.5 -7.5t-10.5 -19.5z" />
<glyph unicode="&#xf6;" horiz-adv-x="1099" d="M37 279l96 548q22 120 117.5 203.5t212.5 83.5h373q117 0 185 -83.5t46 -203.5l-96 -548q-22 -120 -118.5 -203.5t-213.5 -83.5h-373q-117 0 -184 83.5t-45 203.5zM326 1262l47 270h278l-47 -270h-278zM369 293q-3 -12 3 -19.5t17 -7.5h221q9 0 18.5 7.5t12.5 19.5 l92 520q1 12 -5 19.5t-15 7.5h-221q-11 0 -20.5 -7.5t-10.5 -19.5zM756 1262l47 270h280l-47 -270h-280z" />
<glyph unicode="&#xf7;" horiz-adv-x="1019" d="M57 596l58 324h921l-57 -324h-922zM293 166l51 293h299l-51 -293h-299zM451 1057l51 293h299l-51 -293h-299z" />
<glyph unicode="&#xf8;" horiz-adv-x="1099" d="M37 279l96 548q22 120 117.5 203.5t212.5 83.5h373q117 0 185 -83.5t46 -203.5l-96 -548q-22 -120 -118.5 -203.5t-213.5 -83.5h-373q-117 0 -184 83.5t-45 203.5zM406 498l202 342h-116q-11 0 -20.5 -7.5t-10.5 -19.5zM492 266h118q9 0 18.5 7.5t12.5 19.5l57 323z" />
<glyph unicode="&#xf9;" horiz-adv-x="1146" d="M59 279l146 827h330l-140 -784q-6 -33 27 -33h18q98 0 205 55l17 8l133 754h329l-194 -1106h-330l25 141l-19 -18q-131 -131 -256 -131h-61q-117 0 -184.5 83.5t-45.5 203.5zM354 1548l291 -295h223l-139 295h-375z" />
<glyph unicode="&#xfa;" horiz-adv-x="1146" d="M59 279l146 827h330l-140 -784q-6 -33 27 -33h18q98 0 205 55l17 8l133 754h329l-194 -1106h-330l25 141l-19 -18q-131 -131 -256 -131h-61q-117 0 -184.5 83.5t-45.5 203.5zM522 1253l234 295h391l-383 -295h-242z" />
<glyph unicode="&#xfb;" horiz-adv-x="1146" d="M59 279l146 827h330l-140 -784q-6 -33 27 -33h18q98 0 205 55l17 8l133 754h329l-194 -1106h-330l25 141l-19 -18q-131 -131 -256 -131h-61q-117 0 -184.5 83.5t-45.5 203.5zM252 1253h293l176 138l141 -138h268l-249 273h-279z" />
<glyph unicode="&#xfc;" horiz-adv-x="1146" d="M59 279l146 827h330l-140 -784q-6 -33 27 -33h18q98 0 205 55l17 8l133 754h329l-194 -1106h-330l25 141l-19 -18q-131 -131 -256 -131h-61q-117 0 -184.5 83.5t-45.5 203.5zM340 1262l47 270h279l-48 -270h-278zM770 1262l47 270h281l-47 -270h-281z" />
<glyph unicode="&#xfd;" horiz-adv-x="1120" d="M104 -397l203 397l-184 1106h307l86 -692l352 692h322l-780 -1503h-306zM520 1253l234 295h391l-383 -295h-242z" />
<glyph unicode="&#xfe;" horiz-adv-x="1136" d="M-47 -397l344 1951h330l-103 -589l19 20q43 47 110 88t144 41h75q117 0 185.5 -83.5t46.5 -203.5l-96 -548q-22 -120 -118.5 -203.5t-213.5 -83.5h-76q-78 0 -132.5 41.5t-78.5 87.5l-10 20l-96 -538h-330zM416 352l12 -8q84 -55 184 -55h31q33 0 39 33l82 462 q6 33 -27 33h-30q-95 0 -205 -55l-17 -8z" />
<glyph unicode="&#xff;" horiz-adv-x="1120" d="M104 -397l203 397l-184 1106h307l86 -692l352 692h322l-780 -1503h-306zM338 1262l47 270h279l-48 -270h-278zM768 1262l47 270h281l-47 -270h-281z" />
<glyph unicode="&#x152;" horiz-adv-x="1947" d="M63 289l160 897q22 126 115.5 207.5t216.5 81.5h1462l-57 -326h-637l-41 -240h481l-57 -325h-481l-45 -258h637l-58 -326h-1462q-123 0 -189.5 81.5t-44.5 207.5zM422 367q-6 -41 33 -41h321q38 0 48 7t16 38l129 721q6 38 -2.5 47.5t-46.5 9.5h-322q-39 0 -45 -41z" />
<glyph unicode="&#x153;" horiz-adv-x="1681" d="M37 279l96 548q22 120 117.5 203.5t212.5 83.5h373q56 0 112 -27q66 27 123 27h348q117 0 185.5 -83.5t46.5 -203.5l-70 -393h-584l-20 -127q-1 -12 6 -17t21 -5h194q32 0 37 32l8 48h326l-15 -86q-22 -120 -118 -203.5t-213 -83.5h-349q-58 0 -112 26q-63 -26 -123 -26 h-373q-117 0 -184 83.5t-45 203.5zM367 322q-6 -33 26 -33h217q33 0 39 33l82 462q6 33 -26 33h-218q-32 0 -38 -33zM1038 664h258l21 124q8 33 -25 33h-194q-27 0 -35 -22z" />
<glyph unicode="&#x178;" horiz-adv-x="1202" d="M168 1475h362l127 -592l318 592h387l-598 -977l-86 -498h-344l86 498zM438 1618l47 270h279l-47 -270h-279zM868 1618l47 270h281l-47 -270h-281z" />
<glyph unicode="&#x2c6;" horiz-adv-x="1323" d="M408 1610h292l177 137l141 -137h268l-250 272h-278z" />
<glyph unicode="&#x2dc;" horiz-adv-x="1226" d="M481 1610h135l50 69l292 -67q95 -23 127 53l80 197h-143l-49 -66l-289 64q-101 19 -127 -56z" />
<glyph unicode="&#x2000;" horiz-adv-x="990" />
<glyph unicode="&#x2001;" horiz-adv-x="1980" />
<glyph unicode="&#x2002;" horiz-adv-x="990" />
<glyph unicode="&#x2003;" horiz-adv-x="1980" />
<glyph unicode="&#x2004;" horiz-adv-x="660" />
<glyph unicode="&#x2005;" horiz-adv-x="495" />
<glyph unicode="&#x2006;" horiz-adv-x="330" />
<glyph unicode="&#x2007;" horiz-adv-x="330" />
<glyph unicode="&#x2008;" horiz-adv-x="247" />
<glyph unicode="&#x2009;" horiz-adv-x="396" />
<glyph unicode="&#x200a;" horiz-adv-x="110" />
<glyph unicode="&#x2010;" horiz-adv-x="958" d="M88 518l55 309h770l-55 -309h-770z" />
<glyph unicode="&#x2011;" horiz-adv-x="958" d="M88 518l55 309h770l-55 -309h-770z" />
<glyph unicode="&#x2012;" horiz-adv-x="958" d="M88 518l55 309h770l-55 -309h-770z" />
<glyph unicode="&#x2013;" horiz-adv-x="1134" d="M88 518l55 309h947l-56 -309h-946z" />
<glyph unicode="&#x2014;" horiz-adv-x="1605" d="M88 518l55 311h1418l-56 -311h-1417z" />
<glyph unicode="&#x2018;" horiz-adv-x="520" d="M156 860l41 242q14 71 141 198l172 175h121l-217 -283h118l-57 -332h-319z" />
<glyph unicode="&#x2019;" horiz-adv-x="522" d="M109 860l217 283h-119l57 332h320l-41 -240q-14 -73 -142 -201l-172 -174h-120z" />
<glyph unicode="&#x201a;" horiz-adv-x="522" d="M-94 -283l219 283h-119l57 332h320l-43 -240q-7 -43 -43 -91t-98 -110l-172 -174h-121z" />
<glyph unicode="&#x201c;" horiz-adv-x="978" d="M158 860l41 242q14 71 141 198l172 175h121l-217 -283h119l-58 -332h-319zM612 860l41 242q14 70 142 198l172 175h120l-217 -283h119l-57 -332h-320z" />
<glyph unicode="&#x201d;" horiz-adv-x="976" d="M106 860l218 283h-119l57 332h320l-41 -240q-14 -73 -142 -201l-172 -174h-121zM563 860l217 283h-118l57 332h319l-41 -240q-15 -77 -139 -201l-172 -174h-123z" />
<glyph unicode="&#x201e;" horiz-adv-x="522" d="M-94 -283l219 283h-119l57 332h320l-43 -240q-7 -43 -43 -91t-98 -110l-172 -174h-121z" />
<glyph unicode="&#x2022;" horiz-adv-x="858" d="M197 596l57 332q6 32 32.5 55t57.5 23h328q31 0 49 -23t12 -55l-57 -332q-6 -32 -32.5 -55t-57.5 -23h-328q-31 0 -49 23t-12 55z" />
<glyph unicode="&#x2026;" horiz-adv-x="1417" d="M4 0l57 332h320l-57 -332h-320zM453 0l57 332h319l-57 -332h-319zM901 0l57 332h320l-57 -332h-320z" />
<glyph unicode="&#x202f;" horiz-adv-x="396" />
<glyph unicode="&#x2039;" horiz-adv-x="655" d="M39 662l20 114l342 369h340l-407 -426l217 -424h-320z" />
<glyph unicode="&#x203a;" horiz-adv-x="655" d="M-25 295l406 424l-215 426h319l191 -369l-21 -114l-340 -367h-340z" />
<glyph unicode="&#x205f;" horiz-adv-x="495" />
<glyph unicode="&#x20ac;" horiz-adv-x="1366" d="M37 532l26 150h152l18 104h-151l27 152h151l45 256q23 126 117 207.5t217 81.5h500q124 0 191 -82t44 -207l-37 -211h-344l25 133q6 41 -35 41h-301q-39 0 -45 -41l-33 -178h301l-26 -152h-301l-19 -104h301l-26 -150h-302l-30 -174q-6 -41 33 -41h301q41 0 47 41l24 134 h344l-37 -211q-23 -126 -118.5 -207.5t-218.5 -81.5h-500q-123 0 -189 81.5t-43 207.5l45 251h-153z" />
<glyph unicode="&#x2122;" horiz-adv-x="1523" d="M229 1311l29 164h528l-28 -164h-180l-101 -574h-172l101 574h-177zM764 737l129 738h176l98 -385l219 385h203l-129 -738h-160l78 439l-186 -324h-107l-84 324l-77 -439h-160z" />
<glyph unicode="&#x25fc;" horiz-adv-x="1105" d="M0 0v1106h1106v-1106h-1106z" />
</font>
</defs>
</svg>
