<?xml version="1.0" standalone="no"?>
<!DOCTYPE svg PUBLIC "-//W3C//DTD SVG 1.1//EN" "http://www.w3.org/Graphics/SVG/1.1/DTD/svg11.dtd" >
<svg xmlns="http://www.w3.org/2000/svg">
<metadata></metadata>
<defs>
<font id="industrylight_italic" horiz-adv-x="1134" >
<font-face units-per-em="2048" ascent="1638" descent="-410" />
<missing-glyph horiz-adv-x="530" />
<glyph unicode="&#xfb01;" horiz-adv-x="1196" d="M145 1028l15 78h198l23 135q25 135 110.5 209t217.5 74h159l-14 -78h-152q-89 0 -154.5 -60t-80.5 -153l-23 -127h351l-15 -78h-348l-180 -1028h-90l180 1028h-197zM827 0l195 1106h92l-194 -1106h-93zM1059 1372l26 152h113l-27 -152h-112z" />
<glyph unicode="&#xfb02;" horiz-adv-x="1193" d="M145 1028l15 78h198l23 135q25 135 110.5 209t217.5 74h159l-14 -78h-152q-89 0 -154.5 -60t-80.5 -153l-23 -127h351l-15 -78h-348l-180 -1028h-90l180 1028h-197zM829 0l269 1524h86l-269 -1524h-86z" />
<glyph horiz-adv-x="0" />
<glyph horiz-adv-x="682" />
<glyph unicode=" "  horiz-adv-x="530" />
<glyph unicode="&#x09;" horiz-adv-x="530" />
<glyph unicode="&#xa0;" horiz-adv-x="530" />
<glyph unicode="!" horiz-adv-x="608" d="M145 0l27 158h125l-27 -158h-125zM252 375l151 1100h125l-233 -1100h-43z" />
<glyph unicode="&#x22;" horiz-adv-x="712" d="M279 1026l43 449h122l-112 -449h-53zM547 1026l43 449h123l-113 -449h-53z" />
<glyph unicode="#" horiz-adv-x="1503" d="M84 461l14 76h287l186 426h-260l15 75h278l191 437h94l-191 -437h430l191 437h94l-190 -437h264l-14 -75h-283l-186 -426h256l-15 -76h-276l-201 -461h-92l201 461h-433l-200 -461h-92l200 461h-268zM479 537h430l187 426h-430z" />
<glyph unicode="$" horiz-adv-x="1259" d="M119 293l22 127h101l-25 -135q-18 -98 20 -151.5t130 -53.5h139l112 639l-122 35q-37 10 -62.5 18.5t-54 20t-46.5 23.5t-35.5 28.5t-27 36.5t-15.5 45.5t-5 57t8 69.5l25 137q25 141 111 217t224 76h132l30 174h94l-30 -174h104q138 0 202.5 -80t39.5 -221l-19 -105 h-100l21 113q18 98 -20 151.5t-130 53.5h-115l-106 -607l123 -32q35 -9 61 -17.5t53.5 -19.5t46 -23.5t36 -29t27.5 -37t16 -45.5t5 -57t-8 -70l-30 -172q-25 -141 -111.5 -217t-224.5 -76h-133l-31 -174h-94l30 174h-127q-138 0 -202 80t-39 221zM346.5 991 q-0.5 -23 4.5 -40.5t10 -30t18.5 -23t22 -16.5t27.5 -12.5t27.5 -9t30.5 -7.5l148 -41l102 584h-125q-93 0 -155.5 -57.5t-79.5 -155.5l-25 -140q-5 -28 -5.5 -51zM594 80h127q93 0 155.5 57.5t77.5 155.5l29 174q9 44 5.5 74t-11.5 48.5t-26.5 30.5t-39.5 19.5t-50 15.5 q-6 1 -9 2l-150 39z" />
<glyph unicode="%" horiz-adv-x="1284" d="M100 0l1045 1475h100l-1048 -1475h-97zM193 1044l55 312q9 53 52 90t95 37h178q51 0 85.5 -41.5t25.5 -93.5l-55 -312q-9 -52 -53 -89.5t-95 -37.5h-178q-52 0 -85.5 41t-24.5 94zM289 1040q-6 -43 30 -43h164q18 0 32 15.5t17 36.5l54 305q7 41 -23 41h-164 q-19 0 -36.5 -15t-20.5 -34zM670 127l55 311q9 53 51.5 90t93.5 37h181q51 0 84 -41.5t24 -93.5l-55 -311q-9 -52 -52 -89.5t-94 -37.5h-180q-51 0 -84 41.5t-24 93.5zM766 123q-6 -43 29 -43h163q18 0 33.5 15t18.5 36l53 305q7 41 -25 41h-164q-17 0 -34.5 -15t-20.5 -34z " />
<glyph unicode="&#x26;" horiz-adv-x="1320" d="M109 293l43 250q16 85 72 144.5t116 74.5q-48 29 -78 85t-16 138l37 205q25 141 112.5 217t225.5 76h307q138 0 202 -80t39 -221l-20 -119h-98l22 127q18 98 -20.5 151.5t-130.5 53.5h-308q-93 0 -155.5 -57.5t-79.5 -155.5l-35 -205q-19 -101 10.5 -137.5t139.5 -36.5 h796l-16 -88h-170l-76 -430q-25 -141 -111.5 -217t-224.5 -76h-342q-138 0 -202 80t-39 221zM205 285q-18 -98 20.5 -151.5t130.5 -53.5h342q93 0 155 57.5t79 155.5l74 422h-521q-111 0 -166 -46.5t-69 -133.5z" />
<glyph unicode="'" horiz-adv-x="444" d="M279 1026l43 449h122l-112 -449h-53z" />
<glyph unicode="(" horiz-adv-x="663" d="M119 84l217 1229q25 141 112.5 217t225.5 76h35l-17 -88h-26q-93 0 -155 -57.5t-79 -155.5l-217 -1229q-18 -95 20.5 -150t131.5 -55h34l-14 -88h-27q-138 0 -202 80t-39 221z" />
<glyph unicode=")" horiz-adv-x="665" d="M6 -217h27q138 0 230.5 80t117.5 221l217 1229q25 141 -36.5 217t-199.5 76h-34l-17 -88h27q93 0 135 -57.5t25 -155.5l-217 -1229q-17 -98 -75 -151.5t-151 -53.5h-35z" />
<glyph unicode="*" horiz-adv-x="794" d="M182 1200l43 86l254 -112l33 301h92l-69 -301l292 110l11 -88l-299 -76l147 -233l-80 -53l-110 253l-207 -256l-66 56l230 233z" />
<glyph unicode="+" horiz-adv-x="1019" d="M168 717l14 82h330l61 344h80l-61 -344h332l-15 -82h-331l-60 -344h-80l60 344h-330z" />
<glyph unicode="," horiz-adv-x="430" d="M-25 -244l144 244h-64l27 160h127l-23 -131q-2 -13 -7 -26t-14 -30t-16 -29t-22.5 -38t-24.5 -41l-73 -109h-54z" />
<glyph unicode="-" horiz-adv-x="823" d="M150 629l16 96h553l-17 -96h-552z" />
<glyph unicode="." horiz-adv-x="432" d="M55 0l27 160h129l-27 -160h-129z" />
<glyph unicode="/" horiz-adv-x="892" d="M-74 -143l1014 1761h92l-1014 -1761h-92z" />
<glyph unicode="0" horiz-adv-x="1286" d="M125 293l158 897q25 141 112.5 217t225.5 76h366q138 0 202.5 -80t39.5 -221l-158 -897q-25 -141 -112.5 -217t-225.5 -76h-366q-138 0 -202.5 80t-39.5 221zM221 285q-17 -98 21 -151.5t131 -53.5h366q93 0 156 57.5t80 155.5l158 897q17 98 -21 151.5t-131 53.5h-367 q-93 0 -155.5 -57.5t-79.5 -155.5z" />
<glyph unicode="1" horiz-adv-x="667" d="M233 1274l17 94l262 107h92l-258 -1475h-98l241 1374z" />
<glyph unicode="2" horiz-adv-x="1198" d="M51 0h912l14 88h-813l41 221q7 38 21.5 65.5t40.5 48.5t52.5 36t70.5 36q7 3 11 5l387 190q165 79 196 97q92 54 125 122q17 34 24 78l32 197q23 143 -38 221t-201 78h-312q-139 0 -224 -74t-111 -217l-19 -102h98l17 94q19 98 80 154.5t153 56.5h312q93 0 130.5 -52.5 t18.5 -150.5l-35 -184q-6 -32 -19 -57.5t-26 -41.5t-42 -34.5t-46.5 -27.5t-60.5 -30l-389 -190q-165 -79 -196 -97q-92 -54 -125 -122q-17 -35 -24 -78z" />
<glyph unicode="3" horiz-adv-x="1220" d="M82 291l16 94h99l-19 -102q-17 -98 20 -150.5t130 -52.5h360q93 0 154 56.5t80 154.5l43 254q15 79 -20 124.5t-142 45.5h-371l17 88h362q105 0 152 43.5t63 136.5l37 209q17 98 -20 150.5t-130 52.5h-327q-93 0 -154 -56.5t-80 -154.5l-16 -94h-98l18 102 q26 143 111.5 217t224.5 74h328q141 0 203 -78t36 -221l-35 -207q-16 -82 -64 -136.5t-108 -82.5q52 -12 88.5 -75t22.5 -148l-45 -252q-54 -291 -336 -291h-360q-140 0 -203 78.5t-37 220.5z" />
<glyph unicode="4" horiz-adv-x="1226" d="M33 393l12 80l907 1002h142l-174 -994h213l-17 -88h-213l-67 -393h-103l68 393h-768zM168 481h649l156 889z" />
<glyph unicode="5" horiz-adv-x="1171" d="M100 291l19 104h98l-20 -112q-18 -98 19.5 -150.5t129.5 -52.5h320q92 0 153 56.5t80 154.5l68 383q17 98 -18 145t-128 47h-166q-97 0 -227 -67l-143 -78l-95 29l127 725h873l-14 -89h-775l-104 -595l143 98q105 65 224 65h165q133 0 195 -76.5t39 -211.5l-68 -383 q-26 -143 -111.5 -217t-224.5 -74h-319q-140 0 -203 78.5t-37 220.5z" />
<glyph unicode="6" horiz-adv-x="1228" d="M125 291l158 901q26 143 111 217t224 74h297q140 0 203 -78.5t37 -220.5l-18 -105h-99l21 113q17 98 -20 150.5t-130 52.5h-297q-92 0 -153 -56.5t-80 -154.5l-76 -434l146 98q101 63 221 63h168q140 0 202.5 -78.5t36.5 -220.5l-57 -329q-26 -143 -111.5 -217 t-224.5 -74h-319q-140 0 -203 78.5t-37 220.5zM221 283q-17 -98 20 -150.5t130 -52.5h319q93 0 154 56.5t80 154.5l57 330q17 98 -21 150t-131 52h-167q-108 0 -226 -67l-145 -78z" />
<glyph unicode="7" horiz-adv-x="1083" d="M147 0l877 1386h-807l14 89h930l-6 -56l-895 -1419h-113z" />
<glyph unicode="8" horiz-adv-x="1265" d="M109 291l43 246q14 85 70 144.5t118 74.5q-49 29 -79.5 85t-14.5 138l37 213q26 143 111 217t224 74h347q140 0 202.5 -78.5t36.5 -220.5l-37 -213q-14 -83 -63 -137t-111 -82q54 -11 90.5 -75t22.5 -149l-43 -245q-26 -143 -111.5 -217t-224.5 -74h-379 q-140 0 -202.5 78.5t-36.5 220.5zM205 283q-18 -98 19.5 -150.5t129.5 -52.5h379q93 0 154 56.5t80 154.5l43 246q15 87 -19.5 130.5t-144.5 43.5h-363q-204 0 -235 -183zM342 969q-18 -98 10 -134t137 -36h363q107 0 154 40.5t65 137.5l37 215q17 98 -20 150.5t-130 52.5 h-346q-92 0 -153 -56.5t-80 -154.5z" />
<glyph unicode="9" horiz-adv-x="1226" d="M139 291l19 104h98l-20 -112q-18 -98 19.5 -150.5t129.5 -52.5h297q92 0 153 56.5t80 154.5l82 465l-149 -99q-102 -65 -221 -65h-166q-139 0 -202 78t-38 221l53 301q26 143 111.5 217t224.5 74h320q140 0 202.5 -78.5t36.5 -220.5l-157 -901q-26 -143 -111.5 -217 t-224.5 -74h-297q-141 0 -203.5 78t-36.5 221zM319 883q-19 -98 19 -150.5t131 -52.5h166q106 0 225 68l150 77l63 367q18 98 -19.5 150.5t-129.5 52.5h-320q-92 0 -153 -56.5t-80 -154.5z" />
<glyph unicode=":" horiz-adv-x="432" d="M55 0l27 160h129l-27 -160h-129zM221 946l29 160h129l-29 -160h-129z" />
<glyph unicode=";" horiz-adv-x="430" d="M-25 -244l144 244h-64l27 160h127l-23 -131q-2 -13 -7 -26t-14 -30t-16 -29t-22.5 -38t-24.5 -41l-73 -109h-54zM221 946l29 160h127l-29 -160h-127z" />
<glyph unicode="&#x3c;" horiz-adv-x="1019" d="M158 686l669 -358l15 84l-617 331l731 320l17 98l-797 -360z" />
<glyph unicode="=" horiz-adv-x="1021" d="M141 559l17 92h741l-16 -92h-742zM197 881l16 92h741l-16 -92h-741z" />
<glyph unicode="&#x3e;" horiz-adv-x="1019" d="M115 328l796 358l19 115l-670 360l-14 -82l618 -336l-733 -317z" />
<glyph unicode="?" horiz-adv-x="1114" d="M156 1055l24 135q25 141 112.5 217t225.5 76h359q138 0 202 -80t39 -221l-18 -105q-11 -65 -35.5 -110.5t-75 -82t-86.5 -55.5t-120 -55l-27 -12l-45 -19q-32 -13 -44 -18t-38.5 -18t-37.5 -21t-29.5 -22.5t-27 -29t-17.5 -34.5t-13 -43l-33 -190h-98l35 198 q6 35 16.5 63.5t22 49t32 40t36.5 31.5t47.5 27.5t52.5 24.5t63.5 27t69.5 30l47 21q5 2 16 7q46 20 69 32t53 35.5t46.5 55t24.5 76.5l18 105q17 98 -21 151.5t-131 53.5h-358q-93 0 -156 -57.5t-80 -155.5l-22 -127h-98zM311 0l35 199h98l-34 -199h-99z" />
<glyph unicode="@" horiz-adv-x="1828" d="M94 -35l215 1225q25 141 112.5 217t225.5 76h852q138 0 202.5 -80t39.5 -221l-135 -774q-26 -141 -114 -217t-226 -76h-109l-10 153l-133 -98q-89 -64 -223 -64h-48q-138 0 -202.5 80.5t-38.5 221.5l59 335q25 141 112.5 217t225.5 76h47q54 0 111 -16.5t94 -50.5 l102 -95l66 154h31l-148 -840h70q107 0 175 59t87 169l137 774q20 111 -24 172t-150 61h-852q-106 0 -175.5 -64.5t-90.5 -176.5l-215 -1225q-20 -111 24 -172t150 -61h1020l-10 -60h-1012q-138 0 -203 80t-39 221zM569 399q-20 -110 25.5 -166.5t153.5 -56.5h47 q133 0 227 64l137 88l86 487l-100 92q-69 60 -203 60h-47q-107 0 -176.5 -60.5t-89.5 -171.5z" />
<glyph unicode="A" horiz-adv-x="1310" d="M-27 0l789 1475h110l275 -1475h-94l-84 463h-647l-242 -463h-107zM369 551h583l-151 825z" />
<glyph unicode="B" horiz-adv-x="1318" d="M109 0l258 1475h647q138 0 203 -80q47 -58 47 -147q0 -34 -7 -74l-36 -203q-14 -83 -63 -137t-111 -82q54 -10 90 -74q26 -46 26 -104q0 -22 -4 -46l-41 -235q-25 -141 -112.5 -217t-225.5 -76h-671zM221 88h565q93 0 155 57.5t79 155.5l43 236q8 30 2 61t-21 56t-53 41 t-94 16h-565zM346 799h555q106 0 157.5 44.5t65.5 133.5l35 205q5 31 5 57q0 58 -26 94q-38 53 -130 53h-557z" />
<glyph unicode="C" horiz-adv-x="1275" d="M125 293l158 897q25 141 112.5 217t225.5 76h383q138 0 202 -80q46 -58 46 -147q0 -35 -7 -74l-20 -123h-99l23 131q5 30 5 56q0 58 -26 96q-38 54 -131 53h-383q-93 0 -155.5 -57.5t-79.5 -155.5l-158 -897q-5 -30 -5 -56q0 -57 26 -95q38 -54 131 -54h383 q93 0 155.5 57.5t79.5 155.5l21 123h98l-23 -131q-25 -141 -112 -217t-225 -76h-383q-139 0 -203 80q-46 58 -46 147q0 35 7 74z" />
<glyph unicode="D" horiz-adv-x="1337" d="M109 0l258 1475h669q138 0 204 -80q47 -58 47 -148q0 -34 -7 -73l-156 -881q-25 -141 -112.5 -217t-225.5 -76h-677zM221 88h572q93 0 154.5 57.5t78.5 155.5l156 881q5 30 5 56q0 58 -26 95q-38 53 -131 53h-579z" />
<glyph unicode="E" horiz-adv-x="1191" d="M109 0l258 1475h872l-14 -89h-774l-105 -587h660l-15 -88h-659l-111 -623h774l-14 -88h-872z" />
<glyph unicode="F" horiz-adv-x="1157" d="M109 0l258 1475h872l-14 -89h-774l-107 -606h660l-17 -88h-659l-121 -692h-98z" />
<glyph unicode="G" horiz-adv-x="1310" d="M125 293l158 897q25 141 112.5 217t225.5 76h397q138 0 201 -80q45 -57 45 -146q0 -35 -7 -75l-18 -111h-98l20 119q6 32 6 59q0 56 -25 93q-38 53 -130 53h-398q-93 0 -155.5 -57.5t-79.5 -155.5l-158 -901q-5 -30 -5 -56q0 -58 26 -93q38 -52 131 -52h397 q93 0 155 57.5t79 155.5l61 352h-401l16 88h500l-80 -448q-25 -141 -111.5 -217t-224.5 -76h-397q-138 0 -203 80q-46 58 -46 147q0 35 7 74z" />
<glyph unicode="H" horiz-adv-x="1394" d="M109 0l258 1475h98l-119 -676h791l118 676h99l-258 -1475h-99l125 711h-790l-125 -711h-98z" />
<glyph unicode="I" horiz-adv-x="505" d="M109 0l258 1475h98l-258 -1475h-98z" />
<glyph unicode="J" horiz-adv-x="1187" d="M55 293l33 192h98l-34 -200q-6 -31 -6 -58q0 -57 26 -93q39 -54 131 -54h326q93 0 155.5 57.5t79.5 155.5l207 1182h98l-208 -1190q-25 -141 -112.5 -217t-225.5 -76h-326q-138 0 -203 80q-46 58 -46 147q0 35 7 74z" />
<glyph unicode="K" horiz-adv-x="1341" d="M109 0l258 1475h100l-164 -930l957 930h129l-650 -623l426 -852h-106l-387 784l-389 -372l-74 -412h-100z" />
<glyph unicode="L" horiz-adv-x="1114" d="M109 0l258 1475h98l-244 -1387h723l-14 -88h-821z" />
<glyph unicode="M" horiz-adv-x="1677" d="M109 0l258 1475h131l303 -1139l700 1139h135l-258 -1475h-96l240 1350l-678 -1114h-107l-293 1114l-239 -1350h-96z" />
<glyph unicode="N" horiz-adv-x="1417" d="M109 0l258 1475h120l557 -1346l238 1346h94l-258 -1475h-121l-555 1346l-237 -1346h-96z" />
<glyph unicode="O" horiz-adv-x="1327" d="M125 293l158 897q25 141 112.5 217t225.5 76h407q138 0 202 -80q46 -58 47 -147q0 -35 -7 -74l-158 -897q-25 -141 -112.5 -217t-225.5 -76h-407q-139 0 -203 80q-46 58 -46 147q0 35 7 74zM221 285q-5 -30 -5 -56q0 -57 26 -95q38 -54 131 -54h407q93 0 156 57.5 t80 155.5l158 897q5 30 5 56q0 58 -26 96q-38 54 -131 53h-408q-93 0 -155.5 -57.5t-79.5 -155.5z" />
<glyph unicode="P" horiz-adv-x="1273" d="M109 0l258 1475h655q138 0 204 -80q47 -58 47 -148q0 -34 -7 -73l-52 -285q-25 -141 -112 -217t-225 -76h-566l-104 -596h-98zM326 684h557q93 0 155.5 57.5t79.5 155.5l53 309q5 29 5 54q0 54 -26 84q-38 42 -134 42h-565z" />
<glyph unicode="Q" horiz-adv-x="1327" d="M125 293l158 897q25 141 112.5 217t225.5 76h405q139 0 204 -80q47 -58 47 -147q0 -35 -7 -74l-158 -897q-22 -126 -95 -201t-190 -88l68 -199h-92l-66 195h-370q-138 0 -203 80q-46 58 -46 147q0 35 7 74zM221 285q-5 -30 -5 -56q0 -59 26 -95q38 -54 131 -54h334 l-72 215h92l72 -215q86 7 144 64.5t73 148.5l158 897q5 30 5 55q0 59 -27 97q-39 53 -132 53h-406q-93 0 -155.5 -57.5t-79.5 -155.5z" />
<glyph unicode="R" horiz-adv-x="1320" d="M109 0l258 1475h653q138 0 204 -80q47 -58 47 -148q0 -34 -7 -73l-45 -248q-51 -291 -347 -291l226 -635h-101l-229 635h-451l-110 -635h-98zM334 723h555q93 0 154.5 57.5t78.5 155.5l43 246q5 31 5 57q0 58 -26 94q-38 53 -130 53h-563z" />
<glyph unicode="S" horiz-adv-x="1259" d="M119 293l22 127h101l-25 -135q-5 -30 -5 -56q0 -57 26 -95q38 -54 131 -54h352q93 0 154.5 57.5t78.5 155.5l29 170q5 31 5 55.5t-2.5 42t-13 31.5t-19.5 22.5t-28 16.5t-33 12.5t-40 11.5l-356 95q-36 10 -62.5 18t-54 19.5t-45.5 24t-35.5 29t-27 36.5t-15.5 45.5 t-5.5 57t7.5 69.5l25 141q25 141 111 217t224 76h330q138 0 202 -80q46 -58 47 -147q0 -35 -7 -74l-19 -105h-100l21 113q5 30 5 56q0 58 -26 96q-38 54 -131 53h-328q-93 0 -154.5 -57.5t-78.5 -155.5l-25 -142q-5 -28 -6 -50.5t4 -40t9.5 -30t16.5 -22.5t20 -16.5 t25.5 -12.5t26.5 -8.5t29 -7.5q5 -1 8 -2l357 -96q36 -9 62.5 -17.5t54 -19.5t46 -23.5t35.5 -29t26.5 -37t15.5 -46t5 -57t-8 -69.5l-30 -170q-26 -142 -112.5 -217.5t-223.5 -75.5h-355q-138 0 -202 80q-46 58 -46 147q0 34 7 74z" />
<glyph unicode="T" horiz-adv-x="1132" d="M215 1386l14 89h996l-15 -89h-448l-244 -1386h-98l244 1386h-449z" />
<glyph unicode="U" horiz-adv-x="1331" d="M137 293l207 1182h98l-209 -1190q-5 -30 -5 -56q0 -57 26 -95q38 -54 131 -54h387q93 0 156 57.5t80 155.5l206 1182h99l-209 -1190q-25 -141 -112.5 -217t-225.5 -76h-387q-139 0 -203 80q-46 58 -46 147q0 35 7 74z" />
<glyph unicode="V" horiz-adv-x="1241" d="M229 1475h99l209 -1373l694 1373h104l-753 -1475h-115z" />
<glyph unicode="W" horiz-adv-x="1812" d="M229 1475h99l127 -1340l559 1340h102l94 -1340l590 1340h107l-666 -1475h-111l-90 1317l-551 -1317h-110z" />
<glyph unicode="X" horiz-adv-x="1220" d="M-33 0l625 756l-346 719h102l309 -641l527 641h116l-602 -730l359 -745h-103l-321 670l-551 -670h-115z" />
<glyph unicode="Y" horiz-adv-x="1210" d="M203 1475h106l309 -820l596 820h121l-678 -914l-100 -561h-98l100 561z" />
<glyph unicode="Z" horiz-adv-x="1196" d="M31 0l10 70l1055 1316h-787l15 89h907l-10 -70l-1057 -1317h819l-14 -88h-938z" />
<glyph unicode="[" horiz-adv-x="690" d="M66 -217l321 1823h348l-16 -88h-250l-291 -1647h250l-14 -88h-348z" />
<glyph unicode="\" horiz-adv-x="892" d="M238 1618h92l391 -1761h-92z" />
<glyph unicode="]" horiz-adv-x="692" d="M6 -217l14 88h250l291 1647h-250l17 88h348l-322 -1823h-348z" />
<glyph unicode="^" horiz-adv-x="888" d="M285 1098l258 377h123l125 -377h-70l-121 354l-235 -354h-80z" />
<glyph unicode="_" horiz-adv-x="1103" d="M-113 -158l13 68h1079l-12 -68h-1080z" />
<glyph unicode="`" horiz-adv-x="1331" d="M752 1905l198 -295h64l-127 295h-135z" />
<glyph unicode="a" d="M90 283l96 548q25 135 109.5 209t216.5 74h117q118 0 205 -67l114 -95l27 154h92l-195 -1106h-92l27 154l-145 -99q-101 -63 -222 -63h-116q-132 0 -196 78q-46 56 -45 141q0 34 7 72zM178 274q-4 -26 -4 -49q0 -60 28 -99q40 -54 128 -54h116q59 0 110 17t118 50l143 78 l119 672l-113 82q-51 32 -95 47.5t-103 15.5h-117q-88 0 -152.5 -59t-81.5 -152z" />
<glyph unicode="b" d="M68 0l268 1524h92l-100 -572l143 99q101 63 221 63h117q132 0 195 -78q45 -56 45 -141q0 -34 -7 -72l-96 -549q-23 -135 -108 -208.5t-217 -73.5h-117q-120 0 -203 67l-115 95l-26 -154h-92zM197 217l112 -82q53 -32 97.5 -47.5t103.5 -15.5h117q88 0 150.5 58.5 t80.5 152.5l96 548q5 28 5 53q0 57 -27 95q-39 55 -127 55h-117q-59 0 -109.5 -16.5t-117.5 -50.5l-146 -78z" />
<glyph unicode="c" horiz-adv-x="1060" d="M90 283l96 548q25 135 109.5 209t216.5 74h252q132 0 195 -78q45 -56 45 -141q0 -34 -7 -72l-6 -41h-92l8 49q5 28 5 53q0 56 -26 93q-38 53 -128 53h-252q-88 0 -150.5 -57t-79.5 -150l-96 -549q-4 -26 -4 -49q0 -59 28 -97q38 -52 126 -52h252q88 0 150 57t79 150l6 41 h92l-8 -50q-23 -135 -108.5 -208.5t-217.5 -73.5h-251q-132 0 -196 78q-46 56 -45 141q0 34 7 72z" />
<glyph unicode="d" d="M90 283l96 548q25 135 109.5 209t216.5 74h117q118 0 205 -67l114 -95l101 572h92l-269 -1524h-92l27 154l-145 -99q-101 -63 -222 -63h-116q-132 0 -196 78q-46 56 -45 141q0 34 7 72zM178 274q-4 -26 -4 -49q0 -60 28 -99q40 -54 128 -54h116q59 0 110 17t118 50 l143 78l119 672l-113 82q-51 32 -95 47.5t-103 15.5h-117q-88 0 -152.5 -59t-81.5 -152z" />
<glyph unicode="e" horiz-adv-x="1083" d="M90 283l96 548q25 135 109.5 209t216.5 74h254q132 0 195 -78q45 -56 45 -141q0 -34 -7 -72l-49 -282h-723l-47 -267q-4 -26 -4 -49q0 -59 28 -97q38 -52 126 -52h254q88 0 151 57t80 150l10 61h90l-12 -70q-23 -135 -108 -208.5t-217 -73.5h-254q-132 0 -196 78 q-46 56 -45 141q0 34 7 72zM242 627h632l37 204q5 28 5 52q0 57 -28 94q-40 53 -128 53h-254q-88 0 -150.5 -57t-79.5 -150z" />
<glyph unicode="f" horiz-adv-x="743" d="M145 1028l15 78h198l23 135q25 135 110.5 209t217.5 74h159l-14 -78h-152q-89 0 -154.5 -60t-80.5 -153l-23 -127h351l-15 -78h-348l-180 -1028h-90l180 1028h-197z" />
<glyph unicode="g" d="M49 -96h94l-2 -17q-6 -30 -6 -56q0 -55 26 -92q38 -54 126 -54h243q88 0 151 58.5t81 152.5l55 321l-143 -98q-105 -64 -223 -64h-117q-132 0 -194 78q-46 57 -46 144q0 33 6 69l86 485q25 135 109.5 209t216.5 74h117q118 0 205 -67l114 -95l27 154h92l-215 -1219 q-25 -135 -110.5 -208.5t-217.5 -73.5h-243q-132 0 -195 78q-44 56 -44 141q0 33 7 72v8zM193 338q-5 -29 -5 -54q0 -56 26 -93q38 -54 126 -54h117q98 0 227 70l147 76l107 604l-115 82q-100 63 -200 63h-117q-81 0 -148 -61.5t-82 -147.5z" />
<glyph unicode="h" horiz-adv-x="1120" d="M68 0l268 1524h92l-100 -572l143 99q101 63 221 63h90q132 0 196 -78q46 -56 45 -141q0 -34 -7 -72l-144 -823h-92l146 829q5 28 5 53q1 57 -27 95q-40 55 -128 55h-90q-105 0 -225 -67l-146 -78l-155 -887h-92z" />
<glyph unicode="i" horiz-adv-x="452" d="M84 0l195 1106h92l-195 -1106h-92zM315 1372l27 152h113l-27 -152h-113z" />
<glyph unicode="j" horiz-adv-x="450" d="M-233 -397l14 82h63q81 0 141.5 57t75.5 143l215 1221h91l-215 -1221q-25 -135 -110.5 -208.5t-217.5 -73.5h-57zM315 1372l27 152h111l-27 -152h-111z" />
<glyph unicode="k" horiz-adv-x="1007" d="M70 0l258 1475h92l-178 -1014l659 645h115l-426 -414l262 -692h-102l-224 631l-305 -297l-59 -334h-92z" />
<glyph unicode="l" horiz-adv-x="450" d="M86 0l268 1524h86l-268 -1524h-86z" />
<glyph unicode="m" horiz-adv-x="1746" d="M68 0l194 1106h92l-26 -154l143 99q101 63 221 63h47q99 0 160.5 -45t75.5 -127l166 109q105 63 221 63h47q132 0 195 -78q45 -56 45 -141q0 -34 -7 -72l-143 -823h-90l145 831q5 28 5 53q0 57 -27 95q-39 55 -127 55h-47q-104 0 -228 -67l-151 -80q0 -29 -6 -64 l-144 -823h-92l146 831q5 29 5 54q0 57 -26 95q-38 54 -127 54h-47q-97 0 -227 -67l-146 -78l-155 -889h-92z" />
<glyph unicode="n" horiz-adv-x="1120" d="M68 0l194 1106h92l-26 -154l143 99q101 63 221 63h90q132 0 196 -78q46 -56 45 -141q0 -34 -7 -72l-144 -823h-92l146 831q5 29 5 54q-1 57 -27 95q-38 54 -126 54h-90q-97 0 -227 -67l-146 -78l-155 -889h-92z" />
<glyph unicode="o" horiz-adv-x="1099" d="M90 283l96 548q25 135 109.5 209t216.5 74h262q132 0 196 -78q46 -56 45 -141q0 -34 -7 -72l-97 -549q-23 -135 -107 -208.5t-216 -73.5h-264q-132 0 -196 78q-46 56 -45 141q0 34 7 72zM180 274q-4 -26 -4 -49q0 -59 28 -98q38 -53 126 -53h264q88 0 149.5 57.5 t79.5 151.5l97 548q5 28 5 52q1 57 -27 95q-40 54 -128 54h-264q-88 0 -150.5 -57.5t-79.5 -151.5z" />
<glyph unicode="p" d="M-2 -387l264 1493h92l-26 -154l143 99q101 63 221 63h117q132 0 195 -78q45 -56 45 -141q0 -34 -7 -72l-96 -549q-23 -135 -108 -208.5t-217 -73.5h-117q-120 0 -203 67l-115 95l-96 -541h-92zM197 217l112 -82q53 -32 97.5 -47.5t103.5 -15.5h117q88 0 150.5 58.5 t80.5 152.5l96 548q5 28 5 53q0 57 -27 95q-39 55 -127 55h-117q-59 0 -109.5 -16.5t-117.5 -50.5l-146 -78z" />
<glyph unicode="q" d="M90 283l96 548q25 135 109.5 209t216.5 74h117q118 0 205 -67l114 -95l27 154h92l-264 -1493h-92l96 541l-145 -99q-101 -63 -222 -63h-116q-132 0 -196 78q-45 56 -45 141q0 34 7 72zM178 274q-4 -26 -4 -49q0 -60 28 -99q40 -54 128 -54h116q59 0 110 17t118 50l143 78 l119 672l-113 82q-51 32 -95 47.5t-103 15.5h-117q-88 0 -152.5 -59t-81.5 -152z" />
<glyph unicode="r" horiz-adv-x="743" d="M68 0l194 1106h92l-26 -154l143 99q101 63 221 63h90l-14 -82h-82q-59 0 -110.5 -17.5t-116.5 -51.5l-144 -76l-155 -887h-92z" />
<glyph unicode="s" horiz-adv-x="1034" d="M66 256l10 68h86l-12 -76q-5 -26 -5 -49q0 -51 24 -82q34 -45 116 -45h293q80 0 131.5 49t66.5 135l19 106q4 21 4 39q0 41 -20 62q-28 30 -103 43l-309 55q-118 21 -166 76q-33 38 -33 104q0 29 6 62l10 55q47 256 295 256h254q123 0 179 -68q40 -49 41 -129 q0 -31 -7 -67l-10 -49h-86l10 57q5 27 5 49q0 123 -138 123h-252q-82 0 -133.5 -48t-65.5 -132l-10 -59q-4 -22 -3 -41q0 -40 17 -60q26 -30 101 -43l313 -55q115 -20 162 -76q33 -39 33 -105q0 -28 -6 -61l-19 -102q-47 -256 -293 -256h-292q-126 0 -181 68q-39 48 -39 126 q0 33 7 70z" />
<glyph unicode="t" horiz-adv-x="811" d="M143 1028l15 78h198l64 369h88l-64 -369h379l-14 -78h-377l-131 -745q-6 -30 -6 -56q0 -57 27 -95q39 -56 127 -56h192l-12 -76h-185q-132 0 -195 78q-45 56 -45 141q0 34 7 72l129 737h-197z" />
<glyph unicode="u" horiz-adv-x="1120" d="M102 283l146 823h92l-147 -832q-4 -27 -4 -50q0 -59 27 -98q38 -54 126 -54h90q59 0 109.5 16.5t117.5 50.5l144 78l158 889h92l-195 -1106h-92l27 154l-146 -99q-101 -63 -221 -63h-90q-132 0 -196 78q-46 56 -45 141q0 34 7 72z" />
<glyph unicode="v" horiz-adv-x="948" d="M141 1106h95l151 -1045l514 1045h103l-562 -1106h-131z" />
<glyph unicode="w" horiz-adv-x="1460" d="M141 1106h86l117 -1028l434 1028h92l74 -1028l479 1028h93l-531 -1106h-106l-74 971l-416 -971h-110z" />
<glyph unicode="x" horiz-adv-x="987" d="M-51 0l493 561l-299 545h101l260 -473l414 473h108l-481 -549l305 -557h-100l-269 489l-426 -489h-106z" />
<glyph unicode="y" horiz-adv-x="940" d="M141 1106h95l161 -993l500 993h98l-759 -1493h-91l195 385z" />
<glyph unicode="z" horiz-adv-x="903" d="M-10 0l6 47l795 983h-588l14 76h705l-7 -49l-798 -981h608l-12 -76h-723z" />
<glyph unicode="{" horiz-adv-x="753" d="M121 670l14 84h17q172 0 208 188l66 371q25 141 112.5 217t225.5 76h35l-17 -88h-26q-93 0 -156 -57.5t-80 -155.5l-65 -371q-29 -165 -195 -227q144 -74 117 -226l-72 -405q-17 -98 21 -151.5t131 -53.5h35l-15 -88h-26q-138 0 -202.5 80t-39.5 221l72 405 q15 92 -16.5 136.5t-119.5 44.5h-24z" />
<glyph unicode="|" horiz-adv-x="571" d="M76 -442l362 2054h68l-363 -2054h-67z" />
<glyph unicode="}" horiz-adv-x="753" d="M6 -217l14 88h27q93 0 156 57.5t80 155.5l71 405q23 147 195 226q-64 26 -95.5 85t-17.5 142l66 371q15 98 -24 151.5t-132 53.5h-35l17 88h26q138 0 202.5 -80t39.5 -221l-66 -371q-15 -93 15 -136.5t119 -43.5h24l-14 -84h-17q-175 0 -206 -189l-72 -405 q-25 -141 -112.5 -217t-225.5 -76h-35z" />
<glyph unicode="~" horiz-adv-x="1017" d="M164 557h94l74 137l350 -123q80 -27 131 66l82 160h-98l-70 -133l-348 118q-42 13 -77.5 -4.5t-57.5 -62.5z" />
<glyph unicode="&#xa1;" horiz-adv-x="608" d="M80 -369l233 1100h43l-151 -1100h-125zM311 948l29 158h125l-29 -158h-125z" />
<glyph unicode="&#xa2;" horiz-adv-x="1085" d="M139 508l86 479q23 133 116 213t222 80h70l33 195h77l-32 -195h65q131 0 198 -84t44 -217l-6 -35h-99l9 43q17 95 -25.5 150t-124.5 55h-78l-157 -895h65q93 0 155 56.5t79 154.5l6 35h98l-6 -43q-25 -134 -117.5 -213.5t-222.5 -79.5h-74l-35 -207h-77l34 207h-61 q-129 0 -197 84t-45 217zM238 500q-19 -98 19.5 -150.5t131.5 -52.5h70l157 895h-61q-93 0 -154.5 -57.5t-78.5 -155.5z" />
<glyph unicode="&#xa3;" horiz-adv-x="1247" d="M-12 0l14 88h104q28 0 47 16.5t23 45.5l92 520h-164l17 88h164l75 432q25 141 112.5 217t225.5 76h273q138 0 202 -80t39 -221l-24 -140h-98l26 148q18 98 -20.5 151.5t-130.5 53.5h-273q-93 0 -155.5 -57.5t-79.5 -155.5l-74 -424h481l-16 -88h-481l-103 -582h764 l-14 -88h-1026z" />
<glyph unicode="&#xa4;" horiz-adv-x="1220" d="M70 262l178 156q-38 75 -17 186l54 307q18 112 77 183l-120 145l69 61l119 -147q77 51 193 51h194q105 0 170 -47l172 152l62 -70l-177 -156q34 -69 15 -180l-53 -307q-17 -108 -80 -184l123 -150l-70 -61l-123 151q-76 -49 -188 -49h-195q-102 0 -166 45l-176 -155z M330 596q-18 -98 19.5 -151.5t129.5 -53.5h195q95 0 155.5 57t79.5 156l54 307q35 197 -154 197h-195q-93 0 -153.5 -54t-77.5 -151z" />
<glyph unicode="&#xa5;" horiz-adv-x="1210" d="M168 332l16 88h351l24 141l-2 6h-348l16 88h297l-319 820h106l309 -820l596 820h121l-608 -820h297l-16 -88h-346l-5 -6l-24 -141h350l-16 -88h-351l-59 -332h-98l59 332h-350z" />
<glyph unicode="&#xa6;" horiz-adv-x="571" d="M76 -442l143 811h68l-144 -811h-67zM295 801l143 811h68l-144 -811h-67z" />
<glyph unicode="&#xa7;" horiz-adv-x="1073" d="M45 72l12 67h93l-15 -76q-17 -93 11.5 -132.5t117.5 -39.5h291q88 0 134.5 43.5t64.5 137.5l18 102q10 64 -18 98t-95 45l-313 54q-98 18 -153.5 83.5t-38.5 157.5l20 111q25 157 139 223q-36 27 -50 74t-5 98l18 109q47 256 295 256h252q125 0 180.5 -68.5t32.5 -195.5 l-4 -33h-92l6 41q17 93 -11.5 130.5t-117.5 37.5h-252q-89 0 -135 -41.5t-63 -134.5l-19 -109q-11 -70 16.5 -101t96.5 -42l321 -54q96 -15 148 -81.5t35 -159.5l-17 -101q-28 -158 -141 -225q75 -61 55 -180l-18 -103q-47 -256 -295 -256h-291q-126 0 -181 68.5t-32 196.5z M242 604q-10 -58 20.5 -95t95.5 -48l357 -62q56 7 95 59.5t50 121.5l19 100q11 58 -16 95.5t-93 47.5l-375 64q-109 -20 -135 -172z" />
<glyph unicode="&#xa8;" horiz-adv-x="1284" d="M606 1618l33 188h127l-33 -188h-127zM926 1618l32 188h129l-32 -188h-129z" />
<glyph unicode="&#xa9;" horiz-adv-x="1699" d="M152 293l157 897q25 141 112.5 217t225.5 76h725q138 0 201.5 -80t38.5 -221l-158 -897q-25 -141 -111.5 -217t-224.5 -76h-725q-138 0 -202 80t-39 221zM221 285q-20 -112 24 -173t150 -61h725q106 0 175.5 65t90.5 177l158 897q20 111 -24 172t-150 61h-725 q-106 0 -175.5 -64.5t-90.5 -176.5zM518 510l82 463q41 227 262 227h195q108 0 157.5 -61.5t30.5 -173.5l-14 -74h-94l14 82q12 66 -13 104.5t-87 38.5h-195q-61 0 -105 -43t-55 -108l-82 -461q-12 -66 13.5 -106t85.5 -40h192q62 0 108 44t58 110l12 72h95l-15 -82 q-20 -112 -87 -170t-175 -58h-194q-109 0 -158.5 62t-30.5 174z" />
<glyph unicode="&#xaa;" horiz-adv-x="745" d="M115 530l14 80h524l-14 -80h-524zM170 940l12 64q15 86 69.5 133t139.5 47h37q105 0 238 -25l26 133q8 50 -13.5 80.5t-66.5 30.5h-149q-47 0 -83.5 -34.5t-45.5 -84.5v-2h-82l2 16q15 86 69.5 133.5t139.5 47.5h160q83 0 124 -51.5t27 -137.5l-94 -534h-82l16 94 l-92 -68q-51 -32 -133 -32h-65q-84 0 -126 51.5t-28 138.5zM252 938q-9 -52 12 -82.5t70 -30.5h59q80 0 154 47l80 50l32 188h-268q-47 0 -84 -36t-45 -87z" />
<glyph unicode="&#xab;" horiz-adv-x="753" d="M88 682l10 74l324 389h104l-362 -426l201 -424h-89zM342 682l10 74l326 389h104l-362 -426l201 -424h-89z" />
<glyph unicode="&#xad;" horiz-adv-x="823" d="M150 629l16 96h553l-17 -96h-552z" />
<glyph unicode="&#xae;" horiz-adv-x="835" d="M180 879l84 477q9 54 51.5 90.5t96.5 36.5h340q50 0 81.5 -40.5t22.5 -94.5l-86 -478q-9 -54 -50 -90.5t-93 -36.5h-336q-54 0 -87 41t-24 95zM225 870q-5 -28 8 -53.5t56 -25.5h336q43 0 68.5 30t29.5 58l84 477q0 14 0.5 32t-14.5 33t-43 15h-340q-43 0 -69 -30 t-30 -58zM330 893l80 446h204q40 0 60.5 -25.5t13.5 -66.5l-16 -88q-7 -43 -37.5 -66.5t-67.5 -17.5l-8 17l74 -199h-47l-72 182h-106l-33 -182h-45zM416 1120h159q41 0 50 47l16 88q3 22 -1.5 29.5t-25.5 7.5h-168z" />
<glyph unicode="&#xaf;" horiz-adv-x="1185" d="M539 1642l12 76h500l-13 -76h-499z" />
<glyph unicode="&#xb0;" horiz-adv-x="669" d="M250 1128l47 271q6 35 32 57.5t60 22.5h211q35 0 55.5 -26t14.5 -62l-47 -271q-6 -35 -32 -57.5t-61 -22.5h-211q-34 0 -54.5 26.5t-14.5 61.5zM330 1141q-3 -21 16 -21h170q10 0 20.5 9t12.5 20l41 229q3 21 -17 21h-170q-10 0 -20.5 -9t-13.5 -20z" />
<glyph unicode="&#xb1;" horiz-adv-x="1021" d="M92 279l14 81h742l-14 -81h-742zM184 805l15 80h329l60 344h80l-60 -344h332l-14 -80h-332l-62 -346h-79l61 346h-330z" />
<glyph unicode="&#xb2;" horiz-adv-x="645" d="M152 987h507l15 88h-414l19 103q2 13 13 23t22.5 15t39.5 15l201 78q8 3 29 11t28 11t24.5 10t24 10.5t19.5 11t18 13.5t14 14.5t13 17.5t8 20t6 24l19 104q11 65 -25 106.5t-106 41.5h-189q-70 0 -117 -37t-59 -102l-10 -66h92l8 49q13 68 88 68h172q35 0 47.5 -14 t6.5 -46l-21 -98q-6 -26 -78 -53l-198 -78q-7 -3 -32 -12t-31.5 -12t-26 -11t-25.5 -12.5t-20 -13t-19 -16t-13 -18t-12 -22.5t-6 -26z" />
<glyph unicode="&#xb3;" horiz-adv-x="653" d="M166 1130l10 58h94l-10 -58q-6 -32 6 -45.5t47 -13.5h193q71 0 84 68l18 114q6 31 -8 45.5t-57 14.5h-183l15 82h174q42 0 62.5 16.5t25.5 50.5l18 94q5 33 -6.5 46.5t-46.5 13.5h-174q-75 0 -88 -68l-8 -49h-92l10 66q12 65 59 102t117 37h190q70 0 106.5 -41.5 t25.5 -106.5l-19 -102q-11 -64 -86 -106q28 -10 45 -40t10 -67l-20 -119q-11 -65 -57.5 -102t-116.5 -37h-205q-72 0 -108.5 41t-24.5 106z" />
<glyph unicode="&#xb4;" horiz-adv-x="1314" d="M688 1610l234 295h137l-291 -295h-80z" />
<glyph unicode="&#xb6;" horiz-adv-x="1357" d="M201 918l45 264q25 141 112.5 217t225.5 76h733l-258 -1475h-98l243 1386h-135l-244 -1386h-98l109 616h-394q-138 0 -202.5 80.5t-38.5 221.5z" />
<glyph unicode="&#xb7;" horiz-adv-x="452" d="M162 590l31 168h143l-31 -168h-143z" />
<glyph unicode="&#xb8;" d="M182 -342h303q64 0 76 72l2 12q6 36 -2 49.5t-41 13.5h-248l131 195h93l-72 -113h102q149 0 125 -153l-2 -13q-13 -76 -54 -110.5t-116 -34.5h-211z" />
<glyph unicode="&#xb9;" horiz-adv-x="391" d="M227 1552l17 84l157 62h76l-125 -713h-92l109 617z" />
<glyph unicode="&#xba;" horiz-adv-x="753" d="M115 530l14 80h516l-14 -80h-516zM170 940l63 356q15 86 70.5 134.5t140.5 48.5h185q83 0 124.5 -52.5t26.5 -138.5l-61 -356q-15 -86 -71 -134t-140 -48h-184q-84 0 -126 51.5t-28 138.5zM254 938q-9 -52 12 -82.5t68 -30.5h174q46 0 83 35t46 86l61 344q8 51 -14.5 82 t-67.5 31h-174q-47 0 -82.5 -34.5t-44.5 -86.5z" />
<glyph unicode="&#xbb;" horiz-adv-x="753" d="M37 295l360 424l-198 426h88l188 -389l-10 -74l-324 -387h-104zM291 295l360 424l-198 426h88l188 -389l-10 -74l-324 -387h-104z" />
<glyph unicode="&#xbc;" horiz-adv-x="1210" d="M-8 0l1005 1475h95l-1006 -1475h-94zM186 1327l17 84l157 62h76l-125 -713h-92l109 616zM496 166l2 74l473 473h100l-82 -461h113l-15 -86h-112l-29 -166h-94l29 166h-385zM616 252h279l61 328z" />
<glyph unicode="&#xbd;" horiz-adv-x="1271" d="M-8 0l1005 1475h95l-1006 -1475h-94zM186 1327l17 84l157 62h76l-125 -713h-92l109 616zM604 0h508l14 88h-413l18 102q2 13 13 23t23.5 15.5t39.5 15.5l201 78q8 3 29 11t28 11t24.5 10t24 10.5t19.5 11t18 13.5t14 14.5t13 17.5t8 20t6 24l18 104q11 65 -25 106.5 t-106 41.5h-188q-70 0 -117 -37t-59 -102l-10 -66h92l8 49q13 68 88 68h172q35 0 47 -14t6 -46l-20 -98q-6 -26 -78 -53l-199 -78q-8 -3 -29 -11t-28 -11t-24.5 -10t-24 -10.5t-19.5 -11t-18 -13.5t-14 -14.5t-13 -17.5t-8 -20t-6 -24z" />
<glyph unicode="&#xbe;" horiz-adv-x="1472" d="M127 905l10 58h94l-10 -58q-6 -32 6 -45.5t47 -13.5h193q34 0 56 17.5t28 49.5l18 115q6 30 -8 44.5t-57 14.5h-182l14 82h174q79 0 88 68l18 94q5 33 -6.5 46.5t-46.5 13.5h-174q-75 0 -88 -68l-8 -49h-92l10 65q12 65 59 102.5t117 37.5h191q70 0 106 -41.5t25 -106.5 l-19 -102q-11 -65 -86 -107q28 -10 45 -40t10 -66l-20 -119q-11 -65 -57.5 -102t-116.5 -37h-205q-72 0 -108.5 41t-24.5 106zM254 0l1006 1475h94l-1006 -1475h-94zM758 166l2 74l473 473h100l-82 -461h113l-14 -86h-113l-29 -166h-94l29 166h-385zM879 252h278l62 328z " />
<glyph unicode="&#xbf;" horiz-adv-x="1114" d="M-4 -76l18 105q11 65 35.5 110.5t75 82t86.5 55.5t120 55l9 4.5t8.5 3.5t9.5 4l48 18q42 18 60 26t49 26t45.5 34t29 42.5t20.5 58.5l33 190h98l-34 -198q-6 -35 -16.5 -63.5t-22 -49t-32 -40t-36.5 -31.5t-47 -27.5t-52 -24.5l-63 -27t-69 -30l-50 -21q-96 -42 -128 -67 q-63 -49 -80 -140l-19 -104q-17 -98 22 -151.5t132 -53.5h358q93 0 155 57.5t79 155.5l22 127h98l-24 -135q-25 -141 -112.5 -217t-225.5 -76h-358q-138 0 -202.5 80t-39.5 221zM672 907l35 199h98l-35 -199h-98z" />
<glyph unicode="&#xc0;" horiz-adv-x="1310" d="M-27 0l789 1475h110l275 -1475h-94l-84 463h-647l-242 -463h-107zM369 551h583l-151 825zM639 1905h135l127 -295h-63z" />
<glyph unicode="&#xc1;" horiz-adv-x="1310" d="M-27 0l789 1475h110l275 -1475h-94l-84 463h-647l-242 -463h-107zM369 551h583l-151 825zM756 1610l233 295h137l-290 -295h-80z" />
<glyph unicode="&#xc2;" horiz-adv-x="1310" d="M-27 0l789 1475h110l275 -1475h-94l-84 463h-647l-242 -463h-107zM369 551h583l-151 825zM565 1610l254 239h115l170 -239h-57l-183 159l-229 -159h-70z" />
<glyph unicode="&#xc3;" horiz-adv-x="1310" d="M-27 0l789 1475h110l275 -1475h-94l-84 463h-647l-242 -463h-107zM369 551h583l-151 825zM559 1618l76 166q13 29 31.5 48.5t44 25.5t53.5 -13l248 -159l84 159h78l-80 -168q-54 -111 -129 -59l-246 164l-84 -164h-76z" />
<glyph unicode="&#xc4;" horiz-adv-x="1310" d="M-27 0l789 1475h110l275 -1475h-94l-84 463h-647l-242 -463h-107zM369 551h583l-151 825zM610 1618l33 188h127l-33 -188h-127zM930 1618l33 188h129l-33 -188h-129z" />
<glyph unicode="&#xc5;" horiz-adv-x="1310" d="M-27 0l789 1475h110l275 -1475h-94l-84 463h-647l-242 -463h-107zM369 551h583l-151 825zM688 1679l31 170q5 26 24.5 44t44.5 18h185q25 0 42 -22t13 -48l-31 -170q-4 -26 -24 -43.5t-45 -17.5h-185q-25 0 -42 21.5t-13 47.5zM754 1690q-3 -21 16 -21h139q29 0 33 29 l23 133q3 20 -17 20h-139q-29 0 -33 -28z" />
<glyph unicode="&#xc6;" horiz-adv-x="1927" d="M-68 0l998 1475h1044l-14 -89h-799l-104 -585h706l-14 -88h-707l-110 -625h799l-15 -88h-897l82 463h-545l-311 -463h-113zM416 551h499l148 838h-86z" />
<glyph unicode="&#xc7;" horiz-adv-x="1275" d="M125 293l158 897q25 141 112.5 217t225.5 76h383q138 0 202 -80t39 -221l-20 -123h-99l23 131q17 98 -21 151.5t-131 53.5h-383q-93 0 -155.5 -57.5t-79.5 -155.5l-158 -897q-17 -98 21 -151.5t131 -53.5h383q93 0 155.5 57.5t79.5 155.5l21 123h98l-23 -131 q-25 -141 -112 -217t-225 -76h-138l-65 -105h102q149 0 125 -153l-2 -13q-13 -76 -54 -110.5t-116 -34.5h-211l-86 82h303q64 0 76 72l2 12q6 36 -2 49.5t-41 13.5h-248l125 187h-153q-138 0 -202.5 80t-39.5 221z" />
<glyph unicode="&#xc8;" horiz-adv-x="1191" d="M109 0l258 1475h872l-14 -89h-774l-105 -587h660l-15 -88h-659l-111 -623h774l-14 -88h-872zM618 1905l199 -295h64l-127 295h-136z" />
<glyph unicode="&#xc9;" horiz-adv-x="1191" d="M109 0l258 1475h872l-14 -89h-774l-105 -587h660l-15 -88h-659l-111 -623h774l-14 -88h-872zM735 1610l234 295h137l-291 -295h-80z" />
<glyph unicode="&#xca;" horiz-adv-x="1191" d="M109 0l258 1475h872l-14 -89h-774l-105 -587h660l-15 -88h-659l-111 -623h774l-14 -88h-872zM545 1610h69l230 159l182 -159h57l-170 239h-114z" />
<glyph unicode="&#xcb;" horiz-adv-x="1191" d="M109 0l258 1475h872l-14 -89h-774l-105 -587h660l-15 -88h-659l-111 -623h774l-14 -88h-872zM590 1618l33 188h127l-33 -188h-127zM909 1618l33 188h129l-33 -188h-129z" />
<glyph unicode="&#xcc;" horiz-adv-x="505" d="M109 0l258 1475h98l-258 -1475h-98zM238 1905l198 -295h64l-127 295h-135z" />
<glyph unicode="&#xcd;" horiz-adv-x="505" d="M109 0l258 1475h98l-258 -1475h-98zM354 1610l234 295h137l-291 -295h-80z" />
<glyph unicode="&#xce;" horiz-adv-x="505" d="M109 0l258 1475h98l-258 -1475h-98zM164 1610h69l230 159l182 -159h57l-170 239h-114z" />
<glyph unicode="&#xcf;" horiz-adv-x="505" d="M109 0l258 1475h98l-258 -1475h-98zM209 1618l33 188h127l-33 -188h-127zM528 1618l33 188h129l-33 -188h-129z" />
<glyph unicode="&#xd0;" horiz-adv-x="1337" d="M47 702l16 89h185l119 684h669q138 0 203.5 -80t40.5 -221l-156 -881q-25 -141 -112.5 -217t-225.5 -76h-677l122 702h-184zM221 88h572q93 0 154.5 57.5t78.5 155.5l156 881q17 98 -21 151t-131 53h-579l-105 -595h195l-17 -89h-194z" />
<glyph unicode="&#xd1;" horiz-adv-x="1417" d="M109 0l258 1475h120l557 -1346l238 1346h94l-258 -1475h-121l-555 1346l-237 -1346h-96zM627 1618h75l84 164l246 -164q75 -52 129 59l80 168h-78l-84 -159l-248 159q-28 19 -53.5 13t-44 -25.5t-31.5 -48.5z" />
<glyph unicode="&#xd2;" horiz-adv-x="1327" d="M125 293l158 897q25 141 112.5 217t225.5 76h407q138 0 202.5 -80t39.5 -221l-158 -897q-25 -141 -112.5 -217t-225.5 -76h-407q-138 0 -202.5 80t-39.5 221zM221 285q-17 -98 21 -151.5t131 -53.5h407q93 0 156 57.5t80 155.5l158 897q17 98 -21 151.5t-131 53.5h-408 q-93 0 -155.5 -57.5t-79.5 -155.5zM649 1905l199 -295h63l-127 295h-135z" />
<glyph unicode="&#xd3;" horiz-adv-x="1327" d="M125 293l158 897q25 141 112.5 217t225.5 76h407q138 0 202.5 -80t39.5 -221l-158 -897q-25 -141 -112.5 -217t-225.5 -76h-407q-138 0 -202.5 80t-39.5 221zM221 285q-17 -98 21 -151.5t131 -53.5h407q93 0 156 57.5t80 155.5l158 897q17 98 -21 151.5t-131 53.5h-408 q-93 0 -155.5 -57.5t-79.5 -155.5zM766 1610l233 295h138l-291 -295h-80z" />
<glyph unicode="&#xd4;" horiz-adv-x="1327" d="M125 293l158 897q25 141 112.5 217t225.5 76h407q138 0 202.5 -80t39.5 -221l-158 -897q-25 -141 -112.5 -217t-225.5 -76h-407q-138 0 -202.5 80t-39.5 221zM221 285q-17 -98 21 -151.5t131 -53.5h407q93 0 156 57.5t80 155.5l158 897q17 98 -21 151.5t-131 53.5h-408 q-93 0 -155.5 -57.5t-79.5 -155.5zM575 1610h70l229 159l183 -159h57l-170 239h-115z" />
<glyph unicode="&#xd5;" horiz-adv-x="1327" d="M125 293l158 897q25 141 112.5 217t225.5 76h407q138 0 202.5 -80t39.5 -221l-158 -897q-25 -141 -112.5 -217t-225.5 -76h-407q-138 0 -202.5 80t-39.5 221zM221 285q-17 -98 21 -151.5t131 -53.5h407q93 0 156 57.5t80 155.5l158 897q17 98 -21 151.5t-131 53.5h-408 q-93 0 -155.5 -57.5t-79.5 -155.5zM569 1618h76l84 164l246 -164q75 -52 129 59l80 168h-78l-84 -159l-248 159q-28 19 -53.5 13t-44 -25.5t-31.5 -48.5z" />
<glyph unicode="&#xd6;" horiz-adv-x="1327" d="M125 293l158 897q25 141 112.5 217t225.5 76h407q138 0 202.5 -80t39.5 -221l-158 -897q-25 -141 -112.5 -217t-225.5 -76h-407q-138 0 -202.5 80t-39.5 221zM221 285q-17 -98 21 -151.5t131 -53.5h407q93 0 156 57.5t80 155.5l158 897q17 98 -21 151.5t-131 53.5h-408 q-93 0 -155.5 -57.5t-79.5 -155.5zM621 1618l32 188h127l-32 -188h-127zM940 1618l33 188h129l-33 -188h-129z" />
<glyph unicode="&#xd7;" horiz-adv-x="1019" d="M152 397l327 291l-227 277l61 53l228 -277l321 287l58 -59l-328 -291l227 -277l-61 -53l-226 277l-325 -289z" />
<glyph unicode="&#xd8;" horiz-adv-x="1327" d="M125 293l158 897q25 141 112.5 217t225.5 76h405q139 0 204 -80t40 -221l-158 -897q-25 -141 -113 -217t-227 -76h-405q-138 0 -202.5 80t-39.5 221zM221 285q-12 -79 8 -127l871 1224q-30 15 -80 15h-406q-92 0 -154 -57.5t-81 -155.5zM291 92q32 -14 82 -14h405 q93 0 157 58.5t81 156.5l158 901q12 77 -9 127z" />
<glyph unicode="&#xd9;" horiz-adv-x="1331" d="M137 293l207 1182h98l-209 -1190q-17 -98 21 -151.5t131 -53.5h387q93 0 156 57.5t80 155.5l206 1182h99l-209 -1190q-25 -141 -112.5 -217t-225.5 -76h-387q-138 0 -202.5 80t-39.5 221zM649 1905l199 -295h63l-127 295h-135z" />
<glyph unicode="&#xda;" horiz-adv-x="1331" d="M137 293l207 1182h98l-209 -1190q-17 -98 21 -151.5t131 -53.5h387q93 0 156 57.5t80 155.5l206 1182h99l-209 -1190q-25 -141 -112.5 -217t-225.5 -76h-387q-138 0 -202.5 80t-39.5 221zM766 1610l233 295h138l-291 -295h-80z" />
<glyph unicode="&#xdb;" horiz-adv-x="1331" d="M137 293l207 1182h98l-209 -1190q-17 -98 21 -151.5t131 -53.5h387q93 0 156 57.5t80 155.5l206 1182h99l-209 -1190q-25 -141 -112.5 -217t-225.5 -76h-387q-138 0 -202.5 80t-39.5 221zM575 1610h70l229 159l183 -159h57l-170 239h-115z" />
<glyph unicode="&#xdc;" horiz-adv-x="1331" d="M137 293l207 1182h98l-209 -1190q-17 -98 21 -151.5t131 -53.5h387q93 0 156 57.5t80 155.5l206 1182h99l-209 -1190q-25 -141 -112.5 -217t-225.5 -76h-387q-138 0 -202.5 80t-39.5 221zM621 1618l32 188h127l-32 -188h-127zM940 1618l33 188h129l-33 -188h-129z" />
<glyph unicode="&#xdd;" horiz-adv-x="1210" d="M203 1475h106l309 -820l596 820h121l-678 -914l-100 -561h-98l100 561zM705 1610l233 295h137l-291 -295h-79z" />
<glyph unicode="&#xde;" horiz-adv-x="1273" d="M109 0l258 1475h98l-51 -297h557q138 0 202 -80t39 -221l-47 -265q-25 -141 -112.5 -217t-225.5 -76h-565l-55 -319h-98zM279 408h557q93 0 154.5 57.5t78.5 155.5l47 264q17 98 -21.5 151.5t-131.5 53.5h-566z" />
<glyph unicode="&#xdf;" horiz-adv-x="1120" d="M59 0l211 1200q23 135 108.5 209t217.5 74h260q132 0 195.5 -78t38.5 -213l-37 -213q-14 -77 -64.5 -135.5t-107.5 -85.5q52 -12 88 -77.5t20 -150.5l-43 -247q-25 -135 -109 -209t-216 -74h-289l12 80h281q88 0 152 59t81 152l43 248q15 93 -21 136.5t-141 43.5h-225 l14 82h220q100 0 149 43t68 143l36 213q15 94 -24 148.5t-127 54.5h-260q-88 0 -150 -58.5t-80 -152.5l-208 -1192h-93z" />
<glyph unicode="&#xe0;" d="M90 283l96 548q25 135 109.5 209t216.5 74h117q118 0 205 -67l114 -95l27 154h92l-195 -1106h-92l27 154l-145 -99q-101 -63 -222 -63h-116q-132 0 -195.5 78t-38.5 213zM178 274q-15 -94 24.5 -148t127.5 -54h116q59 0 110 17t118 50l143 78l119 672l-113 82 q-51 32 -95 47.5t-103 15.5h-117q-88 0 -152.5 -59t-81.5 -152zM492 1548l198 -295h64l-127 295h-135z" />
<glyph unicode="&#xe1;" d="M90 283l96 548q25 135 109.5 209t216.5 74h117q118 0 205 -67l114 -95l27 154h92l-195 -1106h-92l27 154l-145 -99q-101 -63 -222 -63h-116q-132 0 -195.5 78t-38.5 213zM178 274q-15 -94 24.5 -148t127.5 -54h116q59 0 110 17t118 50l143 78l119 672l-113 82 q-51 32 -95 47.5t-103 15.5h-117q-88 0 -152.5 -59t-81.5 -152zM608 1253l234 295h137l-291 -295h-80z" />
<glyph unicode="&#xe2;" d="M90 283l96 548q25 135 109.5 209t216.5 74h117q118 0 205 -67l114 -95l27 154h92l-195 -1106h-92l27 154l-145 -99q-101 -63 -222 -63h-116q-132 0 -195.5 78t-38.5 213zM178 274q-15 -94 24.5 -148t127.5 -54h116q59 0 110 17t118 50l143 78l119 672l-113 82 q-51 32 -95 47.5t-103 15.5h-117q-88 0 -152.5 -59t-81.5 -152zM418 1253h69l230 160l182 -160h57l-170 240h-114z" />
<glyph unicode="&#xe3;" d="M90 283l96 548q25 135 109.5 209t216.5 74h117q118 0 205 -67l114 -95l27 154h92l-195 -1106h-92l27 154l-145 -99q-101 -63 -222 -63h-116q-132 0 -195.5 78t-38.5 213zM178 274q-15 -94 24.5 -148t127.5 -54h116q59 0 110 17t118 50l143 78l119 672l-113 82 q-51 32 -95 47.5t-103 15.5h-117q-88 0 -152.5 -59t-81.5 -152zM412 1262h75l84 163l246 -163q75 -52 129 59l80 168h-78l-84 -160l-248 160q-28 19 -53.5 12.5t-44 -25.5t-31.5 -49z" />
<glyph unicode="&#xe4;" d="M90 283l96 548q25 135 109.5 209t216.5 74h117q118 0 205 -67l114 -95l27 154h92l-195 -1106h-92l27 154l-145 -99q-101 -63 -222 -63h-116q-132 0 -195.5 78t-38.5 213zM178 274q-15 -94 24.5 -148t127.5 -54h116q59 0 110 17t118 50l143 78l119 672l-113 82 q-51 32 -95 47.5t-103 15.5h-117q-88 0 -152.5 -59t-81.5 -152zM463 1262l33 188h127l-33 -188h-127zM782 1262l33 188h129l-33 -188h-129z" />
<glyph unicode="&#xe5;" d="M90 283l96 548q25 135 109.5 209t216.5 74h117q118 0 205 -67l114 -95l27 154h92l-195 -1106h-92l27 154l-145 -99q-101 -63 -222 -63h-116q-132 0 -195.5 78t-38.5 213zM178 274q-15 -94 24.5 -148t127.5 -54h116q59 0 110 17t118 50l143 78l119 672l-113 82 q-51 32 -95 47.5t-103 15.5h-117q-88 0 -152.5 -59t-81.5 -152zM541 1323l30 170q4 26 24.5 43.5t45.5 17.5h184q25 0 42.5 -21.5t13.5 -47.5l-31 -170q-4 -26 -24.5 -44t-45.5 -18h-184q-25 0 -42 22t-13 48zM606 1333q-3 -20 17 -20h139q29 0 33 28l22 134q3 20 -16 20 h-139q-29 0 -33 -29z" />
<glyph unicode="&#xe6;" horiz-adv-x="1785" d="M59 283l17 94q23 132 109.5 207t215.5 75h58q181 -3 391 -34l39 209q17 94 -20.5 147t-125.5 53h-231q-88 0 -150 -58t-77 -151h-92v9q25 135 108 207.5t215 72.5h232q162 0 215 -110q87 110 251 110h254q132 0 195.5 -78t38.5 -213l-49 -282h-721l-53 -299 q-5 -79 34 -122.5t119 -43.5h254q89 0 152 57t80 150l10 61h90l-12 -70q-23 -135 -108.5 -208.5t-217.5 -73.5h-254q-99 0 -160 45t-75 127l-166 -109q-97 -63 -226 -63h-106q-132 0 -195.5 78t-38.5 213zM150 274q-15 -94 23 -148t126 -54h107q97 0 231 67l143 78l64 358 h-449q-88 0 -150 -56.5t-79 -149.5zM946 627h631l37 204q17 93 -23 146t-129 53h-254q-82 0 -141.5 -50t-81.5 -134l-4 -21z" />
<glyph unicode="&#xe7;" horiz-adv-x="1060" d="M90 283l96 548q25 135 109.5 209t216.5 74h252q132 0 195 -78t38 -213l-6 -41h-92l8 49q17 93 -21.5 146t-127.5 53h-252q-88 0 -150.5 -57t-79.5 -150l-96 -549q-15 -93 23.5 -145.5t126.5 -52.5h252q88 0 150 57t79 150l6 41h92l-8 -50q-23 -135 -108.5 -208.5 t-217.5 -73.5h-88l-65 -105h102q149 0 125 -153l-2 -13q-13 -76 -54 -110.5t-116 -34.5h-211l-86 82h303q64 0 76 72l2 12q6 36 -2 49.5t-41 13.5h-248l125 187h-71q-132 0 -195.5 78t-38.5 213z" />
<glyph unicode="&#xe8;" horiz-adv-x="1083" d="M90 283l96 548q25 135 109.5 209t216.5 74h254q132 0 195 -78t38 -213l-49 -282h-723l-47 -267q-15 -93 23.5 -145.5t126.5 -52.5h254q88 0 151 57t80 150l10 61h90l-12 -70q-23 -135 -108 -208.5t-217 -73.5h-254q-132 0 -195.5 78t-38.5 213zM242 627h632l37 204 q17 93 -22.5 146t-128.5 53h-254q-88 0 -150.5 -57t-79.5 -150zM467 1548h135l127 -295h-63z" />
<glyph unicode="&#xe9;" horiz-adv-x="1083" d="M90 283l96 548q25 135 109.5 209t216.5 74h254q132 0 195 -78t38 -213l-49 -282h-723l-47 -267q-15 -93 23.5 -145.5t126.5 -52.5h254q88 0 151 57t80 150l10 61h90l-12 -70q-23 -135 -108 -208.5t-217 -73.5h-254q-132 0 -195.5 78t-38.5 213zM242 627h632l37 204 q17 93 -22.5 146t-128.5 53h-254q-88 0 -150.5 -57t-79.5 -150zM584 1253l233 295h137l-290 -295h-80z" />
<glyph unicode="&#xea;" horiz-adv-x="1083" d="M90 283l96 548q25 135 109.5 209t216.5 74h254q132 0 195 -78t38 -213l-49 -282h-723l-47 -267q-15 -93 23.5 -145.5t126.5 -52.5h254q88 0 151 57t80 150l10 61h90l-12 -70q-23 -135 -108 -208.5t-217 -73.5h-254q-132 0 -195.5 78t-38.5 213zM242 627h632l37 204 q17 93 -22.5 146t-128.5 53h-254q-88 0 -150.5 -57t-79.5 -150zM393 1253l254 240h115l170 -240h-58l-182 160l-229 -160h-70z" />
<glyph unicode="&#xeb;" horiz-adv-x="1083" d="M90 283l96 548q25 135 109.5 209t216.5 74h254q132 0 195 -78t38 -213l-49 -282h-723l-47 -267q-15 -93 23.5 -145.5t126.5 -52.5h254q88 0 151 57t80 150l10 61h90l-12 -70q-23 -135 -108 -208.5t-217 -73.5h-254q-132 0 -195.5 78t-38.5 213zM242 627h632l37 204 q17 93 -22.5 146t-128.5 53h-254q-88 0 -150.5 -57t-79.5 -150zM438 1262l33 188h127l-33 -188h-127zM758 1262l33 188h129l-33 -188h-129z" />
<glyph unicode="&#xec;" horiz-adv-x="452" d="M84 0l195 1106h92l-195 -1106h-92zM147 1548l199 -295h64l-127 295h-136z" />
<glyph unicode="&#xed;" horiz-adv-x="452" d="M84 0l195 1106h92l-195 -1106h-92zM256 1253l233 295h138l-291 -295h-80z" />
<glyph unicode="&#xee;" horiz-adv-x="452" d="M82 1253h70l229 160l182 -160h58l-170 240h-115zM84 0l195 1106h92l-195 -1106h-92z" />
<glyph unicode="&#xef;" horiz-adv-x="452" d="M84 0l195 1106h92l-195 -1106h-92zM127 1264l33 188h127l-33 -188h-127zM446 1264l33 188h129l-33 -188h-129z" />
<glyph unicode="&#xf0;" horiz-adv-x="1105" d="M90 283l76 432q25 135 109.5 208.5t216.5 73.5h114q118 0 205 -67l113 -94l43 235q5 28 -1 49.5t-16 35.5t-34 27t-42.5 19.5t-54.5 18.5l-162 53l-168 -135h-114l200 161l-192 62l16 72l250 -74l158 127h115l-189 -152l103 -30q115 -34 154 -60q89 -59 67 -182 l-139 -789q-23 -135 -108.5 -208.5t-217.5 -73.5h-268q-132 0 -195.5 78t-38.5 213zM180 274q-15 -93 24.5 -146.5t127.5 -53.5h266q88 0 149.5 57.5t79.5 151.5l86 491l-112 80q-50 33 -94.5 49.5t-104.5 16.5h-115q-80 0 -148 -64t-83 -149z" />
<glyph unicode="&#xf1;" horiz-adv-x="1120" d="M68 0l194 1106h92l-26 -154l143 99q101 63 221 63h90q132 0 195.5 -78t38.5 -213l-144 -823h-92l146 831q17 94 -21.5 148.5t-126.5 54.5h-90q-97 0 -227 -67l-146 -78l-155 -889h-92zM406 1262h75l84 163l246 -163q75 -52 129 59l80 168h-78l-84 -160l-248 160 q-28 19 -53.5 12.5t-44 -25.5t-31.5 -49z" />
<glyph unicode="&#xf2;" horiz-adv-x="1099" d="M90 283l96 548q25 135 109.5 209t216.5 74h262q132 0 195.5 -78t38.5 -213l-97 -549q-23 -135 -107 -208.5t-216 -73.5h-264q-132 0 -195.5 78t-38.5 213zM180 274q-15 -94 23.5 -147t126.5 -53h264q88 0 149.5 57.5t79.5 151.5l97 548q17 93 -22.5 147t-127.5 54h-264 q-88 0 -150.5 -57.5t-79.5 -151.5zM475 1548l199 -295h63l-127 295h-135z" />
<glyph unicode="&#xf3;" horiz-adv-x="1099" d="M90 283l96 548q25 135 109.5 209t216.5 74h262q132 0 195.5 -78t38.5 -213l-97 -549q-23 -135 -107 -208.5t-216 -73.5h-264q-132 0 -195.5 78t-38.5 213zM180 274q-15 -94 23.5 -147t126.5 -53h264q88 0 149.5 57.5t79.5 151.5l97 548q17 93 -22.5 147t-127.5 54h-264 q-88 0 -150.5 -57.5t-79.5 -151.5zM592 1253l233 295h138l-291 -295h-80z" />
<glyph unicode="&#xf4;" horiz-adv-x="1099" d="M90 283l96 548q25 135 109.5 209t216.5 74h262q132 0 195.5 -78t38.5 -213l-97 -549q-23 -135 -107 -208.5t-216 -73.5h-264q-132 0 -195.5 78t-38.5 213zM180 274q-15 -94 23.5 -147t126.5 -53h264q88 0 149.5 57.5t79.5 151.5l97 548q17 93 -22.5 147t-127.5 54h-264 q-88 0 -150.5 -57.5t-79.5 -151.5zM401 1253h70l229 160l183 -160h57l-170 240h-115z" />
<glyph unicode="&#xf5;" horiz-adv-x="1099" d="M90 283l96 548q25 135 109.5 209t216.5 74h262q132 0 195.5 -78t38.5 -213l-97 -549q-23 -135 -107 -208.5t-216 -73.5h-264q-132 0 -195.5 78t-38.5 213zM180 274q-15 -94 23.5 -147t126.5 -53h264q88 0 149.5 57.5t79.5 151.5l97 548q17 93 -22.5 147t-127.5 54h-264 q-88 0 -150.5 -57.5t-79.5 -151.5zM395 1262h76l84 163l246 -163q75 -52 129 59l80 168h-78l-84 -160l-248 160q-28 19 -53.5 12.5t-44 -25.5t-31.5 -49z" />
<glyph unicode="&#xf6;" horiz-adv-x="1099" d="M90 283l96 548q25 135 109.5 209t216.5 74h262q132 0 195.5 -78t38.5 -213l-97 -549q-23 -135 -107 -208.5t-216 -73.5h-264q-132 0 -195.5 78t-38.5 213zM180 274q-15 -94 23.5 -147t126.5 -53h264q88 0 149.5 57.5t79.5 151.5l97 548q17 93 -22.5 147t-127.5 54h-264 q-88 0 -150.5 -57.5t-79.5 -151.5zM446 1262l33 188h127l-33 -188h-127zM766 1262l33 188h129l-33 -188h-129z" />
<glyph unicode="&#xf7;" horiz-adv-x="1019" d="M180 719l15 78h716l-14 -78h-717zM401 371l33 178h148l-33 -178h-148zM508 967l31 178h147l-31 -178h-147z" />
<glyph unicode="&#xf8;" horiz-adv-x="1103" d="M90 283l96 548q25 135 109.5 209t216.5 74h266q132 0 195.5 -78t38.5 -213l-97 -549q-23 -135 -108 -208.5t-217 -73.5h-266q-132 0 -195.5 78t-38.5 213zM174 274q-14 -80 19 -135l655 879q-30 12 -76 12h-266q-89 0 -154 -57t-82 -150zM258 88q30 -12 72 -12h266 q89 0 153.5 57t81.5 150l97 548q15 81 -17 136z" />
<glyph unicode="&#xf9;" horiz-adv-x="1120" d="M102 283l146 823h92l-147 -832q-15 -94 23 -148t126 -54h90q59 0 109.5 16.5t117.5 50.5l144 78l158 889h92l-195 -1106h-92l27 154l-146 -99q-101 -63 -221 -63h-90q-132 0 -195.5 78t-38.5 213zM475 1548l199 -295h63l-127 295h-135z" />
<glyph unicode="&#xfa;" horiz-adv-x="1120" d="M102 283l146 823h92l-147 -832q-15 -94 23 -148t126 -54h90q59 0 109.5 16.5t117.5 50.5l144 78l158 889h92l-195 -1106h-92l27 154l-146 -99q-101 -63 -221 -63h-90q-132 0 -195.5 78t-38.5 213zM592 1253l233 295h138l-291 -295h-80z" />
<glyph unicode="&#xfb;" horiz-adv-x="1120" d="M102 283l146 823h92l-147 -832q-15 -94 23 -148t126 -54h90q59 0 109.5 16.5t117.5 50.5l144 78l158 889h92l-195 -1106h-92l27 154l-146 -99q-101 -63 -221 -63h-90q-132 0 -195.5 78t-38.5 213zM401 1253h70l229 160l183 -160h57l-170 240h-115z" />
<glyph unicode="&#xfc;" horiz-adv-x="1120" d="M102 283l146 823h92l-147 -832q-15 -94 23 -148t126 -54h90q59 0 109.5 16.5t117.5 50.5l144 78l158 889h92l-195 -1106h-92l27 154l-146 -99q-101 -63 -221 -63h-90q-132 0 -195.5 78t-38.5 213zM446 1262l33 188h127l-33 -188h-127zM766 1262l33 188h129l-33 -188h-129 z" />
<glyph unicode="&#xfd;" horiz-adv-x="940" d="M141 1106h95l161 -993l500 993h98l-759 -1493h-91l195 385zM510 1253l233 295h138l-291 -295h-80z" />
<glyph unicode="&#xfe;" d="M-2 -387l338 1911h92l-100 -572l143 99q101 63 221 63h117q132 0 195 -78t38 -213l-96 -549q-23 -135 -108 -208.5t-217 -73.5h-117q-120 0 -203 67l-115 95l-96 -541h-92zM197 217l112 -82q53 -32 97.5 -47.5t103.5 -15.5h117q88 0 150.5 58.5t80.5 152.5l96 548 q17 93 -22 148t-127 55h-117q-59 0 -109.5 -16.5t-117.5 -50.5l-146 -78z" />
<glyph unicode="&#xff;" horiz-adv-x="940" d="M141 1106h95l161 -993l500 993h98l-759 -1493h-91l195 385zM365 1262l32 188h127l-32 -188h-127zM684 1262l33 188h129l-33 -188h-129z" />
<glyph unicode="&#x152;" horiz-adv-x="1984" d="M125 301l156 881q25 141 112 217t225 76h1414l-15 -89h-792l-101 -581h705l-17 -88h-704l-109 -629h789l-14 -88h-1405q-138 0 -203.5 80t-40.5 221zM223 293q-17 -98 21 -151.5t131 -53.5h487q15 0 27.5 10t15.5 25l84 475l135 772q0 16 -24 16h-488q-93 0 -154.5 -57 t-78.5 -155z" />
<glyph unicode="&#x153;" horiz-adv-x="1816" d="M90 283l96 548q25 135 109.5 209t216.5 74h262q162 0 217 -113q87 113 254 113h254q132 0 195.5 -78t38.5 -213l-50 -282h-722l-48 -267q-15 -93 23.5 -145.5t126.5 -52.5h254q88 0 151 57t80 150l11 61h90l-13 -70q-23 -135 -108 -208.5t-217 -73.5h-254 q-159 0 -217 112q-86 -112 -252 -112h-264q-132 0 -195.5 78t-38.5 213zM180 274q-15 -94 23.5 -147t126.5 -53h264q88 0 149.5 57.5t79.5 151.5l97 548q17 93 -22.5 147t-127.5 54h-264q-88 0 -150.5 -57.5t-79.5 -151.5zM975 627h633l37 204q17 93 -23 146t-129 53h-254 q-88 0 -150 -57t-79 -150z" />
<glyph unicode="&#x178;" horiz-adv-x="1210" d="M203 1475h106l309 -820l596 820h121l-678 -914l-100 -561h-98l100 561zM559 1618l33 188h127l-33 -188h-127zM879 1618l32 188h129l-32 -188h-129z" />
<glyph unicode="&#x2c6;" horiz-adv-x="1323" d="M582 1610h69l230 159l182 -159h57l-170 239h-114z" />
<glyph unicode="&#x2dc;" horiz-adv-x="1226" d="M514 1618h76l84 164l246 -164q75 -52 129 59l79 168h-77l-84 -159l-248 159q-28 19 -53.5 13t-44 -25.5t-31.5 -48.5z" />
<glyph unicode="&#x2000;" horiz-adv-x="955" />
<glyph unicode="&#x2001;" horiz-adv-x="1911" />
<glyph unicode="&#x2002;" horiz-adv-x="955" />
<glyph unicode="&#x2003;" horiz-adv-x="1911" />
<glyph unicode="&#x2004;" horiz-adv-x="637" />
<glyph unicode="&#x2005;" horiz-adv-x="477" />
<glyph unicode="&#x2006;" horiz-adv-x="318" />
<glyph unicode="&#x2007;" horiz-adv-x="318" />
<glyph unicode="&#x2008;" horiz-adv-x="238" />
<glyph unicode="&#x2009;" horiz-adv-x="382" />
<glyph unicode="&#x200a;" horiz-adv-x="106" />
<glyph unicode="&#x2010;" horiz-adv-x="823" d="M150 629l16 96h553l-17 -96h-552z" />
<glyph unicode="&#x2011;" horiz-adv-x="823" d="M150 629l16 96h553l-17 -96h-552z" />
<glyph unicode="&#x2012;" horiz-adv-x="823" d="M150 629l16 96h553l-17 -96h-552z" />
<glyph unicode="&#x2013;" horiz-adv-x="1114" d="M150 631l16 92h844l-17 -92h-843z" />
<glyph unicode="&#x2014;" horiz-adv-x="1634" d="M150 633l14 86h1364l-15 -86h-1363z" />
<glyph unicode="&#x2018;" horiz-adv-x="432" d="M244 1071l22 131q2 13 6.5 25.5t14.5 31.5t15.5 28t24 38.5t25.5 40.5l72 109h55l-145 -244h65l-26 -160h-129z" />
<glyph unicode="&#x2019;" horiz-adv-x="430" d="M207 1071l143 244h-63l26 160h127l-22 -132q-2 -9 -4.5 -18.5t-8 -21t-9 -19t-12.5 -23.5t-13.5 -23l-18 -28t-18.5 -30l-74 -109h-53z" />
<glyph unicode="&#x201a;" horiz-adv-x="430" d="M-25 -244l144 244h-64l27 160h127l-23 -131q-2 -13 -7 -26t-14 -30t-16 -29t-22.5 -38t-24.5 -41l-73 -109h-54z" />
<glyph unicode="&#x201c;" horiz-adv-x="698" d="M244 1071l22 131q2 13 6.5 25.5t14.5 31.5t15.5 28t24 38.5t25.5 40.5l72 109h55l-145 -244h65l-26 -160h-129zM510 1071l22 131q2 13 6.5 25.5t14.5 31.5t15.5 28t24 38.5t25.5 40.5l72 109h55l-145 -244h66l-27 -160h-129z" />
<glyph unicode="&#x201d;" horiz-adv-x="696" d="M207 1071l143 244h-63l26 160h127l-22 -132q-2 -9 -4.5 -18.5t-8 -21t-9 -19t-12.5 -23.5t-13.5 -23l-18 -28t-18.5 -30l-74 -109h-53zM471 1071l145 244h-65l27 160h129l-23 -132q-2 -13 -6.5 -25.5t-14.5 -30.5t-16 -28.5t-23.5 -38t-25.5 -40.5l-74 -109h-53z" />
<glyph unicode="&#x201e;" horiz-adv-x="430" d="M-25 -244l144 244h-64l27 160h127l-23 -131q-2 -13 -7 -26t-14 -30t-16 -29t-22.5 -38t-24.5 -41l-73 -109h-54z" />
<glyph unicode="&#x2022;" horiz-adv-x="860" d="M303 690l27 152q6 32 29.5 52.5t54.5 20.5h153q32 0 52 -24.5t14 -56.5l-27 -152q-5 -32 -28.5 -53t-55.5 -21h-153q-31 0 -51.5 25t-14.5 57z" />
<glyph unicode="&#x2026;" horiz-adv-x="1263" d="M55 0l27 160h129l-27 -160h-129zM471 0l27 160h129l-27 -160h-129zM887 0l26 160h129l-26 -160h-129z" />
<glyph unicode="&#x202f;" horiz-adv-x="382" />
<glyph unicode="&#x2039;" horiz-adv-x="499" d="M88 682l10 74l324 389h104l-362 -426l201 -424h-89z" />
<glyph unicode="&#x203a;" horiz-adv-x="499" d="M37 295l360 424l-198 426h88l188 -389l-10 -74l-324 -387h-104z" />
<glyph unicode="&#x205f;" horiz-adv-x="477" />
<glyph unicode="&#x20ac;" horiz-adv-x="1327" d="M78 514l14 88h170l51 293h-168l15 88h168l37 207q25 141 112 217t225 76h347q138 0 202 -80t39 -221l-24 -138h-99l27 146q17 98 -21 151.5t-131 53.5h-346q-93 0 -155.5 -57.5t-79.5 -155.5l-35 -199h563l-14 -88h-565l-52 -293h564l-15 -88h-563l-41 -229 q-17 -98 21 -151.5t131 -53.5h346q93 0 155.5 57.5t79.5 155.5l25 137h98l-26 -145q-25 -141 -112.5 -217t-225.5 -76h-346q-138 0 -202.5 80t-39.5 221l39 221h-168z" />
<glyph unicode="&#x2122;" horiz-adv-x="1501" d="M266 1413l10 62h500l-10 -62h-215l-119 -676h-70l119 676h-215zM774 737l129 738h80l143 -547l338 547h84l-129 -738h-65l114 652l-327 -537h-51l-136 537l-114 -652h-66z" />
<glyph unicode="&#x25fc;" horiz-adv-x="1105" d="M0 0v1106h1106v-1106h-1106z" />
</font>
</defs>
</svg>
