<?xml version="1.0" standalone="no"?>
<!DOCTYPE svg PUBLIC "-//W3C//DTD SVG 1.1//EN" "http://www.w3.org/Graphics/SVG/1.1/DTD/svg11.dtd" >
<svg xmlns="http://www.w3.org/2000/svg">
<metadata></metadata>
<defs>
<font id="industrybook_italic" horiz-adv-x="1134" >
<font-face units-per-em="2048" ascent="1638" descent="-410" />
<missing-glyph horiz-adv-x="530" />
<glyph unicode="&#xfb01;" horiz-adv-x="1230" d="M137 989l21 117h192l25 143q23 132 109.5 206.5t215.5 74.5h185l-21 -119h-176q-66 0 -117 -49t-63 -121l-23 -135h326l-20 -117h-324l-174 -989h-139l174 989h-191zM827 0l195 1106h139l-194 -1106h-140zM1055 1350l30 180h160l-31 -180h-159z" />
<glyph unicode="&#xfb02;" horiz-adv-x="1226" d="M137 989l21 117h192l25 143q23 132 109.5 206.5t215.5 74.5h185l-21 -119h-176q-66 0 -117 -49t-63 -121l-23 -135h326l-20 -117h-324l-174 -989h-139l174 989h-191zM827 0l269 1530h135l-268 -1530h-136z" />
<glyph horiz-adv-x="0" />
<glyph horiz-adv-x="682" />
<glyph unicode=" "  horiz-adv-x="530" />
<glyph unicode="&#x09;" horiz-adv-x="530" />
<glyph unicode="&#xa0;" horiz-adv-x="530" />
<glyph unicode="!" horiz-adv-x="593" d="M115 0l32 197h172l-32 -197h-172zM229 406l140 1069h180l-238 -1069h-82z" />
<glyph unicode="&#x22;" horiz-adv-x="763" d="M268 1008l29 467h190l-135 -467h-84zM571 1008l29 467h191l-136 -467h-84z" />
<glyph unicode="#" horiz-adv-x="1525" d="M72 434l20 123h279l174 385h-244l21 123h278l184 410h150l-184 -410h383l184 410h149l-184 -410h242l-21 -123h-276l-174 -385h241l-20 -123h-277l-196 -434h-150l197 434h-383l-197 -434h-149l196 434h-243zM520 557h383l174 385h-383z" />
<glyph unicode="$" horiz-adv-x="1257" d="M106 293l25 139h148l-29 -156q-12 -71 16.5 -114t93.5 -43h134l100 579l-115 33q-45 11 -78.5 23.5t-65.5 30.5t-51 40t-34 52.5t-15.5 67.5t5.5 85l28 164q25 138 113 213.5t223 75.5h125l33 180h129l-33 -180h100q135 0 200 -81.5t40 -219.5l-20 -119h-148l25 135 q12 71 -17 114.5t-94 43.5h-113l-96 -553l119 -33q33 -9 59.5 -17.5t53.5 -20t45.5 -24.5t36.5 -30.5t27.5 -37.5t17.5 -46t6 -56t-6 -67l-33 -190q-23 -137 -111.5 -213t-224.5 -76h-129l-33 -180h-129l33 180h-121q-135 0 -200 81.5t-40 219.5zM383 981.5q0 -18.5 3.5 -33 t8.5 -25.5t14 -19.5t17.5 -14.5t22 -11.5t23.5 -8.5t26 -7l123 -28l90 522h-121q-64 0 -113 -49.5t-61 -120.5l-29 -164q-4 -22 -4 -40.5zM614 119h125q64 0 113 49.5t61 120.5l33 190q6 31 6.5 54t-6 39t-14 26.5t-25 18.5t-31.5 12t-40 10l-125 29z" />
<glyph unicode="%" horiz-adv-x="1275" d="M96 0l1016 1475h129l-1018 -1475h-127zM188 1047l54 311q11 54 52 89.5t95 35.5h182q53 0 86 -41.5t23 -95.5l-53 -312q-10 -54 -52.5 -89.5t-95.5 -35.5h-182q-54 0 -87 42t-22 96zM297 1049q-6 -39 29 -39h147q17 0 30.5 15.5t16.5 35.5l49 285q4 17 0 26.5t-20 9.5 h-148q-18 0 -35 -15.5t-20 -33.5zM666 129l53 311q11 54 52 89.5t93 35.5h185q52 0 84.5 -41.5t21.5 -95.5l-53 -311q-10 -54 -51.5 -89.5t-94.5 -35.5h-184q-52 0 -84.5 41.5t-21.5 95.5zM774 131q-6 -39 27 -39h147q17 0 31.5 16t17.5 35l50 285q6 37 -23 37h-147 q-17 0 -34 -15.5t-20 -33.5z" />
<glyph unicode="&#x26;" horiz-adv-x="1320" d="M100 293l43 250q14 81 67 139t120 80q-49 30 -76.5 87.5t-15.5 135.5l36 209q25 138 113 213.5t223 75.5h322q135 0 199.5 -81.5t39.5 -219.5l-20 -123h-147l24 139q12 70 -16.5 110t-93.5 40h-322q-65 0 -113.5 -46t-60.5 -116l-39 -215q-14 -85 10.5 -115.5 t114.5 -30.5h797l-25 -133h-164l-72 -411q-25 -138 -112.5 -213.5t-222.5 -75.5h-369q-135 0 -200 81.5t-40 219.5zM244 276q-12 -70 16.5 -109.5t93.5 -39.5h369q65 0 113.5 46t60.5 116l72 403h-477q-174 0 -201 -157z" />
<glyph unicode="'" horiz-adv-x="460" d="M268 1008l29 467h190l-135 -467h-84z" />
<glyph unicode="(" horiz-adv-x="694" d="M111 84l217 1233q25 138 113 213.5t223 75.5h86l-25 -136h-78q-65 0 -113.5 -45.5t-60.5 -115.5l-219 -1241q-12 -70 17 -110t94 -40h86l-23 -135h-78q-135 0 -199.5 81.5t-39.5 219.5z" />
<glyph unicode=")" horiz-adv-x="696" d="M-4 -217h78q135 0 228 81.5t118 219.5l217 1233q25 138 -37 213.5t-197 75.5h-86l-24 -136h78q65 0 96.5 -45.5t19.5 -115.5l-219 -1241q-12 -70 -55.5 -110t-108.5 -40h-86z" />
<glyph unicode="*" horiz-adv-x="806" d="M168 1176l59 120l252 -122l23 301h127l-80 -301l289 120l18 -120l-301 -66l158 -227l-111 -74l-104 260l-195 -262l-94 76l235 227z" />
<glyph unicode="+" horiz-adv-x="1019" d="M158 696l22 123h316l57 324h123l-58 -324h318l-23 -123h-317l-55 -323h-123l55 323h-315z" />
<glyph unicode="," horiz-adv-x="450" d="M-51 -252l166 252h-76l35 201h180l-31 -170q-4 -22 -21.5 -52t-43.5 -66.5t-35 -51.5l-82 -113h-92z" />
<glyph unicode="-" horiz-adv-x="849" d="M137 606l25 139h596l-25 -139h-596z" />
<glyph unicode="." horiz-adv-x="450" d="M39 0l35 201h180l-35 -201h-180z" />
<glyph unicode="/" horiz-adv-x="931" d="M-82 -143l1022 1761h139l-1022 -1761h-139z" />
<glyph unicode="0" horiz-adv-x="1282" d="M113 293l157 901q25 138 113 213.5t223 75.5h389q135 0 200 -81.5t40 -219.5l-158 -901q-25 -138 -113 -213.5t-223 -75.5h-389q-135 0 -199.5 81.5t-39.5 219.5zM256 276q-12 -70 17 -109.5t94 -39.5h389q65 0 113.5 46t60.5 116l162 909q12 70 -17 110t-94 40h-389 q-65 0 -113.5 -46t-60.5 -116z" />
<glyph unicode="1" horiz-adv-x="708" d="M217 1219l25 137l284 119h127l-258 -1475h-147l231 1323z" />
<glyph unicode="2" horiz-adv-x="1202" d="M43 0h936l22 135h-788l43 240q5 30 26.5 53t40.5 33t74 35q14 7 21 10l383 174q26 12 71 31.5t65.5 28.5t53.5 26t48.5 29.5t37 32t32.5 40.5t21.5 49t16.5 62l35 203q23 138 -41 219.5t-199 81.5h-342q-135 0 -223 -75.5t-113 -213.5l-20 -119h147l21 111 q12 70 60.5 116t113.5 46h342q65 0 93.5 -40t16.5 -110l-39 -219q-8 -46 -46 -76.5t-117 -66.5l-385 -174q-156 -71 -191 -91q-93 -54 -129 -131q-18 -40 -27 -90z" />
<glyph unicode="3" horiz-adv-x="1222" d="M76 293l18 106h148l-23 -123q-12 -70 17 -109.5t94 -39.5h379q65 0 113.5 46t60.5 116l47 258q13 74 -19 109.5t-125 35.5h-346l25 133h338q91 0 131.5 36t54.5 122l39 215q12 70 -16.5 110t-93.5 40h-347q-65 0 -113.5 -46t-60.5 -116l-20 -111h-148l21 119 q25 138 113 213.5t223 75.5h346q135 0 199.5 -81.5t39.5 -219.5l-36 -209q-24 -148 -170 -219q55 -19 88.5 -81.5t19.5 -142.5l-43 -249q-25 -138 -113 -213.5t-223 -75.5h-379q-135 0 -199.5 81.5t-39.5 219.5z" />
<glyph unicode="4" horiz-adv-x="1245" d="M41 369l18 114l897 992h168l-170 -971h211l-24 -135h-211l-64 -369h-147l63 369h-741zM250 504h557l137 768z" />
<glyph unicode="5" horiz-adv-x="1196" d="M94 293l21 115h147l-24 -132q-12 -70 16.5 -109.5t93.5 -39.5h350q65 0 113.5 46t60.5 116l68 383q12 69 -19.5 109t-97.5 40h-149q-105 0 -225 -65l-123 -64l-142 47l129 736h895l-22 -136h-748l-98 -542l121 86q110 73 229 73h162q130 0 194 -80t41 -212l-67 -383 q-25 -138 -113 -213.5t-223 -75.5h-350q-135 0 -200 81.5t-40 219.5z" />
<glyph unicode="6" horiz-adv-x="1236" d="M113 293l157 901q25 138 113 213.5t223 75.5h330q135 0 200 -81.5t40 -219.5l-19 -109h-147l22 125q12 70 -16.5 110t-93.5 40h-330q-65 0 -113.5 -46t-60.5 -116l-78 -430l119 86q110 73 229 73h168q135 0 200 -81.5t40 -219.5l-58 -333q-25 -138 -113 -213.5 t-223 -75.5h-350q-135 0 -199.5 81.5t-39.5 219.5zM256 276q-12 -70 17 -109.5t94 -39.5h350q65 0 113.5 46t60.5 116l61 342q12 70 -16.5 109.5t-93.5 39.5h-168q-108 0 -228 -65l-122 -64z" />
<glyph unicode="7" horiz-adv-x="1103" d="M117 0l868 1339h-774l22 136h957l-14 -99l-895 -1376h-164z" />
<glyph unicode="8" horiz-adv-x="1261" d="M98 293l43 246q14 81 66.5 139.5t120.5 79.5q-49 30 -77.5 87.5t-14.5 135.5l36 213q25 138 113 213.5t223 75.5h363q135 0 199.5 -81.5t39.5 -219.5l-36 -213q-26 -147 -173 -219q56 -19 90.5 -81.5t20.5 -142.5l-43 -245q-25 -138 -113 -213.5t-223 -75.5h-395 q-135 0 -200 81.5t-40 219.5zM242 276q-12 -70 16.5 -109.5t93.5 -39.5h396q65 0 113.5 46t60.5 116l45 254q13 74 -18 109.5t-124 35.5h-333q-178 0 -205 -158zM381 967q-15 -85 9 -115.5t116 -30.5h334q90 0 131.5 36.5t56.5 121.5l39 219q12 70 -17 110t-94 40h-362 q-65 0 -113.5 -46t-60.5 -116z" />
<glyph unicode="9" horiz-adv-x="1236" d="M127 293l18 108h148l-23 -125q-12 -70 17 -109.5t94 -39.5h330q65 0 113.5 46t60.5 116l84 454l-123 -86q-110 -73 -228 -73h-176q-129 0 -192.5 80.5t-40.5 212.5l55 317q25 138 113 213.5t223 75.5h350q135 0 200 -81.5t40 -219.5l-158 -901q-25 -138 -113 -213.5 t-223 -75.5h-329q-135 0 -200 81.5t-40 219.5zM354 868q-12 -69 18.5 -109t96.5 -40h164q108 0 225 65l127 64l62 350q12 70 -17 110t-94 40h-350q-65 0 -113.5 -46t-60.5 -116z" />
<glyph unicode=":" horiz-adv-x="452" d="M41 0l35 201h180l-35 -201h-180zM199 905l37 201h180l-37 -201h-180z" />
<glyph unicode=";" horiz-adv-x="450" d="M-51 -252l166 252h-76l35 201h180l-31 -170q-4 -22 -21.5 -52t-43.5 -66.5t-35 -51.5l-82 -113h-92zM197 905l36 201h181l-37 -201h-180z" />
<glyph unicode="&#x3c;" horiz-adv-x="1019" d="M145 672l686 -359l21 121l-580 309l684 291l27 142l-811 -361z" />
<glyph unicode="=" horiz-adv-x="1019" d="M129 524l23 135h755l-22 -135h-756zM190 872l23 136h756l-23 -136h-756z" />
<glyph unicode="&#x3e;" horiz-adv-x="1019" d="M106 313l809 359l27 143l-684 361l-22 -121l581 -312l-686 -286z" />
<glyph unicode="?" horiz-adv-x="1118" d="M147 1047l25 147q25 138 113 213.5t223 75.5h385q135 0 200 -81.5t40 -219.5l-25 -142q-10 -58 -36.5 -102.5t-73 -79.5t-91 -59t-117.5 -58q-12 -5 -18 -8l-61 -26q-6 -3 -24 -11.5t-24 -11.5t-22 -11.5t-22 -12.5t-19 -12t-18.5 -13.5l-14.5 -14.5t-13.5 -16.5 t-8.5 -17t-6 -19.5l-31 -182h-148l33 190q5 27 12.5 50t21 43t25 35.5t33.5 32t37 26.5t45.5 26t47.5 24.5t55.5 26t58.5 27.5l57 27q3 1 25 11.5t26 12.5t22.5 11t23 12.5t18.5 13t18.5 15.5t14.5 16.5t13.5 20t8.5 21.5t7 26l26 145q12 70 -16.5 110t-93.5 40h-385 q-65 0 -114 -46t-61 -116l-24 -139h-148zM293 0l39 223h147l-39 -223h-147z" />
<glyph unicode="@" horiz-adv-x="1863" d="M86 -35l215 1229q25 138 113 213.5t223 75.5h909q135 0 200 -81.5t40 -219.5l-137 -779q-25 -138 -113 -213t-223 -75h-172l-11 147l-141 -100q-83 -56 -196 -56h-50q-135 0 -199.5 82t-39.5 220l59 340q25 138 113 213t223 75h49q106 0 174 -63l109 -92l67 147h86 l-143 -819h82q185 0 221 207l137 778q19 101 -14 148t-129 47h-909q-184 0 -223 -207l-218 -1229q-17 -101 16.5 -148t129.5 -47h1022l-17 -94h-1013q-135 0 -200 81.5t-40 219.5zM621 383q-12 -78 18 -122t102 -44h84q100 0 195 62l121 71l82 443l-90 77q-63 56 -175 56 h-84q-72 0 -123 -50t-65 -128z" />
<glyph unicode="A" horiz-adv-x="1316" d="M-39 0l772 1475h168l258 -1475h-149l-68 430h-606l-219 -430h-156zM406 565h514l-121 770z" />
<glyph unicode="B" horiz-adv-x="1314" d="M96 0l258 1475h668q135 1 200 -81q48 -60 48 -152q0 -32 -6 -68l-37 -205q-26 -148 -172 -219q56 -18 90 -80q24 -44 24 -98q0 -22 -4 -46l-43 -237q-23 -138 -111 -213.5t-223 -75.5h-692zM266 135h537q65 0 113.5 46t60.5 116l43 246q4 22 4 41q0 44 -22 68 q-30 36 -123 36h-514zM387 821h506q90 0 131.5 36.5t56.5 121.5l37 211q4 21 4 39q0 43 -20 71q-28 40 -94 39h-529z" />
<glyph unicode="C" horiz-adv-x="1269" d="M113 293l157 901q25 138 113 213.5t223 75.5h404q136 1 200 -81q46 -59 46 -147q0 -34 -7 -73l-26 -150h-148l31 166q4 20 4 38q0 43 -21 72q-29 40 -94 40h-403q-65 0 -113.5 -46t-60.5 -116l-162 -910q-4 -20 -4 -38q0 -44 21 -72q29 -40 94 -39h403q65 0 113.5 46 t60.5 116l29 153h147l-28 -161q-25 -138 -113 -213.5t-223 -75.5h-404q-136 0 -200 82q-46 59 -46 146q0 34 7 73z" />
<glyph unicode="D" horiz-adv-x="1333" d="M96 0l258 1475h690q135 1 200 -81q48 -60 48 -152q0 -32 -6 -68l-158 -885q-23 -138 -110.5 -213.5t-222.5 -75.5h-699zM266 135h543q65 0 113.5 46t60.5 116l158 893q4 20 4 38q0 44 -21 72q-29 40 -94 39h-551z" />
<glyph unicode="E" horiz-adv-x="1193" d="M96 0l258 1475h891l-22 -136h-744l-92 -518h627l-23 -135h-626l-99 -551h744l-23 -135h-891z" />
<glyph unicode="F" horiz-adv-x="1159" d="M96 0l258 1475h891l-22 -136h-744l-94 -534h627l-25 -135h-627l-116 -670h-148z" />
<glyph unicode="G" horiz-adv-x="1304" d="M113 293l157 901q25 138 113 213.5t223 75.5h418q135 0 200 -81q47 -59 47 -148q0 -34 -7 -72l-23 -129h-147l26 145q4 21 4 39q0 43 -20 71q-29 40 -94 40h-418q-65 0 -113.5 -46t-60.5 -116l-162 -912q-4 -21 -4 -39q0 -42 20 -69q29 -39 95 -39h417q65 0 113.5 46 t60.5 116l60 332h-367l25 135h514l-84 -475q-25 -138 -113 -213.5t-223 -75.5h-418q-135 0 -200 82q-46 58 -46 146q0 34 7 73z" />
<glyph unicode="H" horiz-adv-x="1394" d="M96 0l258 1475h148l-115 -654h715l115 654h147l-258 -1475h-148l121 686h-714l-121 -686h-148z" />
<glyph unicode="I" horiz-adv-x="532" d="M96 0l258 1475h148l-258 -1475h-148z" />
<glyph unicode="J" horiz-adv-x="1185" d="M43 293l39 223h147l-43 -240q-4 -20 -4 -38q0 -44 21 -72q29 -39 94 -39h350q65 0 113.5 46t60.5 116l209 1186h148l-209 -1194q-25 -138 -113 -213.5t-223 -75.5h-350q-135 0 -200 82q-47 58 -47 147q0 34 7 72z" />
<glyph unicode="K" horiz-adv-x="1339" d="M96 0l258 1475h148l-156 -875l868 875h189l-621 -613l404 -862h-160l-348 762l-363 -359l-71 -403h-148z" />
<glyph unicode="L" horiz-adv-x="1112" d="M96 0l258 1475h148l-236 -1340h692l-22 -135h-840z" />
<glyph unicode="M" horiz-adv-x="1683" d="M96 0l258 1475h178l275 -1069l659 1069h187l-258 -1475h-140l224 1268l-625 -1032h-133l-262 1032l-223 -1268h-140z" />
<glyph unicode="N" horiz-adv-x="1421" d="M96 0l258 1475h172l498 -1299l231 1299h136l-258 -1475h-172l-498 1298l-232 -1298h-135z" />
<glyph unicode="O" horiz-adv-x="1320" d="M113 293l157 901q25 138 113 213.5t223 75.5h428q135 1 200 -81q47 -59 47 -148q0 -34 -7 -72l-158 -901q-25 -138 -113 -213.5t-223 -75.5h-428q-136 0 -200 82q-46 59 -46 146q0 34 7 73zM256 276q-4 -20 -4 -38q0 -44 21 -72q29 -40 94 -39h428q65 0 113.5 46 t60.5 116l161 909q4 21 4 39q0 43 -20 71q-28 40 -94 40h-428q-65 0 -113.5 -46t-60.5 -116z" />
<glyph unicode="P" horiz-adv-x="1269" d="M96 0l258 1475h676q135 1 200 -81q48 -60 48 -152q0 -32 -6 -68l-55 -308q-25 -138 -113 -213t-223 -75h-537l-100 -578h-148zM369 713h528q65 0 113.5 45.5t60.5 115.5l55 316q4 21 4 39q0 43 -20 71q-28 40 -94 39h-537z" />
<glyph unicode="Q" horiz-adv-x="1323" d="M113 293l157 901q25 138 113 213.5t223 75.5h428q136 0 202 -81q47 -59 47 -148q0 -34 -7 -72l-158 -901q-22 -124 -96.5 -198.5t-190.5 -88.5l56 -195h-129l-53 193h-353q-135 0 -200 82q-46 58 -46 146q0 34 7 73zM256 276q-4 -20 -4 -38q0 -44 21 -72q29 -39 94 -39 h301l-64 225h129l64 -225q64 0 113 46t61 116l162 909q3 20 3 38q0 44 -20 72q-30 40 -96 40h-428q-65 0 -113.5 -46t-60.5 -116z" />
<glyph unicode="R" horiz-adv-x="1316" d="M96 0l258 1475h674q135 1 200 -81q48 -60 48 -152q0 -32 -6 -68l-49 -273q-26 -139 -108.5 -211.5t-213.5 -77.5l205 -612h-152l-207 612h-395l-106 -612h-148zM375 748h526q65 0 113.5 45.5t60.5 115.5l49 281q4 21 4 39q0 43 -20 71q-28 40 -94 39h-535z" />
<glyph unicode="S" horiz-adv-x="1257" d="M106 293l25 139h148l-29 -156q-4 -21 -4 -40q0 -44 20 -74q28 -43 94 -43h379q64 0 113 49.5t61 120.5l33 186q6 31 6.5 53.5t-6.5 38.5t-13.5 26t-25 18.5t-31 12.5t-40.5 11l-357 92q-38 10 -67.5 20t-59 24t-48.5 30.5t-36.5 38.5t-24 49t-9.5 61q-1 9 -1 18 q0 27 7 58l28 168q23 137 111.5 213t224.5 76h354q135 1 200 -81q47 -59 47 -148q0 -34 -7 -72l-20 -119h-148l25 135q4 21 4 39q0 45 -21 75q-29 44 -94 44h-354q-64 0 -113 -49.5t-61 -120.5l-29 -160q-4 -23 -5 -42t3 -33.5t8.5 -25.5t14.5 -19.5t17.5 -14t22.5 -10.5 l24 -8t26 -7l356 -92q39 -10 69 -20t59.5 -24t49 -30.5t37.5 -38.5t24 -49q5 -28 9 -62q1 -9 1 -18q0 -27 -7 -57l-35 -194q-25 -138 -113 -213.5t-223 -75.5h-379q-135 0 -200 82q-47 59 -47 147q0 34 7 72z" />
<glyph unicode="T" d="M203 1339l22 136h1008l-23 -136h-430l-235 -1339h-148l236 1339h-430z" />
<glyph unicode="U" horiz-adv-x="1325" d="M125 293l207 1182h147l-211 -1199q-4 -20 -4 -38q0 -44 21 -72q29 -40 94 -39h407q65 0 114 46t61 116l208 1186h148l-209 -1194q-25 -138 -113 -213.5t-223 -75.5h-407q-135 0 -200 82q-47 59 -47 147q0 34 7 72z" />
<glyph unicode="V" horiz-adv-x="1253" d="M223 1475h150l184 -1313l645 1313h156l-742 -1475h-167z" />
<glyph unicode="W" horiz-adv-x="1814" d="M223 1475h146l100 -1278l532 1278h136l80 -1278l546 1278h156l-653 -1475h-152l-84 1239l-514 -1239h-156z" />
<glyph unicode="X" horiz-adv-x="1232" d="M-43 0l612 762l-333 713h153l283 -607l487 607h166l-592 -736l346 -739h-153l-297 635l-510 -635h-162z" />
<glyph unicode="Y" horiz-adv-x="1206" d="M195 1475h145l285 -781l549 781h165l-661 -926l-98 -549h-148l98 549z" />
<glyph unicode="Z" horiz-adv-x="1198" d="M23 0l16 109l999 1230h-745l22 136h926l-16 -109l-1000 -1231h776l-22 -135h-956z" />
<glyph unicode="[" horiz-adv-x="708" d="M57 -217l322 1823h385l-25 -136h-237l-275 -1552h238l-23 -135h-385z" />
<glyph unicode="\" horiz-adv-x="923" d="M229 1618h131l400 -1761h-131z" />
<glyph unicode="]" horiz-adv-x="710" d="M-4 -217l22 135h238l274 1552h-237l24 136h385l-321 -1823h-385z" />
<glyph unicode="^" horiz-adv-x="1028" d="M248 971l342 504h168l166 -504h-127l-131 413l-283 -413h-135z" />
<glyph unicode="_" horiz-adv-x="1118" d="M-121 -205l21 115h1093l-20 -115h-1094z" />
<glyph unicode="`" horiz-adv-x="1202" d="M666 1905l211 -295h98l-127 295h-182z" />
<glyph unicode="a" d="M80 285l96 549q23 132 110 206t216 74h108q112 0 201 -82l98 -78l29 152h139l-194 -1106h-140l29 152l-121 -86q-112 -74 -229 -74h-109q-129 0 -193 80q-47 59 -46 146q0 32 6 67zM217 272q-3 -21 -3 -39q0 -45 20 -75q30 -42 96 -43h104q108 0 228 65l122 64l113 618 l-92 68q-95 61 -207 61h-104q-66 0 -117.5 -49t-63.5 -121z" />
<glyph unicode="b" d="M59 0l269 1530h139l-102 -576l118 86q112 74 230 74h108q129 0 193 -80q47 -59 47 -147q0 -31 -6 -66l-97 -549q-23 -132 -109.5 -206t-215.5 -74h-109q-108 0 -200 82l-97 78l-28 -152h-140zM240 244l92 -68q92 -61 205 -61h104q66 0 117 49t63 121l97 549q3 21 3 39 q-1 45 -21 75q-30 42 -95 43h-105q-104 0 -227 -65l-121 -64z" />
<glyph unicode="c" horiz-adv-x="1062" d="M80 285l96 549q23 132 110 206t216 74h270q129 0 193 -80q47 -59 48 -147q0 -31 -7 -66l-11 -59h-139l12 72q4 21 4 40q0 44 -21 74q-29 42 -95 43h-262q-66 0 -117.5 -49t-63.5 -121l-96 -549q-3 -21 -3 -39q0 -45 20 -75q30 -42 96 -43h262q66 0 117 49t63 121l10 59 h140l-13 -72q-23 -132 -109.5 -206t-215.5 -74h-271q-129 0 -193 80q-47 59 -46 146q0 32 6 67z" />
<glyph unicode="d" horiz-adv-x="1136" d="M80 285l96 549q23 132 110 206t216 74h108q112 0 201 -82l98 -78l103 576h139l-268 -1530h-140l29 152l-121 -86q-112 -74 -229 -74h-109q-129 0 -193 80q-47 59 -46 146q0 32 6 67zM217 272q-3 -21 -3 -39q0 -45 20 -75q30 -42 96 -43h104q108 0 228 65l122 64l113 618 l-92 68q-95 61 -207 61h-104q-66 0 -117.5 -49t-63.5 -121z" />
<glyph unicode="e" horiz-adv-x="1083" d="M80 285l96 549q23 132 110 206t216 74h274q129 0 193 -80q47 -59 47 -147q0 -31 -6 -66l-54 -299h-694l-45 -254q-3 -21 -3 -39q0 -45 20 -75q30 -42 96 -43h266q66 0 117 49t63 121l10 65h140l-13 -74q-23 -132 -109.5 -206t-215.5 -74h-275q-129 0 -193 80 q-47 59 -46 146q0 32 6 67zM283 641h557l34 197q3 21 3 39q0 45 -21 75q-30 42 -96 43h-266q-66 0 -116.5 -49t-62.5 -121z" />
<glyph unicode="f" horiz-adv-x="755" d="M137 989l21 117h192l25 143q23 132 109.5 206.5t215.5 74.5h185l-21 -119h-176q-66 0 -117 -49t-63 -121l-23 -135h326l-20 -117h-324l-174 -989h-139l174 989h-191z" />
<glyph unicode="g" d="M41 -98h139l-4 -25q-3 -21 -3 -39q0 -45 21 -76q29 -43 95 -43h254q66 0 117 49t63 121l59 328l-118 -86q-112 -74 -232 -74h-108q-129 0 -192 81q-46 58 -46 145q0 32 6 67l84 484q23 132 110 206t216 74h108q112 0 201 -82l98 -78l29 152h139l-217 -1223 q-23 -132 -109.5 -206t-215.5 -74h-263q-129 0 -192 81q-46 57 -46 142q0 33 7 70v6zM229 338q-3 -21 -3 -39q0 -45 20 -76q30 -43 96 -43h104q103 0 228 66l121 63l102 553l-92 68q-95 61 -207 61h-104q-66 0 -117.5 -49t-63.5 -121z" />
<glyph unicode="h" horiz-adv-x="1126" d="M59 0l269 1530h139l-102 -576l118 86q112 74 230 74h84q129 0 193 -80q47 -59 46 -146q0 -31 -6 -67l-143 -821h-139l145 834q3 21 3 39q0 45 -20 75q-30 42 -96 43h-80q-104 0 -227 -65l-121 -64l-153 -862h-140z" />
<glyph unicode="i" horiz-adv-x="475" d="M72 0l194 1106h140l-195 -1106h-139zM299 1350l31 180h159l-30 -180h-160z" />
<glyph unicode="j" horiz-adv-x="475" d="M-236 -401l23 122h86q66 0 116 49t62 121l215 1215h140l-218 -1227q-23 -132 -109.5 -206t-215.5 -74h-99zM301 1350l31 180h157l-30 -180h-158z" />
<glyph unicode="k" horiz-adv-x="1042" d="M59 0l258 1475h140l-174 -979l600 610h182l-432 -422l264 -684h-147l-215 588l-279 -273l-57 -315h-140z" />
<glyph unicode="l" horiz-adv-x="471" d="M72 0l268 1530h135l-268 -1530h-135z" />
<glyph unicode="m" horiz-adv-x="1736" d="M59 0l195 1106h139l-28 -152l118 86q112 74 230 74h45q96 0 157 -46t76 -128l142 98q116 76 229 76h45q129 0 193 -80q47 -59 47 -146q0 -31 -7 -67l-143 -821h-139l145 834q4 21 4 40q0 44 -21 74q-29 42 -95 43h-41q-105 0 -228 -65l-127 -68l-4 -37l-143 -821h-139 l145 834q3 21 3 39q-1 45 -21 75q-30 42 -95 43h-41q-104 0 -227 -65l-121 -64l-153 -862h-140z" />
<glyph unicode="n" horiz-adv-x="1126" d="M59 0l195 1106h139l-28 -152l118 86q112 74 230 74h84q129 0 193 -80q47 -59 46 -146q0 -31 -6 -67l-143 -821h-139l145 834q3 21 3 39q0 45 -20 75q-30 42 -96 43h-80q-104 0 -227 -65l-121 -64l-153 -862h-140z" />
<glyph unicode="o" horiz-adv-x="1099" d="M80 285l96 549q23 132 110 206t216 74h284q129 0 193 -80q47 -59 47 -147q0 -31 -6 -66l-96 -549q-23 -132 -110 -206t-216 -74h-285q-129 0 -193 80q-47 59 -46 146q0 32 6 67zM217 268q-3 -21 -3 -39q0 -45 20 -75q30 -42 96 -43h276q66 0 117 49t63 121l99 557 q3 21 3 39q0 45 -21 75q-30 42 -97 43h-276q-66 0 -116.5 -49t-62.5 -121z" />
<glyph unicode="p" d="M-10 -389l264 1495h139l-28 -152l118 86q112 74 230 74h108q129 0 193 -80q47 -60 47 -147q0 -31 -6 -66l-97 -549q-23 -132 -109.5 -206t-215.5 -74h-109q-108 0 -200 82l-97 78l-98 -541h-139zM240 244l92 -68q92 -61 205 -61h104q66 0 117 49t63 121l97 549q3 21 3 39 q0 45 -21 75q-29 43 -95 43h-105q-104 0 -227 -65l-121 -64z" />
<glyph unicode="q" d="M80 285l96 549q23 132 110 206t216 74h108q112 0 201 -82l98 -78l29 152h139l-264 -1495h-139l98 541l-121 -86q-112 -74 -229 -74h-109q-129 0 -193 80q-46 60 -46 146q0 32 6 67zM217 272q-3 -21 -3 -39q0 -45 20 -75q30 -43 96 -43h104q108 0 228 65l122 64l113 618 l-92 68q-95 61 -207 61h-104q-66 0 -117.5 -49t-63.5 -121z" />
<glyph unicode="r" horiz-adv-x="772" d="M59 0l195 1106h139l-28 -152l118 86q112 74 230 74h102l-22 -127h-95q-99 0 -225 -65l-123 -64l-151 -858h-140z" />
<glyph unicode="s" horiz-adv-x="1040" d="M57 264l13 70h135l-12 -78q-4 -21 -4 -40q-1 -40 17 -67q26 -40 87 -40h293q60 0 103 46t54 113l19 109q3 18 3 32q-1 31 -15 45q-22 20 -88 31l-304 54q-116 21 -164 79q-34 42 -35 109q0 26 5 55l12 72q22 126 100 193t201 67h262q123 0 182 -73q43 -53 43 -134 q0 -30 -6 -65l-8 -51h-135l10 59q4 24 4 43q0 104 -106 104h-252q-64 0 -105 -47t-53 -112l-12 -72q-3 -18 -3 -33q0 -31 14 -45q22 -20 87 -31l308 -53q116 -21 164 -79q34 -41 34 -106q0 -27 -6 -59l-20 -108q-23 -126 -100.5 -193t-200.5 -67h-302q-124 0 -182 73 q-43 53 -43 134q0 31 6 65z" />
<glyph unicode="t" horiz-adv-x="821" d="M133 989l21 117h192l64 369h135l-64 -369h359l-21 -117h-356l-127 -713q-3 -21 -3 -39q0 -45 21 -75q30 -42 97 -43h215l-21 -119h-211q-128 0 -192 80q-47 59 -47 146q0 31 6 67l123 696h-191z" />
<glyph unicode="u" horiz-adv-x="1126" d="M94 285l146 821h139l-148 -834q-3 -21 -3 -39q0 -45 20 -75q30 -42 96 -43h80q110 0 227 65l123 64l154 862h139l-195 -1106h-139l29 152l-121 -86q-112 -74 -229 -74h-84q-129 0 -193 80q-47 59 -47 147q0 31 6 66z" />
<glyph unicode="v" horiz-adv-x="976" d="M139 1106h140l131 -997l475 997h151l-555 -1106h-176z" />
<glyph unicode="w" horiz-adv-x="1490" d="M139 1106h137l95 -969l415 969h119l66 -969l432 969h147l-524 -1106h-152l-61 905l-383 -905h-154z" />
<glyph unicode="x" horiz-adv-x="1005" d="M-57 0l485 567l-289 539h140l237 -444l379 444h156l-473 -557l292 -549h-139l-246 459l-389 -459h-153z" />
<glyph unicode="y" horiz-adv-x="976" d="M139 1106h133l152 -934l473 934h139l-764 -1495h-131l197 389z" />
<glyph unicode="z" horiz-adv-x="919" d="M-16 0l12 86l749 901h-559l21 119h731l-14 -86l-750 -901h582l-21 -119h-751z" />
<glyph unicode="{" horiz-adv-x="792" d="M129 645l23 127h30q73 0 117.5 42t58.5 120l68 383q25 138 113 213.5t223 75.5h86l-25 -136h-78q-65 0 -114.5 -45.5t-61.5 -115.5l-67 -387q-28 -154 -180 -217q58 -33 87.5 -89t16.5 -133l-74 -415q-12 -70 17 -110t94 -40h86l-23 -135h-77q-135 0 -200 81.5t-40 219.5 l72 412q14 77 -13 113t-100 36h-39z" />
<glyph unicode="|" horiz-adv-x="606" d="M68 -442l362 2054h119l-363 -2054h-118z" />
<glyph unicode="}" horiz-adv-x="792" d="M-4 -217l22 135h78q65 0 113.5 46t60.5 116l74 416q14 78 60 129.5t122 87.5q-57 27 -86.5 84.5t-15.5 136.5l68 387q12 69 -17.5 109t-95.5 40h-86l24 136h78q135 0 200 -81.5t40 -219.5l-68 -383q-14 -78 12.5 -114t100.5 -36h39l-23 -127h-30q-148 0 -177 -162 l-71 -411q-25 -138 -113 -213.5t-223 -75.5h-86z" />
<glyph unicode="~" horiz-adv-x="1017" d="M160 551h104l62 121l352 -109q41 -12 76 6.5t57 61.5l92 172h-108l-62 -117l-350 105q-42 12 -77.5 -6.5t-55.5 -63.5z" />
<glyph unicode="&#xa1;" horiz-adv-x="593" d="M43 -369l238 1069h81l-139 -1069h-180zM272 909l35 197h172l-35 -197h-172z" />
<glyph unicode="&#xa2;" horiz-adv-x="1107" d="M131 506l86 487q25 138 113 213.5t223 75.5h74l32 193h119l-33 -193h64q135 0 200 -81.5t40 -219.5l-9 -51h-143l10 63q12 72 -17 115t-95 43h-78l-146 -815h70q66 0 117 49t63 121l8 51h144l-10 -63q-25 -138 -113 -213.5t-223 -75.5h-72l-35 -205h-119l35 205h-65 q-135 0 -200 81.5t-40 219.5zM272 494q-12 -72 17.5 -115t95.5 -43h78l145 815h-69q-66 0 -117.5 -49t-63.5 -121z" />
<glyph unicode="&#xa3;" horiz-adv-x="1249" d="M-20 0l22 135h100q28 0 50 19.5t26 48.5l78 444h-164l25 131h162l73 416q25 138 113 213.5t223 75.5h297q135 0 200 -81.5t40 -219.5l-27 -150h-147l30 166q12 70 -16.5 110t-93.5 40h-297q-65 0 -113.5 -46t-60.5 -116l-72 -408h432l-24 -131h-433l-90 -512h736 l-23 -135h-1046z" />
<glyph unicode="&#xa4;" horiz-adv-x="1216" d="M49 276l184 162q-28 70 -10 166l53 311q14 91 64 160l-123 150l96 86l123 -150q73 43 176 43h213q97 0 156 -41l176 156l80 -94l-180 -160q24 -67 8 -162l-55 -311q-14 -93 -66 -164l125 -152l-96 -86l-125 154q-74 -41 -172 -41h-213q-91 0 -152 39l-182 -160zM362 592 q-12 -72 18 -115t97 -43h213q66 0 116 49t64 121l54 311q12 72 -17.5 115t-95.5 43h-213q-66 0 -117 -49t-63 -121z" />
<glyph unicode="&#xa5;" horiz-adv-x="1206" d="M150 315l22 127h338l22 123h-339l22 127h270l-290 783h145l289 -758l545 758h165l-567 -783h268l-22 -127h-338l-23 -123h340l-22 -127h-340l-55 -315h-148l55 315h-337z" />
<glyph unicode="&#xa6;" horiz-adv-x="606" d="M68 -442l143 811h119l-144 -811h-118zM287 801l143 811h119l-143 -811h-119z" />
<glyph unicode="&#xa7;" horiz-adv-x="1075" d="M37 80l12 70h131l-12 -78q-12 -66 14 -106t86 -40h297q59 0 102 45.5t56 112.5l18 111q17 90 -98 108l-305 53q-98 18 -155 85t-40 159l23 127q24 146 129 217q-65 65 -47 164l20 115q22 126 100 193t201 67h258q123 0 182.5 -73.5t37.5 -199.5l-9 -39h-131l8 48 q12 66 -14 105.5t-86 39.5h-258q-59 0 -102 -45.5t-56 -112.5l-16 -102q-10 -52 15 -80t83 -37l312 -53q96 -15 149.5 -83t36.5 -161l-23 -123q-25 -147 -127 -217q63 -66 45 -168l-20 -114q-22 -126 -100 -193.5t-201 -67.5h-297q-124 0 -182.5 73.5t-36.5 199.5zM279 596 q-9 -52 16 -80t82 -37l317 -55q49 6 84.5 52.5t46.5 107.5l21 118q14 91 -101 109l-323 57q-44 -7 -79 -53t-44 -104z" />
<glyph unicode="&#xa8;" horiz-adv-x="1284" d="M580 1618l34 205h158l-35 -205h-157zM922 1618l34 205h160l-35 -205h-159z" />
<glyph unicode="&#xa9;" horiz-adv-x="1699" d="M143 293l158 901q25 138 113 213.5t223 75.5h745q135 0 200 -81.5t40 -219.5l-158 -901q-25 -138 -113 -213.5t-223 -75.5h-745q-135 0 -200 81.5t-40 219.5zM248 281q-36 -195 143 -195h746q89 0 147 55.5t76 151.5l158 901q17 95 -18.5 145t-125.5 50h-745 q-89 0 -147 -55.5t-76 -151.5zM514 506l84 475q19 107 84 163t170 56h215q104 0 153.5 -62t30.5 -169l-16 -88h-131l18 100q9 52 -4.5 76t-58.5 24h-223q-44 0 -72 -30t-37 -82l-84 -475q-9 -52 4.5 -76.5t57.5 -24.5h223q89 0 110 113l17 88h131l-19 -100 q-19 -107 -85 -163.5t-171 -56.5h-215q-104 0 -152.5 62t-29.5 170z" />
<glyph unicode="&#xaa;" horiz-adv-x="753" d="M111 520l18 98h537l-19 -98h-536zM170 942l10 66q15 86 70.5 132t140.5 46h35q98 0 223 -25l27 127q8 43 -10 67.5t-58 24.5h-141q-41 0 -73 -30.5t-40 -73.5v-2h-106l4 24q15 85 71.5 133t139.5 48h168q83 0 124.5 -54t26.5 -139l-92 -530h-106l18 96l-82 -66 q-51 -36 -133 -36h-65q-83 0 -125 53.5t-27 138.5zM274 940q-6 -44 11.5 -68t58.5 -24h57q70 0 138 43l73 41l31 168h-248q-40 0 -71 -31.5t-39 -75.5z" />
<glyph unicode="&#xab;" horiz-adv-x="835" d="M80 678l10 82l324 385h149l-366 -426l206 -424h-135zM383 678l10 82l326 385h149l-366 -426l207 -424h-136z" />
<glyph unicode="&#xad;" horiz-adv-x="849" d="M137 606l25 139h596l-25 -139h-596z" />
<glyph unicode="&#xae;" horiz-adv-x="831" d="M174 874l84 484q11 54 52.5 89.5t95.5 35.5h339q54 0 87 -41.5t22 -95.5l-84 -484q-9 -54 -50.5 -89.5t-94.5 -35.5h-342q-54 0 -86 41.5t-23 95.5zM226.5 832q2.5 -14 17 -27.5t41.5 -13.5h342q39 0 63.5 28.5t28.5 54.5l84 484q2 14 1.5 30t-16 29t-43.5 13h-339 q-39 0 -65 -29t-30 -55l-84 -484q-3 -16 -0.5 -30zM328 889l78 446h206q40 0 60.5 -26.5t13.5 -67.5l-14 -90q-7 -43 -36 -65.5t-67 -16.5l64 -180h-58l-63 180h-98l-33 -180h-53zM422 1122h153q15 0 27.5 11t13.5 28l17 92q3 17 -1.5 23t-19.5 6h-161z" />
<glyph unicode="&#xaf;" horiz-adv-x="1196" d="M530 1630l21 123h514l-21 -123h-514z" />
<glyph unicode="&#xb0;" horiz-adv-x="663" d="M242 1137l47 258q6 38 33.5 61t64.5 23h209q38 0 60 -29t16 -68l-47 -258q-6 -38 -33.5 -61t-65.5 -23h-209q-36 0 -58.5 29t-16.5 68zM332 1145q-3 -19 18 -19h160q10 0 20.5 10t12.5 21l39 217q3 19 -19 19h-160q-10 0 -20 -10t-12 -21z" />
<glyph unicode="&#xb1;" horiz-adv-x="1019" d="M80 250l22 123h756l-22 -123h-756zM176 799l23 123h315l57 323h123l-57 -323h317l-22 -123h-318l-57 -324h-123l58 324h-316z" />
<glyph unicode="&#xb2;" horiz-adv-x="665" d="M143 963h535l18 112h-415l18 96q3 19 17.5 28.5t48.5 19.5l204 71q36 13 57 21.5t48 22.5t42 28t27.5 34.5t16.5 45.5l18 108q11 65 -27 109.5t-108 44.5h-205q-70 0 -119 -38t-61 -103l-12 -76h116l9 45q5 28 26 44.5t54 16.5h161q32 0 44 -11t6 -38l-19 -94 q-3 -15 -13 -24t-18.5 -12t-36.5 -11l-204 -72q-45 -16 -70 -27t-54.5 -29t-45 -41t-21.5 -54z" />
<glyph unicode="&#xb3;" horiz-adv-x="671" d="M158 1112l12 64h119l-10 -58q-5 -28 6 -38.5t43 -10.5h180q31 0 51 16.5t25 44.5l18 109q6 28 -7 38.5t-52 10.5h-176l18 105h168q68 0 80 61l16 90q4 27 -7 38t-42 11h-162q-33 0 -54 -16.5t-26 -44.5l-8 -45h-117l13 76q12 65 61 103t119 38h205q70 0 108.5 -44.5 t26.5 -109.5l-18 -106q-12 -68 -89 -109q30 -12 47 -44t11 -68l-23 -123q-11 -65 -59.5 -103.5t-118.5 -38.5h-221q-70 0 -109 44.5t-28 109.5z" />
<glyph unicode="&#xb4;" horiz-adv-x="1189" d="M588 1610l233 295h195l-314 -295h-114z" />
<glyph unicode="&#xb6;" horiz-adv-x="1441" d="M188 895l52 291q23 138 110.5 213.5t222.5 75.5h838l-258 -1475h-147l235 1339h-145l-236 -1339h-147l104 594h-389q-135 0 -200 81.5t-40 219.5z" />
<glyph unicode="&#xb7;" horiz-adv-x="464" d="M147 575l35 201h178l-34 -201h-179z" />
<glyph unicode="&#xb8;" d="M186 -328h297q28 0 40.5 14t17.5 46l4 20q7 31 2 39t-33 8h-254l137 201h115l-70 -102h66q77 0 116.5 -41.5t26.5 -116.5l-4 -21q-23 -145 -188 -145h-189z" />
<glyph unicode="&#xb9;" horiz-adv-x="417" d="M221 1528l19 102l174 70h94l-129 -737h-117l107 614z" />
<glyph unicode="&#xba;" horiz-adv-x="759" d="M111 520l18 98h526l-18 -98h-526zM170 942l61 356q15 85 71.5 133t139.5 48h195q82 0 124 -54t27 -139l-61 -356q-15 -84 -72 -132t-139 -48h-194q-83 0 -125 53.5t-27 138.5zM276 940q-6 -43 11.5 -67.5t56.5 -24.5h168q39 0 71 30.5t40 73.5l57 336q8 43 -10 67.5 t-58 24.5h-168q-39 0 -69.5 -30t-38.5 -74z" />
<glyph unicode="&#xbb;" horiz-adv-x="835" d="M27 295l368 424l-209 426h136l188 -385l-10 -82l-324 -383h-149zM332 295l368 424l-208 426h135l188 -385l-10 -82l-324 -383h-149z" />
<glyph unicode="&#xbc;" horiz-adv-x="1314" d="M18 0l1026 1475h123l-1026 -1475h-123zM180 1303l19 102l174 70h94l-129 -738h-117l107 615zM571 252l494 485h115l-82 -469h114l-20 -106h-115l-26 -162h-117l27 162h-388zM723 268h258l53 299z" />
<glyph unicode="&#xbd;" horiz-adv-x="1368" d="M18 0l1026 1475h123l-1026 -1475h-123zM180 1303l19 102l174 70h94l-129 -738h-117l107 615zM676 0h534l19 113h-416l18 96q3 19 17 28t49 19l205 72q36 13 56.5 21t47.5 22t42 28t27.5 34.5t16.5 45.5l19 109q11 65 -27 109t-108 44h-205q-70 0 -119 -38t-61 -103 l-13 -76h117l8 45q5 28 26 45t54 17h162q32 0 43.5 -11t5.5 -38l-18 -95q-3 -15 -13 -24t-18.5 -12t-36.5 -11l-205 -71q-44 -16 -70 -27t-54.5 -29t-44 -41.5t-21.5 -54.5z" />
<glyph unicode="&#xbe;" horiz-adv-x="1568" d="M117 887l12 63h119l-10 -57q-4 -28 6.5 -38.5t42.5 -10.5h180q31 0 51 16.5t25 44.5l18 109q6 28 -7 38.5t-52 10.5h-176l18 104h168q68 0 80 62l16 90q4 27 -7 38t-42 11h-162q-33 0 -54 -16.5t-26 -44.5l-8 -45h-116l12 75q12 65 61 103.5t119 38.5h205 q70 0 108.5 -44.5t26.5 -109.5l-18 -106q-12 -68 -89 -109q30 -12 47 -44.5t11 -68.5l-23 -123q-10 -64 -58.5 -102.5t-119.5 -38.5h-221q-70 0 -109 44.5t-28 109.5zM272 0l1026 1475h123l-1026 -1475h-123zM825 252l494 485h115l-82 -469h114l-20 -106h-115l-26 -162h-117 l26 162h-387zM977 268h258l53 299z" />
<glyph unicode="&#xbf;" horiz-adv-x="1118" d="M-14 -76l24 142q11 58 37.5 102.5t73.5 79.5t91.5 59t117.5 58q4 1 6 2t5.5 3t6.5 3l60 26q6 3 24 11.5t24 11.5t22 11.5t22 12.5t19 12t18.5 13.5l14.5 14.5t13.5 16.5t8.5 17t6 19.5l32 182h148l-35 -191q-5 -27 -12.5 -50t-21 -43t-24.5 -35t-33 -31.5t-36.5 -27 t-45 -26t-47.5 -24t-55.5 -26t-58.5 -27.5l-59 -27q-90 -42 -115 -61q-50 -38 -61 -99l-25 -145q-12 -70 17 -110t94 -40h385q65 0 113.5 46t60.5 116l24 139h148l-27 -147q-25 -138 -113 -213.5t-223 -75.5h-385q-135 0 -199.5 81.5t-39.5 219.5zM641 883l39 223h147 l-39 -223h-147z" />
<glyph unicode="&#xc0;" horiz-adv-x="1316" d="M-39 0l772 1475h168l258 -1475h-149l-68 430h-606l-219 -430h-156zM406 565h514l-121 770zM618 1905h183l127 -295h-99z" />
<glyph unicode="&#xc1;" horiz-adv-x="1316" d="M-39 0l772 1475h168l258 -1475h-149l-68 430h-606l-219 -430h-156zM406 565h514l-121 770zM729 1610l234 295h194l-313 -295h-115z" />
<glyph unicode="&#xc2;" horiz-adv-x="1316" d="M-39 0l772 1475h168l258 -1475h-149l-68 430h-606l-219 -430h-156zM406 565h514l-121 770zM535 1610l272 245h147l187 -245h-101l-176 155l-221 -155h-108z" />
<glyph unicode="&#xc3;" horiz-adv-x="1316" d="M-39 0l772 1475h168l258 -1475h-149l-68 430h-606l-219 -430h-156zM406 565h514l-121 770zM555 1610l76 190q14 44 53.5 63.5t81.5 -3.5l252 -148l65 150h101l-80 -193q-18 -43 -53 -61t-74 2l-252 147l-66 -147h-104z" />
<glyph unicode="&#xc4;" horiz-adv-x="1316" d="M-39 0l772 1475h168l258 -1475h-149l-68 430h-606l-219 -430h-156zM406 565h514l-121 770zM588 1618l35 205h157l-35 -205h-157zM930 1618l35 205h159l-34 -205h-160z" />
<glyph unicode="&#xc5;" horiz-adv-x="1316" d="M-39 0l772 1475h168l258 -1475h-149l-68 430h-606l-219 -430h-156zM406 565h514l-121 770zM684 1686l31 176q4 26 26 44.5t47 18.5h195q25 0 44 -25t15 -51l-30 -176q-4 -26 -27.5 -44.5t-48.5 -18.5h-195q-25 0 -43.5 25t-13.5 51zM764 1698q-3 -19 14 -19h129 q30 0 35 31l21 127q3 18 -17 18h-129q-29 0 -33 -30z" />
<glyph unicode="&#xc6;" horiz-adv-x="1955" d="M-74 0l996 1475h1085l-22 -136h-762l-90 -514h661l-25 -135h-661l-98 -555h762l-23 -135h-909l75 430h-530l-287 -430h-172zM475 565h463l135 774h-84z" />
<glyph unicode="&#xc7;" horiz-adv-x="1269" d="M113 293l157 901q25 138 113 213.5t223 75.5h404q135 0 199.5 -81.5t39.5 -219.5l-26 -150h-148l31 166q12 70 -17 110t-94 40h-403q-65 0 -113.5 -46t-60.5 -116l-162 -910q-12 -70 17 -109.5t94 -39.5h403q65 0 113.5 46t60.5 116l29 153h147l-28 -161 q-25 -138 -113 -213.5t-223 -75.5h-138l-63 -94h66q77 0 116.5 -41.5t26.5 -116.5l-4 -21q-23 -145 -189 -145h-188l-84 98h297q28 0 40 14t17 46l4 20q7 31 2.5 39t-32.5 8h-254l131 193h-152q-135 0 -199.5 81.5t-39.5 219.5z" />
<glyph unicode="&#xc8;" horiz-adv-x="1193" d="M96 0l258 1475h891l-22 -136h-744l-92 -518h627l-23 -135h-626l-99 -551h744l-23 -135h-891zM596 1905l211 -295h98l-127 295h-182z" />
<glyph unicode="&#xc9;" horiz-adv-x="1193" d="M96 0l258 1475h891l-22 -136h-744l-92 -518h627l-23 -135h-626l-99 -551h744l-23 -135h-891zM707 1610l233 295h195l-314 -295h-114z" />
<glyph unicode="&#xca;" horiz-adv-x="1193" d="M96 0l258 1475h891l-22 -136h-744l-92 -518h627l-23 -135h-626l-99 -551h744l-23 -135h-891zM512 1610h109l221 155l176 -155h100l-186 245h-148z" />
<glyph unicode="&#xcb;" horiz-adv-x="1193" d="M96 0l258 1475h891l-22 -136h-744l-92 -518h627l-23 -135h-626l-99 -551h744l-23 -135h-891zM565 1618l35 205h158l-35 -205h-158zM907 1618l35 205h160l-35 -205h-160z" />
<glyph unicode="&#xcc;" horiz-adv-x="532" d="M96 0l258 1475h148l-258 -1475h-148zM227 1905l211 -295h99l-127 295h-183z" />
<glyph unicode="&#xcd;" horiz-adv-x="532" d="M96 0l258 1475h148l-258 -1475h-148zM338 1610l233 295h195l-313 -295h-115z" />
<glyph unicode="&#xce;" horiz-adv-x="532" d="M96 0l258 1475h148l-258 -1475h-148zM143 1610h109l221 155l176 -155h101l-187 245h-147z" />
<glyph unicode="&#xcf;" horiz-adv-x="532" d="M96 0l258 1475h148l-258 -1475h-148zM197 1618l34 205h158l-35 -205h-157zM539 1618l34 205h160l-35 -205h-159z" />
<glyph unicode="&#xd0;" horiz-adv-x="1333" d="M37 678l24 135h177l116 662h690q135 0 200 -81.5t42 -219.5l-158 -885q-23 -138 -110.5 -213.5t-222.5 -75.5h-699l119 678h-178zM266 135h543q65 0 113.5 46t60.5 116l158 893q12 70 -17 109.5t-94 39.5h-551l-92 -526h178l-24 -135h-179z" />
<glyph unicode="&#xd1;" horiz-adv-x="1421" d="M96 0l258 1475h172l498 -1299l231 1299h136l-258 -1475h-172l-498 1298l-232 -1298h-135zM618 1610h105l65 147l252 -147q39 -20 74 -2t53 61l80 193h-100l-66 -150l-252 148q-42 23 -81.5 3.5t-53.5 -63.5z" />
<glyph unicode="&#xd2;" horiz-adv-x="1320" d="M113 293l157 901q25 138 113 213.5t223 75.5h428q135 0 200 -81.5t40 -219.5l-158 -901q-25 -138 -113 -213.5t-223 -75.5h-428q-135 0 -199.5 81.5t-39.5 219.5zM256 276q-12 -70 17 -109.5t94 -39.5h428q65 0 113.5 46t60.5 116l161 909q12 70 -16.5 110t-93.5 40h-428 q-65 0 -113.5 -46t-60.5 -116zM623 1905l211 -295h98l-127 295h-182z" />
<glyph unicode="&#xd3;" horiz-adv-x="1320" d="M113 293l157 901q25 138 113 213.5t223 75.5h428q135 0 200 -81.5t40 -219.5l-158 -901q-25 -138 -113 -213.5t-223 -75.5h-428q-135 0 -199.5 81.5t-39.5 219.5zM256 276q-12 -70 17 -109.5t94 -39.5h428q65 0 113.5 46t60.5 116l161 909q12 70 -16.5 110t-93.5 40h-428 q-65 0 -113.5 -46t-60.5 -116zM733 1610l234 295h194l-313 -295h-115z" />
<glyph unicode="&#xd4;" horiz-adv-x="1320" d="M113 293l157 901q25 138 113 213.5t223 75.5h428q135 0 200 -81.5t40 -219.5l-158 -901q-25 -138 -113 -213.5t-223 -75.5h-428q-135 0 -199.5 81.5t-39.5 219.5zM256 276q-12 -70 17 -109.5t94 -39.5h428q65 0 113.5 46t60.5 116l161 909q12 70 -16.5 110t-93.5 40h-428 q-65 0 -113.5 -46t-60.5 -116zM539 1610h108l221 155l176 -155h101l-187 245h-147z" />
<glyph unicode="&#xd5;" horiz-adv-x="1320" d="M113 293l157 901q25 138 113 213.5t223 75.5h428q135 0 200 -81.5t40 -219.5l-158 -901q-25 -138 -113 -213.5t-223 -75.5h-428q-135 0 -199.5 81.5t-39.5 219.5zM256 276q-12 -70 17 -109.5t94 -39.5h428q65 0 113.5 46t60.5 116l161 909q12 70 -16.5 110t-93.5 40h-428 q-65 0 -113.5 -46t-60.5 -116zM559 1610h105l65 147l252 -147q39 -20 74 -2t53 61l80 193h-101l-65 -150l-252 148q-42 23 -81.5 3.5t-53.5 -63.5z" />
<glyph unicode="&#xd6;" horiz-adv-x="1320" d="M113 293l157 901q25 138 113 213.5t223 75.5h428q135 0 200 -81.5t40 -219.5l-158 -901q-25 -138 -113 -213.5t-223 -75.5h-428q-135 0 -199.5 81.5t-39.5 219.5zM256 276q-12 -70 17 -109.5t94 -39.5h428q65 0 113.5 46t60.5 116l161 909q12 70 -16.5 110t-93.5 40h-428 q-65 0 -113.5 -46t-60.5 -116zM592 1618l35 205h157l-34 -205h-158zM934 1618l35 205h159l-34 -205h-160z" />
<glyph unicode="&#xd7;" horiz-adv-x="1019" d="M139 412l316 276l-222 262l91 78l219 -262l311 274l76 -86l-316 -276l220 -262l-89 -78l-217 262l-313 -274z" />
<glyph unicode="&#xd8;" horiz-adv-x="1323" d="M113 293l157 901q25 138 113 213.5t223 75.5h428q136 0 201.5 -81.5t40.5 -219.5l-158 -901q-25 -138 -113 -213.5t-225 -75.5h-428q-135 0 -199.5 81.5t-39.5 219.5zM252 227l786 1121h-18h-428q-65 0 -113.5 -46t-60.5 -116l-162 -910q-4 -18 -4 -49zM340 129 q8 -2 27 -2h428q65 0 114.5 46t61.5 116l162 909q6 32 2 64z" />
<glyph unicode="&#xd9;" horiz-adv-x="1325" d="M125 293l207 1182h147l-211 -1199q-12 -70 17 -109.5t94 -39.5h407q65 0 114 46t61 116l208 1186h148l-209 -1194q-25 -138 -113 -213.5t-223 -75.5h-407q-135 0 -200 81.5t-40 219.5zM623 1905l211 -295h98l-127 295h-182z" />
<glyph unicode="&#xda;" horiz-adv-x="1325" d="M125 293l207 1182h147l-211 -1199q-12 -70 17 -109.5t94 -39.5h407q65 0 114 46t61 116l208 1186h148l-209 -1194q-25 -138 -113 -213.5t-223 -75.5h-407q-135 0 -200 81.5t-40 219.5zM733 1610l234 295h194l-313 -295h-115z" />
<glyph unicode="&#xdb;" horiz-adv-x="1325" d="M125 293l207 1182h147l-211 -1199q-12 -70 17 -109.5t94 -39.5h407q65 0 114 46t61 116l208 1186h148l-209 -1194q-25 -138 -113 -213.5t-223 -75.5h-407q-135 0 -200 81.5t-40 219.5zM539 1610h108l221 155l176 -155h101l-187 245h-147z" />
<glyph unicode="&#xdc;" horiz-adv-x="1325" d="M125 293l207 1182h147l-211 -1199q-12 -70 17 -109.5t94 -39.5h407q65 0 114 46t61 116l208 1186h148l-209 -1194q-25 -138 -113 -213.5t-223 -75.5h-407q-135 0 -200 81.5t-40 219.5zM592 1618l35 205h157l-34 -205h-158zM934 1618l35 205h159l-34 -205h-160z" />
<glyph unicode="&#xdd;" horiz-adv-x="1206" d="M195 1475h145l285 -781l549 781h165l-661 -926l-98 -549h-148l98 549zM674 1610l233 295h195l-314 -295h-114z" />
<glyph unicode="&#xde;" horiz-adv-x="1269" d="M96 0l258 1475h148l-49 -287h528q135 0 200 -81.5t40 -219.5l-52 -291q-25 -138 -112.5 -213.5t-222.5 -75.5h-537l-53 -307h-148zM322 442h528q65 0 113.5 46t60.5 116l51 299q12 70 -16.5 110t-93.5 40h-537z" />
<glyph unicode="&#xdf;" horiz-adv-x="1124" d="M51 0l211 1202q23 132 110 206.5t216 74.5h282q129 0 193 -80.5t41 -212.5l-39 -217q-13 -74 -59.5 -131t-110.5 -88q55 -19 89 -81.5t20 -142.5l-43 -249q-23 -132 -110 -206.5t-216 -74.5h-281l21 121h268q66 0 116 49t64 121l45 262q13 75 -17 110t-124 35h-207 l21 121h198q91 0 132.5 36t56.5 122l39 227q12 72 -17.5 115t-95.5 43h-274q-66 0 -117.5 -49t-63.5 -121l-209 -1192h-139z" />
<glyph unicode="&#xe0;" d="M80 285l96 549q23 132 110 206t216 74h108q112 0 201 -82l98 -78l29 152h139l-194 -1106h-140l29 152l-121 -86q-112 -74 -229 -74h-109q-129 0 -192.5 80.5t-40.5 212.5zM217 272q-12 -72 17.5 -114.5t95.5 -42.5h104q108 0 228 65l122 64l113 618l-92 68 q-95 61 -207 61h-104q-66 0 -117.5 -49t-63.5 -121zM453 1548l211 -295h98l-127 295h-182z" />
<glyph unicode="&#xe1;" d="M80 285l96 549q23 132 110 206t216 74h108q112 0 201 -82l98 -78l29 152h139l-194 -1106h-140l29 152l-121 -86q-112 -74 -229 -74h-109q-129 0 -192.5 80.5t-40.5 212.5zM217 272q-12 -72 17.5 -114.5t95.5 -42.5h104q108 0 228 65l122 64l113 618l-92 68 q-95 61 -207 61h-104q-66 0 -117.5 -49t-63.5 -121zM563 1253l234 295h194l-313 -295h-115z" />
<glyph unicode="&#xe2;" d="M80 285l96 549q23 132 110 206t216 74h108q112 0 201 -82l98 -78l29 152h139l-194 -1106h-140l29 152l-121 -86q-112 -74 -229 -74h-109q-129 0 -192.5 80.5t-40.5 212.5zM217 272q-12 -72 17.5 -114.5t95.5 -42.5h104q108 0 228 65l122 64l113 618l-92 68 q-95 61 -207 61h-104q-66 0 -117.5 -49t-63.5 -121zM369 1253h108l221 156l176 -156h101l-187 246h-147z" />
<glyph unicode="&#xe3;" d="M80 285l96 549q23 132 110 206t216 74h108q112 0 201 -82l98 -78l29 152h139l-194 -1106h-140l29 152l-121 -86q-112 -74 -229 -74h-109q-129 0 -192.5 80.5t-40.5 212.5zM217 272q-12 -72 17.5 -114.5t95.5 -42.5h104q108 0 228 65l122 64l113 618l-92 68 q-95 61 -207 61h-104q-66 0 -117.5 -49t-63.5 -121zM389 1253h105l65 148l252 -148q39 -20 74 -1.5t53 61.5l80 192h-100l-66 -149l-252 147q-42 23 -81.5 4t-53.5 -63z" />
<glyph unicode="&#xe4;" d="M80 285l96 549q23 132 110 206t216 74h108q112 0 201 -82l98 -78l29 152h139l-194 -1106h-140l29 152l-121 -86q-112 -74 -229 -74h-109q-129 0 -192.5 80.5t-40.5 212.5zM217 272q-12 -72 17.5 -114.5t95.5 -42.5h104q108 0 228 65l122 64l113 618l-92 68 q-95 61 -207 61h-104q-66 0 -117.5 -49t-63.5 -121zM422 1262l35 204h157l-34 -204h-158zM764 1262l35 204h159l-34 -204h-160z" />
<glyph unicode="&#xe5;" d="M80 285l96 549q23 132 110 206t216 74h108q112 0 201 -82l98 -78l29 152h139l-194 -1106h-140l29 152l-121 -86q-112 -74 -229 -74h-109q-129 0 -192.5 80.5t-40.5 212.5zM217 272q-12 -72 17.5 -114.5t95.5 -42.5h104q108 0 228 65l122 64l113 618l-92 68 q-95 61 -207 61h-104q-66 0 -117.5 -49t-63.5 -121zM518 1329l31 176q4 26 26.5 45t47.5 19h194q25 0 44.5 -25t15.5 -51l-31 -176q-4 -26 -27.5 -45t-48.5 -19h-195q-25 0 -43.5 25t-13.5 51zM598 1341q-3 -18 14 -18h129q30 0 35 31l21 127q3 18 -17 18h-129 q-28 0 -33 -31z" />
<glyph unicode="&#xe6;" horiz-adv-x="1761" d="M53 285l17 98q25 132 111.5 206.5t215.5 74.5h56q153 -3 360 -39l41 209q12 72 -17.5 114.5t-95.5 42.5h-241q-66 0 -117.5 -49t-63.5 -121v-4h-139l2 17q23 132 110 206t216 74h250q132 0 194 -84q87 84 228 84h274q129 0 193 -80.5t41 -212.5l-54 -299h-694l-47 -270 q-6 -64 23.5 -100.5t91.5 -36.5h266q66 0 117 49t63 121l10 61h140l-13 -74q-23 -132 -109.5 -206t-215.5 -74h-275q-94 0 -155 44.5t-78 123.5l-162 -111q-87 -57 -209 -57h-100q-129 0 -193 80.5t-41 212.5zM190 272q-12 -72 17.5 -114.5t95.5 -42.5h96q110 0 228 67 l123 66l38 209l17 92h-416q-66 0 -117 -49t-63 -121zM961 641h557l32 193q12 72 -17 114.5t-95 42.5h-267q-66 0 -117 -49t-63 -121z" />
<glyph unicode="&#xe7;" horiz-adv-x="1062" d="M80 285l96 549q23 132 110 206t216 74h270q129 0 193 -80.5t41 -212.5l-11 -59h-139l12 72q12 72 -17 114.5t-95 42.5h-262q-66 0 -117.5 -49t-63.5 -121l-96 -549q-12 -72 17.5 -114.5t95.5 -42.5h262q66 0 117 49t63 121l10 59h140l-13 -72q-23 -132 -109.5 -206 t-215.5 -74h-84l-64 -94h66q77 0 116.5 -41.5t26.5 -116.5l-4 -21q-23 -145 -188 -145h-189l-84 98h297q28 0 40.5 14t17.5 46l4 20q7 31 2 39t-33 8h-254l131 193h-72q-129 0 -192.5 80.5t-40.5 212.5z" />
<glyph unicode="&#xe8;" horiz-adv-x="1083" d="M80 285l96 549q23 132 110 206t216 74h274q129 0 193 -80.5t41 -212.5l-54 -299h-694l-45 -254q-12 -72 17.5 -114.5t95.5 -42.5h266q66 0 117 49t63 121l10 65h140l-13 -74q-23 -132 -109.5 -206t-215.5 -74h-275q-129 0 -192.5 80.5t-40.5 212.5zM283 641h557l34 197 q12 72 -18 114.5t-96 42.5h-266q-66 0 -116.5 -49t-62.5 -121zM444 1548h183l127 -295h-99z" />
<glyph unicode="&#xe9;" horiz-adv-x="1083" d="M80 285l96 549q23 132 110 206t216 74h274q129 0 193 -80.5t41 -212.5l-54 -299h-694l-45 -254q-12 -72 17.5 -114.5t95.5 -42.5h266q66 0 117 49t63 121l10 65h140l-13 -74q-23 -132 -109.5 -206t-215.5 -74h-275q-129 0 -192.5 80.5t-40.5 212.5zM283 641h557l34 197 q12 72 -18 114.5t-96 42.5h-266q-66 0 -116.5 -49t-62.5 -121zM555 1253l233 295h195l-313 -295h-115z" />
<glyph unicode="&#xea;" horiz-adv-x="1083" d="M80 285l96 549q23 132 110 206t216 74h274q129 0 193 -80.5t41 -212.5l-54 -299h-694l-45 -254q-12 -72 17.5 -114.5t95.5 -42.5h266q66 0 117 49t63 121l10 65h140l-13 -74q-23 -132 -109.5 -206t-215.5 -74h-275q-129 0 -192.5 80.5t-40.5 212.5zM283 641h557l34 197 q12 72 -18 114.5t-96 42.5h-266q-66 0 -116.5 -49t-62.5 -121zM360 1253l273 246h147l187 -246h-101l-176 156l-221 -156h-109z" />
<glyph unicode="&#xeb;" horiz-adv-x="1083" d="M80 285l96 549q23 132 110 206t216 74h274q129 0 193 -80.5t41 -212.5l-54 -299h-694l-45 -254q-12 -72 17.5 -114.5t95.5 -42.5h266q66 0 117 49t63 121l10 65h140l-13 -74q-23 -132 -109.5 -206t-215.5 -74h-275q-129 0 -192.5 80.5t-40.5 212.5zM283 641h557l34 197 q12 72 -18 114.5t-96 42.5h-266q-66 0 -116.5 -49t-62.5 -121zM414 1262l35 204h157l-35 -204h-157zM756 1262l35 204h159l-35 -204h-159z" />
<glyph unicode="&#xec;" horiz-adv-x="475" d="M72 0l194 1106h140l-195 -1106h-139zM123 1548l211 -295h98l-127 295h-182z" />
<glyph unicode="&#xed;" horiz-adv-x="475" d="M72 0l194 1106h140l-195 -1106h-139zM254 1253l233 295h195l-313 -295h-115z" />
<glyph unicode="&#xee;" horiz-adv-x="475" d="M57 1253h109l221 156l176 -156h101l-187 246h-147zM72 0l194 1106h140l-195 -1106h-139z" />
<glyph unicode="&#xef;" horiz-adv-x="475" d="M72 0l194 1106h140l-195 -1106h-139zM113 1262l34 204h158l-35 -204h-157zM455 1262l34 204h160l-35 -204h-159z" />
<glyph unicode="&#xf0;" horiz-adv-x="1103" d="M80 285l78 446q25 132 111.5 206.5t215.5 74.5h107q109 0 201 -82l96 -78l39 215q11 65 -17.5 96.5t-101.5 55.5l-135 43l-150 -127h-151l192 161l-182 60l18 94l254 -74l140 117h151l-178 -152l59 -16q70 -19 112 -37t78.5 -48t47.5 -75.5t0 -109.5l-137 -783 q-23 -132 -110 -206t-216 -74h-289q-129 0 -192.5 80.5t-40.5 212.5zM217 268q-12 -72 17.5 -114.5t95.5 -42.5h280q66 0 117.5 49t63.5 121l86 479l-93 67q-97 62 -206 62h-103q-66 0 -116 -49t-64 -121z" />
<glyph unicode="&#xf1;" horiz-adv-x="1126" d="M59 0l195 1106h139l-28 -152l118 86q112 74 230 74h84q129 0 192.5 -80.5t40.5 -212.5l-143 -821h-139l145 834q12 72 -17.5 114.5t-95.5 42.5h-80q-104 0 -227 -65l-121 -64l-153 -862h-140zM406 1253h104l65 148l252 -148q39 -20 74 -1.5t53 61.5l80 192h-100l-66 -149 l-252 147q-42 23 -81.5 4t-53.5 -63z" />
<glyph unicode="&#xf2;" horiz-adv-x="1099" d="M80 285l96 549q23 132 110 206t216 74h284q129 0 193 -80.5t41 -212.5l-96 -549q-23 -132 -110 -206t-216 -74h-285q-129 0 -192.5 80.5t-40.5 212.5zM217 268q-12 -72 17.5 -114.5t95.5 -42.5h276q66 0 117 49t63 121l99 557q12 72 -18 114.5t-97 42.5h-276 q-66 0 -116.5 -49t-62.5 -121zM453 1548l211 -295h98l-127 295h-182z" />
<glyph unicode="&#xf3;" horiz-adv-x="1099" d="M80 285l96 549q23 132 110 206t216 74h284q129 0 193 -80.5t41 -212.5l-96 -549q-23 -132 -110 -206t-216 -74h-285q-129 0 -192.5 80.5t-40.5 212.5zM217 268q-12 -72 17.5 -114.5t95.5 -42.5h276q66 0 117 49t63 121l99 557q12 72 -18 114.5t-97 42.5h-276 q-66 0 -116.5 -49t-62.5 -121zM563 1253l234 295h194l-313 -295h-115z" />
<glyph unicode="&#xf4;" horiz-adv-x="1099" d="M80 285l96 549q23 132 110 206t216 74h284q129 0 193 -80.5t41 -212.5l-96 -549q-23 -132 -110 -206t-216 -74h-285q-129 0 -192.5 80.5t-40.5 212.5zM217 268q-12 -72 17.5 -114.5t95.5 -42.5h276q66 0 117 49t63 121l99 557q12 72 -18 114.5t-97 42.5h-276 q-66 0 -116.5 -49t-62.5 -121zM369 1253h108l221 156l176 -156h101l-187 246h-147z" />
<glyph unicode="&#xf5;" horiz-adv-x="1099" d="M80 285l96 549q23 132 110 206t216 74h284q129 0 193 -80.5t41 -212.5l-96 -549q-23 -132 -110 -206t-216 -74h-285q-129 0 -192.5 80.5t-40.5 212.5zM217 268q-12 -72 17.5 -114.5t95.5 -42.5h276q66 0 117 49t63 121l99 557q12 72 -18 114.5t-97 42.5h-276 q-66 0 -116.5 -49t-62.5 -121zM389 1253h105l65 148l252 -148q39 -20 74 -1.5t53 61.5l80 192h-100l-66 -149l-252 147q-42 23 -81.5 4t-53.5 -63z" />
<glyph unicode="&#xf6;" horiz-adv-x="1099" d="M80 285l96 549q23 132 110 206t216 74h284q129 0 193 -80.5t41 -212.5l-96 -549q-23 -132 -110 -206t-216 -74h-285q-129 0 -192.5 80.5t-40.5 212.5zM217 268q-12 -72 17.5 -114.5t95.5 -42.5h276q66 0 117 49t63 121l99 557q12 72 -18 114.5t-97 42.5h-276 q-66 0 -116.5 -49t-62.5 -121zM422 1262l35 204h157l-34 -204h-158zM764 1262l35 204h159l-34 -204h-160z" />
<glyph unicode="&#xf7;" horiz-adv-x="1019" d="M156 694l22 127h758l-23 -127h-757zM381 330l35 200h178l-35 -200h-178zM496 985l36 201h179l-37 -201h-178z" />
<glyph unicode="&#xf8;" horiz-adv-x="1103" d="M80 285l96 549q23 132 110 206t216 74h289q129 0 192.5 -80.5t40.5 -212.5l-96 -549q-23 -132 -110 -206t-216 -74h-289q-129 0 -192.5 80.5t-40.5 212.5zM213 272q-9 -62 8 -98l555 817h-287q-66 0 -117 -49t-63 -121zM328 115h286q66 0 117.5 49t63.5 121l96 549 q9 61 -8 100z" />
<glyph unicode="&#xf9;" horiz-adv-x="1126" d="M94 285l146 821h139l-148 -834q-12 -72 17.5 -114.5t95.5 -42.5h80q110 0 227 65l123 64l154 862h139l-195 -1106h-139l29 152l-121 -86q-112 -74 -229 -74h-84q-129 0 -193 80.5t-41 212.5zM455 1548l211 -295h98l-127 295h-182z" />
<glyph unicode="&#xfa;" horiz-adv-x="1126" d="M94 285l146 821h139l-148 -834q-12 -72 17.5 -114.5t95.5 -42.5h80q110 0 227 65l123 64l154 862h139l-195 -1106h-139l29 152l-121 -86q-112 -74 -229 -74h-84q-129 0 -193 80.5t-41 212.5zM565 1253l234 295h194l-313 -295h-115z" />
<glyph unicode="&#xfb;" horiz-adv-x="1126" d="M94 285l146 821h139l-148 -834q-12 -72 17.5 -114.5t95.5 -42.5h80q110 0 227 65l123 64l154 862h139l-195 -1106h-139l29 152l-121 -86q-112 -74 -229 -74h-84q-129 0 -193 80.5t-41 212.5zM371 1253h108l221 156l177 -156h100l-186 246h-148z" />
<glyph unicode="&#xfc;" horiz-adv-x="1126" d="M94 285l146 821h139l-148 -834q-12 -72 17.5 -114.5t95.5 -42.5h80q110 0 227 65l123 64l154 862h139l-195 -1106h-139l29 152l-121 -86q-112 -74 -229 -74h-84q-129 0 -193 80.5t-41 212.5zM424 1262l35 204h157l-34 -204h-158zM766 1262l35 204h160l-35 -204h-160z" />
<glyph unicode="&#xfd;" horiz-adv-x="976" d="M139 1106h133l152 -934l473 934h139l-764 -1495h-131l197 389zM504 1253l233 295h195l-314 -295h-114z" />
<glyph unicode="&#xfe;" d="M-10 -389l338 1919h139l-102 -576l118 86q112 74 230 74h108q129 0 193 -80.5t41 -212.5l-97 -549q-23 -132 -109.5 -206t-215.5 -74h-109q-108 0 -200 82l-97 78l-98 -541h-139zM240 244l92 -68q92 -61 205 -61h104q66 0 117 49t63 121l97 549q12 72 -17.5 114.5 t-95.5 42.5h-105q-104 0 -227 -65l-121 -64z" />
<glyph unicode="&#xff;" horiz-adv-x="976" d="M139 1106h133l152 -934l473 934h139l-764 -1495h-131l197 389zM362 1262l35 204h158l-35 -204h-158zM705 1262l34 204h160l-35 -204h-159z" />
<glyph unicode="&#x152;" horiz-adv-x="1978" d="M113 301l157 885q23 138 111 213.5t223 75.5h1426l-23 -136h-762l-90 -514h662l-25 -135h-662l-4 -24l-92 -531h760l-22 -135h-1418q-135 0 -199.5 81.5t-41.5 219.5zM258 285q-12 -70 17 -110t94 -40h471q20 0 35 13.5t18 33.5l104 586l95 549q0 22 -31 22h-471 q-65 0 -113.5 -45.5t-60.5 -115.5z" />
<glyph unicode="&#x153;" horiz-adv-x="1789" d="M80 285l96 549q23 132 110 206t216 74h284q133 0 195 -84q87 84 227 84h275q129 0 192.5 -80.5t40.5 -212.5l-53 -299h-696l-43 -250q-12 -72 17 -114.5t95 -42.5h267q66 0 117 49t63 121l10 61h139l-12 -74q-23 -132 -110 -206t-216 -74h-274q-133 0 -195 84 q-87 -84 -227 -84h-285q-129 0 -192.5 80.5t-40.5 212.5zM217 272q-12 -72 17.5 -114.5t95.5 -42.5h276q66 0 117 49t63 121l97 549q12 72 -17.5 114.5t-95.5 42.5h-276q-66 0 -117.5 -49t-63.5 -121zM989 641h557l33 193q12 72 -17.5 114.5t-95.5 42.5h-266q-66 0 -117 -49 t-63 -121z" />
<glyph unicode="&#x178;" horiz-adv-x="1206" d="M195 1475h145l285 -781l549 781h165l-661 -926l-98 -549h-148l98 549zM532 1618l35 205h158l-35 -205h-158zM874 1618l35 205h160l-35 -205h-160z" />
<glyph unicode="&#x2c6;" horiz-adv-x="1323" d="M547 1610h108l222 155l176 -155h100l-186 245h-148z" />
<glyph unicode="&#x2dc;" horiz-adv-x="1226" d="M508 1610h104l66 147l252 -147q39 -20 74 -2t53 61l80 193h-101l-65 -150l-252 148q-42 23 -81.5 3.5t-53.5 -63.5z" />
<glyph unicode="&#x2000;" horiz-adv-x="962" />
<glyph unicode="&#x2001;" horiz-adv-x="1925" />
<glyph unicode="&#x2002;" horiz-adv-x="962" />
<glyph unicode="&#x2003;" horiz-adv-x="1925" />
<glyph unicode="&#x2004;" horiz-adv-x="641" />
<glyph unicode="&#x2005;" horiz-adv-x="481" />
<glyph unicode="&#x2006;" horiz-adv-x="320" />
<glyph unicode="&#x2007;" horiz-adv-x="320" />
<glyph unicode="&#x2008;" horiz-adv-x="240" />
<glyph unicode="&#x2009;" horiz-adv-x="385" />
<glyph unicode="&#x200a;" horiz-adv-x="106" />
<glyph unicode="&#x2010;" horiz-adv-x="849" d="M137 606l25 139h596l-25 -139h-596z" />
<glyph unicode="&#x2011;" horiz-adv-x="849" d="M137 606l25 139h596l-25 -139h-596z" />
<glyph unicode="&#x2012;" horiz-adv-x="849" d="M137 606l25 139h596l-25 -139h-596z" />
<glyph unicode="&#x2013;" horiz-adv-x="1118" d="M137 608l25 135h864l-25 -135h-864z" />
<glyph unicode="&#x2014;" horiz-adv-x="1630" d="M139 610l23 131h1374l-23 -131h-1374z" />
<glyph unicode="&#x2018;" horiz-adv-x="450" d="M219 1022l29 170q4 22 21 51.5t45 67.5t36 51l78 113h94l-166 -252h78l-35 -201h-180z" />
<glyph unicode="&#x2019;" horiz-adv-x="450" d="M174 1022l164 252h-76l35 201h180l-28 -170q-4 -22 -22.5 -52t-44.5 -66t-36 -52l-80 -113h-92z" />
<glyph unicode="&#x201a;" horiz-adv-x="450" d="M-51 -252l166 252h-76l35 201h180l-31 -170q-4 -22 -21.5 -52t-43.5 -66.5t-35 -51.5l-82 -113h-92z" />
<glyph unicode="&#x201c;" horiz-adv-x="753" d="M219 1022l29 170q4 22 21 51.5t45 67.5t36 51l78 113h94l-166 -252h78l-35 -201h-180zM522 1022l29 170q4 22 21 51.5t45 67.5t36 51l78 113h94l-166 -252h78l-35 -201h-180z" />
<glyph unicode="&#x201d;" horiz-adv-x="753" d="M174 1022l164 252h-76l35 201h180l-28 -170q-4 -22 -22.5 -52t-44.5 -66t-36 -52l-80 -113h-92zM477 1022l166 252h-78l35 201h180l-28 -170q-4 -22 -22.5 -52t-44.5 -66t-36 -52l-80 -113h-92z" />
<glyph unicode="&#x201e;" horiz-adv-x="450" d="M-51 -252l166 252h-76l35 201h180l-31 -170q-4 -22 -21.5 -52t-43.5 -66.5t-35 -51.5l-82 -113h-92z" />
<glyph unicode="&#x2022;" horiz-adv-x="860" d="M262 657l39 222q6 32 29.5 51.5t54.5 19.5h221q32 0 52 -26t14 -58l-39 -221q-6 -32 -29 -52t-55 -20h-221q-31 0 -51.5 26t-14.5 58z" />
<glyph unicode="&#x2026;" horiz-adv-x="1294" d="M39 0l35 201h180l-35 -201h-180zM461 0l35 201h180l-35 -201h-180zM883 0l35 201h180l-35 -201h-180z" />
<glyph unicode="&#x202f;" horiz-adv-x="385" />
<glyph unicode="&#x2039;" horiz-adv-x="530" d="M80 678l10 82l324 385h149l-366 -426l206 -424h-135z" />
<glyph unicode="&#x203a;" horiz-adv-x="530" d="M27 295l368 424l-209 426h136l188 -385l-10 -82l-324 -383h-149z" />
<glyph unicode="&#x205f;" horiz-adv-x="481" />
<glyph unicode="&#x20ac;" horiz-adv-x="1335" d="M68 502l22 131h164l39 225h-164l25 131h163l35 205q25 138 113 213.5t223 75.5h379q135 0 200 -81.5t40 -219.5l-27 -150h-147l30 166q12 70 -16.5 110t-93.5 40h-379q-65 0 -113.5 -46t-60.5 -116l-35 -197h512l-25 -131h-510l-41 -225h512l-22 -131h-512l-41 -226 q-12 -70 17 -109.5t94 -39.5h378q65 0 113.5 46t60.5 116l29 153h148l-29 -161q-25 -138 -113 -213.5t-223 -75.5h-379q-135 0 -199.5 81.5t-39.5 219.5l36 209h-163z" />
<glyph unicode="&#x2122;" horiz-adv-x="1505" d="M258 1393l14 82h506l-14 -82h-209l-115 -656h-90l115 656h-207zM772 737l129 738h98l136 -514l317 514h104l-129 -738h-84l109 609l-299 -494h-63l-125 494l-109 -609h-84z" />
<glyph unicode="&#x25fc;" horiz-adv-x="1105" d="M0 0v1106h1106v-1106h-1106z" />
</font>
</defs>
</svg>
