<?xml version="1.0" standalone="no"?>
<!DOCTYPE svg PUBLIC "-//W3C//DTD SVG 1.1//EN" "http://www.w3.org/Graphics/SVG/1.1/DTD/svg11.dtd" >
<svg xmlns="http://www.w3.org/2000/svg">
<metadata></metadata>
<defs>
<font id="industrylight" horiz-adv-x="1105" >
<font-face units-per-em="2048" ascent="1638" descent="-410" />
<missing-glyph horiz-adv-x="540" />
<glyph unicode="&#xfb01;" horiz-adv-x="1220" d="M63 1028v78h203v131q0 135 76 211t211 76h158v-78h-158q-91 0 -146 -58t-55 -151v-131h359v-78h-357v-1028h-90v1028h-201zM934 1372v152h113v-152h-113zM944 0v1106h92v-1106h-92z" />
<glyph unicode="&#xfb02;" horiz-adv-x="1218" d="M63 1028v78h203v131q0 135 76 211t211 76h158v-78h-158q-91 0 -146 -58t-55 -151v-131h359v-78h-357v-1028h-90v1028h-201zM946 0v1524h86v-1524h-86z" />
<glyph horiz-adv-x="0" />
<glyph horiz-adv-x="682" />
<glyph unicode=" "  horiz-adv-x="540" />
<glyph unicode="&#x09;" horiz-adv-x="540" />
<glyph unicode="&#xa0;" horiz-adv-x="540" />
<glyph unicode="!" horiz-adv-x="620" d="M248 0v158h125v-158h-125zM248 1475h125l-41 -1100h-43z" />
<glyph unicode="&#x22;" horiz-adv-x="724" d="M164 1475h123l-35 -449h-53zM436 1475h123l-35 -449h-53z" />
<glyph unicode="#" horiz-adv-x="1531" d="M102 461v76h295l113 426h-266v75h284l117 437h92l-116 -437h444l117 437h92l-117 -437h270v-75h-290l-113 -426h262v-76h-282l-123 -461h-90l122 461h-446l-123 -461h-90l123 461h-275zM487 537h447l113 426h-447z" />
<glyph unicode="$" horiz-adv-x="1286" d="M168 289v131h100v-131q0 -98 51 -153.5t146 -55.5h137v635l-133 35q-46 12 -76 21t-64.5 22.5t-55 28t-42 36t-32.5 47.5t-18 61t-7 78v142q0 141 77 219t218 78h129v174h96v-174h111q141 0 219 -78t78 -219v-109h-101v109q0 98 -50.5 153.5t-145.5 55.5h-113v-604 l133 -33q63 -15 102.5 -28.5t80 -36t62.5 -51.5t36 -74t14 -105v-174q0 -141 -77 -219t-218 -78h-131v-174h-96v174h-133q-141 0 -219 78t-78 219zM270 1049q0 -44 11 -76.5t24 -50.5t42 -33t44.5 -20t52.5 -15l156 -41v582h-131q-96 0 -147.5 -55.5t-51.5 -153.5v-137z M692 80h133q95 0 146 55.5t51 153.5v170q0 32 -4.5 57.5t-10.5 43t-20 31.5t-24 22t-33.5 16.5t-36 12t-43.5 11.5l-158 39v-612z" />
<glyph unicode="%" horiz-adv-x="1310" d="M109 1040v312q0 52 39.5 91.5t91.5 39.5h182q52 0 91.5 -39.5t39.5 -91.5v-312q0 -52 -39.5 -91.5t-91.5 -39.5h-182q-52 0 -91.5 39.5t-39.5 91.5zM203 0l813 1475h88l-817 -1475h-84zM207 1044q0 -20 12 -33.5t31 -13.5h168q37 0 37 47v306q0 20 -9.5 32.5t-27.5 12.5 h-168q-19 0 -31 -13t-12 -32v-306zM760 123v311q0 52 39 91.5t92 39.5h182q53 0 92 -39.5t39 -91.5v-311q0 -53 -39 -92t-92 -39h-182q-53 0 -92 39t-39 92zM858 127q0 -20 12 -33.5t31 -13.5h168q37 0 37 47v305q0 20 -9.5 32.5t-27.5 12.5h-168q-19 0 -31 -13t-12 -32 v-305z" />
<glyph unicode="&#x26;" horiz-adv-x="1347" d="M158 289v250q0 85 47.5 146.5t105.5 74.5q-56 28 -96.5 83.5t-40.5 137.5v205q0 141 78 219t219 78h313q141 0 219 -78t78 -219v-123h-98v123q0 98 -51.5 153.5t-147.5 55.5h-313q-96 0 -147.5 -55.5t-51.5 -153.5v-205q0 -101 39 -139.5t152 -38.5h807v-88h-172v-426 q0 -141 -77 -219t-218 -78h-348q-141 0 -219 78t-78 219zM256 289q0 -98 51.5 -153.5t147.5 -55.5h348q95 0 145.5 55.5t50.5 153.5v426h-536q-115 0 -161 -44t-46 -132v-250z" />
<glyph unicode="'" horiz-adv-x="452" d="M164 1475h123l-35 -449h-53z" />
<glyph unicode="(" horiz-adv-x="675" d="M205 80v1229q0 141 78 219t219 78h28v-88h-28q-96 0 -147.5 -55.5t-51.5 -153.5v-1229q0 -95 51.5 -152t147.5 -57h28v-88h-28q-141 0 -219 78t-78 219z" />
<glyph unicode=")" horiz-adv-x="675" d="M145 -129v-88h29q141 0 219 78t78 219v1229q0 141 -78 219t-219 78h-29v-88h29q96 0 147.5 -55.5t51.5 -153.5v-1229q0 -98 -51.5 -153.5t-147.5 -55.5h-29z" />
<glyph unicode="*" horiz-adv-x="811" d="M70 1200l28 86l279 -112l-19 301h93l-19 -301l281 110l26 -88l-290 -76l192 -233l-74 -53l-161 253l-164 -256l-72 56l192 233z" />
<glyph unicode="+" horiz-adv-x="1040" d="M141 717v82h338v344h80v-344h338v-82h-338v-344h-80v344h-338z" />
<glyph unicode="," horiz-adv-x="440" d="M119 -244l102 244h-65v160h129v-127q0 -11 -2.5 -23.5t-5 -21.5t-10 -26.5t-11.5 -25.5t-16 -32.5t-17 -34.5l-53 -113h-51z" />
<glyph unicode="-" horiz-adv-x="841" d="M139 629v96h563v-96h-563z" />
<glyph unicode="." horiz-adv-x="440" d="M156 0v160h129v-160h-129z" />
<glyph unicode="/" horiz-adv-x="911" d="M51 -143l725 1761h84l-725 -1761h-84z" />
<glyph unicode="0" horiz-adv-x="1312" d="M174 289v897q0 141 78 219t219 78h373q141 0 219 -78t78 -219v-897q0 -141 -78 -219t-219 -78h-373q-141 0 -219 78t-78 219zM272 289q0 -98 51.5 -153.5t147.5 -55.5h373q96 0 147 55.5t51 153.5v897q0 98 -51 153.5t-147 55.5h-373q-96 0 -147.5 -55.5t-51.5 -153.5 v-897z" />
<glyph unicode="1" horiz-adv-x="677" d="M109 1274v94l247 107h93v-1475h-99v1374z" />
<glyph unicode="2" horiz-adv-x="1224" d="M152 0h929v88h-831v236q0 63 39 98.5t131 81.5l362 190q17 9 49 25q40 20 58.5 29.5t48.5 26.5t43.5 27.5t33 27.5t28 31.5t18 35t13 43t3.5 49.5v199q0 142 -76.5 218.5t-218.5 76.5h-313q-144 0 -219.5 -76t-75.5 -219v-125h100v125q0 98 50 152.5t145 54.5h313 q96 0 146.5 -54.5t50.5 -152.5v-199q0 -63 -39 -98.5t-131 -81.5l-363 -191q-18 -9 -51 -26q-51 -26 -74.5 -38.5t-58.5 -34t-50 -38t-32 -41t-22.5 -52.5t-5.5 -64v-324z" />
<glyph unicode="3" horiz-adv-x="1245" d="M129 287v98h98v-98q0 -98 50.5 -152.5t146.5 -54.5h367q96 0 146 54.5t50 152.5v254q0 174 -201 174h-376v88h376q107 0 146 41.5t39 134.5v209q0 98 -50.5 152.5t-146.5 54.5h-334q-96 0 -146 -54.5t-50 -152.5v-98h-99v98q0 142 76.5 218.5t218.5 76.5h334 q144 0 219.5 -76t75.5 -219v-207q0 -82 -40.5 -137.5t-96.5 -83.5q58 -13 105.5 -74.5t47.5 -146.5v-252q0 -143 -75 -219t-219 -76h-367q-142 0 -218.5 76t-76.5 219z" />
<glyph unicode="4" horiz-adv-x="1249" d="M61 393v80l746 1002h141v-994h217v-88h-217v-393h-102v393h-785zM178 481h668v897z" />
<glyph unicode="5" horiz-adv-x="1193" d="M150 287v108h98v-108q0 -98 50 -152.5t146 -54.5h324q96 0 146.5 54.5t50.5 152.5v383q0 196 -187 196h-170q-101 0 -217 -65l-133 -80l-98 29v725h889v-89h-791v-595l133 96q100 67 217 67h170q135 0 210 -74.5t75 -209.5v-383q0 -143 -76.5 -219t-218.5 -76h-324 q-142 0 -218 76t-76 219z" />
<glyph unicode="6" horiz-adv-x="1253" d="M174 287v901q0 142 76 218.5t219 76.5h301q142 0 218.5 -76.5t76.5 -218.5v-109h-98v109q0 98 -50.5 152.5t-146.5 54.5h-301q-96 0 -146.5 -54.5t-50.5 -152.5v-438l134 96q97 65 217 65h170q142 0 218 -76t76 -219v-329q0 -143 -76 -219t-218 -76h-324q-143 0 -219 76 t-76 219zM272 287q0 -98 50.5 -152.5t146.5 -54.5h324q96 0 146 54.5t50 152.5v329q0 98 -50 152.5t-146 54.5h-170q-112 0 -217 -65l-134 -80v-391z" />
<glyph unicode="7" d="M72 1386v89h948v-56l-660 -1419h-102l647 1386h-833z" />
<glyph unicode="8" horiz-adv-x="1294" d="M160 287v245q0 85 47.5 147t105.5 75q-56 28 -96.5 83.5t-40.5 137.5v213q0 142 76 218.5t219 76.5h352q143 0 219 -76.5t76 -218.5v-213q0 -82 -40.5 -137.5t-96.5 -83.5q58 -13 106 -75t48 -147v-245q0 -143 -76.5 -219t-218.5 -76h-385q-143 0 -219 76t-76 219z M258 287q0 -98 50.5 -152.5t146.5 -54.5h385q96 0 146 54.5t50 152.5v245q0 87 -44.5 133t-157.5 46h-373q-113 0 -158 -46t-45 -133v-245zM274 973q0 -97 38 -135.5t149 -38.5h373q110 0 148 38.5t38 135.5v215q0 98 -50.5 152.5t-146.5 54.5h-352q-96 0 -146.5 -54.5 t-50.5 -152.5v-215z" />
<glyph unicode="9" horiz-adv-x="1251" d="M166 887v301q0 142 76 218.5t219 76.5h323q142 0 218.5 -76.5t76.5 -218.5v-901q0 -143 -76.5 -219t-218.5 -76h-301q-144 0 -219.5 76t-75.5 219v108h99v-108q0 -98 50 -152.5t146 -54.5h301q96 0 146.5 54.5t50.5 152.5v469l-135 -97q-97 -67 -217 -67h-168 q-143 0 -219 76t-76 219zM264 887q0 -98 50.5 -152.5t146.5 -54.5h168q112 0 217 65l135 80v363q0 98 -50.5 152.5t-146.5 54.5h-323q-96 0 -146.5 -54.5t-50.5 -152.5v-301z" />
<glyph unicode=":" horiz-adv-x="440" d="M156 0v160h129v-160h-129zM156 946v160h129v-160h-129z" />
<glyph unicode=";" horiz-adv-x="440" d="M119 -244l102 244h-65v160h129v-127q0 -11 -2.5 -23.5t-5 -21.5t-10 -26.5t-11.5 -25.5t-16 -32.5t-17 -34.5l-53 -113h-51zM156 946v160h129v-160h-129z" />
<glyph unicode="&#x3c;" horiz-adv-x="1040" d="M135 686l748 -358v90l-693 325l693 328v90l-748 -360v-115z" />
<glyph unicode="=" horiz-adv-x="1040" d="M141 559v92h756v-92h-756zM141 881v92h756v-92h-756z" />
<glyph unicode="&#x3e;" horiz-adv-x="1040" d="M158 328l747 358v115l-747 360v-90l692 -328l-692 -325v-90z" />
<glyph unicode="?" horiz-adv-x="1136" d="M70 1055v131q0 141 78 219t219 78h364q141 0 219 -78t78 -219v-105q0 -65 -17 -111t-64 -83.5t-79.5 -55.5t-113.5 -56q-15 -7 -23 -11l-43 -19q-34 -15 -48.5 -21.5t-40.5 -20.5t-36.5 -25t-24.5 -29t-19 -39.5t-5 -48.5v-194h-98v194q0 31 3.5 56.5t12.5 46.5t18 37 t27.5 31.5t32.5 26t41.5 24t46 22t54 24.5t59.5 27l45 21q87 41 111 60q63 49 63 144v105q0 98 -51.5 153.5t-147.5 55.5h-364q-96 0 -147.5 -55.5t-51.5 -153.5v-131h-98zM418 0v199h98v-199h-98z" />
<glyph unicode="@" horiz-adv-x="1863" d="M201 -39v1225q0 141 78 219t219 78h866q141 0 219 -78t78 -219v-774q0 -141 -78 -219t-219 -78h-102l-41 153l-119 -96q-41 -34 -102.5 -50t-118.5 -16h-47q-141 0 -219 78t-78 219v336q0 141 78 219t219 78h47q140 0 221 -65l119 -97l41 154h28v-840h74q110 0 167.5 57 t57.5 167v774q0 112 -58 174.5t-167 62.5h-866q-109 0 -167.5 -62.5t-58.5 -174.5v-1225q0 -112 58.5 -174.5t167.5 -62.5h1036v-60h-1036q-141 0 -219 78t-78 219zM606 403q0 -110 59 -168.5t169 -58.5h47q137 0 221 62l121 90v487l-121 90q-84 62 -221 62h-47 q-110 0 -169 -59t-59 -169v-336z" />
<glyph unicode="A" horiz-adv-x="1337" d="M72 0l542 1475h111l543 -1475h-107l-166 463h-655l-168 -463h-100zM373 551h592l-295 821z" />
<glyph unicode="B" horiz-adv-x="1345" d="M209 0v1475h663q141 0 219 -78t78 -219v-203q0 -82 -40.5 -137.5t-96.5 -83.5q58 -13 106 -75t48 -147v-235q0 -141 -78 -219t-219 -78h-680zM307 88h582q96 0 147 55.5t51 153.5v235q0 85 -45.5 132t-158.5 47h-576v-623zM307 799h574q112 0 151 37.5t39 136.5v205 q0 98 -51.5 153t-147.5 55h-565v-587z" />
<glyph unicode="C" horiz-adv-x="1302" d="M174 289v897q0 141 78 219t219 78h389q141 0 219 -78t78 -219v-127h-98v127q0 98 -51.5 153.5t-147.5 55.5h-389q-96 0 -147.5 -55.5t-51.5 -153.5v-897q0 -98 51.5 -153.5t147.5 -55.5h389q96 0 147.5 55.5t51.5 153.5v127h98v-127q0 -141 -78 -219t-219 -78h-389 q-141 0 -219 78t-78 219z" />
<glyph unicode="D" horiz-adv-x="1363" d="M209 0v1475h686q141 0 219 -78t78 -219v-881q0 -141 -78 -219t-219 -78h-686zM307 88h588q96 0 147.5 55.5t51.5 153.5v881q0 98 -51.5 153t-147.5 55h-588v-1298z" />
<glyph unicode="E" horiz-adv-x="1214" d="M209 0v1475h889v-89h-791v-587h674v-88h-674v-623h791v-88h-889z" />
<glyph unicode="F" horiz-adv-x="1179" d="M209 0v1475h889v-89h-791v-606h674v-88h-674v-692h-98z" />
<glyph unicode="G" horiz-adv-x="1337" d="M174 289v897q0 141 78 219t219 78h403q141 0 218 -78t77 -219v-115h-98v115q0 98 -51 153.5t-146 55.5h-403q-96 0 -147.5 -55.5t-51.5 -153.5v-901q0 -97 51.5 -151t147.5 -54h403q95 0 146 55.5t51 153.5v356h-409v88h507v-444q0 -141 -77 -219t-218 -78h-403 q-141 0 -219 78t-78 219z" />
<glyph unicode="H" horiz-adv-x="1421" d="M209 0v1475h98v-676h809v676h98v-1475h-98v711h-809v-711h-98z" />
<glyph unicode="I" horiz-adv-x="514" d="M209 0v1475h98v-1475h-98z" />
<glyph unicode="J" horiz-adv-x="1212" d="M102 289v196h99v-196q0 -98 51 -153.5t147 -55.5h332q96 0 147.5 55.5t51.5 153.5v1186h98v-1186q0 -141 -78 -219t-219 -78h-332q-141 0 -219 78t-78 219z" />
<glyph unicode="K" horiz-adv-x="1368" d="M209 0v1475h100v-940l809 940h131l-547 -619l586 -856h-112l-535 786l-332 -374v-412h-100z" />
<glyph unicode="L" horiz-adv-x="1136" d="M209 0v1475h98v-1387h740v-88h-838z" />
<glyph unicode="M" horiz-adv-x="1714" d="M209 0v1475h133l512 -1139l520 1139h133v-1475h-96v1350l-500 -1114h-106l-500 1114v-1350h-96z" />
<glyph unicode="N" horiz-adv-x="1445" d="M209 0v1475h119l815 -1346v1346h96v-1475h-119l-815 1346v-1346h-96z" />
<glyph unicode="O" horiz-adv-x="1355" d="M174 289v897q0 141 78 219t219 78h416q141 0 219 -78t78 -219v-897q0 -141 -78 -219t-219 -78h-416q-141 0 -219 78t-78 219zM272 289q0 -98 51.5 -153.5t147.5 -55.5h416q96 0 147 55.5t51 153.5v897q0 98 -51 153.5t-147 55.5h-416q-96 0 -147.5 -55.5t-51.5 -153.5 v-897z" />
<glyph unicode="P" horiz-adv-x="1298" d="M209 0v1475h672q141 0 219 -78t78 -219v-285q0 -141 -78 -219t-219 -78h-574v-596h-98zM307 684h574q96 0 147 55.5t51 153.5v309q0 95 -49.5 139.5t-148.5 44.5h-574v-702z" />
<glyph unicode="Q" horiz-adv-x="1353" d="M174 289v897q0 141 78 219t219 78h414q141 0 219 -78t78 -219v-897q0 -124 -61 -200t-175 -93l105 -199h-97l-102 195h-381q-141 0 -219 78t-78 219zM272 289q0 -98 51.5 -153.5t147.5 -55.5h336l-113 215h97l112 -215q87 6 133.5 61t46.5 148v897q0 98 -51 153.5 t-147 55.5h-414q-96 0 -147.5 -55.5t-51.5 -153.5v-897z" />
<glyph unicode="R" horiz-adv-x="1347" d="M209 0v1475h670q141 0 219 -78t78 -219v-248q0 -295 -306 -295l351 -635h-111l-346 635h-457v-635h-98zM307 723h572q96 0 147 55.5t51 153.5v246q0 98 -51 153t-147 55h-572v-663z" />
<glyph unicode="S" horiz-adv-x="1286" d="M168 289v131h100v-131q0 -98 51.5 -153.5t147.5 -55.5h358q95 0 146 55.5t51 153.5v168q0 37 -4.5 65t-17 47.5t-24 32t-35.5 22.5t-40.5 15t-50.5 14l-381 95q-54 13 -88 24t-71.5 27.5t-59.5 36.5t-41 49t-27 67.5t-8 89.5v144q0 141 77 219t218 78h336q141 0 219 -78 t78 -219v-109h-101v109q0 98 -51 153.5t-147 55.5h-334q-95 0 -146 -55.5t-51 -153.5v-139q0 -44 10.5 -77t24.5 -51.5t40 -33t45 -20t52 -13.5l381 -96q64 -15 104 -28.5t80 -35.5t62 -51.5t35.5 -74.5t13.5 -105v-172q0 -141 -77 -219t-218 -78h-360q-141 0 -219 78 t-78 219z" />
<glyph unicode="T" horiz-adv-x="1157" d="M70 1386v89h1015v-89h-458v-1386h-99v1386h-458z" />
<glyph unicode="U" horiz-adv-x="1357" d="M186 289v1186h99v-1186q0 -98 51 -153.5t147 -55.5h394q96 0 147 55.5t51 153.5v1186h99v-1186q0 -141 -78 -219t-219 -78h-394q-141 0 -219 78t-78 219z" />
<glyph unicode="V" horiz-adv-x="1265" d="M70 1475h100l463 -1373l471 1373h92l-506 -1475h-115z" />
<glyph unicode="W" horiz-adv-x="1849" d="M70 1475h102l367 -1340l335 1340h103l334 -1340l366 1340h103l-416 -1475h-111l-327 1317l-330 -1317h-111z" />
<glyph unicode="X" horiz-adv-x="1245" d="M68 0l499 750l-483 725h109l432 -646l428 646h106l-483 -723l502 -752h-109l-451 676l-448 -676h-102z" />
<glyph unicode="Y" horiz-adv-x="1234" d="M39 1475h117l460 -820l461 820h117l-528 -914v-561h-99v561z" />
<glyph unicode="Z" horiz-adv-x="1218" d="M129 0v70l844 1316h-809v89h926v-70l-846 -1317h841v-88h-956z" />
<glyph unicode="[" horiz-adv-x="704" d="M205 -217v1823h354v-88h-256v-1647h256v-88h-354z" />
<glyph unicode="\" horiz-adv-x="911" d="M51 1618h84l725 -1761h-84z" />
<glyph unicode="]" horiz-adv-x="704" d="M145 -129h256v1647h-256v88h355v-1823h-355v88z" />
<glyph unicode="^" horiz-adv-x="901" d="M195 1098l194 377h123l193 -377h-74l-180 354l-181 -354h-75z" />
<glyph unicode="_" horiz-adv-x="1124" d="M12 -90h1100v-68h-1100v68z" />
<glyph unicode="`" horiz-adv-x="1363" d="M518 1905l256 -295h70l-185 295h-141z" />
<glyph unicode="a" d="M109 279v94q0 132 77 209t209 77h58q184 -3 405 -34v204q0 94 -50.5 149.5t-141.5 55.5h-236q-91 0 -141.5 -55.5t-50.5 -149.5v-4h-93v4q0 135 75 210t210 75h236q135 0 209.5 -75t74.5 -210v-829h-92v154l-133 -97q-97 -65 -221 -65h-109q-135 0 -210.5 76t-75.5 211z M201 279q0 -94 51.5 -150.5t142.5 -56.5h109q105 0 221 65l133 80v358h-463q-91 0 -142.5 -54.5t-51.5 -147.5v-94z" />
<glyph unicode="b" horiz-adv-x="1159" d="M168 0v1524h92v-572l133 97q97 65 217 65h119q135 0 211 -76t76 -211v-548q0 -135 -76 -211t-211 -76h-119q-120 0 -217 65l-133 97v-154h-92zM260 217l133 -80q60 -33 108.5 -49t108.5 -16h119q91 0 144 57t53 150v548q0 93 -53 150t-144 57h-119q-60 0 -108.5 -16 t-108.5 -49l-133 -80v-672z" />
<glyph unicode="c" horiz-adv-x="1083" d="M141 279v548q0 135 76 211t211 76h256q135 0 211 -76t76 -211v-45h-92v45q0 93 -52 148t-143 55h-256q-91 0 -143 -55t-52 -148v-548q0 -93 52 -148t143 -55h256q91 0 143 55t52 148v45h92v-45q0 -135 -76 -211t-211 -76h-256q-135 0 -211 76t-76 211z" />
<glyph unicode="d" horiz-adv-x="1157" d="M141 279v548q0 135 76 211t211 76h119q120 0 217 -65l133 -97v572h92v-1524h-92v154l-133 -97q-97 -65 -217 -65h-119q-135 0 -211 76t-76 211zM231 279q0 -93 53 -150t144 -57h119q60 0 108.5 16t108.5 49l133 80v672l-133 80q-60 33 -108.5 49t-108.5 16h-119 q-91 0 -144 -57t-53 -150v-548z" />
<glyph unicode="e" d="M141 279v548q0 135 76 211t211 76h258q135 0 211 -76t76 -211v-286h-740v-262q0 -93 52 -148t143 -55h258q92 0 144.5 55t52.5 148v65h90v-65q0 -135 -76 -211t-211 -76h-258q-135 0 -211 76t-76 211zM233 627h650v200q0 93 -52.5 148t-144.5 55h-258q-91 0 -143 -55 t-52 -148v-200z" />
<glyph unicode="f" horiz-adv-x="759" d="M63 1028v78h203v131q0 135 76 211t211 76h158v-78h-158q-91 0 -146 -58t-55 -151v-131h359v-78h-357v-1028h-90v1028h-201z" />
<glyph unicode="g" horiz-adv-x="1157" d="M141 342v485q0 135 76 211t211 76h119q120 0 217 -65l133 -97v154h92v-1215q0 -135 -76 -210.5t-211 -75.5h-247q-135 0 -211 75.5t-76 210.5v13h94v-13q0 -94 51 -150t142 -56h247q91 0 143 56t52 150v326l-133 -96q-98 -66 -217 -66h-119q-135 0 -211 76t-76 211z M233 342q0 -93 52 -149t143 -56h119q102 0 217 68l135 78v604l-135 80q-116 65 -217 65h-119q-84 0 -139.5 -59.5t-55.5 -145.5v-485z" />
<glyph unicode="h" horiz-adv-x="1144" d="M168 0v1524h92v-572l133 97q97 65 217 65h92q135 0 211 -76t76 -211v-827h-92v825q0 94 -52 150.5t-143 56.5h-92q-112 0 -217 -65l-133 -80v-887h-92z" />
<glyph unicode="i" horiz-adv-x="460" d="M174 1372v152h113v-152h-113zM184 0v1106h92v-1106h-92z" />
<glyph unicode="j" horiz-adv-x="458" d="M-68 -315h68q83 0 132.5 55t49.5 141v1225h90v-1217q0 -135 -75.5 -210.5t-210.5 -75.5h-54v82zM172 1372v152h113v-152h-113z" />
<glyph unicode="k" horiz-adv-x="1026" d="M168 0v1475h92v-1020l559 651h111l-355 -410l392 -696h-107l-340 633l-260 -299v-334h-92z" />
<glyph unicode="l" horiz-adv-x="458" d="M186 0v1524h86v-1524h-86z" />
<glyph unicode="m" horiz-adv-x="1783" d="M168 0v1106h92v-154l133 97q97 65 217 65h47q103 0 172.5 -44.5t98.5 -127.5l149 107q100 65 217 65h47q135 0 211 -76t76 -211v-827h-90v827q0 93 -53 150t-144 57h-47q-107 0 -217 -65l-137 -82q4 -36 4 -60v-827h-92v827q0 94 -52 150.5t-143 56.5h-47 q-101 0 -217 -65l-133 -80v-889h-92z" />
<glyph unicode="n" horiz-adv-x="1144" d="M168 0v1106h92v-154l133 97q97 65 217 65h92q135 0 211 -76t76 -211v-827h-92v827q0 94 -52 150.5t-143 56.5h-92q-101 0 -217 -65l-133 -80v-889h-92z" />
<glyph unicode="o" horiz-adv-x="1124" d="M141 279v548q0 135 76 211t211 76h266q135 0 211 -76t76 -211v-548q0 -135 -75 -211t-210 -76h-268q-135 0 -211 76t-76 211zM233 279q0 -93 52 -149t143 -56h268q91 0 143 56t52 149v548q0 93 -52 149t-143 56h-268q-91 0 -143 -56t-52 -149v-548z" />
<glyph unicode="p" horiz-adv-x="1159" d="M168 -387v1493h92v-154l133 97q97 65 217 65h119q135 0 211 -76t76 -211v-548q0 -135 -76 -211t-211 -76h-119q-120 0 -217 65l-133 97v-541h-92zM260 217l133 -80q60 -33 108.5 -49t108.5 -16h119q91 0 144 57t53 150v548q0 93 -53 150t-144 57h-119q-60 0 -108.5 -16 t-108.5 -49l-133 -80v-672z" />
<glyph unicode="q" horiz-adv-x="1157" d="M141 279v548q0 135 76 211t211 76h119q120 0 217 -65l133 -97v154h92v-1493h-92v541l-133 -97q-97 -65 -217 -65h-119q-135 0 -211 76t-76 211zM231 279q0 -93 53 -150t144 -57h119q60 0 108.5 16t108.5 49l133 80v672l-133 80q-60 33 -108.5 49t-108.5 16h-119 q-91 0 -144 -57t-53 -150v-548z" />
<glyph unicode="r" horiz-adv-x="757" d="M168 0v1106h92v-154l133 97q97 65 217 65h86v-82h-86q-104 0 -217 -67l-133 -78v-887h-92z" />
<glyph unicode="s" horiz-adv-x="1054" d="M119 252v72h86v-72q0 -180 174 -180h299q168 0 168 180v104q0 71 -35 103t-115 45l-327 55q-123 21 -179.5 74t-56.5 164v57q0 128 66.5 194t193.5 66h258q126 0 192 -66.5t66 -193.5v-53h-86v53q0 176 -172 176h-254q-172 0 -172 -176v-57q0 -71 34.5 -103.5 t113.5 -44.5l327 -55q123 -21 179.5 -74.5t56.5 -163.5v-104q0 -127 -66 -193.5t-192 -66.5h-299q-127 0 -193.5 66t-66.5 194z" />
<glyph unicode="t" horiz-adv-x="827" d="M61 1028v78h203v369h88v-369h387v-78h-385v-741q0 -94 52 -152.5t143 -58.5h190v-76h-190q-135 0 -211 76t-76 211v741h-201z" />
<glyph unicode="u" horiz-adv-x="1144" d="M156 279v827h92v-827q0 -94 51.5 -150.5t142.5 -56.5h93q60 0 108.5 16t108.5 49l133 80v889h92v-1106h-92v154l-133 -97q-97 -65 -217 -65h-93q-135 0 -210.5 76t-75.5 211z" />
<glyph unicode="v" horiz-adv-x="966" d="M45 1106h100l342 -1045l340 1045h97l-375 -1106h-131z" />
<glyph unicode="w" horiz-adv-x="1488" d="M45 1106h90l303 -1028l260 1028h93l260 -1028l309 1028h86l-344 -1106h-107l-250 967l-249 -967h-113z" />
<glyph unicode="x" horiz-adv-x="1003" d="M43 0l403 561l-399 545h105l350 -479l340 479h104l-391 -551l406 -555h-105l-360 492l-351 -492h-102z" />
<glyph unicode="y" horiz-adv-x="958" d="M45 1106h105l339 -997l332 997h94l-505 -1493h-86l129 389z" />
<glyph unicode="z" horiz-adv-x="921" d="M88 0v47l639 983h-606v76h719v-49l-641 -981h626v-76h-737z" />
<glyph unicode="{" horiz-adv-x="768" d="M102 670v84h21q91 0 132.5 45.5t41.5 138.5v371q0 141 78 219t219 78h29v-88h-29q-96 0 -148.5 -55.5t-52.5 -153.5v-371q0 -83 -42.5 -141.5t-114.5 -85.5q159 -76 159 -226v-405q0 -98 51.5 -153.5t147.5 -55.5h29v-88h-29q-141 0 -219 78t-78 219v405q0 93 -41.5 139 t-132.5 46h-21z" />
<glyph unicode="|" horiz-adv-x="583" d="M258 -442v2054h68v-2054h-68z" />
<glyph unicode="}" horiz-adv-x="768" d="M145 -129h29q96 0 147.5 55.5t51.5 153.5v405q0 150 159 226q-72 27 -114.5 85.5t-42.5 141.5v371q-2 98 -54 153.5t-147 55.5h-29v88h29q141 0 219 -78t78 -219v-371q0 -93 41.5 -138.5t132.5 -45.5h21v-84h-21q-91 0 -132.5 -46t-41.5 -139v-405q0 -141 -78 -219 t-219 -78h-29v88z" />
<glyph unicode="~" horiz-adv-x="1040" d="M168 557h96l41 129l389 -115q92 -25 123 62l53 164h-100l-39 -125l-387 110q-95 25 -125 -63z" />
<glyph unicode="&#xa1;" horiz-adv-x="620" d="M248 -369l41 1100h43l41 -1100h-125zM248 948v158h125v-158h-125z" />
<glyph unicode="&#xa2;" horiz-adv-x="1107" d="M152 504v479q0 133 82.5 215t214.5 82h65v195h78v-195h72q134 0 215.5 -82t81.5 -215v-39h-99v39q0 95 -54.5 152t-139.5 57h-74v-895h70q96 0 147 54.5t51 152.5v39h99v-39q0 -134 -81.5 -215.5t-215.5 -81.5h-72v-207h-78v207h-65q-132 0 -214.5 82t-82.5 215zM250 504 q0 -98 51.5 -152.5t147.5 -54.5h65v895h-65q-96 0 -147.5 -55.5t-51.5 -153.5v-479z" />
<glyph unicode="&#xa3;" horiz-adv-x="1273" d="M86 0v88h111q57 0 57 57v525h-168v88h168v428q0 141 78 219t219 78h276q141 0 219 -78t78 -219v-144h-98v144q0 98 -51.5 153.5t-147.5 55.5h-276q-96 0 -147.5 -55.5t-51.5 -153.5v-428h492v-88h-492v-582h781v-88h-1047z" />
<glyph unicode="&#xa4;" horiz-adv-x="1247" d="M125 262l151 152q-49 73 -49 186v307q0 112 47 183l-149 149l65 66l150 -150q70 49 184 49h197q113 0 186 -49l150 150l65 -66l-151 -152q47 -71 47 -180v-307q0 -114 -49 -184l153 -154l-65 -65l-154 153q-71 -47 -182 -47h-197q-109 0 -180 47l-154 -153zM328 600 q0 -98 50.5 -153.5t145.5 -55.5h197q96 0 147.5 55.5t51.5 153.5v307q0 97 -51 149t-148 52h-197q-96 0 -146 -52t-50 -149v-307z" />
<glyph unicode="&#xa5;" horiz-adv-x="1234" d="M39 1475h117l460 -797l461 797h117l-485 -820h315v-88h-358v-147h358v-88h-358v-332h-99v332h-356v88h356v147h-356v88h313z" />
<glyph unicode="&#xa6;" horiz-adv-x="583" d="M258 369h68v-811h-68v811zM258 801v811h68v-811h-68z" />
<glyph unicode="&#xa7;" horiz-adv-x="1093" d="M131 68v71h92v-71q0 -94 38.5 -135.5t129.5 -41.5h297q91 0 129.5 41.5t38.5 135.5v102q0 125 -143 147l-330 54q-103 18 -170.5 81.5t-67.5 155.5v111q0 158 103 223q-42 29 -65 75t-23 97v109q0 127 66 193.5t194 66.5h256q128 0 194 -66.5t66 -193.5v-37h-92v37 q0 93 -38 132.5t-130 39.5h-256q-92 0 -130 -39.5t-38 -132.5v-109q0 -70 35.5 -103t107.5 -44l340 -54q100 -15 164 -79.5t64 -157.5v-101q0 -156 -103 -225q88 -64 88 -180v-102q0 -128 -66.5 -194.5t-193.5 -66.5h-297q-127 0 -193.5 66.5t-66.5 194.5zM233 608 q0 -58 41 -97t109 -50l375 -62q56 7 86 57t30 119v101q0 59 -35 98t-104 49l-397 64q-60 -11 -82.5 -54.5t-22.5 -113.5v-111z" />
<glyph unicode="&#xa8;" horiz-adv-x="1310" d="M428 1618v188h129v-188h-129zM754 1618v188h129v-188h-129z" />
<glyph unicode="&#xa9;" horiz-adv-x="1734" d="M201 289v897q0 141 78 219t219 78h739q141 0 218 -78t77 -219v-897q0 -141 -77 -219t-218 -78h-739q-141 0 -219 78t-78 219zM272 289q0 -112 58.5 -175t167.5 -63h739q109 0 167 63t58 175v897q0 112 -58 174.5t-167 62.5h-739q-109 0 -167.5 -62.5t-58.5 -174.5v-897z M537 506v463q0 113 59.5 172t171.5 59h197q111 0 170 -59.5t59 -171.5v-78h-94v78q0 66 -36 106.5t-99 40.5h-197q-63 0 -99 -40.5t-36 -106.5v-461q0 -66 36 -108t99 -42h195q63 0 100 42t37 108v76h94v-78q0 -112 -59.5 -172t-169.5 -60h-197q-112 0 -171.5 59.5 t-59.5 172.5z" />
<glyph unicode="&#xaa;" horiz-adv-x="759" d="M104 936v63q0 86 50.5 135.5t136.5 49.5h37q103 0 245 -25v129q0 50 -29.5 82.5t-76.5 32.5h-152q-49 0 -77.5 -32t-28.5 -83v-6h-84v12q0 86 49 135.5t135 49.5h162q85 0 134.5 -49.5t49.5 -135.5v-538h-82v94l-84 -66q-52 -34 -133 -34h-65q-86 0 -136.5 50t-50.5 136z M121 530v80h534v-80h-534zM186 942q0 -52 29.5 -84.5t79.5 -32.5h59q83 0 148 45l71 52v188h-278q-49 0 -79 -33.5t-30 -85.5v-49z" />
<glyph unicode="&#xab;" horiz-adv-x="765" d="M66 682v74l262 389h98l-285 -426l285 -424h-98zM324 682v74l262 389h98l-285 -426l285 -424h-98z" />
<glyph unicode="&#xad;" horiz-adv-x="841" d="M139 629v96h563v-96h-563z" />
<glyph unicode="&#xae;" horiz-adv-x="851" d="M125 874v478q0 54 38.5 92.5t92.5 38.5h348q50 0 87.5 -38.5t37.5 -92.5v-478q0 -54 -38.5 -92.5t-92.5 -38.5h-342q-54 0 -92.5 38.5t-38.5 92.5zM172 874q0 -28 18.5 -55.5t63.5 -27.5h342q45 0 63.5 27.5t18.5 55.5v478q0 28 -18 56t-58 28h-348q-45 0 -63.5 -28 t-18.5 -56v-478zM274 893v446h213q41 0 64.5 -23.5t23.5 -64.5v-88q0 -44 -27 -69t-67 -19l105 -182h-51l-107 182h-106v-182h-48zM322 1120h165q39 0 39 43v88q0 21 -8.5 31t-30.5 10h-165v-172z" />
<glyph unicode="&#xaf;" horiz-adv-x="1210" d="M354 1630v88h510v-88h-510z" />
<glyph unicode="&#xb0;" horiz-adv-x="686" d="M152 1124v271q0 35 24.5 59.5t59.5 24.5h215q35 0 59.5 -24.5t24.5 -59.5v-271q0 -35 -24.5 -59.5t-59.5 -24.5h-215q-35 0 -59.5 24.5t-24.5 59.5zM231 1145q0 -11 7.5 -18t17.5 -7h174q10 0 17.5 7t7.5 18v229q0 10 -7.5 17.5t-17.5 7.5h-174q-10 0 -17.5 -7.5 t-7.5 -17.5v-229z" />
<glyph unicode="&#xb1;" horiz-adv-x="1040" d="M141 279v81h756v-81h-756zM141 805v80h338v344h80v-344h338v-80h-338v-346h-80v346h-338z" />
<glyph unicode="&#xb2;" horiz-adv-x="659" d="M76 987h518v88h-424v101q0 21 16 31.5t54 23.5l192 78q8 3 30.5 12t29 12t24 10.5t22.5 12t17 13t16 15.5l10 17.5t7.5 22.5t1.5 26v111q0 65 -43 104t-115 39h-188q-72 0 -115 -39t-43 -104v-68h94v59q0 30 18.5 47t51.5 17h174q33 0 52.5 -19t19.5 -49v-88 q0 -21 -16.5 -32t-55.5 -23l-191 -78q-7 -3 -30 -12t-29 -11.5t-24 -11t-22.5 -12.5t-17 -12.5t-16 -15.5t-9.5 -17.5t-7.5 -22.5t-1.5 -26v-199z" />
<glyph unicode="&#xb3;" horiz-adv-x="667" d="M66 1126v62h94v-53q0 -64 69 -64h197q70 0 70 64v114q0 64 -84 64h-183v82h183q43 0 59 14t16 49v94q0 64 -69 64h-178q-72 0 -72 -64v-53h-94v62q0 65 43.5 104t115.5 39h193q72 0 114 -39t42 -104v-103q0 -33 -20 -61.5t-50 -44.5q32 -11 55 -40.5t23 -66.5v-119 q0 -65 -43 -104t-115 -39h-209q-73 0 -115 39t-42 104z" />
<glyph unicode="&#xb4;" horiz-adv-x="1347" d="M518 1610l184 295h125l-249 -295h-60z" />
<glyph unicode="&#xb6;" horiz-adv-x="1380" d="M137 913v265q0 141 78 219t219 78h740v-1475h-99v1386h-137v-1386h-98v616h-406q-141 0 -219 78t-78 219z" />
<glyph unicode="&#xb7;" horiz-adv-x="462" d="M160 590v168h145v-168h-145z" />
<glyph unicode="&#xb8;" horiz-adv-x="1157" d="M346 -342h313q34 0 48 16t14 52v12q0 36 -13.5 51.5t-48.5 15.5h-245l98 195h88l-51 -113h110q152 0 152 -149v-12q0 -150 -152 -150h-210z" />
<glyph unicode="&#xb9;" horiz-adv-x="399" d="M53 1552v84l150 62h78v-713h-95v617z" />
<glyph unicode="&#xba;" horiz-adv-x="768" d="M104 936v356q0 86 50.5 136.5t136.5 50.5h186q86 0 136.5 -50.5t50.5 -136.5v-356q0 -86 -50.5 -136t-136.5 -50h-186q-86 0 -136.5 50t-50.5 136zM121 530v80h526v-80h-526zM188 942q0 -52 29 -84.5t78 -32.5h178q46 0 76.5 33t30.5 84v344q0 51 -30.5 84t-76.5 33h-178 q-49 0 -78 -32.5t-29 -84.5v-344z" />
<glyph unicode="&#xbb;" horiz-adv-x="765" d="M88 295l285 424l-285 426h98l263 -389v-74l-263 -387h-98zM344 295l285 424l-285 426h98l263 -389v-74l-263 -387h-98z" />
<glyph unicode="&#xbc;" horiz-adv-x="1234" d="M53 1327v84l150 62h78v-713h-95v616zM92 0l762 1475h90l-762 -1475h-90zM567 240l398 473h98v-461h115v-86h-115v-166h-94v166h-394zM678 252h291v330z" />
<glyph unicode="&#xbd;" horiz-adv-x="1296" d="M53 1327v84l150 62h78v-713h-95v616zM92 0l762 1475h90l-762 -1475h-90zM713 0h518v88h-424v100q0 15 10 25.5t22.5 16t37.5 14.5l192 78q8 3 30.5 12t29 12t24 10.5t22.5 12t17 13t16 15.5l10 17.5t7.5 22.5t1.5 26v110q0 65 -43 104.5t-115 39.5h-188q-72 0 -115 -39.5 t-43 -104.5v-67h94v59q0 30 18.5 47t51.5 17h174q33 0 52.5 -19t19.5 -49v-88q0 -21 -16.5 -32t-55.5 -23l-191 -78q-7 -3 -30 -12t-29 -11.5t-24 -11t-22.5 -12.5t-17 -12.5t-16 -15.5t-9.5 -17.5t-7.5 -22.5t-1.5 -26v-199z" />
<glyph unicode="&#xbe;" horiz-adv-x="1503" d="M66 901v62h94v-54q0 -63 69 -63h197q70 0 70 63v115q0 63 -84 63h-183v82h183q43 0 59 14.5t16 49.5v94q0 64 -69 64h-178q-72 0 -72 -64v-53h-94v61q0 65 43.5 104.5t115.5 39.5h193q71 0 113.5 -39.5t42.5 -104.5v-102q0 -33 -20 -62t-50 -45q32 -11 55 -40t23 -66 v-119q0 -65 -43 -104t-115 -39h-209q-73 0 -115 39t-42 104zM360 0l762 1475h90l-761 -1475h-91zM836 240l397 473h98v-461h115v-86h-115v-166h-94v166h-393zM946 252h291v330z" />
<glyph unicode="&#xbf;" horiz-adv-x="1136" d="M109 25q0 65 17 111t64 83.5t79.5 55.5t113.5 56q15 7 23 11l43 18q40 17 58 25.5t45.5 26t39.5 33.5t21.5 42t9.5 58v194h98v-194q0 -31 -3.5 -56.5t-12.5 -46.5t-18 -37t-27.5 -31.5t-32.5 -26t-41.5 -24t-46 -22t-54 -24.5t-59.5 -27l-45 -21q-87 -41 -111 -60 q-63 -49 -63 -144v-105q0 -98 51.5 -153.5t147.5 -55.5h364q96 0 147.5 55.5t51.5 153.5v131h98v-131q0 -141 -78 -219t-219 -78h-364q-141 0 -219 78t-78 219v105zM621 907v199h98v-199h-98z" />
<glyph unicode="&#xc0;" horiz-adv-x="1337" d="M72 0l542 1475h111l543 -1475h-107l-166 463h-655l-168 -463h-100zM373 551h592l-295 821zM401 1905h142l184 -295h-70z" />
<glyph unicode="&#xc1;" horiz-adv-x="1337" d="M72 0l542 1475h111l543 -1475h-107l-166 463h-655l-168 -463h-100zM373 551h592l-295 821zM584 1610l184 295h125l-250 -295h-59z" />
<glyph unicode="&#xc2;" horiz-adv-x="1337" d="M72 0l542 1475h111l543 -1475h-107l-166 463h-655l-168 -463h-100zM373 551h592l-295 821zM397 1610l215 239h115l217 -239h-55l-219 159l-217 -159h-56z" />
<glyph unicode="&#xc3;" horiz-adv-x="1337" d="M72 0l542 1475h111l543 -1475h-107l-166 463h-655l-168 -463h-100zM373 551h592l-295 821zM379 1610l41 166q11 46 40 62t81 -7l301 -156l45 158h71l-45 -168q-26 -100 -118 -53l-301 157l-43 -159h-72z" />
<glyph unicode="&#xc4;" horiz-adv-x="1337" d="M72 0l542 1475h111l543 -1475h-107l-166 463h-655l-168 -463h-100zM373 551h592l-295 821zM442 1618v188h129v-188h-129zM768 1618v188h129v-188h-129z" />
<glyph unicode="&#xc5;" horiz-adv-x="1337" d="M72 0l542 1475h111l543 -1475h-107l-166 463h-655l-168 -463h-100zM373 551h592l-295 821zM510 1675v170q0 26 19.5 46t45.5 20h187q26 0 45.5 -20t19.5 -46v-170q0 -26 -19.5 -45.5t-45.5 -19.5h-187q-26 0 -45.5 19.5t-19.5 45.5zM569 1698q0 -10 7.5 -17.5t17.5 -7.5 h149q11 0 18 7.5t7 17.5v125q0 10 -7 17t-18 7h-149q-11 0 -18 -7t-7 -17v-125z" />
<glyph unicode="&#xc6;" horiz-adv-x="1964" d="M31 0l753 1475h1063v-89h-817v-585h723v-88h-723v-625h817v-88h-915v463h-561l-234 -463h-106zM416 551h516v838h-92z" />
<glyph unicode="&#xc7;" horiz-adv-x="1302" d="M174 289v897q0 141 78 219t219 78h389q141 0 219 -78t78 -219v-127h-98v127q0 98 -51.5 153.5t-147.5 55.5h-389q-96 0 -147.5 -55.5t-51.5 -153.5v-897q0 -98 51.5 -153.5t147.5 -55.5h389q96 0 147.5 55.5t51.5 153.5v127h98v-127q0 -141 -78 -219t-219 -78h-137 l-47 -105h110q152 0 152 -149v-12q0 -150 -152 -150h-211l-102 82h313q34 0 48 16t14 52v12q0 36 -13.5 51.5t-48.5 15.5h-245l94 187h-164q-141 0 -219 78t-78 219z" />
<glyph unicode="&#xc8;" horiz-adv-x="1214" d="M209 0v1475h889v-89h-791v-587h674v-88h-674v-623h791v-88h-889zM379 1905l256 -295h70l-185 295h-141z" />
<glyph unicode="&#xc9;" horiz-adv-x="1214" d="M209 0v1475h889v-89h-791v-587h674v-88h-674v-623h791v-88h-889zM561 1610l184 295h125l-249 -295h-60z" />
<glyph unicode="&#xca;" horiz-adv-x="1214" d="M209 0v1475h889v-89h-791v-587h674v-88h-674v-623h791v-88h-889zM375 1610h55l217 159l219 -159h56l-217 239h-115z" />
<glyph unicode="&#xcb;" horiz-adv-x="1214" d="M209 0v1475h889v-89h-791v-587h674v-88h-674v-623h791v-88h-889zM420 1618v188h129v-188h-129zM745 1618v188h129v-188h-129z" />
<glyph unicode="&#xcc;" horiz-adv-x="514" d="M-10 1905l256 -295h69l-184 295h-141zM209 0v1475h98v-1475h-98z" />
<glyph unicode="&#xcd;" horiz-adv-x="514" d="M172 1610l184 295h125l-250 -295h-59zM209 0v1475h98v-1475h-98z" />
<glyph unicode="&#xce;" horiz-adv-x="514" d="M-14 1610h55l217 159l219 -159h55l-217 239h-114zM209 0v1475h98v-1475h-98z" />
<glyph unicode="&#xcf;" horiz-adv-x="514" d="M31 1618v188h129v-188h-129zM209 0v1475h98v-1475h-98zM356 1618v188h129v-188h-129z" />
<glyph unicode="&#xd0;" horiz-adv-x="1363" d="M20 702v89h189v684h686q141 0 219 -78t78 -219v-881q0 -141 -78 -219t-219 -78h-686v702h-189zM307 88h588q96 0 147.5 55.5t51.5 153.5v881q0 98 -51.5 153t-147.5 55h-588v-595h199v-89h-199v-614z" />
<glyph unicode="&#xd1;" horiz-adv-x="1445" d="M209 0v1475h119l815 -1346v1346h96v-1475h-119l-815 1346v-1346h-96zM446 1610h72l43 159l301 -157q93 -48 119 53l45 168h-72l-45 -158l-301 156q-52 23 -81 7t-40 -62z" />
<glyph unicode="&#xd2;" horiz-adv-x="1355" d="M174 289v897q0 141 78 219t219 78h416q141 0 219 -78t78 -219v-897q0 -141 -78 -219t-219 -78h-416q-141 0 -219 78t-78 219zM272 289q0 -98 51.5 -153.5t147.5 -55.5h416q96 0 147 55.5t51 153.5v897q0 98 -51 153.5t-147 55.5h-416q-96 0 -147.5 -55.5t-51.5 -153.5 v-897zM412 1905l256 -295h69l-184 295h-141z" />
<glyph unicode="&#xd3;" horiz-adv-x="1355" d="M174 289v897q0 141 78 219t219 78h416q141 0 219 -78t78 -219v-897q0 -141 -78 -219t-219 -78h-416q-141 0 -219 78t-78 219zM272 289q0 -98 51.5 -153.5t147.5 -55.5h416q96 0 147 55.5t51 153.5v897q0 98 -51 153.5t-147 55.5h-416q-96 0 -147.5 -55.5t-51.5 -153.5 v-897zM594 1610l184 295h125l-250 -295h-59z" />
<glyph unicode="&#xd4;" horiz-adv-x="1355" d="M174 289v897q0 141 78 219t219 78h416q141 0 219 -78t78 -219v-897q0 -141 -78 -219t-219 -78h-416q-141 0 -219 78t-78 219zM272 289q0 -98 51.5 -153.5t147.5 -55.5h416q96 0 147 55.5t51 153.5v897q0 98 -51 153.5t-147 55.5h-416q-96 0 -147.5 -55.5t-51.5 -153.5 v-897zM408 1610h55l217 159l219 -159h55l-217 239h-114z" />
<glyph unicode="&#xd5;" horiz-adv-x="1355" d="M174 289v897q0 141 78 219t219 78h416q141 0 219 -78t78 -219v-897q0 -141 -78 -219t-219 -78h-416q-141 0 -219 78t-78 219zM272 289q0 -98 51.5 -153.5t147.5 -55.5h416q96 0 147 55.5t51 153.5v897q0 98 -51 153.5t-147 55.5h-416q-96 0 -147.5 -55.5t-51.5 -153.5 v-897zM389 1610h72l43 159l301 -157q93 -48 119 53l45 168h-72l-45 -158l-301 156q-52 23 -81 7t-40 -62z" />
<glyph unicode="&#xd6;" horiz-adv-x="1355" d="M174 289v897q0 141 78 219t219 78h416q141 0 219 -78t78 -219v-897q0 -141 -78 -219t-219 -78h-416q-141 0 -219 78t-78 219zM272 289q0 -98 51.5 -153.5t147.5 -55.5h416q96 0 147 55.5t51 153.5v897q0 98 -51 153.5t-147 55.5h-416q-96 0 -147.5 -55.5t-51.5 -153.5 v-897zM453 1618v188h129v-188h-129zM778 1618v188h129v-188h-129z" />
<glyph unicode="&#xd7;" horiz-adv-x="1040" d="M182 397l281 287l-281 281l60 57l280 -281l281 287l59 -59l-280 -287l280 -281l-59 -57l-281 281l-280 -287z" />
<glyph unicode="&#xd8;" horiz-adv-x="1353" d="M174 289v897q0 141 78 219t219 78h414q141 0 219 -78t78 -219v-897q0 -141 -78 -219t-219 -78h-414q-141 0 -219 78t-78 219zM272 289q0 -80 35 -133l672 1222q-43 19 -94 19h-414q-96 0 -147.5 -55.5t-51.5 -153.5v-899zM375 96q41 -18 96 -18h414q95 0 146.5 56.5 t51.5 154.5v901q0 79 -34 131z" />
<glyph unicode="&#xd9;" horiz-adv-x="1357" d="M186 289v1186h99v-1186q0 -98 51 -153.5t147 -55.5h394q96 0 147 55.5t51 153.5v1186h99v-1186q0 -141 -78 -219t-219 -78h-394q-141 0 -219 78t-78 219zM412 1905l256 -295h69l-184 295h-141z" />
<glyph unicode="&#xda;" horiz-adv-x="1357" d="M186 289v1186h99v-1186q0 -98 51 -153.5t147 -55.5h394q96 0 147 55.5t51 153.5v1186h99v-1186q0 -141 -78 -219t-219 -78h-394q-141 0 -219 78t-78 219zM594 1610l184 295h125l-250 -295h-59z" />
<glyph unicode="&#xdb;" horiz-adv-x="1357" d="M186 289v1186h99v-1186q0 -98 51 -153.5t147 -55.5h394q96 0 147 55.5t51 153.5v1186h99v-1186q0 -141 -78 -219t-219 -78h-394q-141 0 -219 78t-78 219zM408 1610h55l217 159l219 -159h55l-217 239h-114z" />
<glyph unicode="&#xdc;" horiz-adv-x="1357" d="M186 289v1186h99v-1186q0 -98 51 -153.5t147 -55.5h394q96 0 147 55.5t51 153.5v1186h99v-1186q0 -141 -78 -219t-219 -78h-394q-141 0 -219 78t-78 219zM453 1618v188h129v-188h-129zM778 1618v188h129v-188h-129z" />
<glyph unicode="&#xdd;" horiz-adv-x="1234" d="M39 1475h117l460 -820l461 820h117l-528 -914v-561h-99v561zM530 1610l185 295h125l-250 -295h-60z" />
<glyph unicode="&#xde;" horiz-adv-x="1298" d="M209 0v1475h98v-297h574q141 0 219 -78t78 -219v-265q0 -141 -78 -219t-219 -78h-574v-319h-98zM307 408h574q96 0 147 55t51 153v265q0 98 -51 153.5t-147 55.5h-574v-682z" />
<glyph unicode="&#xdf;" horiz-adv-x="1142" d="M160 0v1196q0 135 75.5 211t210.5 76h265q135 0 210.5 -76t75.5 -211v-213q0 -76 -42 -136t-95 -87q58 -13 106 -76.5t48 -148.5v-248q0 -135 -76 -211t-211 -76h-291v80h291q91 0 144 57t53 150v248q0 93 -47.5 138.5t-153.5 45.5h-227v82h229q102 0 142 41.5t40 140.5 v213q0 94 -52.5 150.5t-143.5 56.5h-265q-91 0 -142.5 -56.5t-51.5 -150.5v-1196h-92z" />
<glyph unicode="&#xe0;" d="M109 279v94q0 132 77 209t209 77h58q184 -3 405 -34v204q0 94 -50.5 149.5t-141.5 55.5h-236q-91 0 -141.5 -55.5t-50.5 -149.5v-4h-93v4q0 135 75 210t210 75h236q135 0 209.5 -75t74.5 -210v-829h-92v154l-133 -97q-97 -65 -221 -65h-109q-135 0 -210.5 76t-75.5 211z M201 279q0 -94 51.5 -150.5t142.5 -56.5h109q105 0 221 65l133 80v358h-463q-91 0 -142.5 -54.5t-51.5 -147.5v-94zM297 1548l256 -295h70l-185 295h-141z" />
<glyph unicode="&#xe1;" d="M109 279v94q0 132 77 209t209 77h58q184 -3 405 -34v204q0 94 -50.5 149.5t-141.5 55.5h-236q-91 0 -141.5 -55.5t-50.5 -149.5v-4h-93v4q0 135 75 210t210 75h236q135 0 209.5 -75t74.5 -210v-829h-92v154l-133 -97q-97 -65 -221 -65h-109q-135 0 -210.5 76t-75.5 211z M201 279q0 -94 51.5 -150.5t142.5 -56.5h109q105 0 221 65l133 80v358h-463q-91 0 -142.5 -54.5t-51.5 -147.5v-94zM479 1253l185 295h124l-249 -295h-60z" />
<glyph unicode="&#xe2;" d="M109 279v94q0 132 77 209t209 77h58q184 -3 405 -34v204q0 94 -50.5 149.5t-141.5 55.5h-236q-91 0 -141.5 -55.5t-50.5 -149.5v-4h-93v4q0 135 75 210t210 75h236q135 0 209.5 -75t74.5 -210v-829h-92v154l-133 -97q-97 -65 -221 -65h-109q-135 0 -210.5 76t-75.5 211z M201 279q0 -94 51.5 -150.5t142.5 -56.5h109q105 0 221 65l133 80v358h-463q-91 0 -142.5 -54.5t-51.5 -147.5v-94zM293 1253h55l217 160l219 -160h56l-217 240h-115z" />
<glyph unicode="&#xe3;" d="M109 279v94q0 132 77 209t209 77h58q184 -3 405 -34v204q0 94 -50.5 149.5t-141.5 55.5h-236q-91 0 -141.5 -55.5t-50.5 -149.5v-4h-93v4q0 135 75 210t210 75h236q135 0 209.5 -75t74.5 -210v-829h-92v154l-133 -97q-97 -65 -221 -65h-109q-135 0 -210.5 76t-75.5 211z M201 279q0 -94 51.5 -150.5t142.5 -56.5h109q105 0 221 65l133 80v358h-463q-91 0 -142.5 -54.5t-51.5 -147.5v-94zM274 1253h72l43 160l301 -158q93 -48 119 54l45 168h-72l-45 -158l-301 156q-52 23 -81 6.5t-40 -62.5z" />
<glyph unicode="&#xe4;" d="M109 279v94q0 132 77 209t209 77h58q184 -3 405 -34v204q0 94 -50.5 149.5t-141.5 55.5h-236q-91 0 -141.5 -55.5t-50.5 -149.5v-4h-93v4q0 135 75 210t210 75h236q135 0 209.5 -75t74.5 -210v-829h-92v154l-133 -97q-97 -65 -221 -65h-109q-135 0 -210.5 76t-75.5 211z M201 279q0 -94 51.5 -150.5t142.5 -56.5h109q105 0 221 65l133 80v358h-463q-91 0 -142.5 -54.5t-51.5 -147.5v-94zM338 1262v188h129v-188h-129zM664 1262v188h129v-188h-129z" />
<glyph unicode="&#xe5;" d="M109 279v94q0 132 77 209t209 77h58q184 -3 405 -34v204q0 94 -50.5 149.5t-141.5 55.5h-236q-91 0 -141.5 -55.5t-50.5 -149.5v-4h-93v4q0 135 75 210t210 75h236q135 0 209.5 -75t74.5 -210v-829h-92v154l-133 -97q-97 -65 -221 -65h-109q-135 0 -210.5 76t-75.5 211z M201 279q0 -94 51.5 -150.5t142.5 -56.5h109q105 0 221 65l133 80v358h-463q-91 0 -142.5 -54.5t-51.5 -147.5v-94zM406 1319v170q0 26 19.5 45.5t45.5 19.5h186q26 0 46 -19.5t20 -45.5v-170q0 -26 -20 -46t-46 -20h-186q-26 0 -45.5 20t-19.5 46zM465 1341 q0 -11 6.5 -17.5t17.5 -6.5h150q11 0 18 7t7 17v125q0 10 -7 17.5t-18 7.5h-150q-10 0 -17 -7t-7 -18v-125z" />
<glyph unicode="&#xe6;" horiz-adv-x="1822" d="M109 279v94q0 132 77 209t209 77h58q184 -3 405 -34v204q0 94 -50.5 149.5t-141.5 55.5h-236q-91 0 -141.5 -55.5t-50.5 -149.5v-4h-93v4q0 135 75 210t210 75h236q167 0 239 -110q72 110 240 110h258q135 0 211 -76t76 -211v-286h-740v-262q0 -93 52 -148t143 -55h258 q91 0 143.5 55t52.5 148v65h91v-65q0 -135 -76 -211t-211 -76h-258q-104 0 -173.5 45t-97.5 129l-149 -109q-91 -65 -221 -65h-109q-135 0 -210.5 76t-75.5 211zM201 279q0 -94 51.5 -150.5t142.5 -56.5h109q105 0 221 65l133 80v358h-463q-91 0 -142.5 -54.5t-51.5 -147.5 v-94zM950 627h649v200q0 93 -52.5 148t-143.5 55h-258q-91 0 -143 -55t-52 -148v-200z" />
<glyph unicode="&#xe7;" horiz-adv-x="1083" d="M141 279v548q0 135 76 211t211 76h256q135 0 211 -76t76 -211v-45h-92v45q0 93 -52 148t-143 55h-256q-91 0 -143 -55t-52 -148v-548q0 -93 52 -148t143 -55h256q91 0 143 55t52 148v45h92v-45q0 -135 -76 -211t-211 -76h-88l-47 -105h110q152 0 152 -149v-12 q0 -150 -152 -150h-210l-103 82h313q34 0 48 16t14 52v12q0 36 -13.5 51.5t-48.5 15.5h-245l94 187h-80q-135 0 -211 76t-76 211z" />
<glyph unicode="&#xe8;" d="M141 279v548q0 135 76 211t211 76h258q135 0 211 -76t76 -211v-286h-740v-262q0 -93 52 -148t143 -55h258q92 0 144.5 55t52.5 148v65h90v-65q0 -135 -76 -211t-211 -76h-258q-135 0 -211 76t-76 211zM233 627h650v200q0 93 -52.5 148t-144.5 55h-258q-91 0 -143 -55 t-52 -148v-200zM289 1548h141l184 -295h-69z" />
<glyph unicode="&#xe9;" d="M141 279v548q0 135 76 211t211 76h258q135 0 211 -76t76 -211v-286h-740v-262q0 -93 52 -148t143 -55h258q92 0 144.5 55t52.5 148v65h90v-65q0 -135 -76 -211t-211 -76h-258q-135 0 -211 76t-76 211zM233 627h650v200q0 93 -52.5 148t-144.5 55h-258q-91 0 -143 -55 t-52 -148v-200zM471 1253l184 295h125l-250 -295h-59z" />
<glyph unicode="&#xea;" d="M141 279v548q0 135 76 211t211 76h258q135 0 211 -76t76 -211v-286h-740v-262q0 -93 52 -148t143 -55h258q92 0 144.5 55t52.5 148v65h90v-65q0 -135 -76 -211t-211 -76h-258q-135 0 -211 76t-76 211zM233 627h650v200q0 93 -52.5 148t-144.5 55h-258q-91 0 -143 -55 t-52 -148v-200zM285 1253l215 240h114l217 -240h-55l-219 160l-217 -160h-55z" />
<glyph unicode="&#xeb;" d="M141 279v548q0 135 76 211t211 76h258q135 0 211 -76t76 -211v-286h-740v-262q0 -93 52 -148t143 -55h258q92 0 144.5 55t52.5 148v65h90v-65q0 -135 -76 -211t-211 -76h-258q-135 0 -211 76t-76 211zM233 627h650v200q0 93 -52.5 148t-144.5 55h-258q-91 0 -143 -55 t-52 -148v-200zM330 1262v188h129v-188h-129zM655 1262v188h129v-188h-129z" />
<glyph unicode="&#xec;" horiz-adv-x="460" d="M-16 1548l256 -295h69l-184 295h-141zM184 0v1106h92v-1106h-92z" />
<glyph unicode="&#xed;" horiz-adv-x="460" d="M162 1253l184 295h125l-250 -295h-59zM184 0v1106h92v-1106h-92z" />
<glyph unicode="&#xee;" horiz-adv-x="460" d="M-43 1253h55l217 160l220 -160h55l-217 240h-115zM184 0v1106h92v-1106h-92z" />
<glyph unicode="&#xef;" horiz-adv-x="460" d="M2 1264v188h129v-188h-129zM184 0v1106h92v-1106h-92zM328 1264v188h129v-188h-129z" />
<glyph unicode="&#xf0;" horiz-adv-x="1130" d="M141 279v432q0 135 76 210.5t211 75.5h117q120 0 217 -65l133 -96v231q0 23 -5 41.5t-19 33t-25 23t-38 19t-41 15t-50 15.5l-195 56l-143 -131h-100l167 153l-196 58v84l270 -74l137 127h101l-162 -148l125 -34q122 -34 163 -57q98 -52 103 -167v-14v-788 q0 -135 -76 -211t-211 -76h-272q-135 0 -211 76t-76 211zM233 279q0 -93 53 -149t144 -56h270q91 0 143 56t52 149v495l-133 78q-115 68 -217 68h-117q-83 0 -139 -62t-56 -147v-432z" />
<glyph unicode="&#xf1;" horiz-adv-x="1144" d="M168 0v1106h92v-154l133 97q97 65 217 65h92q135 0 211 -76t76 -211v-827h-92v827q0 94 -52 150.5t-143 56.5h-92q-101 0 -217 -65l-133 -80v-889h-92zM285 1253h71l43 160l301 -158q93 -48 119 54l45 168h-71l-45 -158l-302 156q-52 23 -80.5 6.5t-39.5 -62.5z" />
<glyph unicode="&#xf2;" horiz-adv-x="1124" d="M141 279v548q0 135 76 211t211 76h266q135 0 211 -76t76 -211v-548q0 -135 -75 -211t-210 -76h-268q-135 0 -211 76t-76 211zM233 279q0 -93 52 -149t143 -56h268q91 0 143 56t52 149v548q0 93 -52 149t-143 56h-268q-91 0 -143 -56t-52 -149v-548zM297 1548l256 -295h70 l-185 295h-141z" />
<glyph unicode="&#xf3;" horiz-adv-x="1124" d="M141 279v548q0 135 76 211t211 76h266q135 0 211 -76t76 -211v-548q0 -135 -75 -211t-210 -76h-268q-135 0 -211 76t-76 211zM233 279q0 -93 52 -149t143 -56h268q91 0 143 56t52 149v548q0 93 -52 149t-143 56h-268q-91 0 -143 -56t-52 -149v-548zM479 1253l185 295h124 l-249 -295h-60z" />
<glyph unicode="&#xf4;" horiz-adv-x="1124" d="M141 279v548q0 135 76 211t211 76h266q135 0 211 -76t76 -211v-548q0 -135 -75 -211t-210 -76h-268q-135 0 -211 76t-76 211zM233 279q0 -93 52 -149t143 -56h268q91 0 143 56t52 149v548q0 93 -52 149t-143 56h-268q-91 0 -143 -56t-52 -149v-548zM293 1253h55l217 160 l219 -160h56l-217 240h-115z" />
<glyph unicode="&#xf5;" horiz-adv-x="1124" d="M141 279v548q0 135 76 211t211 76h266q135 0 211 -76t76 -211v-548q0 -135 -75 -211t-210 -76h-268q-135 0 -211 76t-76 211zM233 279q0 -93 52 -149t143 -56h268q91 0 143 56t52 149v548q0 93 -52 149t-143 56h-268q-91 0 -143 -56t-52 -149v-548zM274 1253h72l43 160 l301 -158q93 -48 119 54l45 168h-72l-45 -158l-301 156q-52 23 -81 6.5t-40 -62.5z" />
<glyph unicode="&#xf6;" horiz-adv-x="1124" d="M141 279v548q0 135 76 211t211 76h266q135 0 211 -76t76 -211v-548q0 -135 -75 -211t-210 -76h-268q-135 0 -211 76t-76 211zM233 279q0 -93 52 -149t143 -56h268q91 0 143 56t52 149v548q0 93 -52 149t-143 56h-268q-91 0 -143 -56t-52 -149v-548zM338 1262v188h129 v-188h-129zM664 1262v188h129v-188h-129z" />
<glyph unicode="&#xf7;" horiz-adv-x="1040" d="M156 719v78h729v-78h-729zM444 371v178h150v-178h-150zM444 967v178h150v-178h-150z" />
<glyph unicode="&#xf8;" horiz-adv-x="1124" d="M141 279v548q0 135 76 211t211 76h266q135 0 211 -76t76 -211v-548q0 -135 -76 -211t-211 -76h-266q-135 0 -211 76t-76 211zM227 279q0 -86 45 -140l508 875q-40 16 -86 16h-266q-92 0 -146.5 -55.5t-54.5 -147.5v-548zM342 90q47 -14 86 -14h266q92 0 146.5 55.5 t54.5 147.5v548q0 84 -45 138z" />
<glyph unicode="&#xf9;" horiz-adv-x="1144" d="M156 279v827h92v-827q0 -94 51.5 -150.5t142.5 -56.5h93q60 0 108.5 16t108.5 49l133 80v889h92v-1106h-92v154l-133 -97q-97 -65 -217 -65h-93q-135 0 -210.5 76t-75.5 211zM299 1548l256 -295h70l-185 295h-141z" />
<glyph unicode="&#xfa;" horiz-adv-x="1144" d="M156 279v827h92v-827q0 -94 51.5 -150.5t142.5 -56.5h93q60 0 108.5 16t108.5 49l133 80v889h92v-1106h-92v154l-133 -97q-97 -65 -217 -65h-93q-135 0 -210.5 76t-75.5 211zM481 1253l185 295h125l-250 -295h-60z" />
<glyph unicode="&#xfb;" horiz-adv-x="1144" d="M156 279v827h92v-827q0 -94 51.5 -150.5t142.5 -56.5h93q60 0 108.5 16t108.5 49l133 80v889h92v-1106h-92v154l-133 -97q-97 -65 -217 -65h-93q-135 0 -210.5 76t-75.5 211zM295 1253h55l217 160l219 -160h56l-217 240h-115z" />
<glyph unicode="&#xfc;" horiz-adv-x="1144" d="M156 279v827h92v-827q0 -94 51.5 -150.5t142.5 -56.5h93q60 0 108.5 16t108.5 49l133 80v889h92v-1106h-92v154l-133 -97q-97 -65 -217 -65h-93q-135 0 -210.5 76t-75.5 211zM340 1262v188h129v-188h-129zM666 1262v188h129v-188h-129z" />
<glyph unicode="&#xfd;" horiz-adv-x="958" d="M45 1106h105l339 -997l332 997h94l-505 -1493h-86l129 389zM395 1253l185 295h125l-250 -295h-60z" />
<glyph unicode="&#xfe;" horiz-adv-x="1159" d="M168 -387v1911h92v-572l133 97q97 65 217 65h119q135 0 211 -76t76 -211v-548q0 -135 -76 -211t-211 -76h-119q-120 0 -217 65l-133 97v-541h-92zM260 217l133 -80q60 -33 108.5 -49t108.5 -16h119q91 0 144 57t53 150v548q0 93 -53 150t-144 57h-119q-60 0 -108.5 -16 t-108.5 -49l-133 -80v-672z" />
<glyph unicode="&#xff;" horiz-adv-x="958" d="M45 1106h105l339 -997l332 997h94l-505 -1493h-86l129 389zM254 1262v188h129v-188h-129zM580 1262v188h129v-188h-129z" />
<glyph unicode="&#x152;" horiz-adv-x="2025" d="M174 297v881q0 141 78 219t219 78h1438v-89h-809v-581h721v-88h-721v-629h809v-88h-1438q-141 0 -219 78t-78 219zM272 297q0 -98 51.5 -153.5t147.5 -55.5h498q32 0 32 31v1237q0 30 -32 30h-498q-96 0 -147.5 -55t-51.5 -153v-881z" />
<glyph unicode="&#x153;" horiz-adv-x="1855" d="M141 279v548q0 135 76 211t211 76h266q169 0 242 -115q73 115 242 115h258q135 0 210.5 -76t75.5 -211v-286h-739v-262q0 -93 52 -148t143 -55h258q91 0 143.5 55t52.5 148v65h90v-65q0 -135 -75.5 -211t-210.5 -76h-258q-169 0 -242 112q-73 -112 -240 -112h-268 q-135 0 -211 76t-76 211zM233 279q0 -93 52 -149t143 -56h268q91 0 143 56t52 149v548q0 93 -52 149t-143 56h-268q-91 0 -143 -56t-52 -149v-548zM983 627h649v200q0 93 -52.5 148t-143.5 55h-258q-91 0 -143 -55t-52 -148v-200z" />
<glyph unicode="&#x178;" horiz-adv-x="1234" d="M39 1475h117l460 -820l461 820h117l-528 -914v-561h-99v561zM389 1618v188h129v-188h-129zM715 1618v188h129v-188h-129z" />
<glyph unicode="&#x2c6;" horiz-adv-x="1351" d="M403 1610h56l217 159l219 -159h55l-217 239h-115z" />
<glyph unicode="&#x2dc;" horiz-adv-x="1249" d="M334 1610h72l43 159l301 -157q92 -47 118 53l45 168h-71l-45 -158l-301 156q-52 23 -81 7t-40 -62z" />
<glyph unicode="&#x2000;" horiz-adv-x="955" />
<glyph unicode="&#x2001;" horiz-adv-x="1911" />
<glyph unicode="&#x2002;" horiz-adv-x="955" />
<glyph unicode="&#x2003;" horiz-adv-x="1911" />
<glyph unicode="&#x2004;" horiz-adv-x="637" />
<glyph unicode="&#x2005;" horiz-adv-x="477" />
<glyph unicode="&#x2006;" horiz-adv-x="318" />
<glyph unicode="&#x2007;" horiz-adv-x="318" />
<glyph unicode="&#x2008;" horiz-adv-x="238" />
<glyph unicode="&#x2009;" horiz-adv-x="382" />
<glyph unicode="&#x200a;" horiz-adv-x="106" />
<glyph unicode="&#x2010;" horiz-adv-x="841" d="M139 629v96h563v-96h-563z" />
<glyph unicode="&#x2011;" horiz-adv-x="841" d="M139 629v96h563v-96h-563z" />
<glyph unicode="&#x2012;" horiz-adv-x="841" d="M139 629v96h563v-96h-563z" />
<glyph unicode="&#x2013;" horiz-adv-x="1138" d="M139 631v92h860v-92h-860z" />
<glyph unicode="&#x2014;" horiz-adv-x="1669" d="M139 633v86h1391v-86h-1391z" />
<glyph unicode="&#x2018;" horiz-adv-x="440" d="M156 1071v127q0 8 1.5 17t3 16.5t5.5 18.5t6.5 18t9 21t10 21l12.5 25t13 27l53 113h52l-103 -244h66v-160h-129z" />
<glyph unicode="&#x2019;" horiz-adv-x="440" d="M119 1071l102 244h-65v160h129v-127q0 -11 -2.5 -23.5t-5 -21.5t-10 -26.5t-11.5 -25.5t-16 -32.5t-17 -34.5l-53 -113h-51z" />
<glyph unicode="&#x201a;" horiz-adv-x="440" d="M119 -244l102 244h-65v160h129v-127q0 -11 -2.5 -23.5t-5 -21.5t-10 -26.5t-11.5 -25.5t-16 -32.5t-17 -34.5l-53 -113h-51z" />
<glyph unicode="&#x201c;" horiz-adv-x="710" d="M156 1071v127q0 8 1.5 17t3 16.5t5.5 18.5t6.5 18t9 21t10 21l12.5 25t13 27l53 113h52l-103 -244h66v-160h-129zM426 1071v127q0 8 1.5 17t3 16.5t5.5 18.5t6.5 18t9 21t10 21l12.5 25t13 27l54 113h51l-103 -244h66v-160h-129z" />
<glyph unicode="&#x201d;" horiz-adv-x="708" d="M119 1071l102 244h-65v160h129v-127q0 -11 -2.5 -23.5t-5 -21.5t-10 -26.5t-11.5 -25.5t-16 -32.5t-17 -34.5l-53 -113h-51zM387 1071l102 244h-65v160h129v-127q0 -8 -1.5 -17t-3 -16.5t-5.5 -18.5t-6.5 -18t-9 -21t-10 -21l-12.5 -25t-13 -27l-54 -113h-51z" />
<glyph unicode="&#x201e;" horiz-adv-x="440" d="M119 -244l102 244h-65v160h129v-127q0 -11 -2.5 -23.5t-5 -21.5t-10 -26.5t-11.5 -25.5t-16 -32.5t-17 -34.5l-53 -113h-51z" />
<glyph unicode="&#x2022;" horiz-adv-x="876" d="M285 686v152q0 32 22.5 54.5t54.5 22.5h154q32 0 55 -22.5t23 -54.5v-152q0 -32 -23 -55t-55 -23h-154q-32 0 -54.5 23t-22.5 55z" />
<glyph unicode="&#x2026;" horiz-adv-x="1288" d="M156 0v160h129v-160h-129zM580 0v160h129v-160h-129zM1004 0v160h129v-160h-129z" />
<glyph unicode="&#x202f;" horiz-adv-x="382" />
<glyph unicode="&#x2039;" horiz-adv-x="509" d="M66 682v74l262 389h98l-285 -426l285 -424h-98z" />
<glyph unicode="&#x203a;" horiz-adv-x="509" d="M82 295l285 424l-285 426h98l262 -389v-74l-262 -387h-98z" />
<glyph unicode="&#x205f;" horiz-adv-x="477" />
<glyph unicode="&#x20ac;" horiz-adv-x="1353" d="M86 514v88h172v293h-172v88h172v203q0 141 78 219t219 78h350q141 0 219 -78t78 -219v-142h-98v142q0 98 -51.5 153.5t-147.5 55.5h-350q-96 0 -147.5 -55.5t-51.5 -153.5v-203h576v-88h-576v-293h576v-88h-576v-225q0 -98 51.5 -153.5t147.5 -55.5h350q96 0 147.5 55.5 t51.5 153.5v141h98v-141q0 -141 -78 -219t-219 -78h-350q-141 0 -219 78t-78 219v225h-172z" />
<glyph unicode="&#x2122;" horiz-adv-x="1529" d="M117 1413v62h510v-62h-219v-676h-72v676h-219zM756 737v738h80l249 -547l246 547h82v-738h-65v652l-232 -537h-59l-236 537v-652h-65z" />
<glyph unicode="&#x25fc;" d="M0 0v1106h1106v-1106h-1106z" />
</font>
</defs>
</svg>
